<svg xmlns="http://www.w3.org/2000/svg" fill="none" viewBox="0 0 400 400" id="Delete--Streamline-Tokyo.svg" height="400" width="400"><desc>Delete Streamline Illustration: https://streamlinehq.com</desc><path fill="#ffffff" fill-rule="evenodd" d="M228.9748 27.672C230.6638 26.662 232.6972 26.4008 234.5864 26.9516C234.4942 25.7904 235.1008 24.6852 236.13 24.1396C238.243 23.0708 240.8224 23.917 241.8914 26.03C242.2322 26.7012 242.3902 27.4504 242.3492 28.2016C243.5538 27.4158 245.1452 27.5876 246.1544 28.612C247.3196 29.6308 247.9692 31.1166 247.9258 32.6638S248.9274 31.5842 250.5468 33.0394C251.514 33.9544 251.9932 35.2718 251.84 36.5944S252.7758 36.0402 254.032 37.2492C255.2882 38.456 256.883 46.1776 251.2098 44.903L228.9748 27.672Z" clip-rule="evenodd" stroke-width="1"></path><path fill="#3b9945" fill-rule="evenodd" d="M156.7712 242.22C156.7712 215.6338 191.7934 194.0454 234.9354 194.0454C278.0774 194.0454 313.0974 215.6338 313.0974 242.22C312.8552 251.6626 311.8718 261.0716 310.1562 270.3602C306.9156 278.3388 301.6008 285.3062 294.7622 290.5404L295.378 290.5774L279.5244 350.2544S269.7666 395.336 229.1248 394.9872C190.9026 394.6566 182.789 350.2566 182.789 350.2566L167.5572 282.509C161.6706 276.92 158.7314 271.3494 158.1936 267.2792C157.2048 258.9634 156.7298 250.5944 156.7712 242.22Z" clip-rule="evenodd" stroke-width="1"></path><path fill="#3b9945" d="M235.1694 282.0984C273.841 282.0984 305.1912 263.5026 305.1912 240.5616C305.1912 217.6206 273.8368 199.0206 235.1694 199.0206C196.502 199.0206 165.1476 217.6186 165.1476 240.5576C165.1476 263.4964 196.4978 282.0984 235.1694 282.0984Z" stroke-width="1"></path><path fill="#ffffff" fill-rule="evenodd" d="M243.088 248.7882S259.4754 245.5616 267.9236 222.5302L294.2122 229.283S284.6024 251.4728 272.3632 259.958C272.357 259.958 253.0632 257.616 243.088 248.7882Z" clip-rule="evenodd" stroke-width="1"></path><path fill="#000000" fill-rule="evenodd" d="M249.461 249.6358S264.3276 241.278 269.6106 225.5762L290.019 231.2472C285.241 240.7024 279.0074 249.3484 271.5462 256.8688C263.8596 255.5944 256.4124 253.1554 249.461 249.6358Z" clip-rule="evenodd" stroke-width="1"></path><path fill="#ffffff" fill-rule="evenodd" d="M271.5298 256.834S266.7372 248.8168 267.2194 246.9572C267.7018 245.0976 281.8704 244.5456 281.8704 244.5456S276.384 237.5362 276.8786 235.381C277.3734 233.226 290.0148 231.2124 290.0148 231.2124S282.365 247.4416 271.5298 256.834Z" clip-rule="evenodd" stroke-width="1"></path><path fill="#ffffff" fill-rule="evenodd" d="M285.7578 125.7744S302.7938 118.1554 308.159 100.5674C308.159 100.5674 311.829 117.5828 311.5868 128.8038C311.5868 128.8038 303.4014 146.8046 284.3436 152.494C284.3436 152.494 286.7184 134.1958 285.7578 125.7744Z" clip-rule="evenodd" stroke-width="1"></path><path fill="#ffffff" fill-rule="evenodd" d="M191.463 272.702C183.3666 269.0692 176.3222 263.445 170.987 256.3538C183.2754 241.67 205.5104 236.3888 205.5104 236.3888S208.9218 251.6124 212.0456 258.1456L191.463 272.702Z" clip-rule="evenodd" stroke-width="1"></path><path fill="#000000" fill-rule="evenodd" d="M223.8436 128.3442C223.2462 127.7284 213.8602 122.1866 212.7764 123.024C211.6926 123.8594 201.9596 147.7548 204.7202 151.4596C207.4808 155.1644 235.3726 169.8624 240.5224 169.5402C244.0362 169.3186 252.8108 147.6748 252.197 146.3468C251.415 144.6718 236.409 134.3784 224.0282 129.7624C224.255 129.2958 224.1824 128.739 223.8436 128.3462Z" clip-rule="evenodd" stroke-width="1"></path><path fill="#000000" fill-rule="evenodd" d="M245.8506 190.9666C245.157 190.6258 244.6952 190.4206 244.6952 190.4206C243.9768 190.6258 235.9042 195.8412 236.091 197.1734C236.2778 198.5054 250.358 218.5196 254.305 218.0044C258.252 217.4892 279.3992 201.2948 281.2814 196.7752C282.5662 193.6964 270.169 175.2586 268.917 175.1272C267.3242 174.9692 254.461 182.7564 245.8508 190.9666Z" clip-rule="evenodd" stroke-width="1"></path><path fill="#3b9945" fill-rule="evenodd" d="M166.767 9.8192C168.53 8.0226 170.52 6.4638 172.6866 5.1826C175.1446 4.864 177.6432 5.1776 179.9462 6.094C197.7806 9.9342 220.4384 18.9366 244.4858 38.6694C269.04 58.8252 285.1688 86.8422 286.2238 94.9804C286.3244 95.4524 286.3264 95.941 286.232 96.413C286.1394 96.8862 285.9508 97.3354 285.6778 97.7328S283.0342 100.0132 281.4352 101.374C272.556 108.9232 224.8924 73.236 215.806 65.9804C184.1642 40.722 162.19 15.552 166.767 9.8192Z" clip-rule="evenodd" stroke-width="1"></path><path fill="#ffffff" fill-rule="evenodd" d="M245.8528 68.8416C245.934 76.6826 243.6038 84.3592 239.178 90.8322S248.1804 106.2466 248.1906 118.6336C255.4336 113.6558 261.0854 106.6926 264.467 98.5806S259.5594 77.7782 245.8528 68.8394Z" clip-rule="evenodd" stroke-width="1"></path><path fill="#000000" fill-rule="evenodd" d="M247.9894 73.3016S245.0666 87.8418 242.1234 91.2448C242.1234 91.2448 249.3072 103.5188 249.8982 114.8694C249.8982 114.8694 258.6132 107.1046 262.2278 98.6708C262.2278 98.6708 256.801 83.3446 247.9894 73.3016Z" clip-rule="evenodd" stroke-width="1"></path><path fill="#3b9945" fill-rule="evenodd" d="M242.1234 91.2468S248.1988 88.7838 248.9582 90.4012C249.7176 92.0186 247.4948 98.3444 246.6718 100.8814C246.6718 100.8814 255.2472 99.4446 255.785 101.766C256.3226 104.0874 253.1166 110.477 249.8982 114.8714C250.0954 108.25 242.1234 91.2468 242.1234 91.2468Z" clip-rule="evenodd" stroke-width="1"></path><path fill="#ffffff" fill-rule="evenodd" d="M124.7828 336.3734C127.5244 338.5956 130.881 339.925 134.4008 340.1828L139.1934 333.7338C137.3222 331.8914 135.2514 330.2632 133.0196 328.8796C130.1994 327.334 124.7828 336.3734 124.7828 336.3734Z" clip-rule="evenodd" stroke-width="1"></path><path fill="#ffffff" fill-rule="evenodd" d="M136.4348 321.2422C139.1762 323.4652 142.533 324.7948 146.053 325.0516L150.8476 318.6046C148.9758 316.7628 146.9052 315.1348 144.6738 313.7504C141.8598 312.2028 136.4348 321.2422 136.4348 321.2422Z" clip-rule="evenodd" stroke-width="1"></path><path fill="#ffffff" fill-rule="evenodd" d="M121.6752 336.4206C121.075 338.859 121.1588 341.4156 121.9174 343.8096L125.9752 345.4968L127.7322 344.961C128.9994 345.8212 130.087 346.92 130.9342 348.1958C131.8082 350.827 133.8648 352.8964 136.4904 353.787C140.427 355.1518 155.429 356.2336 159.4662 352.6642C162.229 350.2238 158.245 347.9824 158.245 347.9824C157.0312 344.9654 154.7938 342.4722 151.9252 340.9402C147.2476 338.5756 144.2674 338.4032 141.7838 336.0346C140.6344 334.9386 139.1422 333.6682 137.7814 332.5002C137.7814 332.5002 132.4572 335.386 132.5946 337.5536C132.569 338.7168 133.2934 339.7648 134.3906 340.152C131.8188 340.2506 128.9166 338.6064 125.8644 336.318L121.6752 336.4206Z" clip-rule="evenodd" stroke-width="1"></path><path fill="#ffffff" fill-rule="evenodd" d="M135.2218 328.0114C135.0104 325.6272 135.4998 323.233 136.6298 321.123C139.1642 322.9984 142.0586 324.3302 145.1314 325.0352C144.4684 324.0982 144.0886 322.9902 144.0374 321.8434C144.1318 320.3862 150.78 318.3952 150.78 318.3952S154.7044 319.5468 158.5016 325.579C161.375 330.1398 169.928 330.072 171.0486 336.56C171.0486 338.5346 172.5448 342.4324 169.889 343.1856C166.794 344.0042 163.5422 344.0254 160.437 343.2472C153.8362 341.7816 149.7228 338.0892 145.0924 334.1442C144.3618 333.6968 142.4242 332.0692 141.8926 332.1204C140.7728 332.3058 139.7048 332.7256 138.7584 333.352C136.9534 332.0762 135.6918 330.171 135.2218 328.0114Z" clip-rule="evenodd" stroke-width="1"></path><path fill="#ffffff" fill-rule="evenodd" d="M199.8352 69.1124C202.859 66.2408 206.109 63.6174 209.554 61.2678S225.0094 73.3284 225.0238 73.195C225.0382 73.0616 217.883 84.9662 211.7542 87.5462C211.7542 87.5462 199.4924 71.9532 199.8352 69.1146Z" clip-rule="evenodd" stroke-width="1"></path><path fill="#000000" fill-rule="evenodd" d="M149.9036 198.4992C149.9036 195.2502 91.1686 196.3646 91.1686 196.3646S92.3672 236.1014 98.5884 250.662C104.8096 265.2226 107.5456 263.4944 108.0486 276.7762C108.5514 290.0582 105.4604 294.1796 108.03 301.7514S113.1346 310.1832 113.2024 315.6942C113.2702 321.2052 112.4368 325.5134 114.7438 329.1196C116.245 331.3998 118.0822 333.4398 120.1934 335.1706C122.5824 337.648 130.4334 337.6336 132.572 333.7686C133.8412 331.5508 133.9022 328.8412 132.7342 326.5684C132.8554 326.3632 136.2646 323.7852 136.2378 320.2282C136.2378 320.2282 150.901 319.3558 150.3264 313.6602C150.0226 310.6306 147.1962 313.1654 146.7838 308.849C146.3712 304.5326 150.0574 304.3806 149.8482 298.5658C149.6388 292.751 146.5866 282.821 146.9582 276.8954C147.3296 270.9698 151.213 266.4932 151.605 260.6804C151.9972 254.8676 151.564 256.1506 150.9318 247.6182S149.9036 201.7484 149.9036 198.5014Z" clip-rule="evenodd" stroke-width="1"></path><path fill="#ffffff" fill-rule="evenodd" d="M151.917 195.6156C140.6692 205.4246 140.6466 205.1434 128.9966 206.262C102.6956 208.7886 85.8506 193.0806 86.9814 191.9928C88.7118 190.3302 90.3312 172.1388 89.8672 166.6934C89.4034 161.248 96.187 147.0446 95.1668 141.5418C94.0812 135.6818 92.7346 131.4844 91.9074 124.3396S98.0466 109.5184 100.3228 105.9572C102.599 102.3962 110.2796 98.5846 113.4076 97.7964C116.5356 97.0082 117.2192 96.9118 118.5492 95.5264C121.587 92.3676 120.532 93.17 125.9834 90.6516C127.683 85.9308 134.1936 84.843 134.1936 84.843L180.17 78.4802C182.1654 76.6646 184.554 75.3356 187.1486 74.5968C191.6786 73.2278 192.5918 79.3956 194.277 74.4654C195.9622 69.5352 199.3898 68.8272 199.8372 69.0734C200.2848 69.3198 209.558 76.9182 208.5912 81.3886C208.113 83.595 210.5474 85.354 211.3006 87.5646C212.0538 89.7752 212.7496 91.3084 211.8198 91.6102C210.0116 92.5274 208.3164 93.6522 206.7686 94.9618C203.462 97.3222 203.1336 98.9356 201.0216 100.2984C198.9096 101.6614 198.9876 104.7852 197.2284 108.098C195.4694 111.4108 187.9922 109.9228 184.3324 112.5396C180.6728 115.1566 181.5328 115.5138 178.569 120.7786C175.6052 126.0432 169.811 127.8104 167.822 126.9832C165.8332 126.1562 165.4492 124.7008 163.0498 126.5728C160.7778 128.342 161.217 130.6326 160.9974 133.8388C160.7718 137.8288 159.852 141.749 158.2798 145.4232C156.7806 148.983 155.6586 152.6904 154.9322 156.4842C154.3164 159.4378 155.5028 168.9718 152.8796 172.9146C152.617 177.7524 151.917 190.8084 151.917 195.6154Z" clip-rule="evenodd" stroke-width="1"></path><path fill="#000000" fill-rule="evenodd" d="M145.39 112.8434C145.2624 116.153 144.7162 119.433 143.7644 122.6052S145.4762 146.7348 144.3022 157.0116C142.1174 154.3672 139.6322 151.986 136.8968 149.9162C136.4986 139.243 137.5536 122.4514 137.5536 122.4514C136.7244 119.1246 135.9198 115.792 135.1398 112.4536L145.39 112.8434Z" clip-rule="evenodd" stroke-width="1"></path><path fill="#ffffff" fill-rule="evenodd" d="M132.453 188.1834C131.5062 187.4888 130.7236 186.5946 130.1604 185.5644C132.2396 172.8716 148.6966 170.392 150.2176 171.718C156.9354 174.9676 163.4168 178.685 169.614 182.8426C175.5272 187.3582 181.3132 190.7222 186.6498 189.3984C191.9864 188.0746 192.2758 185.4576 196.3562 184.3082C198.5686 183.933 200.5212 182.6442 201.7358 180.7574C202.834 179.575 203.7062 177.268 205.451 178.1096C207.1956 178.951 206.4772 182.738 204.3692 184.4908C202.2614 186.2416 198.7864 188.1976 201.0278 192.6558C203.2692 197.1118 205.9414 198.2284 210.5228 199.0842C215.104 199.9402 218.1684 199.3224 218.037 201.9598C217.9056 204.5952 210.962 206.5206 203.1994 202.588C205.3296 204.5592 208.0022 205.8462 210.8716 206.2824C216.1958 207.3456 218.1252 206.656 219.6276 208.7762C221.1302 210.8966 216.8034 214.123 203.8704 209.7224C206.3238 211.1574 208.9156 212.3416 211.6064 213.257C215.0958 214.2832 214.8618 215.3094 214.4944 216.0586C214.127 216.8078 212.8318 217.2902 209.7366 216.4896C208.195 216.1304 206.6932 215.6174 205.254 214.9584S208.304 216.3378 207.7868 218.1008C207.2694 219.864 202.4318 218.612 198.224 215.0816C194.0852 211.5932 190.0608 207.9714 186.1572 204.2218C182.2288 200.4698 181.8284 201.7034 179.4598 201.0854C177.1482 200.1208 174.7164 199.4746 172.2308 199.1644C167.1468 198.4768 143.906 195.3938 136.591 189.8192C135.1054 189.5946 133.6904 189.0352 132.453 188.1834Z" clip-rule="evenodd" stroke-width="1"></path><path fill="#ffffff" fill-rule="evenodd" d="M136.5684 84.1842S134.2428 86.2222 131.0634 81.875C128.9226 78.9482 127.408 71.9984 131.2974 69.2316C131.2974 69.2316 130.887 60.2004 132.6296 56.6024C133.573 54.3078 134.721 52.1028 136.0592 50.0138C137.9066 47.5096 139.565 47.5876 142.5308 46.2104C144.3366 45.1068 146.201 44.1024 148.1158 43.2014C152.188 41.582 155.4598 41.619 161.9374 43.3964S172.8816 47.5404 177.1076 58.113C179.622 66.865 178.5936 69.059 178.5936 69.059C179.8252 72.9918 182.0542 80.2474 180.1556 84.1512C177.3724 89.8798 176.7854 85.9268 176.2558 92.2648S175.6134 99.7854 169.6426 104.6006C163.6718 109.4158 164.579 112.32 158.7642 112.8106C156.3812 113.0158 152.4692 110.2962 148.6268 106.69C147.1244 109.5236 144.6316 111.7052 141.6236 112.8188C134.765 108.4174 130.3754 101.0468 129.7724 92.9196L136.5682 84.184Z" clip-rule="evenodd" stroke-width="1"></path><path fill="#00030b" fill-rule="evenodd" d="M150.4228 75.188C143.8096 77.1234 143.6392 81.6472 143.6392 81.6472L140.1314 80.465S140.9832 79.6254 139.879 74.5312C137.9702 65.7216 131.2974 69.2316 131.2974 69.2316S130.887 60.2004 132.6296 56.6024C133.574 54.3082 134.7218 52.1032 136.0592 50.0138C137.9066 47.5096 139.565 47.5876 142.5308 46.2104C144.3364 45.1068 146.2008 44.1022 148.1158 43.2014C152.188 41.582 155.4598 41.619 161.9374 43.3964S172.8816 47.5404 177.1076 58.113C177.1076 58.113 189.628 57.1114 187.8546 67.965C186.8592 74.0344 180.0284 78.1374 183.5116 81.8072C183.5116 81.8072 185.8944 85.471 187.1054 82.6282C187.1054 82.6282 186.1818 91.8194 179.7164 84.9908C182.3292 77.4148 178.8358 72.8418 178.6696 69.3218C178.4644 65.0464 172.9882 69.1536 172.9882 69.1536C165.5992 64.8698 160.8414 68.3018 157.2392 75.9618C153.8834 83.0922 145.6384 82.618 145.6384 82.618C149.6592 78.79 150.039 77.5278 150.4228 75.188Z" clip-rule="evenodd" stroke-width="1"></path><path fill="#00030b" d="M166.1574 98.7344C165.424 98.4408 165.2836 97.4634 165.9046 96.975C166.2106 96.7342 166.6266 96.6876 166.9784 96.8544C168.5486 97.546 169.1378 97.0884 169.3326 96.9386C171.0138 95.629 170.831 90.2884 170.318 87.2322C170.224 86.6726 170.6018 86.143 171.1614 86.0498C171.7212 85.9498 172.2538 86.3296 172.3416 86.8914C173.4808 93.6524 172.4422 101.4868 166.1574 98.7344Z" stroke-width="1"></path><path fill="#00030b" d="M158.52 99.6416C158.5946 99.0856 159.0944 98.6874 159.653 98.7386C160.1754 98.7964 160.5696 99.2394 160.5664 99.7648C161.4532 101.0518 162.8064 101.9426 164.339 102.2484C165.2036 102.4442 166.0934 102.044 166.5208 101.2672C166.9572 100.6088 167.9428 100.6696 168.295 101.3768C168.4502 101.6884 168.4366 102.0576 168.2592 102.3572C165.2872 107.1006 158.245 102.113 158.52 99.6416Z" stroke-width="1"></path><path fill="#00030b" d="M173.6594 83.8394C172.8694 83.8382 172.377 82.9822 172.773 82.2986C172.887 82.1018 173.063 81.9486 173.2736 81.8628C175.9644 80.7544 180.5908 79.6254 181.5884 82.3862C181.8358 83.1364 181.1784 83.8732 180.4048 83.7124C180.0662 83.642 179.7858 83.4058 179.659 83.084C179.6344 83.0142 179.5932 82.9342 179.4168 82.8582C177.5774 82.6508 175.717 82.9644 174.0474 83.7634C173.9242 83.8136 173.7924 83.8394 173.6594 83.8394Z" stroke-width="1"></path><path fill="#00030b" d="M169.1582 83.2934C168.9684 83.2934 168.7822 83.2408 168.6204 83.1414C163.44 79.9498 159.772 82.3204 159.7352 82.3492C159.0778 82.7884 158.1916 82.3514 158.1398 81.5626C158.1158 81.1964 158.2888 80.8454 158.594 80.6414C158.789 80.5142 163.407 77.5216 169.698 81.3926C170.3712 81.8062 170.3442 82.7934 169.6494 83.1696C169.4986 83.2512 169.3298 83.2938 169.1582 83.2934Z" stroke-width="1"></path><path fill="#00030b" d="M126.5848 177.2722C125.7948 177.2702 125.3032 176.4138 125.6998 175.7306C125.7286 175.6808 125.7618 175.6334 125.7988 175.589C126.1354 175.1868 134.1854 165.7842 146.3998 167.6746C147.182 167.7962 147.5392 168.719 147.0428 169.3354C146.8124 169.6216 146.4468 169.763 146.0838 169.7066C135.0146 167.9784 127.4448 176.8206 127.371 176.9068C127.1758 177.1386 126.888 177.2724 126.5848 177.2722Z" stroke-width="1"></path><path fill="#00030b" d="M142.3872 166.0776C142.1208 166.0782 141.8648 165.9752 141.673 165.7904C136.3856 160.6446 125.419 161.049 125.3062 161.0696C124.7418 161.0848 124.2676 160.648 124.2368 160.0842C124.2136 159.5188 124.6524 159.0414 125.2178 159.017C125.7002 158.9964 137.1902 158.5654 143.1036 164.3186C143.6676 164.8718 143.4214 165.828 142.6604 166.04C142.5714 166.0648 142.4796 166.0774 142.3872 166.0776Z" stroke-width="1"></path><path fill="#00030b" d="M117.8986 184.6858C105.452 183.2902 95.0478 171.5496 94.6106 171.0592C94.0676 170.4854 94.3492 169.5388 95.1178 169.3554C95.5024 169.2636 95.9056 169.401 96.1542 169.7086C96.2568 169.8214 106.4804 181.3402 118.1162 182.6394C118.9008 182.7754 119.2442 183.7096 118.7342 184.3212C118.526 184.5708 118.2128 184.7082 117.8884 184.692L117.8986 184.6858Z" stroke-width="1"></path><path fill="#00030b" d="M188.8994 97.0514C188.3924 97.051 187.9616 96.6804 187.8854 96.179C186.816 89.1348 190.759 81.7232 190.9334 81.4132C191.3086 80.718 192.2958 80.6898 192.7102 81.3622C192.9026 81.6744 192.9138 82.0654 192.7396 82.3882C192.7028 82.458 188.9508 89.5146 189.9134 95.8732C190.0062 96.4932 189.5262 97.0508 188.8994 97.0514Z" stroke-width="1"></path><path fill="#00030b" d="M151.3486 313.5842C151.2694 312.7982 150.3692 312.3924 149.728 312.8538C149.4304 313.068 149.2696 313.4246 149.3062 313.7894C149.6674 317.3402 140.7862 318.7976 137.1964 319.1424C136.899 317.0348 136.0334 315.0482 134.6922 313.3954C133.5186 311.487 133.1392 309.1948 133.6352 307.01C133.6968 303.525 133.0814 300.0614 131.8228 296.811C131.1034 294.7068 130.8552 292.47 131.0962 290.2594C131.2012 289.41 131.2012 288.5512 131.0962 287.7018C129.834 272.5994 130.772 266.4028 131.7982 263.864C134.6512 256.8012 131.8824 246.1116 131.8722 239.2336C131.8722 233.4578 131.8024 218.1174 137.7012 210.8226C138.1982 210.208 137.8434 209.286 137.0626 209.163C136.7004 209.1058 136.335 209.2464 136.1044 209.5316C129.7416 217.3948 129.8094 233.265 129.8196 239.2378C129.8298 246.011 132.4878 256.6842 129.8936 263.084C128.2822 267.0802 128.0154 275.4154 129.052 287.864C129.1484 288.5968 129.1484 289.3378 129.052 290.0704C128.7894 292.5414 129.0652 295.0398 129.8606 297.3938C131.0368 300.4194 131.6238 303.6418 131.5868 306.8888C131.036 309.5588 131.5636 312.3382 133.0544 314.6206C134.6292 316.4418 135.373 318.837 135.107 321.2298C134.556 323.0054 133.504 324.584 132.0774 325.7762C131.6808 326.096 131.5808 326.6592 131.8434 327.096C132.8288 329.0544 132.7626 331.3772 131.667 333.276C130.599 334.7696 128.9018 335.6868 127.0672 335.7616C124.9278 336.1684 122.7148 335.6996 120.924 334.4604C118.4096 331.8476 117.8452 332.0774 115.5998 328.5696C115.3848 328.1992 114.9634 327.9998 114.5406 328.0688C114.2638 328.114 114.0184 328.2724 113.8634 328.506C113.6224 328.86 113.6264 329.3262 113.8736 329.676C115.4066 332.0146 117.2856 334.1074 119.4462 335.8828C122.3566 338.902 131.01 338.703 133.4628 334.2694C134.7562 331.9932 134.9442 329.2524 133.974 326.8208C135.6314 325.343 136.762 323.365 137.1944 321.1866C142.5946 320.727 151.8884 318.935 151.3486 313.5842Z" stroke-width="1"></path><path fill="#00030b" d="M159.0742 347.2742C155.2566 338.1774 146.3486 338.9574 142.4918 335.2772C140.07 332.9722 135.9238 329.6924 135.1316 328.6804C134.9682 328.4556 134.7196 328.308 134.444 328.272C134.17 328.2368 133.8934 328.3114 133.6742 328.4794C133.4538 328.6484 133.3128 328.9008 133.2842 329.1772C133.2546 329.453 133.3374 329.729 133.5142 329.9428C134.2858 330.8028 135.1234 331.5992 136.0224 332.3258C134.3968 333.3908 132.9688 334.7306 131.8024 336.285C131.3696 336.876 131.2376 337.6352 131.4452 338.3376C129.883 337.7178 128.3856 336.9458 126.9748 336.0326C126.3048 335.613 125.432 336.0762 125.4038 336.866C125.3906 337.2326 125.574 337.5784 125.885 337.7732C127.8142 338.982 131.7224 341.1248 133.9904 340.973C134.4182 340.9362 134.7772 340.6348 134.8872 340.2198C134.9998 339.8054 134.8426 339.365 134.4932 339.1154C134.175 338.8896 133.1508 337.9394 133.467 337.4734C134.6146 335.9808 136.026 334.7112 137.6316 333.7276C138.7008 334.645 139.8134 335.6056 140.7472 336.4738C138.727 337.6114 137.0638 339.2894 135.9444 341.3198C135.5934 342.0276 136.1402 342.85 136.9286 342.8C137.2774 342.7778 137.591 342.5798 137.7608 342.2742C138.8246 340.3318 140.5134 338.8056 142.5534 337.9434C143.0338 338.2492 143.5346 338.5244 144.0518 338.7644C142.3586 340.1428 140.9236 341.8106 139.8134 343.6906C139.4088 344.37 139.8916 345.2324 140.6822 345.243C141.049 345.248 141.3908 345.0568 141.5784 344.7414C142.6398 342.7582 144.2196 341.1002 146.1494 339.9446C146.2776 339.9046 146.3962 339.839 146.4984 339.7518C148.1876 340.349 149.842 341.0468 151.449 341.8412C155.9154 344.099 158.3906 350.195 158.0028 350.9052C150.5296 354.9424 137.2722 352.1264 135.1418 350.1724C132.5658 347.8038 131.6832 345.1108 128.3274 342.6252C126.5652 341.3012 124.5114 340.4188 122.3382 340.0514C122.2542 338.9344 122.354 337.811 122.6336 336.7264C122.8818 335.9762 122.225 335.239 121.4514 335.399C121.0998 335.4718 120.8118 335.723 120.692 336.0614C120.0204 338.6984 120.0972 341.4704 120.9136 344.0662C120.994 344.3754 121.2154 344.6286 121.511 344.7496L125.5688 346.4348C125.9978 346.6154 126.1846 346.4902 127.529 346.0818C128.7296 346.835 129.6842 347.9228 130.2772 349.2098C131.2924 351.8502 133.4496 353.888 136.1434 354.7516C140.0022 355.7286 143.9718 356.1884 147.9516 356.1164C152.8674 356.1164 157.853 355.4432 160.1354 353.4298C162.4178 351.4162 161.5824 348.9264 159.0742 347.2742Z" stroke-width="1"></path><path fill="#00030b" d="M123.4712 322.5496C121.3814 322.5684 119.3186 322.075 117.4634 321.1128C116.8044 320.6742 116.8674 319.6866 117.5768 319.3354C117.8644 319.1928 118.202 319.1928 118.4898 319.3354C121.7038 320.9256 125.4822 320.8952 128.6702 319.2532C129.0436 319.0682 129.4918 319.1282 129.8032 319.4052C130.119 319.6776 130.2362 320.1156 130.0988 320.5094C130.0106 320.768 129.823 320.9806 129.5774 321.1004C127.6814 322.0492 125.5912 322.5452 123.4712 322.5496Z" stroke-width="1"></path><path fill="#00030b" d="M121.513 328.818C125.1 327.6988 128.1616 325.321 130.1336 322.1226C130.2588 321.8754 130.4776 321.6884 130.7412 321.6034C131.006 321.5214 131.2924 321.548 131.5376 321.6772C131.7828 321.808 131.9638 322.0334 132.0384 322.3012C132.113 322.5686 132.0776 322.8546 131.9398 323.0956C129.7184 326.7804 126.2166 329.517 122.1042 330.7822C121.5702 330.9208 121.0218 330.614 120.8604 330.0864C120.7004 329.5568 120.9892 328.9958 121.513 328.818Z" stroke-width="1"></path><path fill="#00030b" d="M144.7066 313.1962C140.4662 312.4956 136.4732 310.73 133.1016 308.065C132.5298 307.5176 132.7648 306.5564 133.5248 306.3348C133.8364 306.244 134.1724 306.3056 134.4316 306.501C137.5198 308.908 141.1554 310.5142 145.0144 311.1766C145.5576 311.2776 145.9222 311.7922 145.8374 312.3382C145.7548 312.8842 145.2552 313.267 144.7066 313.2044V313.1962Z" stroke-width="1"></path><path fill="#00030b" d="M166.529 329.7766C164.2302 328.4712 160.8292 327.3524 159.38 325.0558C156.789 321.1172 153.0688 318.0532 148.707 316.2648C147.9632 316.003 147.215 316.6446 147.3602 317.4196C147.3754 317.5004 147.4002 317.5794 147.4344 317.6544C147.5448 317.8994 147.7466 318.0916 147.9968 318.19L148.087 318.225C146.1884 318.9618 143.8384 320.183 143.8076 320.2056C142.7198 320.9548 142.8428 322.3198 143.2616 323.5306C141.757 322.8266 139.5938 321.6568 137.7198 320.5546C137.418 320.378 135.9258 320.2282 135.4866 320.8418C134.0936 323.2012 133.4228 325.9172 133.5572 328.6538C133.5572 328.8694 133.625 329.0808 133.7522 329.2552C133.8748 329.5344 134.1182 329.7424 134.4132 329.8196C137.3158 330.9178 140.1236 332.2524 142.808 333.8098C147.0382 336.3076 151.1268 342.1018 157.502 343.6618C161.4018 344.6182 168.0622 345.9196 171.0158 343.202C173.5774 340.8458 173.1874 333.5572 166.529 329.7766ZM167.8734 340.4804C164.887 341.0082 161.8176 340.8126 158.9224 339.9098C154.0538 338.1584 149.6206 335.377 145.9258 331.7552C143.0124 329.3014 139.5138 327.6434 135.7698 326.942C135.7432 326.94 135.7164 326.94 135.6898 326.942C135.813 325.3852 136.2272 323.8654 136.9112 322.4614C142.108 325.5176 144.134 326.2318 145.0616 326.2318C145.8978 326.2766 146.469 325.3994 146.0898 324.6528C146.079 324.6314 146.0674 324.6104 146.055 324.5898C145.4976 323.78 145.1242 322.8582 144.961 321.8886C146.6278 321.002 148.36 320.2466 150.1438 319.6308C150.2824 319.5944 150.4124 319.5302 150.5254 319.442C151.3464 319.9224 152.1408 320.456 152.8982 321.0348C150.9916 321.7296 149.3766 323.05 148.317 324.7806C148.0314 325.2734 148.2018 325.9046 148.6966 326.1866C149.1898 326.4698 149.819 326.2998 150.1026 325.807C151.0688 324.247 152.6342 323.1536 154.4314 322.7836C154.5546 322.763 154.6756 322.722 154.7844 322.6604C155.1704 323.034 155.5542 323.4322 155.9256 323.855C154.232 324.7132 152.7258 325.8992 151.4942 327.3442C150.9834 327.9426 151.312 328.8698 152.0856 329.013C152.1796 329.0304 152.2756 329.0346 152.3706 329.0252C152.6412 329.0016 152.8914 328.8718 153.0664 328.664C154.1912 327.3042 155.6276 326.236 157.2536 325.5504C158.5632 327.449 159.1008 328.4238 163.7806 330.6612C166.6542 332.0322 169.5134 333.629 170.0368 336.5806C170.0306 339.1052 169.4456 340.1622 167.8734 340.4804Z" stroke-width="1"></path><path fill="#00030b" d="M216.8486 201.0116C216.8118 200.7426 216.8818 200.47 217.0436 200.2522C217.204 200.0312 217.4482 199.8858 217.7188 199.8498C224.2794 198.929 230.905 198.5534 237.5278 198.7272C237.9436 198.7362 238.3124 198.997 238.4596 199.386C238.6054 199.774 238.506 200.2114 238.207 200.4984C238.11 200.592 237.9946 200.6646 237.8684 200.712C237.743 200.761 237.609 200.784 237.4744 200.7796C230.9664 200.6096 224.4554 200.9784 218.0082 201.8818C217.4472 201.9636 216.9268 201.573 216.8486 201.0116Z" stroke-width="1"></path><path fill="#00030b" d="M236.0192 283.1248H234.7178C195.5414 282.702 163.873 263.4206 164.1254 240.1532C164.261 227.4378 173.8708 215.6338 190.488 207.7684C191.171 207.3714 192.0278 207.8626 192.03 208.6526C192.0314 209.0806 191.767 209.4644 191.3666 209.6158C175.4862 217.13 166.3052 228.267 166.178 240.1696C165.9378 262.308 196.6948 280.6536 234.7322 281.064H236.0252C273.4796 281.064 303.9226 263.5354 304.1588 241.6556C304.3086 227.6656 292.174 214.7676 271.696 207.1322C271.1762 206.9252 270.9152 206.3422 271.107 205.8166C271.3014 205.29 271.8842 205.0188 272.4124 205.209C293.736 213.1522 306.3714 226.7852 306.2112 241.6762C305.969 264.6788 274.6004 283.1248 236.019 283.1248Z" stroke-width="1"></path><path fill="#00030b" d="M204.6812 196.2004C215.8268 193.932 227.1854 192.8792 238.558 193.0602C239.1242 193.079 239.5678 193.553 239.5494 194.1192C239.5158 194.6788 239.051 195.1148 238.4904 195.1126C227.3168 194.9262 216.1564 195.9586 205.2066 198.1914C204.4484 198.424 203.7226 197.7484 203.9004 196.9754C203.9894 196.5882 204.2932 196.2866 204.6812 196.2004Z" stroke-width="1"></path><path fill="#00030b" d="M310.5666 269.3954C310.3178 269.2824 310.0334 269.2772 309.7806 269.381C309.5282 269.4822 309.3256 269.6782 309.2162 269.927C302.1924 286.066 287.406 304.4218 234.9764 303.1778C190.0262 302.1106 161.3012 282.782 159.2096 267.111C158.5528 262.185 158.1178 256.951 157.9186 251.717C160.2604 258.1416 163.9966 263.9674 168.8586 268.7756C183.2858 283.3588 206.8302 291.3882 235.155 291.3882C286.0698 291.3882 313.8344 265.3212 314.099 240.812C314.1036 240.2462 313.651 239.7824 313.0852 239.7734C312.5184 239.7666 312.0534 240.2206 312.0466 240.7874C311.792 264.3236 284.7624 289.3356 235.1674 289.3356C207.3946 289.3356 184.353 281.5196 170.3076 267.3326C162.7544 259.6972 157.7092 249.7652 157.8262 239.131C157.8292 238.713 157.5806 238.3342 157.1962 238.1704C157.0704 238.1188 156.9358 238.0924 156.8 238.0924C156.2492 238.1188 155.8066 238.5558 155.7738 239.1064C155.5102 248.5512 155.9756 258.0024 157.1654 267.3758C157.7154 271.4972 160.6546 277.2094 166.607 282.9462L181.775 350.4188C181.8572 350.8702 190.49 395.6562 229.1104 395.9846C241.2996 396.2994 253.114 391.7552 261.9506 383.3534C262.5154 382.8032 262.2728 381.848 261.514 381.6342C261.4368 381.6124 261.3574 381.5998 261.2774 381.5966C261.01 381.584 260.7484 381.6768 260.5488 381.8552C252.0988 389.8984 240.7928 394.2444 229.1308 393.9322C192.2162 393.612 183.8768 350.4782 183.7886 350.0082L169.2466 285.323C187.7068 300.8648 215.8388 305.2818 239.9682 305.2818C289.5428 305.2818 304.048 286.926 311.0942 270.7316C311.3114 270.2168 311.077 269.623 310.5668 269.3954Z" stroke-width="1"></path><path fill="#00030b" d="M225.0218 72.3308C224.4832 72.1524 223.9022 72.4448 223.7246 72.9836C221.8526 78.6156 218.5808 79.5844 217.1852 82.1624C215.5416 83.6892 213.7244 85.0174 211.7706 86.1196C210.812 84.377 209.3076 82.9608 209.6032 81.6246C210.5432 77.2732 203.9218 71.1712 201.3396 69.0016C204.086 66.4872 207.0224 64.1884 210.1224 62.1256C210.3594 61.981 210.5258 61.7448 210.5822 61.473C210.6426 61.2014 210.5884 60.917 210.4324 60.6868C210.2774 60.4574 210.0372 60.2992 209.7652 60.2476C209.493 60.1958 209.2112 60.2574 208.9854 60.418C205.5428 62.6804 202.3176 65.257 199.3508 68.115C195.1842 68.4454 194.0142 72.0148 193.3676 73.977C193.2282 74.3998 193.0372 74.9826 192.9838 75.2084C192.6822 75.1552 191.6498 74.41 189.905 73.7368C186.4754 72.419 182.7212 76.0726 182.5612 76.2306C182.0292 76.8148 182.3292 77.7556 183.101 77.9242C183.42 77.9938 183.7528 77.9076 183.998 77.692C184.819 76.8854 187.3436 74.9478 189.1662 75.6518C191.1776 76.4236 191.9104 77.218 192.9182 77.2548C193.1112 78.7634 194.591 88.3754 201.4772 93.0592C202.1298 93.504 203.019 93.0756 203.078 92.2882C203.1054 91.9226 202.9356 91.5704 202.6328 91.3638C197.405 87.8048 194.7572 79.1 194.7428 76.0932C195.6562 74.4778 195.8122 70.4138 199.5766 70.151C201.4094 71.555 208.308 77.9116 207.5998 81.1874C207.4366 82.8624 207.99 84.5282 209.1228 85.7728C209.7734 86.682 210.2824 87.6858 210.6334 88.7448C210.888 89.3976 211.0932 90.0668 211.2492 90.746C210.1056 91.3096 209.03 92.0016 208.0432 92.8088C205.9752 94.104 204.1122 95.7006 202.5158 97.546C201.942 98.2798 201.2596 98.9214 200.492 99.4488C198.0002 101.0702 198.072 104.385 196.348 107.6302C194.9624 110.2368 187.5632 109.0052 183.764 111.7166C179.8498 114.504 180.6298 115.0848 177.7028 120.29C174.9976 125.093 169.737 126.6632 168.2408 126.0494C166.5124 125.331 165.4268 123.457 162.4464 125.7702C158.1362 129.1324 162.1222 133.5904 157.3356 145.0352C155.812 148.6582 154.672 152.4308 153.9346 156.2912C153.3188 159.2694 154.3246 167.5802 152.426 171.6646C150.6486 170.7636 150.975 170.9976 150.741 170.6528C146.8144 164.8606 148.1856 162.2806 145.2832 157.3648C146.3342 147.3586 144.9692 125.448 144.7948 122.7408C145.702 119.7338 146.2316 116.6242 146.369 113.486C148.781 113.8754 150.809 115.5072 151.7056 117.7798C152.0224 118.5036 153.0038 118.6128 153.4722 117.9766C153.6042 117.7972 153.6744 117.5798 153.672 117.357C153.6452 115.484 153.5014 113.6146 153.241 111.7598C154.8142 113.0904 156.8024 113.8308 158.8628 113.8534C158.3322 118.0612 157.0926 122.1488 155.197 125.9428C154.8692 126.6616 155.4424 127.4658 156.229 127.3904C156.594 127.3552 156.9126 127.1282 157.0648 126.7946C158.5478 123.6756 159.6822 120.4026 160.4474 117.0348C160.8764 118.958 161.1862 120.9038 161.3832 122.864C161.4978 123.6504 162.4208 124.018 163.0446 123.5256C163.3082 123.3174 163.4542 122.994 163.4358 122.6586C163.135 119.4954 162.521 116.3698 161.6028 113.328C165.162 112.119 165.4514 109.3194 170.2788 105.4298C176.6088 100.3272 176.7874 98.1906 177.317 91.8524C177.7274 86.9612 177.8692 89.7054 179.938 86.6452C180.9584 87.7416 182.3466 88.424 183.8378 88.5622C186.5308 88.5622 187.8732 85.43 188.1482 82.7474C188.227 81.9614 187.4252 81.3848 186.705 81.7096C186.471 81.8152 186.285 82.0046 186.1838 82.2404C186.1258 82.4106 186.0336 82.567 185.913 82.7002C185.6502 82.7002 184.901 82.0372 184.394 81.2634C183.9628 80.6014 182.9764 80.6546 182.6188 81.3592C182.4528 81.6862 182.4738 82.0768 182.674 82.3842C183.3288 83.4876 184.359 84.3182 185.5764 84.724C184.782 86.7868 183.6182 87.3512 180.9972 84.8122C183.1112 80.5862 181.1428 73.7738 179.7144 69.213C179.7058 69.1368 179.6886 69.0618 179.663 68.9894C178.8584 66.7316 176.498 66.6494 174.232 67.4622C174.4106 64.9664 175.324 60.7156 177.516 59.5026C178.2096 59.1276 178.2372 58.1426 177.5658 57.7294C177.3668 57.607 177.132 57.5562 176.9004 57.5856C176.767 57.6014 176.638 57.6432 176.5206 57.7088C175.2424 58.5056 174.2478 59.6848 173.6778 61.079C173.0146 58.0834 170.595 55.793 167.5674 55.295C157.2412 53.54 154.0208 60.0158 151.1474 68.0206C150.387 70.0808 149.837 72.2126 149.5052 74.3834C146.451 75.1318 143.9654 77.3438 142.8674 80.2906L141.402 79.798C141.5332 77.9484 141.3542 76.0898 140.8724 74.2992C140.5796 71.6788 139.0548 69.3548 136.7674 68.0432C132.5166 66.0666 127.5494 68.7144 127.8984 75.3092C128.0434 78.7426 129.4622 81.9988 131.8782 84.4428C128.9878 85.2688 126.568 87.254 125.1932 89.9272C120.4108 92.1132 120.8418 91.6718 117.8226 94.8532C116.6916 96.0436 116.2052 96.0704 113.1696 96.84C109.7234 97.7124 101.9052 101.6328 99.471 105.4402C97.1044 109.151 90.0294 116.9076 90.8996 124.4936C91.735 131.698 93.0898 135.9386 94.1714 141.7656C95.1218 146.897 88.375 161.1436 88.8574 166.8188C89.3684 172.8142 87.5786 189.7494 86.2814 191.291C85.8584 191.7218 85.779 192.3836 86.0886 192.9022C87.63 196.2518 102.3896 207.5942 123.4588 207.5942C125.7018 207.5888 127.9428 207.464 130.1726 207.2206C141.0408 206.18 141.7652 205.8782 152.2946 196.7014C157.7708 197.9678 164.3944 199.1316 172.0892 200.1702C174.5318 200.4822 176.9208 201.1204 179.193 202.0666C181.7792 202.748 181.7832 201.4508 185.4408 204.9524C189.8004 209.115 193.651 212.5776 197.5508 215.8554C199.9664 218.076 203.0126 219.4904 206.2678 219.903C208.187 219.903 209.0428 218.6838 208.8376 217.3026C211.0604 217.9182 214.3938 218.571 215.4056 216.4958C216.0522 215.1658 215.7382 213.8708 213.6568 212.908C217.3392 213.099 219.5148 212.2594 220.4302 211.0402C221.0826 210.1968 221.0936 209.0222 220.4568 208.1668C219.174 206.3544 217.5834 206.1656 215.1634 205.8824C212.1954 205.5292 214.8002 206.0404 217.1502 204.6796C218.2034 204.1788 218.9234 203.17 219.055 202.0112C219.2438 198.2346 214.9254 198.8606 210.7054 198.0704C206.272 197.2494 203.9526 196.1944 201.939 192.1858C200.1984 188.7274 202.4398 187.426 205.0178 185.2708C207.5014 183.1978 208.542 178.4606 205.888 177.1778C203.2896 175.9216 201.9308 179.025 200.9744 180.0514C199.8818 181.7924 198.0948 182.9808 196.0668 183.3148C191.465 184.614 191.6416 187.0936 186.3932 188.3948C181.1962 189.6962 175.3096 185.8968 170.2338 182.0176C165.1434 178.4948 159.8038 175.3468 154.2568 172.5986C156.4326 168.0236 155.396 159.366 155.9482 156.712C156.6598 152.9812 157.7606 149.3352 159.2322 145.8338C160.8572 142.0596 161.8114 138.031 162.0524 133.9292C162.274 130.645 161.8758 128.8326 163.7108 127.4062C165.4842 126.0186 165.1846 127.0162 167.4566 127.9604C170.168 129.0892 176.4138 126.7842 179.4926 121.3102C182.4996 115.9468 181.5082 115.8442 184.9462 113.3812C186.7934 112.392 188.8398 111.8214 190.9334 111.7064C197.3784 110.7972 197.9942 109.9844 199.6936 104.7032C201.1304 100.2512 201.0216 102.3776 204.0572 98.8884C205.5512 97.1612 207.2978 95.67 209.2378 94.4652C210.1224 93.7202 211.0994 93.09 212.1442 92.5932C212.5672 92.4662 212.9182 92.1688 213.113 91.7722C213.5564 90.8732 213.1622 89.7526 212.567 88.0572V88.0368C214.9486 86.7372 217.1178 85.0816 218.9996 83.127C220.0444 81.1978 223.7204 79.5064 225.6806 73.6156C225.8504 73.0792 225.5564 72.506 225.0218 72.3308ZM137.8984 149.1484C137.5762 140.1174 138.3088 127.047 138.5142 123.455C139.68 123.4878 141.5928 123.5392 142.7772 123.5678C143.0338 127.7366 144.0088 144.873 143.4258 154.7108C141.7462 152.7016 139.8968 150.8408 137.8984 149.1484ZM141.1208 111.3472C137.7152 109.6704 135.114 106.711 133.8878 103.1186C132.3874 99.307 130.7678 96.1052 130.6448 93.3404L135.5584 86.9776C135.6816 88.593 135.8868 90.2 136.1742 91.7948C136.6772 94.6478 141.6134 101.3226 147.0116 106.5936C145.9004 109.0128 143.7202 110.7722 141.1208 111.3472ZM141.1064 113.8226C141.7222 113.9682 142.067 113.4572 144.3104 113.3608C144.1726 116.1172 143.7502 118.852 143.0502 121.5216C141.8556 121.4928 139.5466 121.4312 138.3458 121.3984C137.6806 118.7086 137.0312 116.015 136.398 113.3176C137.9836 113.2554 139.57 113.4256 141.1064 113.8226ZM145.8786 111.3472C146.9618 110.411 147.8556 109.276 148.512 108.0036C149.257 108.683 150.0042 109.3254 150.741 109.9206C151.0982 111.185 151.326 112.4822 151.4244 113.7918C149.9038 112.376 147.9496 111.5154 145.8786 111.3492ZM153.0768 68.7224C156.0036 60.5616 158.5776 55.8552 167.2228 57.3268C171.299 58.0206 172.3192 62.253 172.2022 66.401C172.1426 66.8116 172.0996 67.2078 172.0668 67.5546C164.6222 64.0654 159.7516 68.2114 156.2972 75.5594C154.7658 78.7194 151.7674 80.9144 148.2924 81.4194C152.5328 76.8464 150.4208 76.1238 153.0768 68.7224ZM129.9346 75.2044C129.6698 70.2044 133.0586 68.5808 135.8992 69.913C137.5788 70.9776 138.6722 72.7588 138.861 74.7384C139.3474 76.3578 139.526 78.0532 139.3824 79.7364C138.8546 80.2786 139.075 81.186 139.7928 81.4256L143.3006 82.6078C143.946 82.829 144.623 82.3678 144.6532 81.6862C144.6532 81.5466 144.8872 78.6074 148.9964 76.7806C148.0608 78.789 146.6634 80.5474 144.918 81.912C144.3464 82.4572 144.5794 83.417 145.3374 83.6394C145.4126 83.6614 145.4902 83.6748 145.5686 83.6792C145.6096 83.6792 145.7554 83.6894 145.9792 83.6894C151.0944 83.8124 155.827 80.9906 158.1506 76.4318C161.5106 69.291 165.6526 66.1364 172.4586 70.069C172.8368 70.2864 173.3108 70.241 173.641 69.956C174.6158 69.3568 177.085 68.4598 177.6332 69.5128C178.7414 73.043 180.9398 80.1612 179.2114 83.7202C178.0908 86.0252 177.4258 86.4624 176.9866 86.7518C175.874 87.4804 175.5498 88.1332 175.2584 91.678C174.7308 97.971 174.622 99.2722 168.9756 103.8288C163.0438 108.6154 163.8812 111.376 158.6616 111.8132C157.1982 111.9466 154.9486 110.6924 152.465 108.7344C152.3484 108.548 152.175 108.4042 151.9704 108.3238C145.9258 103.3814 138.7502 94.5924 138.1918 91.4274C137.6996 89.0904 137.493 86.7024 137.576 84.3156C137.6596 83.53 136.8612 82.9486 136.1392 83.2692C136.0536 83.3072 135.9734 83.3568 135.9012 83.4166C135.5482 83.6482 135.1226 83.743 134.7046 83.6834C133.4962 83.2964 132.4894 82.4482 131.903 81.323C130.748 79.4796 130.0714 77.3772 129.9346 75.2064ZM126.6342 92.1848C127.565 88.9156 130.335 86.502 133.701 86.0272L132.1986 87.973C132.0356 87.2 131.097 86.8932 130.509 87.4208C130.4496 87.4742 130.3966 87.534 130.3512 87.5996C126.6568 92.8806 129.4584 97.5276 131.9748 103.8822C133.0506 106.7414 134.8362 109.28 137.1636 111.259C133.9304 111.0368 130.8114 112.4978 128.9124 115.1238C125.9526 107.8576 125.1612 99.8894 126.6342 92.1828V92.1848ZM92.9276 124.2596C92.158 117.6362 98.7938 110.286 101.187 106.5484C103.1902 103.4122 110.218 99.6888 114.239 98.6872C117.9048 97.7718 118.1018 97.5584 119.9552 95.5694C121.1256 94.1392 122.6866 93.0802 124.4482 92.5214C124.1732 93.909 123.9884 95.3128 123.898 96.723C118.0232 99.152 112.6926 102.7296 108.2188 107.2462C106.9336 107.0616 105.6272 107.0802 104.3478 107.3016C103.576 107.4732 103.2792 108.4158 103.8136 108.9986C104.0616 109.269 104.435 109.3866 104.7932 109.307C109.131 108.5556 113.4732 110.609 115.645 114.4384C116.0558 115.1138 117.0436 115.0912 117.4232 114.3978C117.5994 114.0758 117.5904 113.6844 117.3998 113.371C115.878 110.7346 113.445 108.7454 110.5588 107.7778C114.4464 104.1156 118.9296 101.1428 123.816 98.987C123.8496 105.5392 125.2264 112.0148 127.8616 118.0138C128.1708 118.7408 129.1512 118.8602 129.626 118.2288C129.71 118.1172 129.7702 117.9894 129.8032 117.8538C130.4648 115.737 132.2018 114.1314 134.3638 113.6378C134.8092 115.5262 135.8232 119.7954 136.519 122.5416C136.4164 124.1528 135.6078 137.287 135.7924 147.1822C133.3642 144.6288 130.2916 140.0826 130.2916 136.1704C130.2916 131.3204 122.5228 122.4596 121.6382 121.464C121.087 120.8982 120.1298 121.1414 119.9154 121.9016C119.8254 122.221 119.8952 122.5642 120.103 122.8228C122.3608 125.3638 128.2372 132.716 128.2372 136.1642C128.2372 141.4906 132.7014 147.1164 135.0618 149.3496C138.391 152.49 143.6454 156.4062 145.1028 162.1942C145.6544 165.1642 146.7192 168.0154 148.2492 170.6198C143.165 170.7024 138.3134 172.764 134.7252 176.367C130.93 180.2504 129.2696 182.775 129.1834 184.846C123.0258 181.3812 118.9844 173.557 117.445 170.1088C115.8706 165.968 113.2132 162.3258 109.7502 159.563C103.4016 153.7236 106.0124 155.1768 101.5216 150.0804C100.5388 148.9926 99.616 147.8526 98.7568 146.665C97.4508 144.7406 96.5128 142.5908 95.99 140.3246C94.857 134.7438 93.6768 130.7312 92.9276 124.2596ZM128.9022 205.2808C105.487 207.5202 89.7278 194.9156 88.057 192.2638C90.0684 188.5548 91.2856 171.291 90.8894 166.6482C90.5508 162.6602 94.7626 152.5598 95.953 146.0512C97.8414 149.5406 100.643 151.745 102.8044 155.066C105.1766 158.0968 107.8474 160.8816 110.7764 163.3786C112.8842 165.5414 114.5196 168.1184 115.5792 170.9462C117.3628 174.9384 122.3258 184.4744 130.1748 187.5882C130.6262 188.1094 131.1496 188.5652 131.7264 188.9428C132.8706 190.2214 134.5278 190.9198 136.242 190.8454C140.4398 193.359 145.0344 195.14 149.8296 196.1122C140.2936 204.3982 139.8934 204.2258 128.9022 205.2768V205.2808ZM168.9776 183.6472C174.4352 187.818 180.8268 191.8922 186.8776 190.3836C192.3908 189.0126 192.871 186.3422 196.6148 185.2872C198.741 184.9312 200.6502 183.7752 201.9514 182.0566C202.676 181.135 202.4974 181.4982 203.3368 180.3202C204.2934 178.9778 204.5684 178.8218 204.9788 179.023C205.7116 179.378 205.494 182.1838 203.6878 183.6904C203.458 183.8812 203.2116 184.0762 202.9592 184.2732C200.8738 185.9152 197.7212 188.3988 200.0856 193.0992C202.8854 198.6656 206.7214 199.778 213.6816 200.5498C216.746 200.8926 217.0272 201.0978 216.9862 201.9024C216.9226 203.2488 211.2226 205.5066 203.6448 201.6642C202.945 201.3128 202.1238 201.836 202.1464 202.6188C202.1574 202.8588 202.2518 203.0874 202.4132 203.2652C204.6898 205.4036 207.5622 206.8 210.65 207.2698C215.9866 208.339 217.5854 207.6802 218.7678 209.351C218.8948 209.477 218.8948 209.6826 218.7678 209.8086C218.1252 210.6708 214.2522 212.1608 204.1764 208.729C202.8914 208.1854 201.681 207.4806 200.5742 206.6314C200.1246 206.2838 199.478 206.3684 199.1332 206.8202C198.8778 207.148 198.8476 207.5984 199.0574 207.9574C199.1248 208.0744 199.2148 208.177 199.3222 208.259C200.6406 209.256 202.0748 210.09 203.5934 210.7426C206.0344 212.1634 208.6132 213.3324 211.2904 214.2318C213.386 214.8476 213.6426 215.3444 213.6426 215.3444C213.624 215.4344 213.5914 215.521 213.5462 215.601C213.4722 215.7528 212.645 216.188 209.9706 215.49C208.8006 215.1966 207.6512 214.8312 206.5264 214.3982C203.2682 213.4996 200.2608 211.8624 197.7376 209.6138C197.1308 209.1074 196.2034 209.4476 196.0682 210.2262C196.0056 210.5876 196.1404 210.955 196.422 211.19C199.0336 213.386 202.0402 215.0634 205.2806 216.1326C206.0442 216.578 206.9226 217.2984 206.8076 217.7602C206.3068 218.1706 202.799 217.594 198.8582 214.2874C185.4676 203.0538 185.287 200.5704 181.0794 200.285C178.019 200.0798 178.6162 198.9858 172.1468 198.1134C154.1892 195.6874 144.959 192.9904 140.2402 190.7612L140.7186 190.7982C141.285 190.864 141.7938 190.4488 141.8432 189.8808C141.8994 189.3176 141.489 188.8152 140.9258 188.758C139.487 188.6098 138.0366 188.6154 136.599 188.7744C134.2802 188.6964 132.2066 187.3088 131.2502 185.1948C131.0984 183.758 132.6686 181.4038 136.1968 177.7956C139.8498 174.224 144.8514 172.378 149.9486 172.7196C156.5416 175.9078 162.9004 179.5588 168.9776 183.6452Z" stroke-width="1"></path><path fill="#00030b" d="M240.391 170.5706C234.4756 170.5706 206.779 155.9424 203.8972 152.0734C200.6132 147.6728 210.8654 123.2026 212.1484 122.2112C214.2008 120.6102 224.4984 127.5478 224.5824 127.634C224.8514 127.913 225.5308 128.6212 224.2232 132.129C229.291 134.4976 245.4586 142.3032 247.1684 146.1928C248.558 149.3578 245.7152 157.2456 242.6816 165.0556C241.1484 169.0026 241.4624 168.5448 241.2674 168.8322C241.5776 169.1466 241.6536 169.6234 241.4562 170.0186C241.2552 170.411 240.8278 170.6334 240.391 170.5726ZM213.2978 123.9784C211.629 126.546 203.4354 148.0258 205.5372 150.85C207.8832 153.9986 232.5258 167.182 239.4038 168.4298C239.178 167.149 246.918 150.7454 245.2822 147.022C244.1122 144.3538 230.6744 137.3752 222.4786 133.5882C221.979 133.357 221.7508 132.773 221.9614 132.2644C222.4294 131.2032 222.7618 130.0888 222.9508 128.9434C219.938 126.9202 216.7008 125.2534 213.3038 123.9764L213.2978 123.9784Z" stroke-width="1"></path><path fill="#00030b" d="M253.445 219.4534C248.4594 219.4534 235.1776 198.6964 234.9724 197.0544C234.6644 194.6672 243.593 189.3246 244.0774 189.1932C244.5248 189.0556 245.3314 188.8442 247.3408 191.6768C251.372 188.3536 263.2992 178.7458 266.8952 179.3616C271.187 180.004 279.512 194.1398 280.9878 195.7818C281.0506 195.8512 281.1032 195.9294 281.1438 196.0138C281.8966 195.9672 282.4398 196.723 282.1556 197.4218C280.171 202.354 257.078 219.4536 253.445 219.4536ZM237.0516 196.9188C238.1394 199.6344 250.549 217.4132 253.3362 217.4132C256.0414 217.4132 276.2362 202.711 279.8302 197.4238C279.687 197.3642 279.5588 197.2738 279.4546 197.159C278.1348 195.675 269.6024 181.8594 266.5894 181.4018C264.6148 181.1042 255.4626 187.5594 247.7842 193.9796C247.3122 194.3736 246.6024 194.268 246.2654 193.7538C245.7128 192.8774 245.0754 192.0572 244.3626 191.3052C241.7004 192.8632 239.244 194.749 237.0516 196.9188Z" stroke-width="1"></path><path fill="#00030b" d="M309.1628 100.3518C309.0668 99.8934 308.6702 99.5596 308.2022 99.5432C307.7352 99.5238 307.314 99.8226 307.178 100.2698C302.0158 117.1826 285.5034 124.7646 285.3372 124.8384C284.9302 125.0224 284.6882 125.4476 284.7378 125.8914C285.6738 134.0912 283.3482 152.18 283.3256 152.3688C283.2604 152.8988 283.6104 153.3912 284.1322 153.504C284.2996 153.5392 284.4732 153.5322 284.6372 153.4834C303.9186 147.7364 312.178 129.9862 312.5206 129.235C312.5788 129.1056 312.6102 128.966 312.613 128.8244C312.3646 119.2458 311.2092 109.7124 309.1628 100.3518ZM307.5824 105.0604C307.4612 113.3524 303.7256 127.4534 302.5392 131.743C298.0038 129.2972 293.2704 127.2374 288.3892 125.5856C296.7862 120.9324 303.5022 113.7502 307.5824 105.0604ZM286.9154 127.242C290.7444 128.5298 294.4958 130.0374 298.151 131.7574C295.7434 137.5702 289.1712 145.5094 285.7414 149.4296C286.6712 142.0714 287.0632 134.6556 286.9154 127.2418ZM287.8514 150.1522C291.4412 146.0102 297.529 138.5144 299.99 132.6892C302.8266 134.1672 302.8512 134.5098 303.5388 134.2452C303.8374 134.1316 304.0654 133.8846 304.1546 133.578C304.249 133.2496 305.0228 130.5814 305.9588 126.8396C307.447 127.5094 308.8824 128.291 310.2526 129.1774C305.3046 138.4492 297.4284 145.824 287.8514 150.1522ZM306.4534 124.8158C307.4182 120.7888 308.4546 115.9264 309.0684 111.4416C309.9038 116.573 310.4046 121.7556 310.5646 126.9526C309.2474 126.1424 307.8734 125.4284 306.4534 124.8158Z" stroke-width="1"></path><path fill="#00030b" d="M196.1878 373.4686C195.712 373.4694 195.2984 373.1418 195.1904 372.6784L179.0268 304.5162C178.896 303.9656 179.2374 303.4136 179.7882 303.2846C180.1914 303.1892 180.6124 303.3454 180.8556 303.6808C180.9342 303.7902 180.99 303.9146 181.0198 304.046L197.1874 372.2042C197.3396 372.8492 196.8506 373.4678 196.1878 373.4686Z" stroke-width="1"></path><path fill="#00030b" d="M212.0292 383.6982C211.4864 383.6972 211.0376 383.2752 211.003 382.7336L207.1524 316.5234C207.102 315.735 207.924 315.1876 208.632 315.538C208.7154 315.5794 208.7928 315.632 208.8622 315.6942C209.0658 315.8754 209.1892 316.1302 209.205 316.4022L213.0556 382.6126C213.0706 382.8944 212.9698 383.1702 212.7764 383.376C212.5834 383.5832 212.3124 383.7002 212.0292 383.6982Z" stroke-width="1"></path><path fill="#00030b" d="M228.2708 387.787C227.9828 387.7916 227.7068 387.672 227.5134 387.4586C227.3194 387.2456 227.222 386.9618 227.2446 386.6744L233.1682 316.3982C233.2372 315.845 233.7196 315.4376 234.2766 315.4622C234.8404 315.5112 235.2586 316.0066 235.2124 316.5706L229.2972 386.8468C229.2542 387.3806 228.8064 387.7908 228.2708 387.787Z" stroke-width="1"></path><path fill="#00030b" d="M246.1894 387.7664C245.875 387.7648 245.5782 387.6206 245.3828 387.3744C245.1866 387.1276 245.116 386.8038 245.1918 386.498L262.279 316.2238C262.3402 315.9576 262.5078 315.7284 262.743 315.5894C263.4142 315.176 264.2814 315.6444 264.3038 316.4324C264.3064 316.5252 264.2964 316.618 264.2742 316.7082L247.1868 386.9824C247.0772 387.4438 246.6638 387.7688 246.1894 387.7664Z" stroke-width="1"></path><path fill="#00030b" d="M263.2726 378.4992C262.783 378.4942 262.3628 378.1492 262.2626 377.67C262.2318 377.514 262.2382 377.353 262.2812 377.2L281.4332 307.638C281.5344 307.229 281.8772 306.9246 282.2952 306.8724C282.5688 306.8368 282.8452 306.9122 283.063 307.0818C283.2778 307.255 283.4162 307.5056 283.4488 307.7796C283.4634 307.9148 283.4508 308.0516 283.4118 308.182L264.2598 377.744C264.2002 377.9606 264.072 378.1522 263.8944 378.29C263.7154 378.4254 263.497 378.499 263.2726 378.4992Z" stroke-width="1"></path><path fill="#00030b" d="M254.736 36.4876C254.225 35.9612 253.5656 35.603 252.8456 35.4614C252.7032 33.275 251.011 31.5066 248.833 31.268C248.4666 28.479 245.9558 26.4818 243.1558 26.7526C242.8862 25.3932 242.0758 24.2018 240.9102 23.452C239.3182 22.588 237.42 22.4936 235.7502 23.1956C234.7036 23.638 233.938 24.5624 233.6978 25.673C232.171 25.3412 230.5762 25.5594 229.1944 26.2886C228.9764 26.4364 228.823 26.6618 228.7654 26.9188C228.5984 27.6926 229.3316 28.357 230.0852 28.1148C230.1448 28.0956 230.2026 28.0712 230.2576 28.0416C231.4814 27.4516 232.8968 27.404 234.1574 27.9102C235.7994 28.645 237.1686 29.7924 237.072 30.3732C236.6686 30.5274 236.227 30.5502 235.8098 30.4388C235.0394 30.2626 234.3674 30.9864 234.6 31.7416C234.7078 32.092 234.9946 32.3582 235.352 32.44C236.0478 32.6002 236.7704 32.594 237.462 32.4216C238.0018 34.9646 239.685 35.991 240.9514 35.991C243.6874 35.991 243.7222 31.5226 243.4534 28.7928C244.1808 28.602 244.9546 28.8204 245.475 29.3634C247.6426 31.2784 247.1336 36.4814 246.177 37.3374C245.905 37.5572 245.5356 37.6136 245.2102 37.4852C244.4348 37.3342 243.7868 38.0794 244.0438 38.8264C244.155 39.1498 244.42 39.3964 244.7506 39.4842C248.133 40.2664 249.184 36.816 249.0116 33.341C249.3324 33.422 249.6244 33.5904 249.8552 33.8276C251.5628 35.3628 250.6434 39.5314 249.6602 40.1226C249.3606 40.3012 248.9172 40.2376 248.3404 39.9378C247.6214 39.6066 246.8134 40.1778 246.886 40.966C246.9166 41.2986 247.1068 41.5956 247.3962 41.7626C250.4626 43.3492 252.4002 41.1468 252.7964 37.594C252.9852 37.6966 253.1598 37.8258 253.3116 37.9778C254.2978 39.5228 254.5988 41.4076 254.1428 43.183C254.032 43.3882 253.796 43.8438 252.661 43.5934C252.1042 43.4672 251.5536 43.8272 251.4458 44.3878C251.393 44.6542 251.4452 44.9306 251.5916 45.1594C251.7416 45.387 251.9754 45.5464 252.2422 45.6028C253.6738 46.0662 255.2328 45.449 255.9594 44.1312C256.8312 41.537 256.3738 38.6802 254.736 36.4876ZM240.8036 33.8974C238.8084 33.2036 239.4038 29.1438 239.4098 29.1026C239.4952 28.5462 239.119 28.024 238.5642 27.9286C238.3876 27.8996 238.2064 27.9172 238.0388 27.98C237.3238 27.3304 236.5226 26.7826 235.6578 26.3524C235.7084 25.8098 236.0372 25.3326 236.5262 25.092C237.5948 24.6486 238.803 24.6874 239.841 25.1988C240.8044 25.9516 241.359 27.1126 241.3392 28.335C241.6368 31.0916 241.407 33.649 240.8036 33.8974Z" stroke-width="1"></path><path fill="#00030b" d="M212.877 257.5236C209.8618 251.0664 206.5368 236.315 206.5142 236.1774C206.4504 235.9126 206.2872 235.6826 206.0584 235.535C205.8276 235.3898 205.5484 235.3426 205.2826 235.4036C204.363 235.6212 182.5756 240.9332 170.2112 255.7072C169.8532 256.1402 169.9098 256.7806 170.3384 257.144C170.6278 257.3862 169.5174 257.0804 186.227 260.7994C185.727 263.9404 185.499 267.1184 185.5456 270.2986C185.642 271.0822 186.5506 271.4676 187.181 270.9924C187.4736 270.7718 187.6264 270.4118 187.5816 270.0482C187.557 267.1008 187.7766 264.1574 188.2364 261.247L194.5992 262.6632C195.0792 262.7696 195.5672 262.521 195.763 262.07C196.272 260.896 197.284 258.5212 198.4888 255.6764C202.3312 256.3602 206.1328 257.2566 209.8762 258.361C205.9352 260.976 195.8636 267.7452 190.8184 271.9078C190.2094 272.411 190.3734 273.3848 191.1138 273.6608C191.4574 273.7888 191.8432 273.7238 192.126 273.4902C198.261 268.4246 212.4746 259.098 212.6184 259.0056C213.095 258.6654 213.2102 258.0052 212.877 257.5236ZM194.199 260.4732L172.8938 255.7298C182.7788 244.8966 198.2548 239.5662 203.737 237.9426C202.0438 241.9738 195.9786 256.3516 194.199 260.4732ZM205.2272 239.6914C206.536 245.3164 208.1726 250.8602 210.1286 256.2942C206.5642 255.2536 202.9476 254.402 199.2934 253.743C201.3828 248.819 203.809 243.0718 205.2334 239.6914H205.2272Z" stroke-width="1"></path><path fill="#00030b" d="M272.2338 260.976C271.4334 260.8816 252.507 258.4944 242.4086 249.5558C242.2668 249.4282 242.1624 249.2642 242.107 249.0816C241.9286 248.502 242.2934 247.8962 242.889 247.7824C243.047 247.7496 258.8308 244.3382 266.9548 222.1772C267.1284 221.6764 267.6608 221.3962 268.1718 221.5368L294.4606 228.2896C294.7506 228.3656 294.9938 228.5632 295.1276 228.8314C295.2568 229.1014 295.2642 229.4136 295.1482 229.6894C294.75 230.609 285.2796 252.2486 272.942 260.8036C272.7348 260.9452 272.483 261.0066 272.2338 260.976ZM245.2514 249.2314C254.3686 256.128 269.4916 258.5192 272.0962 258.8886C282.2666 251.598 290.6758 234.4636 292.7652 229.9726L268.5454 223.7536C261.6058 241.8978 249.9004 247.6162 245.2514 249.2314Z" stroke-width="1"></path><path fill="#00030b" d="M271.5298 257.8602C271.1678 257.8628 270.8318 257.6728 270.6472 257.3616C269.1406 254.839 265.6924 248.7532 266.222 246.6986C266.38 246.083 266.8378 244.2788 279.8732 243.6198C278.0752 241.1446 275.4336 237.0928 275.873 235.1614C276.4128 232.8236 283.771 231.1776 289.8486 230.2088C290.6336 230.1078 291.2336 230.8946 290.9286 231.625C290.7956 231.9434 290.5118 232.1738 290.1728 232.2386C284.0768 233.2074 278.4324 234.796 277.8434 235.7034C277.6688 236.5244 279.9122 240.3954 282.673 243.9134C282.9148 244.2154 282.9634 244.6288 282.7982 244.9786C282.6388 245.3316 282.2922 245.5626 281.9052 245.5738C276.1582 245.7956 269.428 246.5304 268.2006 247.3472C269.1738 250.5174 270.5912 253.5338 272.4104 256.3066C272.5982 256.6246 272.6028 257.0186 272.4226 257.341C272.2402 257.6622 271.8992 257.8604 271.5298 257.8602Z" stroke-width="1"></path><path fill="#00030b" d="M272.8926 235.2702C274.4526 235.2702 275.719 233.9278 275.719 232.2714S274.4526 229.2728 272.8926 229.2728C271.3308 229.2728 270.0664 230.615 270.0664 232.2714S271.3308 235.2702 272.8926 235.2702Z" stroke-width="1"></path><path fill="#00030b" d="M257.2298 99.424C255.2594 99.5332 253.9098 97.4682 254.8006 95.7072C255.6914 93.9462 258.1546 93.81 259.2342 95.462C259.5068 95.879 259.6518 96.3664 259.6518 96.8646C259.6852 98.2384 258.6034 99.3816 257.2298 99.424Z" stroke-width="1"></path><path fill="#00030b" d="M276.0598 171.1618C275.5728 171.1608 275.1534 170.818 275.056 170.3408L274.3008 166.7652C274.1794 166.1578 274.6168 165.5808 275.2346 165.5338L277.9234 165.349C278.5544 165.3018 279.0764 165.8334 279.0174 166.4636L278.7136 169.9118C278.6742 170.366 278.3398 170.7398 277.8926 170.8292C277.2884 170.9742 276.6764 171.0852 276.0598 171.1618Z" stroke-width="1"></path><path fill="#00030b" d="M285.1606 163.592C284.609 163.5936 284.1554 163.158 284.1344 162.6068L283.9784 158.7482C283.961 158.3938 284.13 158.0562 284.4238 157.8574C284.7162 157.6576 285.0908 157.6226 285.415 157.765L287.369 158.625C287.7002 158.7656 287.9338 159.0692 287.9848 159.4254L288.3954 162.3914C288.4372 162.6826 288.3502 162.9778 288.1572 163.2C287.9656 163.423 287.6876 163.553 287.3938 163.5572L285.1606 163.592Z" stroke-width="1"></path><path fill="#00030b" d="M184.2668 232.879L183.8564 230.0978C183.7588 229.6032 183.334 229.2404 182.83 229.2214C180.8124 229.2482 180.4532 229.1434 180.053 229.591C179.863 229.8066 179.7702 230.0908 179.7964 230.377L180.09 233.3122C180.1462 233.87 180.6398 234.2794 181.1984 234.2316L183.3432 234.051C183.6238 234.0246 183.8816 233.8854 184.0576 233.6652C184.2318 233.4426 184.3074 233.1586 184.2668 232.879Z" stroke-width="1"></path><path fill="#00030b" d="M224.7816 224.1682C224.4286 224.1686 224.1004 223.987 223.9134 223.6878L222.4376 221.348C222.1872 220.9558 222.2344 220.4438 222.5526 220.1042C222.6542 219.9936 222.779 219.9068 222.9178 219.8496L225.1408 218.9486C225.6206 218.755 226.1694 218.9474 226.4236 219.398L227.7864 221.8406C227.9304 222.1022 227.9558 222.4128 227.8562 222.6944C227.753 222.9742 227.5336 223.1958 227.2548 223.302C224.958 224.1784 225.0464 224.1682 224.7816 224.1682Z" stroke-width="1"></path><path fill="#00030b" d="M236.8216 259.8778C236.445 259.875 236.0994 259.6684 235.9186 259.338L234.841 257.3286C234.569 256.8164 234.7732 256.1808 235.2926 255.9226C238.166 254.5188 238.24 254.371 238.7818 254.57C239.0442 254.6672 239.2554 254.8674 239.3668 255.1242L240.2966 257.2506C240.516 257.7594 240.2938 258.3506 239.7938 258.5888C237.0044 259.9004 237.1296 259.8778 236.8216 259.8778Z" stroke-width="1"></path><path fill="#00030b" d="M220.697 241.3354C220.2746 241.338 219.8946 241.079 219.7426 240.6848C219.6924 240.5582 219.668 240.4228 219.6708 240.2866L219.7222 237.8092C219.7358 237.2972 220.1228 236.8726 220.6314 236.8116L223.4352 236.4894C223.741 236.4508 224.0476 236.5554 224.2664 236.7726C224.4878 236.9866 224.6008 237.289 224.5742 237.5958L224.369 239.9808C224.33 240.4526 223.9728 240.8362 223.5048 240.9084C220.9146 241.317 220.8386 241.3354 220.697 241.3354Z" stroke-width="1"></path><path fill="#00030b" d="M223.8436 255.4526C223.5676 255.4542 223.3028 255.343 223.1108 255.1448C222.9198 254.9474 222.8142 254.6826 222.8172 254.408L222.8562 252.1974C222.8628 251.6922 223.2382 251.2678 223.7388 251.1998L225.7544 250.9124C226.402 250.8158 226.9716 251.3454 226.9224 251.9982L226.7786 254.1268C226.7508 254.59 226.4132 254.9758 225.9576 255.0648C225.2598 255.233 224.5558 255.3624 223.8436 255.4526Z" stroke-width="1"></path><path fill="#00030b" d="M234.4674 233.3244C233.97 233.3226 233.5446 232.9662 233.4556 232.4768C233.0122 229.9664 232.887 229.7838 233.2236 229.324C233.5602 228.8642 233.7798 228.8972 236.5076 228.5688C236.9436 228.5154 237.3662 228.7422 237.5626 229.1352C237.6262 229.2624 237.6612 229.402 237.6672 229.5436L237.7452 231.391C237.7672 231.8342 237.5 232.241 237.0844 232.3966C234.6132 233.345 234.722 233.3244 234.4674 233.3244Z" stroke-width="1"></path><path fill="#00030b" d="M240.2062 271.4028C239.6992 271.4024 239.2684 271.0318 239.1924 270.5304L238.749 267.6344C238.7064 267.3648 238.7744 267.0894 238.9378 266.8708C239.2806 266.405 239.4962 266.5014 242.38 266.0498C242.9846 265.9616 243.5328 266.4162 243.558 267.0268L243.6442 269.2846C243.6594 269.7064 243.4152 270.0946 243.0284 270.2636C240.3478 271.4254 240.4896 271.4028 240.2062 271.4028Z" stroke-width="1"></path><path fill="#00030b" d="M235.0442 243.039C234.5072 243.0386 234.0606 242.626 234.018 242.0908L233.8454 239.833C233.803 239.303 234.173 238.8288 234.6972 238.741S236.134 238.503 236.3824 238.4394C236.6766 238.3796 236.9822 238.4294 237.2424 238.5788C237.5564 238.7842 237.8294 238.9668 238.1414 241.2698C238.2092 241.775 237.8964 242.2536 237.4066 242.3946C236.6394 242.6776 235.8488 242.8932 235.0442 243.039Z" stroke-width="1"></path><path fill="#00030b" d="M255.6946 270.4894C255.157 270.489 254.71 270.0752 254.6684 269.5392L254.4508 266.6388C254.4114 266.1114 254.7792 265.6406 255.3006 265.551S257.1478 265.239 257.4516 265.159C257.75 265.091 258.0634 265.141 258.326 265.2986C258.6564 265.5038 258.9684 265.7214 259.3522 268.558C259.4202 269.0616 259.1094 269.539 258.6214 269.6808C257.6712 270.0358 256.6922 270.3068 255.6946 270.4894Z" stroke-width="1"></path><path fill="#00030b" d="M252.6076 225.7814C252.0632 225.7824 251.6128 225.358 251.5814 224.8146L251.376 221.424C251.3532 220.9764 251.6208 220.5648 252.039 220.4038C252.1754 220.3532 252.3208 220.3316 252.466 220.3402L255.4174 220.525C255.998 220.5616 256.4322 221.073 256.374 221.6518L256.0702 224.712C256.0182 225.2118 255.6132 225.6012 255.1116 225.6336L252.6076 225.7814Z" stroke-width="1"></path><path fill="#00030b" d="M213.8602 267.46C211.4628 264.6788 211.5018 264.5638 210.9352 264.5268C210.659 264.5062 210.3864 264.6006 210.182 264.7876L208.696 266.1238C208.321 266.4646 208.2488 267.0272 208.5256 267.4518L210.2086 270.0194C210.3994 270.3072 210.7214 270.4804 211.0666 270.4812C211.508 270.4812 211.547 270.3684 213.6446 268.9828C214.1596 268.6432 214.2606 267.9292 213.8602 267.46Z" stroke-width="1"></path><path fill="#00030b" d="M303.1324 205.6564C302.6514 205.6598 302.2336 205.326 302.1308 204.856L301.3672 201.461C301.3002 201.1702 301.3648 200.8646 301.5438 200.6256C301.7224 200.3866 301.9954 200.2362 302.293 200.2132L304.756 200.0284C305.301 199.9976 305.778 200.3908 305.852 200.9316L306.203 203.8338C306.2622 204.3196 305.9688 204.7792 305.5032 204.9298C304.7436 205.2644 303.9474 205.5066 303.1324 205.6564Z" stroke-width="1"></path><path fill="#00030b" d="M287.0714 189.614C286.5564 189.619 286.1174 189.2414 286.0452 188.7314L285.6018 185.556C285.5816 185.4076 285.5936 185.2564 285.6368 185.1128C285.6818 184.969 285.7576 184.8366 285.8584 184.7248C286.269 184.265 286.6262 184.382 289.1076 184.4928C289.5828 184.514 289.9812 184.859 290.0702 185.3262L290.5814 188.011C290.6956 188.583 290.3068 189.1338 289.7296 189.2178C287.2808 189.5934 287.205 189.614 287.0716 189.614Z" stroke-width="1"></path><path fill="#00030b" d="M158.126 88.5662C157.565 88.5494 157.1038 88.1188 157.0484 87.5606C157.032 87.3922 156.9826 86.8812 157.7832 85.9184C158.5836 84.9538 159.1008 84.921 159.2692 84.9066C159.8712 84.8568 160.4012 85.3006 160.4576 85.902C160.472 86.0704 160.5212 86.5856 159.7208 87.544C159.0722 88.3158 158.5406 88.5682 158.126 88.5682Z" stroke-width="1"></path><path fill="#00030b" d="M173.058 89.7876C172.4954 89.7702 172.034 89.336 171.9826 88.7756C171.966 88.6074 171.9188 88.0922 172.7194 87.1336C173.8072 85.8364 174.5666 86.0006 175.0018 86.37C175.2192 86.5618 175.358 86.8272 175.3918 87.1152C175.4082 87.2834 175.4574 87.7986 174.6548 88.7572C174.0002 89.535 173.4686 89.7874 173.058 89.7874Z" stroke-width="1"></path><path fill="#00030b" d="M237.2588 40.7712C208.3614 17.6926 181.34 2.3994 172.6722 4.1338C172.4502 4.1346 172.2344 4.2066 172.0564 4.339C169.903 5.7904 167.8636 7.4042 165.9562 9.1666C160.1538 16.4324 186.9742 44.2646 215.1572 66.7726C223.9174 73.7676 232.6038 80.1406 241.019 85.7174C238.833 90.1672 237.7124 90.3356 238.2994 91.3372C238.3876 91.489 247.1602 106.653 247.1704 118.6214C247.1722 118.994 247.3746 119.3368 247.7 119.5182C248.0268 119.6992 248.4262 119.6882 248.7426 119.4896C255.9758 114.5552 261.6634 107.673 265.1464 99.6396C269.4834 101.6306 278.9948 105.6904 282.1248 102.1294L286.23 98.599C286.3244 98.5392 286.4082 98.4644 286.4782 98.3772C292.2644 91.1154 265.442 63.275 237.2588 40.7712ZM216.436 65.1736C183.1154 38.573 163.9386 14.9834 167.5572 10.4472C168.0886 9.9162 168.8182 9.6326 169.5688 9.6652C171.6684 19.2916 192.2204 41.3952 219.4184 63.1108C227.3986 69.484 235.352 75.3582 243.0716 80.5778C242.7272 81.6804 242.3306 82.7662 241.8832 83.831C233.6074 78.3282 225.0546 72.0496 216.436 65.1716ZM246.4132 67.9734C245.911 67.6426 245.2332 67.8146 244.9496 68.3448C244.8596 68.512 244.8176 68.701 244.8286 68.8908C244.8718 72.1332 244.4754 75.3666 243.6504 78.5028C235.7828 73.1326 228.1232 67.4634 220.6888 61.5078C194.667 40.722 174.2178 19.0638 171.691 9.7966C175.125 10.318 180.7016 12.348 188.9322 16.7876C204.006 25.2944 218.3282 35.0688 231.7438 46.0052C260.3518 68.8416 278.5372 89.4694 280.8154 97.7122C276.8212 97.1438 270.6656 94.6336 262.8722 90.3848C260.1136 83.4144 254.9536 73.546 246.413 67.9712ZM241.3496 92.661C246.054 90.7646 247.7698 90.7276 248.0306 90.8384C248.324 91.4808 247.9586 93.6422 245.6948 100.5632C245.5174 101.0912 245.7972 101.6638 246.3228 101.8482C246.4892 101.9076 246.668 101.9232 246.8422 101.8932C250.51 101.2776 254.3728 101.3308 254.7854 101.9958C255.1958 103.8268 252.2074 110.048 248.9234 114.463C247.585 106.8362 245.0278 99.4748 241.3496 92.661ZM250.7912 115.3702C253.989 110.9716 257.431 104.3748 256.7784 101.5362C256.2056 99.0608 251.3904 99.2168 248.1578 99.6252C249.7854 94.617 250.5694 91.4152 249.8818 89.962C248.6914 87.4414 243.008 89.7772 240.426 90.8158C244.3482 84.8542 246.5752 77.938 246.8688 70.8078C258.0324 79.293 262.741 96.0292 263.3874 98.5024C260.6028 105.052 256.2856 110.8368 250.7994 115.37H250.7912ZM280.645 100.6844L280.1832 101.0948C279.0154 101.7722 275.4974 102.2628 265.2244 97.4352C264.8432 96.0424 264.4148 94.663 263.9396 93.2994C269.508 96.2202 276.267 99.2764 281.0064 99.8162C280.959 100.1294 280.838 100.427 280.6532 100.6844H280.645ZM284.9308 96.9898L282.991 98.6606C280.2386 83.825 244.804 53.811 233.0164 44.398C219.507 33.3862 205.0852 23.5438 189.9072 14.9772C181.5452 10.4616 175.2522 8.0232 171.0836 7.66L173.0744 6.1432C179.9402 4.7352 205.1758 17.781 235.978 42.3764C269.0318 68.7676 288.1758 92.1972 284.939 96.9918L284.9306 96.9898Z" stroke-width="1"></path><path fill="#00030b" d="M135.6036 72.5812C134.8692 71.7572 133.776 71.3472 132.6808 71.4852C131.9058 71.6382 131.587 72.5728 132.107 73.1676C132.3204 73.4116 132.6366 73.5406 132.96 73.5152C134.0868 73.3694 135.0124 75.0914 135.423 76.167C135.0144 76.1634 134.6114 76.0702 134.2428 75.894C133.5358 75.54 132.7106 76.0842 132.7576 76.8736C132.7796 77.24 132.9952 77.5668 133.3232 77.731C134.1382 78.121 135.0432 78.2872 135.9444 78.2112C136.088 79.1882 136.0756 80.1818 135.9074 81.1566C135.7636 81.935 136.5164 82.5772 137.2624 82.3126C137.3514 82.281 137.4354 82.2374 137.5124 82.183C137.7358 82.0232 137.8858 81.7808 137.9292 81.5096C138.507 78.3362 137.6562 75.0694 135.6036 72.5812Z" stroke-width="1"></path></svg>