<svg width="46" height="45" viewBox="0 0 46 45" fill="none" xmlns="http://www.w3.org/2000/svg">
<path d="M41.3853 18.8278H39.875V18.75H23V26.25H33.5966C32.0506 30.6159 27.8966 33.75 23 33.75C16.7872 33.75 11.75 28.7128 11.75 22.5C11.75 16.2872 16.7872 11.25 23 11.25C25.8678 11.25 28.4769 12.3319 30.4634 14.0991L35.7669 8.79562C32.4181 5.67469 27.9387 3.75 23 3.75C12.6453 3.75 4.25 12.1453 4.25 22.5C4.25 32.8547 12.6453 41.25 23 41.25C33.3547 41.25 41.75 32.8547 41.75 22.5C41.75 21.2428 41.6206 20.0156 41.3853 18.8278Z" fill="#FFC107"/>
<path d="M6.41187 13.7728L12.5722 18.2906C14.2391 14.1638 18.2759 11.25 23 11.25C25.8678 11.25 28.4769 12.3319 30.4634 14.0991L35.7669 8.79562C32.4181 5.67469 27.9387 3.75 23 3.75C15.7981 3.75 9.55249 7.81594 6.41187 13.7728Z" fill="#FF3D00"/>
<path d="M23 41.25C27.8432 41.25 32.2438 39.3966 35.571 36.3825L29.7679 31.4719C27.8221 32.9516 25.4445 33.752 23 33.75C18.1232 33.75 13.9822 30.6403 12.4222 26.3007L6.30786 31.0116C9.41099 37.0838 15.7129 41.25 23 41.25Z" fill="#4CAF50"/>
<path d="M41.3853 18.8278H39.875V18.75H23V26.25H33.5966C32.8571 28.3279 31.525 30.1436 29.765 31.4728L29.7678 31.4709L35.5709 36.3816C35.1603 36.7547 41.75 31.875 41.75 22.5C41.75 21.2428 41.6206 20.0156 41.3853 18.8278Z" fill="#1976D2"/>
</svg>
