<svg width="1000" height="669" viewBox="0 0 1000 669" fill="none" xmlns="http://www.w3.org/2000/svg">
<g clip-path="url(#clip0_109_1427)">
<path d="M621.412 295.722C619.421 339.276 576.609 372.648 544.54 374.664C502.171 377.326 471.889 339.116 467.671 295.722C464.016 258.129 477.365 258.689 487.309 243.02C499.357 224.033 521.809 213.542 544.54 213.542C586.995 213.542 624.087 237.125 621.412 295.722Z" fill="black"/>
<path d="M574.332 370.597V445.189H514.751V370.597H574.332Z" fill="#F3A29C"/>
<path d="M611.468 327.09C622.095 310.962 635.617 310.254 641.264 329.329C646.911 348.405 628.273 364.1 613.1 358.308C597.925 352.516 611.468 327.09 611.468 327.09Z" fill="#F3A29C"/>
<path d="M624.013 327.511C631.132 326.208 634.78 347.419 619.168 348.119L622.379 340.718L619.365 334.562L624.013 327.511Z" fill="#EF7691"/>
<path d="M617.076 351.258C620.845 347.243 621.993 343.673 621.991 340.857C621.987 336.789 619.633 334.362 619.605 334.331L619.365 334.563L619.665 334.71C619.667 334.707 619.944 334.138 620.424 333.274C621.144 331.979 622.316 330.034 623.649 328.428C624.977 326.814 626.489 325.59 627.713 325.611C628.336 325.615 628.929 325.883 629.533 326.638C630.132 327.392 630.703 328.636 631.176 330.495L631.821 330.331C631.333 328.418 630.743 327.095 630.056 326.224C629.373 325.354 628.553 324.941 627.713 324.945C626.617 324.95 625.565 325.589 624.573 326.482C621.612 329.171 619.079 334.401 619.067 334.417L618.964 334.627L619.127 334.795L619.212 334.891C619.624 335.363 621.327 337.534 621.324 340.857C621.323 343.489 620.271 346.875 616.591 350.802L617.076 351.258Z" fill="#DE677E"/>
<path d="M477.117 327.09C466.488 310.962 452.967 310.254 447.32 329.329C441.673 348.405 460.309 364.1 475.484 358.308C490.657 352.516 477.117 327.09 477.117 327.09Z" fill="#F3A29C"/>
<path d="M464.571 327.511C457.452 326.208 453.804 347.419 469.416 348.119L466.205 340.718L469.219 334.562L464.571 327.511Z" fill="#EF7691"/>
<path d="M471.995 350.8C468.313 346.875 467.261 343.489 467.26 340.857C467.26 338.955 467.813 337.436 468.367 336.391C468.644 335.868 468.92 335.466 469.125 335.195C469.228 335.06 469.313 334.958 469.372 334.891L469.457 334.795L469.62 334.627L469.517 334.417C469.513 334.409 468.377 332.076 466.751 329.731C465.937 328.556 465.001 327.379 464.011 326.482C463.019 325.589 461.965 324.95 460.871 324.945C460.031 324.941 459.211 325.354 458.528 326.224C457.84 327.095 457.251 328.418 456.761 330.331L457.408 330.495C457.881 328.636 458.452 327.392 459.051 326.638C459.655 325.883 460.247 325.615 460.871 325.611C461.685 325.606 462.631 326.128 463.563 326.975C464.963 328.24 466.312 330.18 467.3 331.799C467.795 332.608 468.2 333.338 468.481 333.863C468.763 334.39 468.917 334.708 468.919 334.71L469.219 334.563L468.979 334.331C468.951 334.362 466.597 336.787 466.593 340.857C466.591 343.673 467.739 347.243 471.508 351.258L471.995 350.802" fill="#DE677E"/>
<path d="M574.332 372.248V399.996C552.92 429.01 514.751 419.576 514.751 419.576L515.417 372.248H574.332Z" fill="#DE677E"/>
<path d="M544.54 404.041C508.972 404.041 480.14 375.209 480.14 339.642V292.581C480.14 268.558 499.613 249.084 523.637 249.084H565.443C589.467 249.084 608.94 268.558 608.94 292.581V339.642C608.94 375.209 580.108 404.041 544.54 404.041Z" fill="#F3A29C"/>
<path d="M553.783 348.06C553.783 350.615 552.749 352.92 551.076 354.595C549.401 356.268 547.095 357.3 544.54 357.301C541.987 357.3 539.68 356.268 538.007 354.595C536.333 352.92 535.3 350.615 535.3 348.06H533.967C533.967 353.901 538.7 358.633 544.54 358.635C550.381 358.633 555.116 353.901 555.116 348.06H553.783Z" fill="#D82B62"/>
<path d="M486.944 251.963C486.944 251.963 475.664 233.266 489.792 216.78C489.792 216.78 499.943 235.575 486.944 251.963Z" fill="black"/>
<path d="M492.673 247.523C492.673 247.523 476.967 262.692 457.743 252.6C457.743 252.6 473.799 238.511 492.673 247.523Z" fill="black"/>
<path d="M518.967 324.945C518.967 330.27 516.697 334.586 513.901 334.586C511.103 334.586 508.835 330.27 508.835 324.945C508.835 319.619 511.103 315.303 513.901 315.303C516.697 315.303 518.967 319.619 518.967 324.945Z" fill="#2A2E4B"/>
<path d="M537.179 324.228H534.512C534.511 330.652 531.916 336.442 527.708 340.656C523.496 344.864 517.705 347.458 511.281 347.46C504.857 347.458 499.067 344.864 494.855 340.656C490.647 336.442 488.052 330.652 488.051 324.228C488.052 317.805 490.647 312.014 494.855 307.801C499.067 303.593 504.857 300.998 511.281 300.997C517.705 300.998 523.496 303.593 527.708 307.801C531.916 312.014 534.511 317.805 534.512 324.228H537.179H539.845C539.844 308.452 527.059 295.665 511.281 295.664C495.504 295.665 482.719 308.452 482.717 324.228C482.719 340.005 495.504 352.79 511.281 352.793C527.059 352.792 539.844 340.005 539.845 324.228H537.179Z" fill="white"/>
<path d="M580.247 324.945C580.247 330.27 577.977 334.586 575.18 334.586C572.381 334.586 570.115 330.27 570.115 324.945C570.115 319.619 572.381 315.303 575.18 315.303C577.977 315.303 580.247 319.619 580.247 324.945Z" fill="#2A2E4B"/>
<path d="M603.696 324.228H601.029C601.028 330.652 598.433 336.442 594.225 340.656C590.013 344.864 584.221 347.458 577.799 347.46C571.375 347.458 565.584 344.864 561.372 340.656C557.164 336.442 554.569 330.652 554.568 324.228C554.569 317.805 557.164 312.014 561.372 307.801C565.584 303.593 571.375 300.998 577.799 300.997C584.221 300.998 590.013 303.593 594.225 307.801C598.433 312.014 601.028 317.805 601.029 324.228H603.696H606.363C606.361 308.452 593.575 295.665 577.799 295.664C562.023 295.665 549.236 308.452 549.235 324.228C549.236 340.005 562.023 352.79 577.799 352.793C593.575 352.79 606.361 340.005 606.363 324.228H603.696Z" fill="white"/>
<path d="M488.121 267.463C488.121 267.463 529.035 245.895 556.22 261.527C583.407 277.159 586.465 309.442 613.309 301.087C613.309 301.087 633.699 292.111 611.271 260.847C588.844 229.584 573.499 223.467 544.301 230.263C515.101 237.059 496.104 242.344 488.121 267.463Z" fill="black"/>
<path d="M486.557 267.152C486.557 267.152 500.063 249.246 518.967 244.511C537.869 239.779 558.78 263.031 558.78 263.031C558.78 263.031 510.345 256.126 486.557 267.152Z" fill="black"/>
<path d="M480.239 289.677C480.239 289.677 484.795 322.911 480.239 343.193C480.239 343.193 473.58 291.66 480.239 289.677Z" fill="black"/>
<path d="M608.472 289.677C608.472 289.677 603.917 322.911 608.472 343.193C608.472 343.193 615.132 291.66 608.472 289.677Z" fill="black"/>
<path d="M525.445 287.083C518.417 283.719 505.919 280.027 494.34 288.275C492.397 289.658 493.136 292.713 495.485 293.118C499.2 293.758 504.529 294.421 510.563 294.383C515.252 294.353 520.803 293.199 524.947 292.133C527.383 291.506 527.715 288.169 525.445 287.083Z" fill="black"/>
<path d="M593.305 287.083C586.279 283.719 573.78 280.027 562.2 288.275C560.259 289.658 560.997 292.713 563.347 293.118C567.061 293.758 572.392 294.421 578.424 294.383C583.113 294.353 588.663 293.199 592.807 292.133C595.244 291.506 595.576 288.169 593.305 287.083Z" fill="black"/>
<path d="M566.324 371.32C565.656 372.512 564.867 373.759 563.787 375C560.344 379.144 554.497 383.126 544.483 383.308L544.468 383.354L543.732 383.339L543.704 383.279C534.313 383.094 528.528 379.56 525.037 375.66C523.687 374.196 522.66 372.647 521.923 371.254C520.255 368.051 519.82 365.532 519.82 365.532L568.448 365.624C568.448 365.624 568.047 368.142 566.324 371.32Z" fill="#E72B61"/>
<path d="M566.324 371.32C565.656 372.512 564.867 373.759 563.787 375C552.625 370.096 539.199 369.069 525.037 375.66C523.687 374.196 522.66 372.647 521.923 371.254C520.255 368.051 519.82 365.532 519.82 365.532L568.448 365.624C568.448 365.624 568.047 368.142 566.324 371.32Z" fill="#2A2E4B"/>
<path d="M751.241 630.466L315.295 630.918C315.295 630.918 323.428 613.906 335.135 591.359C336.001 589.692 336.893 587.985 337.801 586.251C353.788 555.758 375.295 517.239 392.081 496.346C411.415 472.293 457.095 455.145 488.121 445.771C506.2 440.318 519.295 437.506 519.295 437.506H569.373C569.373 437.506 581.133 440.026 597.747 444.945C628.747 454.105 675.093 472.906 696.587 496.346C701.307 501.491 705.747 507.718 709.908 514.626C736.36 558.585 751.241 630.466 751.241 630.466Z" fill="#55F2C3"/>
<path d="M315.295 630.918C315.295 630.918 315.348 630.806 315.453 630.586H423.389V630.806L315.295 630.918ZM427.389 630.802V630.586H567.987C568.276 630.586 568.565 630.578 568.848 630.555C568.932 630.55 569.016 630.542 569.099 630.534C576.732 629.838 575.928 618.303 568.271 618.303H485.319C485.319 618.299 485.316 618.291 485.312 618.278C485.301 618.243 485.28 618.17 485.248 618.063L482.881 611.382C605.827 606.433 674.056 543.208 693.485 522.139C697.709 517.558 703.575 514.801 709.803 514.629L709.908 514.626C736.36 558.585 751.241 630.466 751.241 630.466L427.389 630.802Z" fill="#55F2C3"/>
<path d="M537.7 331.299H551.379V325.965H537.7V331.299Z" fill="white"/>
<path d="M597.748 444.94C543.783 504.313 488.121 445.778 488.121 445.778C506.203 440.313 519.3 437.5 519.3 437.5H569.377C569.377 437.5 581.137 440.029 597.748 444.94Z" fill="#F3A29C"/>
<path d="M423.389 631H427.389V563.29H423.389V631Z" fill="#F57819"/>
<path d="M426.963 605.21L408.781 582.03L405.635 584.498L423.816 607.68L426.963 605.21Z" fill="#F57819"/>
<path d="M660.459 631H664.459V563.29H660.459V631Z" fill="white"/>
<path d="M664.032 607.68L680.175 587.097L677.028 584.629L660.884 605.21" fill="white"/>
<path d="M484.409 473.199C484.483 473.248 491.777 478.226 503.213 483.214C514.649 488.198 530.232 493.21 546.937 493.215C555.693 493.215 564.76 491.828 573.645 488.311C582.531 484.796 591.221 479.145 599.201 470.703L596.295 467.955C588.693 475.991 580.525 481.284 572.173 484.592C563.821 487.898 555.275 489.214 546.937 489.215C531.041 489.22 515.925 484.398 504.812 479.547C499.255 477.124 494.7 474.699 491.543 472.885C489.965 471.979 488.736 471.225 487.907 470.701C487.492 470.439 487.177 470.235 486.968 470.098L486.736 469.943L486.665 469.896L484.409 473.199Z" fill="#FFFBF8"/>
<path d="M602.525 563.33L616.787 544.629L616.61 549.718L602.939 531.491H613.296L621.936 543.386L618.03 543.504L626.967 531.491H636.791L623.061 549.541V544.57L637.264 563.33H626.789L617.734 550.665L621.581 551.198L612.586 563.33H602.525Z" fill="white"/>
<path d="M486.569 239.459C501.593 176.314 652.109 183.262 624.101 306.204C615.711 343.031 554.367 222.491 501.424 252.063C497.467 254.273 492.535 253.702 489.225 250.603C486.187 247.756 485.605 243.51 486.569 239.459Z" fill="black"/>
<path d="M569.241 630.506L569.093 630.532C568.735 630.572 568.361 630.586 567.987 630.586H276C272.121 630.586 268.668 628.786 266.415 625.959C264.735 623.864 263.735 621.198 263.735 618.306L263.693 618.172L218.227 489.704C214.747 479.891 222.028 469.584 232.441 469.584H422.015C428.415 469.584 434.107 473.611 436.241 479.638L485.241 618.066C485.295 618.224 485.321 618.306 485.321 618.306H568.267C575.88 618.306 576.721 629.692 569.241 630.506Z" fill="#67AEBB"/>
<path d="M351.488 547.14C356.281 561.08 350.861 575.58 339.38 579.528C327.9 583.476 314.707 575.376 309.913 561.437C305.119 547.497 310.54 532.997 322.021 529.049C333.501 525.101 346.695 533.2 351.488 547.14Z" fill="white"/>
<path d="M568.271 618.303H485.319C485.319 618.303 485.296 618.22 485.248 618.063L436.24 479.635C434.104 473.61 428.415 469.589 422.017 469.589H415.679C415.679 469.589 429.843 470.514 433.384 483.189C436.924 495.851 485.319 630.318 485.319 630.318L488.896 630.582H567.981C568.365 630.582 568.739 630.57 569.099 630.534C576.732 629.838 575.928 618.303 568.271 618.303Z" fill="#3B719A"/>
<path d="M567.987 630.586H276C272.121 630.586 268.668 628.786 266.415 625.959C273.577 626.574 280.415 626.87 286.939 626.87C428.668 626.87 423.281 487.718 422.141 471.183C426.369 472.863 431.453 476.28 433.384 483.188C436.924 495.851 485.319 630.318 485.319 630.318L488.896 630.582H567.981C568.277 630.582 568.567 630.575 568.848 630.555C568.565 630.578 568.276 630.586 567.987 630.586ZM485.319 618.303C485.319 618.303 485.317 618.294 485.312 618.278C485.316 618.291 485.319 618.299 485.32 618.303M435.411 477.724C432.845 472.775 427.711 469.588 422.017 469.588H422.015C422.015 469.586 422.015 469.584 422.015 469.584C427.709 469.584 432.845 472.774 435.411 477.724Z" fill="#58A5B0"/>
<path d="M567.981 630.582H488.896L485.319 630.318C485.319 630.318 436.924 495.851 433.384 483.189C431.453 476.281 426.369 472.863 422.141 471.183C422.073 470.19 422.02 469.641 422.015 469.589H422.017C427.711 469.589 432.845 472.775 435.411 477.725C435.413 477.727 435.415 477.731 435.416 477.734C435.417 477.737 435.419 477.738 435.42 477.741C435.733 478.347 436.008 478.981 436.241 479.638L485.241 618.066C485.276 618.171 485.3 618.243 485.312 618.278C485.317 618.294 485.319 618.303 485.319 618.303C485.321 618.304 485.321 618.306 485.321 618.306H566.961C567.841 622.346 568.615 626.413 569.241 630.506L569.093 630.533C569.012 630.541 568.931 630.549 568.848 630.555C568.567 630.575 568.277 630.582 567.981 630.582Z" fill="#3D809B"/>
<path d="M222.044 545.779V550.078C214.276 550.966 212.376 557.534 212.376 565.531V568.174C212.376 576.17 214.276 582.739 222.044 583.628V587.904H73.524C67.4297 587.904 62.4921 582.967 62.4921 576.871V556.832C62.4921 550.738 67.4297 545.779 73.524 545.779H222.044Z" fill="#3B719A"/>
<path d="M219.729 579.226C220.619 581.333 218.987 583.628 216.713 583.628L74.7844 583.73V549.973L216.713 550.077C217.54 550.077 218.284 550.385 218.841 550.881C219.833 551.708 220.288 553.135 219.729 554.476C218.552 557.287 218.593 561.192 218.593 565.53V568.173C218.593 572.512 218.552 576.417 219.729 579.226Z" fill="white"/>
<path d="M82.0973 569.701V549.977L192.004 550.057C191.935 550.27 193.081 551.149 194.817 552.351C178.52 553.463 156.32 555.197 135.897 557.533H82.3391V560.577H113.045C105.633 561.744 99.0484 563.015 93.8495 564.387H82.3391V567.428H85.1271C83.6797 568.163 82.6484 568.921 82.0973 569.701Z" fill="#CAEDEF"/>
<path d="M82.0973 587.912H69.6177C65.6828 587.912 62.4927 584.721 62.4927 580.787V552.915C62.4927 548.979 65.6828 545.79 69.6177 545.79H82.0973V587.912Z" fill="#3B719A"/>
<path d="M188.38 583.646C196.597 582.712 201.628 579.654 204.703 576.146H218.593V573.104H206.868C208.004 571.113 208.655 569.128 209.025 567.429H218.593V568.173C218.593 568.461 218.593 568.748 218.593 569.032C218.593 573.025 218.631 576.604 219.729 579.226C219.74 579.252 219.751 579.276 219.76 579.301C219.909 579.68 219.977 580.064 219.976 580.44C219.971 582.126 218.551 583.626 216.713 583.626L188.38 583.646Z" fill="#CAEDEF"/>
<path d="M218.593 564.387H209.459C209.533 563.272 209.481 562.594 209.481 562.594C209.54 562.386 208.588 561.627 207.103 560.577H218.593V557.534H202.601C199.887 555.739 196.919 553.807 194.817 552.351C208.568 551.413 218.111 550.919 218.841 550.88C219.539 551.461 219.971 552.339 219.972 553.276C219.972 553.671 219.896 554.077 219.729 554.475C219.665 554.63 219.604 554.786 219.547 554.946C218.649 557.455 218.596 560.74 218.593 564.387Z" fill="#CAEDEF"/>
<path d="M216.713 550.076L192.004 550.058C192.004 550.056 192.005 550.056 192.005 550.055L216.713 550.076Z" fill="#5799B5"/>
<path d="M194.817 552.352C193.081 551.15 191.935 550.271 192.004 550.058L216.713 550.077C217.54 550.077 218.284 550.385 218.841 550.881C218.111 550.92 208.568 551.414 194.817 552.352Z" fill="#AEE4E9"/>
<path d="M209.025 567.428H85.1271C87.224 566.365 90.1959 565.351 93.8495 564.387H209.459C209.404 565.2 209.283 566.245 209.025 567.428Z" fill="#CAEDEF"/>
<path d="M85.127 567.428H82.3391V564.387H93.8494C90.1958 565.351 87.224 566.365 85.127 567.428Z" fill="#AEE4E9"/>
<path d="M218.593 567.428H209.025C209.283 566.245 209.404 565.2 209.459 564.387H218.593C218.593 564.481 218.593 564.575 218.593 564.669C218.593 564.955 218.593 565.24 218.593 565.529V567.428Z" fill="#AEE4E9"/>
<path d="M207.103 560.578H113.045C120.073 559.47 127.847 558.456 135.897 557.534H202.601C204.288 558.65 205.876 559.713 207.103 560.578Z" fill="#CAEDEF"/>
<path d="M113.045 560.578H82.3391V557.534H135.897C127.847 558.456 120.073 559.47 113.045 560.578Z" fill="#AEE4E9"/>
<path d="M218.593 560.578H207.103C205.876 559.713 204.288 558.65 202.601 557.534H218.593V560.578Z" fill="#AEE4E9"/>
<path d="M204.703 576.146H82.3391V573.104H206.868C206.284 574.129 205.572 575.156 204.703 576.146Z" fill="#CAEDEF"/>
<path d="M218.593 576.146H204.703C205.572 575.156 206.284 574.129 206.868 573.104H218.593V576.146Z" fill="#AEE4E9"/>
<path d="M174.705 577.426L167.461 570.201L160.216 577.426V557.534H174.705V577.426Z" fill="#E72B61"/>
<path d="M237.931 587.759V592.057C230.163 592.945 228.261 599.515 228.261 607.51V610.154C228.261 618.149 230.163 624.72 237.931 625.608V629.885H89.4109C83.3167 629.885 78.3787 624.946 78.3787 618.853V598.811C78.3787 592.718 83.3167 587.759 89.4109 587.759H237.931Z" fill="#58A5B0"/>
<path d="M235.616 621.208C236.505 623.315 234.873 625.608 232.6 625.608L90.6703 625.711V591.955L232.6 592.057C233.427 592.057 234.171 592.367 234.728 592.864C235.72 593.691 236.175 595.115 235.616 596.459C234.439 599.268 234.48 603.172 234.48 607.511V610.155C234.48 614.493 234.439 618.399 235.616 621.208Z" fill="white"/>
<path d="M97.9839 611.686V591.96L207.891 592.04C207.823 592.254 208.969 593.132 210.704 594.335C194.407 595.445 172.208 597.18 151.783 599.517H98.226V602.56H128.928C121.516 603.728 114.932 604.999 109.733 606.369H98.226V609.412H101.011C99.564 610.145 98.5355 610.903 97.9844 611.684C97.9844 611.684 97.9839 611.684 97.9839 611.686Z" fill="#CAEDEF"/>
<path d="M97.9839 629.893H85.5047C81.5688 629.893 78.3797 626.702 78.3797 622.768V594.894C78.3797 590.959 81.5688 587.769 85.5047 587.769H97.9839V629.893Z" fill="#58A5B0"/>
<path d="M204.267 625.629C204.268 625.629 204.269 625.629 204.271 625.628L232.6 625.608L204.267 625.629Z" fill="#C36493"/>
<path d="M204.271 625.627C212.487 624.692 217.515 621.634 220.589 618.128H234.48V615.086H222.755C223.891 613.094 224.541 611.11 224.911 609.411H234.48V610.153C234.48 610.442 234.48 610.728 234.48 611.012C234.48 615.006 234.517 618.584 235.616 621.207C235.787 621.611 235.864 622.02 235.863 622.42C235.86 623.344 235.432 624.212 234.745 624.808C234.177 625.3 233.432 625.607 232.6 625.607L204.271 625.627Z" fill="#CAEDEF"/>
<path d="M234.48 606.369H225.345C225.42 605.254 225.368 604.577 225.368 604.577C225.427 604.368 224.475 603.609 222.989 602.56H234.48V599.517H218.488C215.773 597.721 212.807 595.79 210.704 594.335C224.449 593.396 233.997 592.902 234.728 592.864C235.425 593.445 235.857 594.321 235.859 595.259C235.859 595.654 235.783 596.06 235.616 596.459C234.543 599.02 234.483 602.489 234.48 606.369Z" fill="#CAEDEF"/>
<path d="M232.6 592.057L207.891 592.039C207.891 592.038 207.892 592.037 207.892 592.035L232.6 592.057Z" fill="#C36493"/>
<path d="M210.704 594.334C208.969 593.131 207.823 592.253 207.891 592.039L232.6 592.056C233.427 592.056 234.171 592.366 234.728 592.863C233.997 592.902 224.449 593.395 210.704 594.334Z" fill="#AEE4E9"/>
<path d="M224.911 609.412H101.011C103.108 608.348 106.079 607.333 109.733 606.369H225.345C225.291 607.183 225.169 608.228 224.911 609.412Z" fill="#CAEDEF"/>
<path d="M101.011 609.412H98.226V606.369H109.733C106.079 607.333 103.108 608.348 101.011 609.412Z" fill="#AEE4E9"/>
<path d="M234.48 609.412H224.911C225.169 608.228 225.291 607.183 225.345 606.369H234.48C234.48 606.464 234.48 606.557 234.48 606.652C234.48 606.936 234.48 607.223 234.48 607.511V609.412Z" fill="#AEE4E9"/>
<path d="M222.989 602.559H128.928C135.956 601.452 143.731 600.437 151.783 599.516H218.488C220.175 600.631 221.763 601.694 222.989 602.559Z" fill="#CAEDEF"/>
<path d="M128.928 602.559H98.226V599.516H151.783C143.731 600.437 135.956 601.452 128.928 602.559Z" fill="#AEE4E9"/>
<path d="M234.48 602.559H222.989C221.763 601.694 220.175 600.631 218.488 599.516H234.48V602.559Z" fill="#AEE4E9"/>
<path d="M220.589 618.129H98.226V615.087H222.755C222.171 616.111 221.459 617.137 220.589 618.129Z" fill="#CAEDEF"/>
<path d="M234.48 618.129H220.589C221.459 617.137 222.171 616.111 222.755 615.087H234.48V618.129Z" fill="#AEE4E9"/>
<path d="M219.576 622.057L211.921 614.422L204.267 622.057V601.038H219.576V622.057Z" fill="#E72B61"/>
<path d="M957.133 648.187V651.265C957.133 660.68 949.493 668.305 940.08 668.305H68.0271C60.0948 668.305 53.4276 662.892 51.5208 655.573L51.5073 655.532C51.1609 654.158 50.974 652.733 50.974 651.265V648.187C50.974 638.771 58.6011 631.145 68.0271 631.145H940.08C949.493 631.145 957.133 638.771 957.133 648.187Z" fill="#3C5282"/>
<path d="M940.08 668.305H68.0271C60.0948 668.305 53.4276 662.892 51.5208 655.573L51.5073 655.532C51.1479 652.799 50.974 651.265 50.974 651.265C142.155 654.442 230.319 655.737 313.3 655.737C675.351 655.737 940.08 631.145 940.08 631.145C949.493 631.145 957.133 638.771 957.133 648.187V651.265C957.133 658.069 953.144 663.938 947.379 666.67C945.165 667.72 942.691 668.305 940.08 668.305Z" fill="#2D3A5D"/>
<path d="M912.393 191.662C906.316 191.662 901.389 186.737 901.389 180.658C901.389 174.581 906.316 169.654 912.393 169.654C918.472 169.654 923.397 174.581 923.397 180.658C923.397 186.737 918.472 191.662 912.393 191.662ZM935.387 180.977L935.4 180.658L935.387 180.353C936.981 179.618 938.591 178.771 940.173 177.745C941.865 176.579 943.587 175.233 945.183 173.693L944.836 172.333C944.503 170.793 943.907 169.309 943.364 167.823C943.06 167.102 942.699 166.394 942.352 165.686C942.032 164.95 941.644 164.271 941.215 163.605L940.492 162.411C938.313 162.425 936.108 162.702 934.095 163.078C932.279 163.451 930.516 163.993 928.879 164.618L928.435 164.174C929.045 162.522 929.6 160.774 929.961 158.957C930.349 156.945 930.627 154.738 930.64 152.559L929.448 151.838C928.781 151.407 928.087 151.019 927.365 150.699C926.657 150.353 925.951 149.993 925.215 149.687C923.731 149.146 922.259 148.549 920.719 148.217L919.36 147.869C917.82 149.465 916.473 151.171 915.307 152.878C914.281 154.447 913.435 156.057 912.699 157.666L912.393 157.638L912.075 157.666C911.353 156.057 910.492 154.447 909.465 152.878C908.313 151.171 906.955 149.465 905.428 147.869L904.068 148.217C902.515 148.549 901.043 149.146 899.559 149.687C898.837 149.993 898.129 150.353 897.408 150.699C896.687 151.019 896.007 151.407 895.325 151.838L894.133 152.559C894.16 154.738 894.437 156.945 894.812 158.957C895.187 160.774 895.728 162.522 896.353 164.174C896.2 164.326 896.047 164.465 895.909 164.618C894.257 163.993 892.509 163.451 890.692 163.078C888.68 162.702 886.46 162.425 884.295 162.411L883.559 163.605C883.143 164.271 882.753 164.95 882.421 165.686C882.088 166.394 881.728 167.102 881.421 167.823C880.867 169.309 880.284 170.793 879.952 172.333L879.604 173.693C881.2 175.233 882.908 176.579 884.613 177.745C886.181 178.771 887.792 179.618 889.387 180.353L889.373 180.658L889.387 180.977C887.792 181.698 886.181 182.559 884.613 183.587C882.908 184.738 881.2 186.098 879.604 187.625L879.952 188.985C880.284 190.525 880.867 192.009 881.421 193.494C881.728 194.215 882.088 194.923 882.421 195.645C882.753 196.366 883.143 197.046 883.559 197.713L884.295 198.906C886.46 198.893 888.68 198.614 890.692 198.239C892.509 197.865 894.257 197.323 895.909 196.699C896.047 196.851 896.2 197.005 896.353 197.143C895.728 198.794 895.187 200.543 894.812 202.361C894.437 204.373 894.16 206.593 894.133 208.758L895.325 209.493C896.007 209.909 896.687 210.298 897.408 210.617C898.129 210.963 898.837 211.325 899.559 211.63C901.043 212.185 902.515 212.767 904.068 213.101L905.428 213.447C906.955 211.851 908.313 210.145 909.465 208.438C910.492 206.87 911.353 205.261 912.075 203.651L912.393 203.679L912.699 203.651C913.435 205.261 914.281 206.87 915.307 208.438C916.473 210.145 917.82 211.851 919.36 213.447L920.719 213.101C922.259 212.767 923.731 212.185 925.215 211.63C925.951 211.325 926.657 210.963 927.365 210.617C928.087 210.298 928.781 209.909 929.448 209.493L930.64 208.758C930.627 206.593 930.349 204.373 929.961 202.361C929.6 200.543 929.045 198.794 928.435 197.143C928.587 197.005 928.727 196.851 928.879 196.699C930.516 197.323 932.279 197.865 934.095 198.239C936.108 198.614 938.313 198.893 940.492 198.906L941.215 197.713C941.644 197.046 942.032 196.366 942.352 195.645C942.699 194.923 943.06 194.215 943.364 193.494C943.907 192.009 944.503 190.525 944.836 188.985L945.183 187.625C943.587 186.098 941.865 184.738 940.173 183.587C938.591 182.559 936.981 181.698 935.387 180.977Z" fill="#ADADAD"/>
<path d="M880.851 196.976H875.517V198.309H880.851V196.976ZM870.184 196.976H864.851V198.309H870.184V196.976ZM859.517 196.976H854.184V198.309H859.517V196.976ZM848.851 196.976H843.517V198.309H848.851V196.976ZM838.184 196.976H832.851V198.309H838.184V196.976ZM827.517 196.976H822.184V198.309H827.517V196.976ZM816.851 196.976H811.517V198.309H816.851V196.976ZM805.933 203.392H807.267V198.058H805.933V203.392ZM805.933 214.058H807.267V208.725H805.933V214.058ZM805.933 224.725H807.267V219.392H805.933V224.725ZM805.933 235.392H807.267V230.058H805.933V235.392ZM805.933 246.058H807.267V240.725H805.933V246.058ZM805.933 256.725H807.267V251.392H805.933V256.725ZM805.933 267.392H807.267V262.058H805.933V267.392ZM808.561 271.432H813.895V270.098H808.561V271.432ZM819.228 271.432H824.561V270.098H819.228V271.432Z" fill="#CACACA"/>
<path d="M869.805 317.199H828.985V309.903H869.805V317.199Z" fill="white"/>
<path d="M891.743 330.695H828.985V323.399H891.743V330.695Z" fill="white"/>
<path d="M850.36 344.193H828.985V336.897H850.36V344.193Z" fill="white"/>
<path d="M880.459 344.193H859.084V336.897H880.459V344.193Z" fill="#ADADAD"/>
<path d="M918.801 344.193H888.107V336.897H918.801V344.193Z" fill="#ADADAD"/>
<path d="M918.801 330.695H900.163V323.399H918.801V330.695Z" fill="#ADADAD"/>
<path d="M918.801 317.199H877.981V309.903H918.801V317.199Z" fill="#ADADAD"/>
<path d="M932.393 343.971H933.753V262.657H932.393V343.971Z" fill="white"/>
<path d="M871.593 273.148H829.619V265.646H871.593V273.148Z" fill="white"/>
<path d="M894.152 287.027H829.619V279.525H894.152V287.027Z" fill="white"/>
<path d="M851.599 300.906H829.619V293.404H851.599V300.906Z" fill="white"/>
<path d="M882.549 300.906H860.569V293.404H882.549V300.906Z" fill="#ADADAD"/>
<path d="M921.976 300.906H890.415V293.404H921.976V300.906Z" fill="#ADADAD"/>
<path d="M921.976 287.027H902.809V279.525H921.976V287.027Z" fill="#ADADAD"/>
<path d="M921.976 273.148H880.001V265.646H921.976V273.148Z" fill="#ADADAD"/>
<path d="M776.94 363.193H656.152V125.832H776.94V363.193Z" fill="#3F436D"/>
<path d="M760.599 185.945H669.912V176.313H760.599V185.945Z" fill="white"/>
<path d="M729.933 207.273H669.912V197.641H729.933V207.273Z" fill="white"/>
<path d="M760.599 207.273H738.848V197.641H760.599V207.273Z" fill="#ADADAD"/>
<path d="M760.599 228.602H704.401V218.97H760.599V228.602Z" fill="#ADADAD"/>
<path d="M696.231 228.602H669.912V218.97H696.231V228.602Z" fill="white"/>
<path d="M717.848 249.93H669.912V240.298H717.848V249.93Z" fill="white"/>
<path d="M760.599 249.93H725.231V240.298H760.599V249.93Z" fill="#ADADAD"/>
<path d="M760.599 271.258H696.231V261.626H760.599V271.258Z" fill="#ADADAD"/>
<path d="M689.369 271.258H669.912V261.626H689.369V271.258Z" fill="white"/>
<path d="M708.827 292.586H669.912V282.954H708.827V292.586Z" fill="white"/>
<path d="M760.599 292.586H715.255V282.954H760.599V292.586Z" fill="#ADADAD"/>
<path d="M757.92 339.797V342.507L747.995 346.281V343.675L754.939 341.151L747.995 338.608V336.023L757.92 339.797Z" fill="#ADADAD"/>
<path d="M729.7 336.023V338.608L722.756 341.151L729.7 343.675V346.281L719.775 342.507V339.797L729.7 336.023Z" fill="#ADADAD"/>
<path d="M741.435 328.715H744.54L737.168 349.756H734.064L741.435 328.715Z" fill="#ADADAD"/>
<path d="M712.345 154.558V158.11L699.336 163.057V159.641L708.436 156.334L699.336 152.999V149.61L712.345 154.558Z" fill="#ADADAD"/>
<path d="M688.423 149.61V152.999L679.323 156.334L688.423 159.641V163.057L675.416 158.11V154.558L688.423 149.61Z" fill="#ADADAD"/>
<path d="M84.5312 409.845C73.9344 414.571 61.4683 409.795 56.7421 399.198C53.9307 392.895 54.4828 385.931 57.6219 380.333L57.6917 380.203C59.8312 376.439 63.1401 373.303 67.3896 371.409C68.1844 371.054 68.9948 370.753 69.8093 370.507L70.0656 370.426C74.2751 369.194 78.6412 369.349 82.6104 370.675L82.6588 370.689C86.0593 371.833 89.162 373.839 91.6156 376.567C93.0495 378.157 94.2609 379.998 95.1787 382.055C95.7484 383.335 96.1787 384.641 96.4771 385.955C98.6661 395.549 93.8484 405.69 84.5312 409.845ZM97.224 368.997C94.7167 366.538 91.8208 364.55 88.6817 363.107L88.5098 363.027C84.0854 361.022 79.2 360.073 74.2656 360.345C70.8912 360.523 67.4969 361.283 64.2167 362.661C64.0136 362.747 63.8073 362.835 63.6057 362.925C57.724 365.547 53.0839 369.825 49.9964 374.97C45.0579 383.177 44.0683 393.586 48.2584 402.981C55.0703 418.254 73.0412 425.141 88.3145 418.327C102.316 412.085 109.267 396.466 105.083 382.142C104.704 380.837 104.229 379.545 103.661 378.271C102.068 374.698 99.8645 371.583 97.224 368.997Z" fill="#5C5E94"/>
<path d="M88.6817 363.107C91.8208 364.55 94.7167 366.538 97.224 368.996C99.8645 371.583 102.068 374.698 103.661 378.271C104.229 379.544 104.704 380.836 105.083 382.142L96.4771 385.955C96.1787 384.64 95.7484 383.335 95.1787 382.055C94.2609 379.998 93.0495 378.156 91.6156 376.567C89.162 373.839 86.0593 371.832 82.6588 370.688L82.6104 370.675L88.5099 363.027" fill="#ADADAD"/>
<path d="M88.6817 363.108L82.6588 370.689Z" fill="#ADADAD"/>
<path d="M82.6588 370.689L82.6104 370.676C78.6412 369.349 74.2751 369.195 70.0656 370.427L69.8093 370.508L64.2167 362.661C67.4969 361.284 70.8912 360.524 74.2656 360.345C79.2 360.073 84.0855 361.023 88.5099 363.028" fill="#D82B62"/>
<path d="M77.7125 423.623H79.0459V420.956H77.7125V423.623Z" fill="#CACACA"/>
<path d="M77.7125 433.829H79.0459V428.727H77.7125V433.829ZM77.7125 444.036H79.0459V438.933H77.7125V444.036ZM77.7125 454.243H79.0459V449.14H77.7125V454.243ZM77.7125 464.449H79.0459V459.345H77.7125V464.449Z" fill="#CACACA"/>
<path d="M77.7125 469.553V472.887H81.0459V471.553H79.0459V469.553H77.7125Z" fill="#CACACA"/>
<path d="M86.5323 472.887H92.0198V471.553H86.5323V472.887ZM97.5073 472.887H102.995V471.553H97.5073V472.887ZM108.482 472.887H113.97V471.553H108.482V472.887ZM119.457 472.887H124.945V471.553H119.457V472.887ZM130.432 472.887H135.92V471.553H130.432V472.887ZM141.407 472.887H146.895V471.553H141.407V472.887ZM152.383 472.887H157.869V471.553H152.383V472.887Z" fill="#CACACA"/>
<path d="M163.357 472.887H166.691V469.553H165.357V471.553H163.357V472.887Z" fill="#CACACA"/>
<path d="M166.691 459.166H165.357V464.359H166.691V459.166ZM166.691 448.779H165.357V453.973H166.691V448.779ZM166.691 438.394H165.357V443.587H166.691V438.394ZM166.691 428.007H165.357V433.201H166.691V428.007Z" fill="#CACACA"/>
<path d="M165.357 422.814H166.691V420.148H165.357V422.814Z" fill="#CACACA"/>
<path d="M391.167 417.623H134.037V111.066H391.167V417.623Z" fill="#3F436D"/>
<path d="M391.167 135.041H134.037V96.133H391.167V135.041Z" fill="#5C5E94"/>
<path d="M361.413 396.537V399.062L352.167 402.578V400.15L358.636 397.799L352.167 395.429V393.021L361.413 396.537Z" fill="#ADADAD"/>
<path d="M335.124 393.021V395.429L328.656 397.799L335.124 400.15V402.578L325.877 399.062V396.537L335.124 393.021Z" fill="#ADADAD"/>
<path d="M194.967 159.844V162.995L183.436 167.379V164.351L191.503 161.42L183.436 158.464V155.46L194.967 159.844Z" fill="#ADADAD"/>
<path d="M173.763 155.46V158.464L165.695 161.42L173.763 164.351V167.379L162.231 162.995V159.844L173.763 155.46Z" fill="#ADADAD"/>
<path d="M254.073 199.916H178.491V186.075H254.073V199.916Z" fill="#37BDCF"/>
<path d="M302.515 199.916H264.723V186.075H302.515V199.916Z" fill="#ADADAD"/>
<path d="M363.269 199.916H311.219V186.075H363.269V199.916Z" fill="white"/>
<path d="M213.767 224.629H178.491V210.788H213.767V224.629Z" fill="#37BDCF"/>
<path d="M283.619 224.629H223.365V210.788H283.619V224.629Z" fill="#ADADAD"/>
<path d="M363.269 224.629H293.437V210.788H363.269V224.629Z" fill="white"/>
<path d="M224.925 249.342H178.491V235.5H224.925V249.342Z" fill="#37BDCF"/>
<path d="M319.833 249.342H232.484V235.5H319.833V249.342Z" fill="#ADADAD"/>
<path d="M363.269 249.342H329.193V235.5H363.269V249.342Z" fill="white"/>
<path d="M237.044 274.053H178.491V260.211H237.044V274.053Z" fill="#37BDCF"/>
<path d="M302.515 274.053H245.683V260.211H302.515V274.053Z" fill="#ADADAD"/>
<path d="M363.269 274.053H311.219V260.211H363.269V274.053Z" fill="white"/>
<path d="M204.167 298.766H178.491V284.924H204.167V298.766Z" fill="#37BDCF"/>
<path d="M263.68 298.766H212.807V284.924H263.68V298.766Z" fill="#ADADAD"/>
<path d="M363.269 298.766H271.6V284.924H363.269V298.766Z" fill="white"/>
<path d="M251.921 323.477H178.491V309.635H251.921V323.477Z" fill="#37BDCF"/>
<path d="M283.619 323.477H261.041V309.635H283.619V323.477Z" fill="#ADADAD"/>
<path d="M363.269 323.477H293.437V309.635H363.269V323.477Z" fill="white"/>
<path d="M274.099 348.189H178.491V334.347H274.099V348.189Z" fill="#37BDCF"/>
<path d="M321.273 348.189H282.159V334.347H321.273V348.189Z" fill="#ADADAD"/>
<path d="M363.269 348.189H329.193V334.347H363.269V348.189Z" fill="white"/>
<path d="M207.767 372.9H178.491V359.059H207.767V372.9Z" fill="#37BDCF"/>
<path d="M251.921 372.9H216.281V359.059H251.921V372.9Z" fill="#ADADAD"/>
<path d="M363.269 372.9H261.041V359.059H363.269V372.9Z" fill="white"/>
<path d="M376.192 372.9H373.376V186.075H376.192V372.9Z" fill="white"/>
<path d="M161.643 192.996C161.643 196.817 158.544 199.916 154.723 199.916C150.9 199.916 147.801 196.817 147.801 192.996C147.801 189.173 150.9 186.075 154.723 186.075C158.544 186.075 161.643 189.173 161.643 192.996Z" fill="white"/>
<path d="M161.643 217.708C161.643 221.53 158.544 224.629 154.723 224.629C150.9 224.629 147.801 221.53 147.801 217.708C147.801 213.886 150.9 210.788 154.723 210.788C158.544 210.788 161.643 213.886 161.643 217.708Z" fill="white"/>
<path d="M161.643 242.422C161.643 246.243 158.544 249.342 154.723 249.342C150.9 249.342 147.801 246.243 147.801 242.422C147.801 238.599 150.9 235.5 154.723 235.5C158.544 235.5 161.643 238.599 161.643 242.422Z" fill="white"/>
<path d="M161.643 267.133C161.643 270.954 158.544 274.053 154.723 274.053C150.9 274.053 147.801 270.954 147.801 267.133C147.801 263.309 150.9 260.211 154.723 260.211C158.544 260.211 161.643 263.309 161.643 267.133Z" fill="white"/>
<path d="M161.643 291.844C161.643 295.667 158.544 298.766 154.723 298.766C150.9 298.766 147.801 295.667 147.801 291.844C147.801 288.023 150.9 284.924 154.723 284.924C158.544 284.924 161.643 288.023 161.643 291.844Z" fill="white"/>
<path d="M161.643 316.557C161.643 320.378 158.544 323.477 154.723 323.477C150.9 323.477 147.801 320.378 147.801 316.557C147.801 312.734 150.9 309.635 154.723 309.635C158.544 309.635 161.643 312.734 161.643 316.557Z" fill="white"/>
<path d="M161.643 341.267C161.643 345.089 158.544 348.189 154.723 348.189C150.9 348.189 147.801 345.089 147.801 341.267C147.801 337.445 150.9 334.347 154.723 334.347C158.544 334.347 161.643 337.445 161.643 341.267Z" fill="white"/>
<path d="M161.643 365.979C161.643 369.803 158.544 372.9 154.723 372.9C150.9 372.9 147.801 369.803 147.801 365.979C147.801 362.158 150.9 359.059 154.723 359.059C158.544 359.059 161.643 362.158 161.643 365.979Z" fill="white"/>
<path d="M379.715 117.732C379.715 121.631 376.555 124.791 372.656 124.791C368.756 124.791 365.596 121.631 365.596 117.732C365.596 113.834 368.756 110.674 372.656 110.674C376.555 110.674 379.715 113.834 379.715 117.732Z" fill="#D82B62"/>
<path d="M362.265 117.59C362.265 121.519 359.081 124.703 355.153 124.703C351.224 124.703 348.04 121.519 348.04 117.59C348.04 113.663 351.224 110.478 355.153 110.478C359.081 110.478 362.265 113.663 362.265 117.59Z" fill="white"/>
<path d="M450.299 154.092H425.389V147.113H450.299V154.092Z" fill="#3C5282"/>
<path d="M501.593 141.666H425.389V134.687H501.593V141.666Z" fill="#5C5E94"/>
<path d="M468.749 158.088H470.083V155.421H468.749V158.088Z" fill="#CACACA"/>
<path d="M468.749 167.09H470.083V162.589H468.749V167.09ZM468.749 176.094H470.083V171.591H468.749V176.094Z" fill="#CACACA"/>
<path d="M468.749 180.596V183.93H472.083V182.596H470.083V180.596H468.749Z" fill="#CACACA"/>
<path d="M477.161 183.93H482.24V182.596H477.161V183.93ZM487.319 183.93H492.397V182.596H487.319V183.93ZM497.476 183.93H502.556V182.596H497.476V183.93ZM507.635 183.93H512.713V182.596H507.635V183.93ZM517.792 183.93H522.871V182.596H517.792V183.93ZM527.949 183.93H533.028V182.596H527.949V183.93ZM538.107 183.93H543.185V182.596H538.107V183.93ZM548.264 183.93H553.343V182.596H548.264V183.93Z" fill="#CACACA"/>
<path d="M558.421 183.93H561.755V180.596H560.421V182.596H558.421V183.93Z" fill="#CACACA"/>
<path d="M560.421 175.186H561.755V169.776H560.421V175.186Z" fill="#CACACA"/>
<path d="M560.421 164.367H561.755V161.701H560.421V164.367Z" fill="#CACACA"/>
<path d="M567.036 152.498C559.683 155.772 551.035 152.46 547.76 145.107C547.492 144.506 547.271 143.895 547.085 143.276C545.948 139.428 546.493 135.368 548.371 132.03L548.417 131.936C549.897 129.328 552.192 127.146 555.141 125.832C555.696 125.591 556.251 125.379 556.824 125.212L557 125.156C559.923 124.296 562.948 124.408 565.704 125.323L565.732 125.332C568.089 126.128 570.247 127.524 571.947 129.412C572.947 130.512 573.779 131.788 574.417 133.222C574.815 134.11 575.111 135.016 575.323 135.923C575.888 138.402 575.776 140.927 575.084 143.276C573.927 147.244 571.096 150.684 567.036 152.498ZM581.289 133.278C581.029 132.371 580.696 131.475 580.308 130.595C579.199 128.116 577.672 125.952 575.841 124.158C574.103 122.456 572.085 121.078 569.913 120.079L569.792 120.024C566.721 118.627 563.336 117.97 559.915 118.155C557.575 118.284 555.215 118.812 552.94 119.764C552.803 119.83 552.653 119.884 552.515 119.95C548.436 121.772 545.217 124.732 543.081 128.302C540.417 132.722 539.409 138.059 540.453 143.276C540.751 144.783 541.221 146.272 541.868 147.734C546.595 158.334 559.063 163.107 569.653 158.38C576.119 155.494 580.419 149.742 581.715 143.276C582.371 140.03 582.26 136.607 581.289 133.278Z" fill="#5C5E94"/>
<path d="M581.715 143.277H575.084C575.776 140.928 575.888 138.403 575.323 135.924C575.111 135.017 574.815 134.111 574.417 133.223C573.779 131.789 572.947 130.513 571.947 129.413C570.247 127.525 568.089 126.129 565.732 125.333L565.704 125.324C562.948 124.409 559.923 124.297 557 125.157L556.824 125.213C556.251 125.38 555.696 125.592 555.141 125.833C552.192 127.147 549.897 129.329 548.417 131.937L548.371 132.031C546.493 135.369 545.948 139.429 547.085 143.277H540.453C539.409 138.06 540.417 132.723 543.081 128.303C545.217 124.733 548.436 121.773 552.515 119.951C552.653 119.885 552.803 119.831 552.94 119.765C555.215 118.813 557.575 118.285 559.915 118.156C563.336 117.971 566.721 118.628 569.792 120.025L569.913 120.08C572.085 121.079 574.103 122.457 575.841 124.159C577.672 125.953 579.199 128.117 580.308 130.596C580.696 131.476 581.029 132.372 581.289 133.279C582.26 136.608 582.371 140.031 581.715 143.277Z" fill="#D82B62"/>
<path d="M501.593 154.092H455.291V147.113H501.593V154.092Z" fill="#5C5E94"/>
<path d="M92.0713 178.334H64.6855V165.265H92.0713V178.334Z" fill="white"/>
<path d="M92.0713 201.166H64.6855V188.097H92.0713V201.166Z" fill="white"/>
<path d="M92.0713 224H64.6855V210.931H92.0713V224Z" fill="#ADADAD"/>
<path d="M92.0713 246.832H64.6855V233.763H92.0713V246.832Z" fill="#ADADAD"/>
<path d="M92.0713 269.666H64.6855V256.597H92.0713V269.666Z" fill="#ADADAD"/>
<path d="M92.0713 292.5H64.6855V279.431H92.0713V292.5Z" fill="#ADADAD"/>
<path d="M92.0713 315.332H64.6855V302.263H92.0713V315.332Z" fill="#ADADAD"/>
<path d="M846.327 431.392C841.129 431.392 836.917 427.18 836.917 421.981C836.917 416.785 841.129 412.573 846.327 412.573C851.524 412.573 855.736 416.785 855.736 421.981C855.736 427.18 851.524 431.392 846.327 431.392ZM865.988 422.255L866 421.981L865.988 421.721C867.353 421.092 868.729 420.368 870.083 419.491C871.529 418.493 873.001 417.343 874.365 416.025L874.069 414.863C873.784 413.545 873.275 412.276 872.811 411.007C872.549 410.389 872.243 409.784 871.945 409.179C871.672 408.549 871.34 407.969 870.972 407.399L870.356 406.377C868.492 406.391 866.605 406.628 864.884 406.948C863.331 407.268 861.824 407.731 860.423 408.264L860.043 407.885C860.565 406.473 861.04 404.977 861.349 403.423C861.681 401.703 861.917 399.816 861.929 397.953L860.911 397.336C860.34 396.969 859.748 396.637 859.131 396.364C858.525 396.067 857.919 395.757 857.291 395.497C856.021 395.033 854.763 394.524 853.447 394.24L852.284 393.943C850.967 395.308 849.815 396.767 848.817 398.227C847.94 399.568 847.216 400.944 846.587 402.32L846.327 402.297L846.053 402.32C845.436 400.944 844.7 399.568 843.823 398.227C842.839 396.767 841.676 395.308 840.369 393.943L839.207 394.24C837.877 394.524 836.62 395.033 835.351 395.497C834.733 395.757 834.128 396.067 833.511 396.364C832.895 396.637 832.312 396.969 831.731 397.336L830.711 397.953C830.735 399.816 830.972 401.703 831.293 403.423C831.612 404.977 832.076 406.473 832.609 407.885C832.479 408.016 832.348 408.135 832.231 408.264C830.817 407.731 829.323 407.268 827.768 406.948C826.048 406.628 824.148 406.391 822.299 406.377L821.669 407.399C821.312 407.969 820.98 408.549 820.696 409.179C820.412 409.784 820.103 410.389 819.841 411.007C819.367 412.276 818.868 413.545 818.584 414.863L818.288 416.025C819.652 417.343 821.112 418.493 822.571 419.491C823.912 420.368 825.288 421.092 826.652 421.721L826.64 421.981L826.652 422.255C825.288 422.872 823.912 423.608 822.571 424.485C821.112 425.471 819.652 426.633 818.288 427.939L818.584 429.101C818.868 430.42 819.367 431.689 819.841 432.959C820.103 433.576 820.412 434.18 820.696 434.797C820.98 435.415 821.312 435.996 821.669 436.565L822.299 437.587C824.148 437.575 826.048 437.336 827.768 437.016C829.323 436.696 830.817 436.233 832.231 435.699C832.348 435.829 832.479 435.96 832.609 436.08C832.076 437.491 831.612 438.985 831.293 440.54C830.972 442.26 830.735 444.159 830.711 446.011L831.731 446.64C832.312 446.995 832.895 447.328 833.511 447.6C834.128 447.897 834.733 448.205 835.351 448.468C836.62 448.941 837.877 449.44 839.207 449.724L840.369 450.021C841.676 448.656 842.839 447.197 843.823 445.737C844.7 444.397 845.436 443.02 846.053 441.644L846.327 441.668L846.587 441.644C847.216 443.02 847.94 444.397 848.817 445.737C849.815 447.197 850.967 448.656 852.284 450.021L853.447 449.724C854.763 449.44 856.021 448.941 857.291 448.468C857.919 448.205 858.525 447.897 859.131 447.6C859.748 447.328 860.34 446.995 860.911 446.64L861.929 446.011C861.917 444.159 861.681 442.26 861.349 440.54C861.04 438.985 860.565 437.491 860.043 436.08C860.175 435.96 860.293 435.829 860.423 435.699C861.824 436.233 863.331 436.696 864.884 437.016C866.605 437.336 868.492 437.575 870.356 437.587L870.972 436.565C871.34 435.996 871.672 435.415 871.945 434.797C872.243 434.18 872.549 433.576 872.811 432.959C873.275 431.689 873.784 430.42 874.069 429.101L874.365 427.939C873.001 426.633 871.529 425.471 870.083 424.485C868.729 423.608 867.353 422.872 865.988 422.255Z" fill="#262A41"/>
<path d="M779.519 443.266H767.095V387.308H779.519V443.266Z" fill="#D82B62"/>
<path d="M762.085 443.266H748.768V411.964H762.085V443.266Z" fill="#5C5E94"/>
<path d="M743.639 443.266H730.32V421.98H743.639V443.266Z" fill="#CACACA"/>
<path d="M725.299 435.02H727.965V433.686H725.299V435.02Z" fill="#CACACA"/>
<path d="M711.775 435.02H718.536V433.686H711.775V435.02Z" fill="#CACACA"/>
<path d="M705.015 433.686H701.681V437.02H703.015V435.02H705.015V433.686Z" fill="#CACACA"/>
<path d="M701.681 446.994H703.015V442.007H701.681V446.994ZM701.681 456.969H703.015V451.982H701.681V456.969ZM701.681 466.943H703.015V461.956H701.681V466.943ZM701.681 476.918H703.015V471.932H701.681V476.918Z" fill="#CACACA"/>
<path d="M701.681 481.907V485.24H705.015V483.907H703.015V481.907H701.681Z" fill="#CACACA"/>
<path d="M709.541 485.24H714.069V483.907H709.541V485.24ZM718.597 485.24H723.125V483.907H718.597V485.24Z" fill="#CACACA"/>
<path d="M727.652 485.24H730.319V483.907H727.652V485.24Z" fill="#CACACA"/>
<path d="M769.777 488.383H734.537V482.085H769.777V488.383Z" fill="white"/>
<path d="M758.912 500.035H734.537V493.738H758.912V500.035Z" fill="white"/>
<path d="M765.389 511.689H734.537V505.391H765.389V511.689Z" fill="white"/>
<path d="M778.973 511.689H771.772V505.391H778.973V511.689Z" fill="#ADADAD"/>
<path d="M812.076 511.689H785.577V505.391H812.076V511.689Z" fill="#ADADAD"/>
<path d="M812.076 500.035H766.723V493.738H812.076V500.035Z" fill="#ADADAD"/>
<path d="M812.076 488.383H776.836V482.085H812.076V488.383Z" fill="#ADADAD"/>
<path d="M932.923 429.648H909.704V418.568H932.923V429.648Z" fill="#D82B62"/>
<path d="M932.923 449.008H909.704V437.926H932.923V449.008Z" fill="#D82B62"/>
<path d="M932.923 468.367H909.704V457.287H932.923V468.367Z" fill="#D82B62"/>
<path d="M932.923 487.725H909.704V476.643H932.923V487.725Z" fill="#D82B62"/>
<path d="M932.923 507.084H909.704V496.003H932.923V507.084Z" fill="white"/>
<path d="M932.923 526.443H909.704V515.363H932.923V526.443Z" fill="white"/>
<path d="M932.923 545.803H909.704V534.722H932.923V545.803Z" fill="white"/>
<path d="M831.688 577.554C823.009 578.208 815.745 576.145 809.676 572.378C785.181 557.221 780.072 514.473 779.719 511.261C779.933 512.247 782.348 517.474 807.807 534.601C809.925 536.03 811.865 537.48 813.636 538.946L813.729 539.017C835.915 557.39 831.688 577.554 831.688 577.554Z" fill="#098B73"/>
<path d="M779.083 511.324C779.091 511.342 784.817 525.397 793.737 540.218C798.199 547.629 803.456 555.232 809.217 561.377C814.98 567.518 821.244 572.224 827.795 573.756L828.096 572.457C821.961 571.036 815.851 566.511 810.189 560.465C801.692 551.405 794.207 538.981 788.865 528.832C786.193 523.758 784.055 519.252 782.585 516.016C781.851 514.397 781.283 513.097 780.9 512.202C780.516 511.308 780.319 510.822 780.317 510.821L779.083 511.324Z" fill="#0B7259"/>
<path d="M828.545 577.674C821.237 577.674 814.997 575.682 809.676 572.378C810.681 569.998 811.44 567.178 812.012 564.199C816.985 568.938 822.288 572.469 827.795 573.756L828.096 572.457C822.715 571.21 817.353 567.575 812.296 562.622C814.161 551.513 813.636 538.946 813.636 538.946L813.729 539.016C816.023 540.916 818.035 542.834 819.797 544.749C820.095 549.73 821.081 554.069 822.484 557.813H822.489C824.891 564.221 828.509 568.885 831.98 572.039C832 572.52 832.009 572.971 832.009 573.397C832.011 576.014 831.688 577.554 831.688 577.554C830.619 577.635 829.571 577.674 828.545 577.674Z" fill="#0A7E66"/>
<path d="M827.795 573.756C822.288 572.469 816.985 568.938 812.012 564.2C812.112 563.678 812.207 563.152 812.296 562.623C817.353 567.576 822.715 571.211 828.096 572.457L827.795 573.756Z" fill="#0B7259"/>
<path d="M896.7 514.384C896.604 514.981 896.261 517.055 895.577 520.107V520.117C891.964 536.301 878.92 579.846 843.828 575.481C843.828 575.481 843.236 571.745 844.42 566.155C846.156 557.934 851.736 545.698 868.709 535.437C893.899 520.204 896.445 515.313 896.7 514.384Z" fill="#098B73"/>
<path d="M894.956 517.602C894.956 517.602 894.888 517.776 894.751 518.118C893.716 520.67 888.792 532.318 880.496 544.407C872.204 556.503 860.533 569.006 846.132 573.38L846.521 574.656C862.401 569.807 874.773 555.636 883.225 542.727C891.673 529.81 896.189 518.108 896.2 518.082L894.956 517.602Z" fill="#0B7259"/>
<path d="M848.661 575.789C847.097 575.789 845.491 575.689 843.828 575.482C843.828 575.482 843.74 574.928 843.7 573.926C845.168 571.27 846.533 568.666 847.793 566.123C861.004 565.164 872.541 554.52 880.971 543.71C880.815 543.942 880.656 544.174 880.496 544.408C872.204 556.504 860.533 569.006 846.132 573.381L846.521 574.657C862.401 569.807 874.773 555.637 883.225 542.728C887.952 535.501 891.447 528.656 893.611 524.022C894.896 521.589 895.577 520.108 895.577 520.108V520.118C892.135 535.535 880.129 575.789 848.661 575.789Z" fill="#0A7E66"/>
<path d="M846.521 574.656L846.132 573.38C860.533 569.006 872.204 556.503 880.496 544.407C880.656 544.173 880.815 543.942 880.971 543.71C886.876 536.136 891.256 528.482 893.611 524.022C891.447 528.655 887.952 535.501 883.225 542.727C874.773 555.636 862.401 569.807 846.521 574.656Z" fill="#0B7259"/>
<path d="M841.944 577.038C841.077 578.545 828.263 573.221 822.489 557.813H822.484C819.017 548.559 818.093 535.664 823.821 518.433C838.871 473.184 832.668 464.652 832.484 464.413C832.787 464.556 845.864 471.049 854.299 486.849L854.333 486.91C863.609 504.338 867.229 533.06 841.944 577.038Z" fill="#02A987"/>
<path d="M831.956 464.822L831.989 464.866C832.74 465.845 845.659 483.111 845.659 515.391C845.659 521.735 845.16 528.662 843.971 536.16C840.693 556.822 839.768 567.215 839.767 572.436C839.769 574.526 839.911 575.787 840.141 576.605C840.26 577.014 840.397 577.321 840.608 577.571C840.811 577.821 841.149 577.998 841.463 577.99C841.839 577.982 842.073 577.815 842.224 577.699C842.375 577.575 842.455 577.469 842.475 577.442L841.413 576.636L841.644 576.812L841.42 576.627L841.413 576.636L841.644 576.812L841.42 576.627L841.375 576.67L841.376 576.671L841.463 576.882V576.657L841.376 576.671L841.463 576.882V576.657V576.939L841.589 576.686L841.463 576.657V576.939L841.589 576.686L841.505 576.854L841.62 576.705L841.589 576.686L841.505 576.854L841.62 576.705L841.595 576.735L841.625 576.709L841.62 576.705L841.595 576.735L841.625 576.709C841.603 576.699 841.423 576.409 841.308 575.729C841.187 575.048 841.1 573.993 841.1 572.436C841.099 567.363 842.013 556.995 845.287 536.37C846.488 528.802 846.992 521.806 846.992 515.391C846.993 481.691 833.063 464.071 833 463.994L831.956 464.822Z" fill="#098B73"/>
<path d="M840.341 577.148C838.488 576.692 835.303 575.058 831.98 572.039C828.509 568.884 824.891 564.22 822.489 557.813C824.239 558.31 825.895 558.546 827.456 558.546C833.609 558.546 838.352 554.902 842.008 549.256C840.304 561.482 839.768 568.459 839.767 572.435C839.769 574.525 839.911 575.786 840.141 576.603C840.2 576.808 840.265 576.989 840.341 577.148ZM841.944 577.038L841.576 576.759L841.644 576.811L841.579 576.756L841.596 576.734L841.625 576.707L841.62 576.703L841.619 576.702C841.581 576.663 841.416 576.368 841.308 575.727C841.187 575.047 841.1 573.991 841.1 572.435C841.099 568.241 841.724 560.427 843.791 546.191C854.541 525.684 854.299 486.848 854.299 486.848L854.333 486.91C858.355 494.466 861.313 504.146 861.315 516.272C861.315 529.73 857.672 546.198 847.793 566.123C846.533 568.666 845.168 571.27 843.7 573.926C843.131 574.955 842.545 575.991 841.944 577.038Z" fill="#049C7F"/>
<path d="M841.273 577.283C841.021 577.283 840.707 577.239 840.341 577.149C840.265 576.989 840.2 576.809 840.141 576.603C839.911 575.786 839.769 574.525 839.767 572.435C839.768 568.459 840.304 561.482 842.008 549.257C842.633 548.29 843.227 547.266 843.791 546.192C841.724 560.427 841.099 568.241 841.1 572.435C841.1 573.992 841.187 575.047 841.308 575.727C841.416 576.369 841.581 576.663 841.619 576.702L841.62 576.703L841.625 576.708L841.596 576.734L841.579 576.757L841.644 576.811L841.576 576.759L841.944 577.038C841.851 577.201 841.619 577.283 841.273 577.283Z" fill="#098B73"/>
<path d="M866.78 576.364V612.533C866.78 623.116 858.203 631.693 847.621 631.693H830.611C823.684 631.693 817.613 628.017 814.251 622.504H814.245C812.472 619.599 811.452 616.184 811.452 612.533V576.364H866.78Z" fill="black"/>
<path d="M868.791 571.673H809.443C808.663 571.673 808.031 572.306 808.031 573.087V574.953C808.031 575.733 808.663 576.365 809.443 576.365H868.791C869.571 576.365 870.203 575.735 870.203 574.953V573.087C870.203 572.306 869.571 571.673 868.791 571.673Z" fill="#ADADAD"/>
<path d="M866.78 576.364V612.533C866.78 623.116 858.203 631.693 847.621 631.693H830.611C823.684 631.693 817.613 628.017 814.251 622.504C854.773 635.231 863.575 605.432 862.007 593.615C860.445 581.797 845.844 576.364 845.844 576.364H866.78Z" fill="#120F0D"/>
</g>
<defs>
<clipPath id="clip0_109_1427">
<rect width="1000" height="668.307" fill="white"/>
</clipPath>
</defs>
</svg>
