<svg xmlns="http://www.w3.org/2000/svg" viewBox="0 0 24 24" id="Linkedin-Logo--Streamline-Ultimate.svg"><desc>Linkedin Logo Streamline Icon: https://streamlinehq.com</desc><defs></defs><title>professional-network-linkedin</title><path d="M6.12 22.6909H0.7745V8.7927H6.12ZM15.7418 13.0691C14.5609 13.069 13.6036 14.0264 13.6036 15.2073V22.6909H8.2582V8.7927H13.6036V10.3803C14.7971 9.3689 16.3051 8.8038 17.8693 8.782C21.036 8.782 23.2255 11.134 23.2255 15.5761V22.6909H17.88V15.2073C17.88 14.0264 16.9227 13.0691 15.7418 13.0691ZM6.12 3.9818C6.12 6.0393 3.8927 7.3252 2.1109 6.2965C0.3291 5.2678 0.3291 2.6959 2.1109 1.6672C2.5172 1.4326 2.9781 1.3091 3.4473 1.3091C4.9234 1.309 6.12 2.5057 6.12 3.9818Z" fill="none" stroke="#0058ab" stroke-linecap="round" stroke-linejoin="round" stroke-width="1"></path></svg>