<svg xmlns="http://www.w3.org/2000/svg" viewBox="-0.5 -0.5 100 100" id="Post-It--Streamline-Tokyo.svg" height="100" width="100"><desc>Post It Streamline Illustration: https://streamlinehq.com</desc><g><path d="M73.091205 86.83883999999999c-1.0395 -0.3267 -3.465 0.257895 -4.677255 -0.954855 -1.1384999999999998 -1.1384999999999998 -1.220175 -3.73923 -1.43055 -5.243535 -0.32521500000000003 -2.3190749999999998 -0.41679 -12.750705 -0.23215499999999997 -15.010874999999999 2.53638 0.08217 24.193125 0.18315 25.888499999999997 0.42471 0.27522 0.039105 -0.8118 20.2554 0.39303 23.237280000000002 0.37124999999999997 0.919215 -6.721605 1.6236 -9.075825 1.513215 -0.48312 -0.02277 -6.52212 -0.090585 -8.631315 -1.2221549999999999 -1.2305700000000002 -0.65934 -1.762695 -2.595285 -2.23443 -2.743785Z" fill="#6df17b" stroke-width="1"></path><path d="M88.05456 33.081345a33.229845 33.229845 0 0 1 -1.13553 -6.815655c-17.093835000000002 0.681615 -16.29045 0.6212249999999999 -16.327575 0.695475 -1.53054 -0.76626 -2.887335 -1.3107600000000001 -4.005045 -2.2275 -0.839025 -0.5979599999999999 -2.574 -2.673 -4.433715 -3.40362 -1.500345 -0.5578649999999999 -3.325905 0.365805 -3.34521 1.9304999999999999a2.8908 2.8908 0 0 0 0.65637 1.698345c0.36184499999999997 0.51084 0.7979400000000001 0.99396 1.07712 1.4849999999999999 0.916245 1.658745 0.66627 3.1521600000000003 2.52747 4.44114 0.520245 2.0394 2.1161250000000003 3.82437 3.80061 2.80665l0.20690999999999998 -0.110385c0.43758 0.33115500000000003 0.87417 0.66132 1.27908 1.02267 1.89585 1.69191 1.82556 3.15612 3.482325 5.160375 1.3884750000000001 1.6800300000000001 3.564 2.5824149999999997 5.141069999999999 4.0877099999999995 0.9315899999999999 0.891 1.902285 2.995245 3.28185 3.21156 2.079 0.322245 4.485195 -1.159785 6.304815 -1.9691100000000001 1.257795 -0.5623199999999999 3.366 -1.07712 4.178295 -2.28393 1.05732 -1.574595 -0.959805 -3.67785 -2.6888400000000003 -9.729225000000001Z" fill="#f8ad87" stroke-width="1"></path><path d="M88.05456 33.081345a32.59377 32.59377 0 0 1 -1.13553 -6.815655c2.526975 -0.099 4.87773 -0.192555 6.633 -0.26334l0.06682500000000001 7.153245c-6.0093000000000005 0.07425 -5.381145 0.054945 -5.510339999999999 0.094545 -0.022275 -0.054945 -0.038114999999999996 -0.11385 -0.053954999999999996 -0.168795Z" fill="#f5bf42" stroke-width="1"></path><path d="M93.19959 37.07055v25.07274l-26.151345000000003 0.33016500000000004V37.3725l3.27591 -0.039105a11.636955 11.636955 0 0 0 1.513215 2.428965c1.3884750000000001 1.6800300000000001 3.564 2.58291 5.141069999999999 4.0877099999999995 0.931095 0.891 1.902285 2.996235 3.28185 3.21156 2.079 0.32373 4.48569 -1.1582999999999999 6.304815 -1.9691100000000001 1.25829 -0.56133 3.366 -1.076625 4.178295 -2.28393 0.637065 -0.946935 0.08415 -2.2176 -0.297 -3.1521600000000003 -0.35244 -0.86922 -0.703395 -1.72953 -1.0395 -2.594295 0.116325 -0.04455 -0.329175 -0.036135 3.79269 0.008415Z" fill="#ffffff" stroke-width="1"></path><path d="M75.307815 89.60588999999999a21.439935000000002 21.439935000000002 0 0 1 -4.74012 -1.95723 8.639235 8.639235 0 0 1 -2.173545 -1.7453699999999999l0.0198 -0.019305c1.218195 1.2063149999999998 3.639735 0.6281549999999999 4.677255 0.954855 0.473715 0.1485 0.99 2.0859300000000003 2.23245 2.743785Z" fill="#5bc6a7" stroke-width="1"></path><path d="M67.792725 15.330645c0.0396 -4.05207 -0.054945 -7.294815 -0.428175 -7.425h26.00433l0.15345 15.68259c-1.72953 0.06682500000000001 -4.13127 0.16137 -6.799815 0.26334l-0.00792 -0.198c-0.118305 -1.66617 -0.168795 -3.8115 -1.3563 -5.12127 -1.00188 -1.10484 -2.57895 -1.6335 -3.91446 -2.201265a67.98033 67.98033 0 0 1 -6.713685 -3.0303899999999997c-1.188 -0.66429 -2.828925 -2.0294999999999996 -4.296105 -1.4815349999999998 -0.98208 0.366795 -1.39689 1.5161850000000001 -1.8315000000000001 2.376a8.451135 8.451135 0 0 1 -0.735075 1.19493Z" fill="#f5bf42" stroke-width="1"></path><path d="M85.358295 18.534284999999997c-1.002375 -1.104345 -2.578455 -1.6335 -3.91446 -2.201265a68.54859 68.54859 0 0 1 -6.713685 -3.0303899999999997c-1.188 -0.66429 -2.8299149999999997 -2.031975 -4.296105 -1.4815349999999998 -0.9825750000000001 0.36530999999999997 -1.395405 1.517175 -1.8315000000000001 2.376 -1.17117 2.32254 -2.7225 2.950695 -4.07088 4.48965 -1.36026 1.54935 -1.30779 2.8215 -1.21572 3.26106 1.141965 0.7588349999999999 2.153745 1.85031 3.161565 2.695275 6.510735 -0.18562499999999998 20.193029999999997 -0.78705 20.2455 -0.78903 -0.08316 -1.869615 -0.21384 -4.05108 -1.3647150000000001 -5.319765Z" fill="#f8ad87" stroke-width="1"></path><path d="M66.58641 24.732675a0.16978500000000002 0.16978500000000002 0 0 1 -0.03168 -0.02772l0.062865 -0.07425s28.803060000000002 -1.11672 29.251035 -1.1320649999999999a0.4455 0.4455 0 0 1 0.455895 0.37323c0.05445 0.34947 0.128205 0.864765 0.192555 1.287a0.650925 0.650925 0 0 1 -0.62073 0.75042c-0.535095 0.02079 -25.281135 1.006335 -25.281135 1.006335l-0.02376 0.047025c-1.5458850000000002 -0.77418 -2.9051549999999997 -1.327095 -4.005045 -2.229975Z" fill="#6df17b" stroke-width="1"></path><path d="M60.9147 27.260144999999998c0.614295 1.6236 0.6618149999999999 2.665575 2.2953149999999996 3.717945l0.08613 2.303235 -26.452305 0.26730000000000004s1.0929600000000002 -24.225795 0.058905 -25.668225h26.083035l0.16929000000000002 13.806045 -0.07078499999999999 0.10989a5.48262 5.48262 0 0 0 -0.9315899999999999 -0.46728c-1.50183 -0.5741999999999999 -3.325905 0.36927 -3.34521 1.9304999999999999a2.8908 2.8908 0 0 0 0.65637 1.698345l-0.12177 0.08613s-0.833085 0.099 -1.332045 0.15345a0.364815 0.364815 0 0 0 -0.30789 0.294525l-2.978415 0.40886999999999996 0.14553 1.273635c3.323925 -0.12672 2.93733 -0.10196999999999999 3.1185 -0.14156999999999997 0.00396 0.02376 0.00792 0.043065 0.01188 0.062865a0.3069 0.3069 0 0 0 0.310365 0.25146c2.78586 -0.08365500000000001 2.5324199999999997 -0.05841 2.6046899999999997 -0.08711999999999999Z" fill="#5bc6a7" stroke-width="1"></path><path d="M58.311 27.346275a0.3069 0.3069 0 0 1 -0.310365 -0.25146 12.730905 12.730905 0 0 1 -0.297 -1.6038000000000001 0.363825 0.363825 0 0 1 0.30789 -0.294525c0.49896 -0.05544 1.332045 -0.15345 1.332045 -0.15345l0.12177 -0.08613c0.5865750000000001 0.8281350000000001 1.0395 1.183545 1.450845 2.303235 -0.073755 0.028710000000000003 0.172755 0.003465 -2.605185 0.08613Z" fill="#6df17b" stroke-width="1"></path><path d="M57.702149999999996 25.4925a0.37966500000000003 0.37966500000000003 0 0 0 0.00495 0.118305c0.07622999999999999 0.401445 0.20047500000000001 1.0395 0.27918 1.42263 -0.18018 0.0396 0.20493 0.014849999999999999 -3.1185 0.14156999999999997l-0.14553 -1.273635Z" fill="#ffffff" stroke-width="1"></path><path d="M43.246665 41.402789999999996c0.555885 0.583605 0.274725 2.6997299999999997 -0.10989 2.9699999999999998 -0.676665 0.47074499999999997 -2.1943349999999997 0.413325 -2.574 -0.2475 -0.354915 -0.616275 -0.15642 -1.3637249999999999 -0.099 -2.2443299999999997 0.059895 -0.9038700000000001 1.0929600000000002 -0.8207099999999999 1.517175 -0.813285a1.853775 1.853775 0 0 1 1.265715 0.335115Z" fill="#ffffff" stroke-width="1"></path><path d="M43.06995 47.698695c0.535095 0.6048899999999999 0.168795 2.71161 -0.228195 2.963565 -0.693 0.43956 -2.2077 0.32571 -2.558655 -0.34996499999999997 -0.329175 -0.6331049999999999 -0.10296 -1.371645 -0.01188 -2.247795 0.093555 -0.900405 1.124145 -0.7776449999999999 1.548855 -0.750915a1.881 1.881 0 0 1 1.2498749999999998 0.38511Z" fill="#ffffff" stroke-width="1"></path><path d="M42.853635 53.862435c0.54747 0.588555 0.22671 2.7017100000000003 -0.164835 2.963565 -0.682605 0.455895 -2.1978 0.37818 -2.5670699999999997 -0.29007 -0.342045 -0.62073 -0.132165 -1.368675 -0.058905 -2.24532 0.07622999999999999 -0.9038700000000001 1.10484 -0.805365 1.529055 -0.792a1.87407 1.87407 0 0 1 1.261755 0.363825Z" fill="#ffffff" stroke-width="1"></path><path d="M38.97036 55.3905a2.4547049999999997 2.4547049999999997 0 0 0 -2.606175 -1.0395c-0.01584 -0.0495 1.328085 -16.532999999999998 0.9984149999999999 -16.995330000000003 -0.314325 -0.44055 26.589914999999998 0.41629499999999997 26.589914999999998 0.41629499999999997l-0.817245 24.634665000000002h-26.6805l-0.11781 -0.08811c1.210275 -1.785465 4.196115 -4.89852 2.6334 -6.92802Zm1.15137 1.144935c0.368775 0.66825 1.884465 0.745965 2.5670699999999997 0.29007 0.39154500000000003 -0.261855 0.7128 -2.376 0.164835 -2.963565a1.881 1.881 0 0 0 -1.261755 -0.36184499999999997c-0.424215 -0.01584 -1.452825 -0.11385 -1.529055 0.792 -0.073755 0.87516 -0.28363499999999997 1.622115 0.058905 2.2438350000000002Zm3.015045 -12.165615c0.384615 -0.267795 0.66627 -2.384415 0.10989 -2.9699999999999998a1.86021 1.86021 0 0 0 -1.265715 -0.338085c-0.424215 -0.008415 -1.45728 -0.090585 -1.517175 0.813285 -0.057915 0.880605 -0.255915 1.628055 0.099 2.2443299999999997 0.37966500000000003 0.66528 1.897335 0.72171 2.574 0.250965Zm-0.297 6.291945c0.396 -0.251955 0.76329 -2.358675 0.228195 -2.963565a1.881 1.881 0 0 0 -1.2498749999999998 -0.38511c-0.42471 -0.026234999999999998 -1.4553 -0.1485 -1.548855 0.750915 -0.09108 0.87615 -0.317295 1.61469 0.01188 2.247795 0.352935 0.67617 1.86813 0.7900200000000001 2.560635 0.35046Z" fill="#f5bf42" stroke-width="1"></path><path d="M38.777805 65.73303a2.06811 2.06811 0 0 0 1.43055 -0.11781c0.0495 0.10989 -1.7265599999999999 0.091575 22.87197 -0.20047500000000001 0 0 0.105435 22.01859 -1.922085 24.235695 -2.350755 2.57004 -23.844645 1.70181 -23.844645 1.70181v-15.262334999999998l-0.16681500000000002 -0.016335000000000002a2.708145 2.708145 0 0 0 0.184635 -1.66617c-0.03168 -0.216315 -0.42471 -1.3003649999999998 -0.48361499999999996 -1.50876a5.260365 5.260365 0 0 0 1.6117199999999998 1.35531c0.99 0.5395500000000001 2.44233 0.489555 3.13632 -0.51084 0.56826 -0.819225 -0.035144999999999996 -1.76517 -0.420255 -2.5195499999999997 -0.91179 -1.782 -1.2464099999999998 -3.835755 -2.41758 -5.4747Z" fill="#6cd0e6" stroke-width="1"></path><path d="m33.115500000000004 79.56333000000001 0.09405 0.02376c-0.13365000000000002 2.716065 -0.297 5.74695 -0.65241 8.44668 -0.023265 0.17671499999999998 -0.36927 2.08296 -0.659835 2.08296 -0.08613 -0.006435 -2.688345 -1.2122549999999999 -2.6928 -2.0002950000000004 -0.00396 -0.7073550000000001 0.906345 -1.5617249999999998 1.261755 -2.11068a19.75941 19.75941 0 0 0 2.6492400000000003 -6.442425Z" fill="#6df17b" stroke-width="1"></path><path d="M31.887404999999998 28.690694999999998c-0.0495 0.024255000000000002 0.56034 -20.802374999999998 0.326205 -21.0375 -0.047025 -0.0495 -24.486165 -0.104445 -25.823159999999998 -0.01584 -0.203445 0.789525 -0.553905 9.739125 -0.5192549999999999 12.271049999999999 0.03465 2.648745 0.5697450000000001 8.575875 1.540935 11.017215 0.3465 0.894465 0.8231850000000001 2.2314599999999998 1.7636850000000002 2.29482 3.45906 0.23364 21.522105 0.02079 23.061555 -0.6672600000000001 0.63063 -0.28561499999999995 -0.34600499999999995 -2.44332 -0.34996499999999997 -3.862485Z" fill="#6cd0e6" stroke-width="1"></path><path d="M41.175585000000005 71.22357c-0.894465 -1.7493299999999998 -1.233045 -3.756555 -2.349765 -5.37867 1.5988499999999999 0.13167 2.89377 -1.1092950000000001 2.75814 -2.022075a2.385405 2.385405 0 0 0 -0.8415 -1.42263l-4.455 -0.013365c0.1485 -0.211365 0.23265 -0.340065 0.5103449999999999 -0.715275 1.08108 -1.461735 3.631815 -4.386195 2.17404 -6.28056a2.490345 2.490345 0 0 0 -3.707055 -0.5073749999999999 11.408265 11.408265 0 0 0 -1.736955 1.62756c-2.04534 -1.2177 -4.227795 -3.549645 -6.20631 -3.887235 -2.201265 -0.373725 -5.03514 0.87615 -7.13394 1.41075 -1.4355 0.365805 -3.65904 0.5445 -4.665375 1.72161 -1.05336 1.234035 -1.21869 3.234825 -1.74141 4.7128950000000005a34.567335 34.567335 0 0 1 -2.61756 5.50242c-0.220275 0.38511 -7.70022 12.833369999999999 -7.880895 13.175415000000001A14.517855 14.517855 0 0 0 2.475 80.821125c0.891 2.2443299999999997 2.566575 3.8115 4.2075 5.510834999999999 0.594 0.6172650000000001 1.2696749999999999 1.4147100000000001 2.115135 1.7136900000000002 1.74042 0.65142 3.2219550000000003 -1.3563 4.6530000000000005 -2.01267 2.421045 -1.1122649999999998 5.188095 -1.28106 7.684379999999999 -2.178 2.173545 -0.77814 4.3272900000000005 -1.906245 5.8905 -3.65904 0.37026 -0.418275 2.0096999999999996 -3.92436 2.2373999999999996 -5.60934 0.45837 1.99485 1.938915 3.2828399999999998 2.7190350000000003 2.94822a1.98 1.98 0 0 0 1.144935 -1.5147 3.2313599999999996 3.2313599999999996 0 0 0 0.39204 0.5712299999999999 2.376 2.376 0 0 0 3.41946 -0.20047500000000001 2.43441 2.43441 0 0 0 0.39303 -1.98396c-0.02277 -0.15543 -0.221265 -0.885555 -0.352935 -1.360755a5.320259999999999 5.320259999999999 0 0 0 1.48104 1.207305c0.99396 0.5346000000000001 2.444805 0.491535 3.13632 -0.51084 0.57024 -0.817245 -0.035144999999999996 -1.764675 -0.420255 -2.5190550000000003Z" fill="#f8ad87" stroke-width="1"></path><path d="M11.818125 18.675855a1.49886 1.49886 0 1 1 -1.5760800000000001 1.43055 1.497375 1.497375 0 0 1 1.5760800000000001 -1.43055Z" fill="#6df17b" stroke-width="1"></path><path d="M13.38282 25.888499999999997a1.49985 1.49985 0 1 1 -1.499355 -1.505295 1.49985 1.49985 0 0 1 1.499355 1.505295Z" fill="#6df17b" stroke-width="1"></path><path d="M11.590425 13.14918a1.49985 1.49985 0 1 1 -1.509255 1.50282 1.498365 1.498365 0 0 1 1.509255 -1.50282Z" fill="#6df17b" stroke-width="1"></path><path d="M31.907205 90.189c-1.4820300000000002 0.118305 -4.575285 0.400455 -6.048900000000001 0.503415 -4.6935899999999995 0.32769000000000004 -9.07533 0.21284999999999998 -13.89861 0.48312 -1.1384999999999998 0.06435 -3.59766 -0.22176 -3.7456650000000002 -0.44005500000000003 -0.143055 -0.20987999999999998 0.48708 -1.584 0.5578649999999999 -2.6136l0.02772 -0.07474499999999999c1.73646 0.64944 3.22443 -1.356795 4.6530000000000005 -2.01267 2.4215400000000002 -1.111275 5.188095 -1.282545 7.684379999999999 -2.178 2.17305 -0.77913 4.32927 -1.9042649999999999 5.8905 -3.65904 0.396 -0.4455 2.12256 -4.186215000000001 2.13444 -5.68359l0.08217 -0.0198c0.43263 2.047815 1.94733 3.382335 2.739825 3.04227a1.7775450000000002 1.7775450000000002 0 0 0 1.0731600000000001 -1.914165 2.037915 2.037915 0 0 0 0.66429 1.159785l-0.06732 0.08613c-0.21284999999999998 1.04247 -0.183645 1.263735 -0.5346000000000001 2.696265a19.839599999999997 19.839599999999997 0 0 1 -2.6492400000000003 6.442425c-0.35541 0.548955 -1.261755 1.403325 -1.261755 2.11068s1.9968299999999999 1.69785 2.66508 1.99287a0.065835 0.065835 0 0 0 0.02772 0.007424999999999999Z" fill="#5bc6a7" stroke-width="1"></path><path d="M7.524 71.981415c-0.079695 -0.0396 0.297 0.124245 -0.38115 -5.997915000000001 4.3956 -0.052469999999999996 3.93129 -0.06237 4.020885 -0.01188 -1.168695 2.03742 -2.4695549999999997 4.12038 -3.639735 6.0097949999999996Z" fill="#5bc6a7" stroke-width="1"></path><path d="M32.591294999999995 49.782149999999994c-0.07474499999999999 -3.015045 -0.090585 -6.025635 -0.00396 -9.04068 0.031185 -1.0845449999999999 0.294525 -2.75913 -0.9405 -3.28977 -1.768635 -0.76626 -4.257 -0.50688 -6.138 -0.5578649999999999a59.233185 59.233185 0 0 0 -10.5435 0.53163c-2.507175 0.30195 -5.16681 1.0395 -6.613695 2.439855 -1.59786 1.550835 -1.707255 2.9457449999999996 -1.560735 4.9797 0.4455 6.409755 0.602415 12.478455 1.08504 14.93217 0.515295 2.584395 3.659535 2.385405 5.184135 2.49579q0.396 -0.891 0.7192350000000001 -1.80378c0.5227200000000001 -1.47807 0.6880499999999999 -3.4788599999999996 1.74141 -4.7128950000000005 1.006335 -1.17909 3.230865 -1.355805 4.665375 -1.72161 2.0988 -0.5346000000000001 4.932675 -1.784475 7.13394 -1.41075 1.45035 0.2475 3.097215 1.623105 4.571325 2.7551699999999997l1.030095 -0.25146c-0.30096 -1.058805 -0.29402999999999996 -3.7224 -0.33016500000000004 -5.345504999999999Z" fill="#ffffff" stroke-width="1"></path><path d="M36.88542 59.609880000000004c-0.6192449999999999 0 -1.1384999999999998 -0.580635 -1.635975 -0.907335 -0.40095000000000003 -0.25938 -0.7326 -0.461835 -1.0419749999999999 -0.63558 -0.012375 -0.00693 -0.53559 -0.40986 -0.53559 -0.61677a0.24453 0.24453 0 0 1 0.029205 -0.116325c0.5445 -1.020195 1.939905 -2.2492799999999997 3.069 -2.381445 2.134935 -0.24354 2.574 2.79576 0.8984249999999999 4.3129349999999995a1.15434 1.15434 0 0 1 -0.7830900000000001 0.34452Zm-2.6586450000000004 -2.197305c0.41184 0.40540499999999996 0.093555 0.099 1.293435 0.875655 0.7608149999999999 0.50193 1.205325 1.168695 1.8176400000000001 0.6103350000000001a2.421045 2.421045 0 0 0 0.5514300000000001 -3.0323700000000002c-0.866745 -1.1884949999999999 -2.904165 0.316305 -3.662505 1.54638Z" fill="#2e3847" stroke-width="1"></path><path d="M35.122229999999995 59.722245c-0.190575 0 -0.23166 -0.20987999999999998 -0.84546 -0.5593499999999999a1.6493399999999998 1.6493399999999998 0 0 0 -0.242055 -0.112365c-0.58707 -0.09009 -0.23759999999999998 -0.7038899999999999 0.078705 -0.48807a3.35412 3.35412 0 0 1 1.175625 0.72963 0.2475 0.2475 0 0 1 -0.16681500000000002 0.430155Z" fill="#2e3847" stroke-width="1"></path><path d="M32.49279 63.59759999999999a0.2475 0.2475 0 0 1 -0.1485 -0.0495 6.792885 6.792885 0 0 1 -1.130085 -1.08108 0.2475 0.2475 0 1 1 0.381645 -0.31581 6.253335 6.253335 0 0 0 1.04742 1.00188 0.2475 0.2475 0 0 1 -0.15048 0.44451Z" fill="#2e3847" stroke-width="1"></path><path d="M33.165 62.62047a0.2475 0.2475 0 0 1 -0.136125 -0.04059c-0.126225 -0.08365500000000001 -0.601425 -0.400455 -0.74646 -0.528165 -0.09009 -0.076725 -0.233145 -0.198 -0.15741 -0.37719a0.255915 0.255915 0 0 1 0.46332 -0.012375c0.145035 0.126225 0.57519 0.413325 0.713295 0.504405a0.2475 0.2475 0 0 1 -0.13662000000000002 0.453915Z" fill="#2e3847" stroke-width="1"></path><path d="M34.848 67.79520000000001a0.2475 0.2475 0 0 1 -0.1683 -0.429165 2.81259 2.81259 0 0 1 0.28017 -0.2277 0.2475 0.2475 0 0 1 0.28808999999999996 0.402435c-0.26631 0.19008 -0.25146 0.25443 -0.39996000000000004 0.25443Z" fill="#2e3847" stroke-width="1"></path><path d="M32.462595 32.44923a0.2475 0.2475 0 0 0 -0.3267 -0.12474C30.59892 33.012045 10.276200000000001 33.214499999999994 8.796149999999999 32.94225c0.02673 -0.611325 1.017225 -2.38392 0.5360849999999999 -3.072465 -0.96426 -1.381545 -1.9651500000000002 -2.78982 -2.4695549999999997 -4.39461a19.00404 19.00404 0 0 1 -0.7424999999999999 -5.572215 0.236115 0.236115 0 0 0 -0.250965 -0.24453 0.2475 0.2475 0 0 0 -0.244035 0.25047c0.03465 2.716065 0.58212 8.65161 1.5577649999999998 11.104334999999999a13.971375 13.971375 0 0 0 0.954855 1.95624c0.287595 0.438075 0.421245 0.42273 0.6741900000000001 0.449955 2.7388350000000004 0.29402999999999996 21.789900000000003 0.13414500000000001 23.527350000000002 -0.6435a0.2475 0.2475 0 0 0 0.123255 -0.3267ZM6.652305 26.345385a20.13462 20.13462 0 0 0 2.27403 3.80754c0.20987999999999998 0.300465 -0.33016500000000004 1.621125 -0.52569 2.282445 -0.759825 -1.410255 -1.24542 -2.472525 -1.74834 -6.089985Z" fill="#2e3847" stroke-width="1"></path><path d="M67.08141 62.720955000000004a0.315315 0.315315 0 0 1 -0.280665 -0.2475V37.3725a0.22077 0.22077 0 0 1 0.21087 -0.2475l3.30957 -0.0396 0.01881 0.495 -3.0442500000000003 0.036629999999999996V62.2215l25.656345 -0.32373V37.315575l-3.465 -0.036629999999999996a0.2475 0.2475 0 0 1 0.00297 -0.495l3.7050750000000003 0.039105a0.253935 0.253935 0 0 1 0.25245 0.2475v25.073235a0.24007499999999998 0.24007499999999998 0 0 1 -0.236115 0.2475Z" fill="#2e3847" stroke-width="1"></path><path d="M33.216975000000005 55.25586c-0.014849999999999999 -0.0495 -0.124245 -0.414315 -0.14107499999999998 -0.52668a34.90938 34.90938 0 0 1 -0.220275 -4.06494c-0.03168 -1.7325 -0.164835 -7.26363 0 -10.333125 0.055935 -1.08603 0.133155 -2.574 -1.1068200000000001 -3.10662 -1.8230849999999998 -0.789525 -4.351545 -0.52767 -6.231555 -0.57816 -6.596865 -0.17374499999999998 -6.971085 0.297 -8.882775 0.39006 -3.006135 0.1485 -6.64686 0.905355 -8.45262 2.65122a8.23185 8.23185 0 0 0 -1.0820699999999999 1.506285c-0.687555 1.203345 -0.67815 2.06019 -0.5741999999999999 3.392235 0 0 0.72072 12.16215 0.8217 12.94029a14.652000000000001 14.652000000000001 0 0 0 0.288585 2.2992749999999997c0.28908 1.45035 1.691415 2.4938100000000003 3.48183 2.6413200000000003 0.0495 0.004455 1.4820300000000002 0.05445 1.5345 0.05445q0.20295 0 0.40540499999999996 -0.01287a0.2475 0.2475 0 0 0 0.23067000000000001 -0.26334 0.2475 0.2475 0 0 0 -0.26334 -0.231165 5.742 5.742 0 0 1 -1.375605 -0.07474499999999999c-0.490545 -0.128205 -0.526185 -0.1881 -0.67023 -0.5841a1.510245 1.510245 0 0 0 -0.35095499999999996 -0.61875c-0.542025 -0.50787 -1.683 -0.59697 -2.00574 -1.07415a5.20641 5.20641 0 0 1 -0.83061 -2.6274599999999997c-0.124245 -1.233045 0.016335000000000002 -1.03653 -0.7707149999999999 -12.48687 -0.062865 -0.9157500000000001 -0.146025 -1.8715950000000001 0.338085 -2.6645849999999998a0.944955 0.944955 0 0 1 1.02366 -0.47767499999999996 1.508265 1.508265 0 0 0 1.1384999999999998 -0.324225c4.57578 -3.9812849999999997 9.856935 -4.10157 15.985035 -3.9402 1.881 0.0495 4.343625 -0.20047500000000001 6.048900000000001 0.538065 1.046925 0.449955 0.8226899999999999 1.959705 0.78903 3.0551399999999997 -0.116325 4.08474 -0.029699999999999997 7.172055 0.021285 9.938115000000002a35.30142 35.30142 0 0 0 0.22572 4.13028c0.021285 0.14107499999999998 0.126225 0.495 0.15741 0.597465a0.2475 0.2475 0 0 0 0.46826999999999996 -0.14454Zm-23.781285 5.42223a2.634885 2.634885 0 0 1 0.84744 0.41778c0.18265499999999998 0.17423999999999998 0.2277 0.5346000000000001 0.396 0.814275 -1.29294 -0.244035 -2.2769999999999997 -1.025145 -2.53737 -2.07306a2.149785 2.149785 0 0 0 1.29393 0.841005Zm-0.2475 -19.96929c-0.381645 0.33561 -0.8226899999999999 0.12672 -1.3563 0.23661A6.131069999999999 6.131069999999999 0 0 1 8.5239 40.045500000000004c1.23354 -1.1924549999999998 3.407085 -1.899315 5.61825 -2.25324a15.731594999999999 15.731594999999999 0 0 0 -4.95198 2.9165400000000004Z" fill="#2e3847" stroke-width="1"></path><path d="M83.955465 91.05228c-2.1374099999999996 -0.03465 -6.862184999999999 -0.225225 -8.749619999999998 -1.252845 -1.2375 -0.64944 -1.87407 -2.5913250000000003 -2.19087 -2.7249749999999997 -1.07019 -0.33610500000000004 -3.807045 0.37521 -5.041575 -1.32858 -0.954855 -1.3543200000000002 -1.01376 -3.4848 -1.2375 -5.071275 -0.342045 -2.427975 -0.4158 -12.839805 -0.23413499999999998 -15.06483a0.25146 0.25146 0 0 1 0.26730000000000004 -0.22671 0.2475 0.2475 0 0 1 0.22671 0.266805c-0.17622 2.152755 -0.099 12.6225 0.23017500000000002 14.955929999999999 0.212355 1.5246 0.2772 3.6179550000000003 1.147905 4.851 1.0593000000000001 1.46322 3.6065699999999996 0.77319 4.789125 1.14444 0.61875 0.195525 1.0993950000000001 2.14236 2.273535 2.760615 0.8518950000000001 0.46332 2.9744550000000003 1.043955 8.26353 1.188 0.12969 0.003465 0.220275 0.00594 0.26482500000000003 0.008415a0.2475 0.2475 0 0 1 -0.01188 0.495Z" fill="#2e3847" stroke-width="1"></path><path d="M31.758705000000003 90.32958c-0.64647 -0.28512 -2.7992250000000003 -1.305315 -2.7992250000000003 -2.213145 0 -0.820215 0.9405 -1.683 1.3008600000000001 -2.244825a19.46637 19.46637 0 0 0 2.6170649999999998 -6.36768c0.37719 -1.56024 0.33165 -1.703295 0.53262 -2.686365a0.2475 0.2475 0 0 1 0.484605 0.099c-0.153945 0.75141 -0.221265 1.3899599999999999 -0.490545 2.5146a0.244035 0.244035 0 0 1 0.05544 0.167805c-0.131175 2.66607 -0.30096 5.738535 -0.65439 8.464500000000001 -0.09108 0.683595 -0.432135 2.5799399999999997 -1.04643 2.2661100000000003Zm1.11375 -8.962470000000001a18.239265 18.239265 0 0 1 -2.1963150000000002 4.77378c-0.34352999999999995 0.5341049999999999 -1.22166 1.386 -1.22166 1.975545 0 0.39105 1.2196799999999999 1.176615 2.3943149999999997 1.711215a9.491625 9.491625 0 0 0 0.46579499999999996 -1.82655c0.273735 -2.1186000000000003 0.437085 -4.448565 0.5578649999999999 -6.63399Z" fill="#2e3847" stroke-width="1"></path><path d="M41.511195 71.33247a16.764165 16.764165 0 0 1 -1.02267 -2.453715c-1.09593 -3.063555 -1.386 -2.8215 -1.153845 -2.8215 1.28403 0 2.6532 -1.199385 2.4928199999999996 -2.2769999999999997a2.43045 2.43045 0 0 0 -0.64053 -1.277595c-0.6350849999999999 -0.693 -0.9137700000000001 0.12573 -0.495 0.21384a1.05039 1.05039 0 0 1 0.132165 0.121275 2.0294999999999996 2.0294999999999996 0 0 1 0.51579 1.0152450000000002c0.099 0.798435 -1.211265 1.96317 -2.44728 1.6537950000000001 -0.622215 -0.8568450000000001 -1.937925 -2.271555 -2.4255 -2.9442600000000003 1.52361 -2.20176 4.352535 -5.17572 2.700225 -7.321545a2.733885 2.733885 0 0 0 -4.05207 -0.5534100000000001c-2.097315 1.5889499999999999 -3.5075700000000003 3.929805 -5.059889999999999 6.04791a12.829905 12.829905 0 0 1 -1.902285 -0.34551c-0.20146499999999998 -0.05643 -0.6435 -0.293535 -0.87417 -0.1485a0.2475 0.2475 0 0 0 0.198 0.447975 5.23215 5.23215 0 0 1 0.5410349999999999 0.17671499999999998 10.48707 10.48707 0 0 0 1.68696 0.334125 11.165714999999999 11.165714999999999 0 0 1 -1.22958 1.407285 3.92238 3.92238 0 0 0 -0.67122 -0.2475c-0.287595 -0.317295 -0.795465 0.33709500000000003 -0.089595 0.48708 0.042075 0.009405 0.20690999999999998 0.057915 0.35145 0.099a6.110775 6.110775 0 0 1 -2.5042050000000002 1.117215 2.0186100000000002 2.0186100000000002 0 0 1 -0.286605 -1.660725 13.52538 13.52538 0 0 1 0.5514300000000001 -1.924065 0.22423500000000002 0.22423500000000002 0 0 0 0.05346 -0.05643c0.130185 -0.09009 0.75537 -0.35194499999999995 0.86823 -0.421245a9.534195 9.534195 0 0 0 2.00574 -1.7676450000000001 0.2475 0.2475 0 1 0 -0.3762 -0.32175 9.026325 9.026325 0 0 1 -1.893375 1.670625c-0.038114999999999996 0.022275 -0.15642 0.073755 -0.39204 0.181665a14.232735 14.232735 0 0 0 0.51183 -1.90377 0.2475 0.2475 0 0 0 -0.48608999999999997 -0.09504c-0.407385 2.0864249999999998 -0.89595 2.46015 -1.327095 4.5342a2.8799099999999997 2.8799099999999997 0 0 0 0.21186 1.850805 4.385205 4.385205 0 0 1 -0.850905 0.00495 0.28611 0.28611 0 0 0 -0.42471 0.242055c0.01287 0.14256 0.025244999999999997 0.30393 0.93456 0.27027a6.586469999999999 6.586469999999999 0 0 0 4.4985599999999994 -2.04039c1.98 -2.1285 3.5882549999999998 -5.530635 6.25383 -7.550235a2.2443299999999997 2.2443299999999997 0 0 1 3.3600600000000003 0.461835c1.4241149999999998 1.85031 -1.4048100000000001 4.87278 -2.637855 6.628545 -2.360655 3.366 -4.55004 8.10711 -7.24185 11.74338A19.48122 19.48122 0 0 1 24.255 78.55996499999999a0.2475 0.2475 0 1 0 0.286605 0.403425A19.968300000000003 19.968300000000003 0 0 0 28.8981 74.745c-0.165825 1.57311 -1.715175 4.9005 -2.05722 5.285114999999999 -1.3365 1.50084 -3.22839 2.673 -5.787045 3.591225 -2.496285 0.8964449999999999 -5.242545 1.0548449999999998 -7.703685 2.185425 -1.490445 0.6830999999999999 -2.8665450000000003 2.6017200000000003 -4.4683649999999995 2.004255 -0.821205 -0.29056499999999996 -1.4849999999999999 -1.10187 -2.51559 -2.162655 -1.476585 -1.51965 -2.8799099999999997 -2.94723 -3.660525 -4.919805a0.2475 0.2475 0 0 0 -0.46035000000000004 0.18216c0.9226800000000001 2.331945 2.64627 3.90258 4.479254999999999 5.820705 0.7880400000000001 0.8246699999999999 1.61667 1.683 2.77596 1.683 1.58103 0 2.803185 -1.584 4.056030000000001 -2.158695 2.38095 -1.09395 5.161860000000001 -1.27116 7.66458 -2.169585 2.637855 -0.94446 4.597065000000001 -2.1636450000000003 5.9895 -3.7283399999999998a18.848115 18.848115 0 0 0 2.06118 -4.90545 4.216905 4.216905 0 0 0 1.786455 2.211165 1.45332 1.45332 0 0 0 0.648945 0.17423999999999998 1.881 1.881 0 0 0 1.49985 -1.2508650000000001 1.683 1.683 0 0 0 0.368775 0.393525c1.807245 1.27512 4.532715 -0.0495 4.000095 -2.61162a4.274325 4.274325 0 0 0 -0.151965 -0.53064 5.544 5.544 0 0 0 0.91773 0.63063c1.120185 0.602415 2.6992350000000003 0.50985 3.456585 -0.587565 0.601425 -0.8588250000000001 0.107415 -1.7953649999999999 -0.28709999999999997 -2.548755Zm-9.63072 5.977125a0.72468 0.72468 0 0 1 -0.597465 -0.08514 4.149584999999999 4.149584999999999 0 0 1 -1.79784 -2.778435c-0.07821 -0.40491 -0.0495 -0.34154999999999996 -0.07078499999999999 -0.403425 0.53856 -0.73656 1.079595 -1.5444 1.6463700000000001 -2.45619a26.576055 26.576055 0 0 1 1.461735 3.05118 8.06553 8.06553 0 0 1 0.28808999999999996 1.023165 1.509255 1.509255 0 0 1 -0.930105 1.648845Zm4.8708 -1.079595a2.16117 2.16117 0 0 1 -2.87397 0.36135 1.790415 1.790415 0 0 1 -0.57519 -0.9989099999999999 0.36333 0.36333 0 0 0 -0.042075 -0.19305 9.418365 9.418365 0 0 0 -0.27522 -0.937035 25.047 25.047 0 0 0 -1.6399350000000001 -3.33729c0.68013 -1.1122649999999998 1.33056 -2.25126 1.9745549999999998 -3.37689a9.225810000000001 9.225810000000001 0 0 1 1.59489 2.1364199999999998 12.697245 12.697245 0 0 0 1.7037900000000001 3.10959c0.07821 0.25641 0.44253 1.27215 0.47074499999999997 1.4637149999999999a2.172555 2.172555 0 0 1 -0.33759 1.7721Zm4.64112 -2.6274599999999997c-0.6138 0.891 -1.91268 0.919215 -2.814075 0.435105a5.041575 5.041575 0 0 1 -1.52856 -1.29195 12.340349999999999 12.340349999999999 0 0 1 -1.68597 -3.0655349999999997c-0.130185 -0.24354 -0.27126 -0.480645 -0.421245 -0.711315a11.248875 11.248875 0 0 0 1.673595 -1.1384999999999998 0.2475 0.2475 0 0 0 -0.29997 -0.396c-0.35145 0.26829000000000003 -0.693 0.532125 -1.0419749999999999 0.77022 -0.41679 0.281655 -0.535095 0.29106 -0.60786 0.36184499999999997a9.79704 9.79704 0 0 0 -1.092465 -1.263735c0.891 -1.5622200000000002 1.710225 -2.9774249999999998 2.596275 -4.298579999999999a7.46361 7.46361 0 0 0 0.8415 1.0053450000000002c1.8117 2.0859300000000003 2.074545 2.4255 3.008115 5.03712a18.746145000000002 18.746145000000002 0 0 0 0.93258 2.28987c0.39798 0.76527 0.912285 1.587465 0.44005500000000003 2.2651199999999996Z" fill="#2e3847" stroke-width="1"></path><path d="M76.725 20.073735a0.2475 0.2475 0 0 0 -0.321255 -0.1386 6.150375 6.150375 0 0 1 -2.9021850000000002 0.396 6.897329999999999 6.897329999999999 0 0 1 -1.251855 -0.210375 7.7472449999999995 7.7472449999999995 0 0 0 0.9489150000000001 -1.287 0.2475 0.2475 0 1 0 -0.42669 -0.250965 6.84783 6.84783 0 0 1 -1.471635 1.782 8.188785 8.188785 0 0 1 -0.8934749999999999 0.625185 5.61726 5.61726 0 0 0 -1.956735 1.8369449999999998c-1.301355 1.704285 -1.348875 1.440945 -1.348875 1.6731a0.2475 0.2475 0 0 0 0.436095 0.16038 10.180169999999999 10.180169999999999 0 0 0 1.3122449999999999 -1.543905 11.50083 11.50083 0 0 1 3.465 -0.138105c-0.26730000000000004 0.22572 -0.98307 0.86229 -0.9286199999999999 1.210275a0.297 0.297 0 0 0 0.26928 0.24156 0.2475 0.2475 0 0 0 0.242055 -0.299475 4.94703 4.94703 0 0 1 1.082565 -1.0484099999999998 10.473704999999999 10.473704999999999 0 0 1 1.84338 -1.06722 0.2475 0.2475 0 1 0 -0.203445 -0.45144 10.988999999999999 10.988999999999999 0 0 0 -1.7438850000000001 0.98604 12.109679999999999 12.109679999999999 0 0 0 -2.782395 -0.10345499999999999c-0.118305 0.008415 -0.4455 0.054945 -0.815265 0.1089 0.767745 -0.954855 1.673595 -1.162755 2.604195 -2.056725a0.23958 0.23958 0 0 0 0.1485 0.07078499999999999 8.044245 8.044245 0 0 0 2.111175 0.29205 6.638940000000001 6.638940000000001 0 0 0 2.4413400000000003 -0.4653 0.2475 0.2475 0 0 0 0.14156999999999997 -0.322245Z" fill="#2e3847" stroke-width="1"></path><path d="M90.721125 39.67128c-1.881 -4.630725 -3.19473 -7.95465 -3.547665 -13.27293a0.2475 0.2475 0 1 0 -0.495 0.033165c0.357885 5.39154 1.7235900000000002 8.84466 3.5828100000000003 13.42539 0.363825 0.89595 0.81477 2.01168 0.27571500000000004 2.814075 -0.5761799999999999 0.85437 -1.890405 1.35036 -3.0492 1.78794a18.388755 18.388755 0 0 0 -2.1285 0.9306c-1.61865 0.78606 -3.453615 1.67607 -5.059395 1.428075 -0.834075 -0.13068000000000002 -1.556775 -1.11177 -2.19483 -1.98 -0.887535 -1.204335 -1.1731500000000001 -1.510245 -3.2986799999999996 -2.966535a13.097204999999999 13.097204999999999 0 0 1 -2.772 -2.2641299999999998 11.41767 11.41767 0 0 1 -1.4820300000000002 -2.376c-0.92664 -2.03247 -2.045835 -2.88486 -3.402135 -3.9105000000000003 -2.8165500000000003 -2.1087 -3.8609999999999998 -2.37105 -4.75992 -3.363525 -0.65637 -0.76032 -0.86526 -1.794375 -1.24047 -2.7853649999999996 -0.708345 -1.9210949999999998 -2.015145 -2.34729 -2.0913749999999998 -3.912975 0.016335000000000002 -1.39788 1.680525 -2.19483 3.00663 -1.702305 1.543905 0.60687 2.6576549999999997 1.89981 4.36689 3.366a14.202045 14.202045 0 0 0 2.9269350000000003 1.7092349999999998c0.21879 0.10493999999999999 5.148 2.541825 5.538060000000001 2.74626a5.44896 5.44896 0 0 1 0.62073 0.364815 0.2475 0.2475 0 0 0 0.27868499999999996 -0.40986 6.002865 6.002865 0 0 0 -0.6741900000000001 -0.396c-0.392535 -0.20393999999999998 -5.32818 -2.64528 -5.5489500000000005 -2.75121a13.77882 13.77882 0 0 1 -2.85813 -1.6731c-1.379565 -1.1384999999999998 -2.7145799999999998 -2.72646 -4.473315 -3.4155 -1.650825 -0.61281 -3.658545 0.39996000000000004 -3.678345 2.173545a3.15711 3.15711 0 0 0 0.501435 1.55628c-0.28512 0.03366 -0.75339 0.087615 -1.0791000000000002 0.12375a0.60093 0.60093 0 0 0 -0.459855 0.315315l-2.832885 0.38907a0.2475 0.2475 0 0 0 -0.21186 0.27324000000000004l0.01188 0.105435 -1.788435 0.30244499999999996a0.2475 0.2475 0 0 0 -0.007424999999999999 0.486585l1.9304999999999999 0.388575a0.2475 0.2475 0 0 0 0.24453 0.20987999999999998l2.94624 -0.112365a0.556875 0.556875 0 0 0 0.48262499999999997 0.28561499999999995l2.450745 -0.06732c0.5573699999999999 1.556775 0.7137899999999999 2.5215300000000003 2.1285 3.525885a1.69587 1.69587 0 0 0 0.183645 0.58707 6.83892 6.83892 0 0 0 0.573705 1.1682 2.8294200000000003 2.8294200000000003 0 0 0 2.2769999999999997 1.4048100000000001 1.9993049999999999 1.9993049999999999 0 0 0 1.13058 -0.3465c0.442035 0.33709500000000003 0.816255 0.62667 1.1424599999999998 0.91773a7.9299 7.9299 0 0 1 1.914165 2.656665 11.9295 11.9295 0 0 0 1.54935 2.484405 13.434795 13.434795 0 0 0 2.8759499999999996 2.3571899999999997c2.20176 1.508265 2.40669 1.8018 3.1798800000000003 2.851695 0.693 0.9405 1.4815349999999998 2.0106900000000003 2.517075 2.17305 2.16117 0.334125 4.5233099999999995 -1.134045 6.443415 -1.98792 1.281555 -0.572715 3.4155 -1.081575 4.2827399999999995 -2.3715450000000002 0.684585 -1.021185 0.156915 -2.325015 -0.229185 -3.276405Zm-35.632079999999995 -12.753675 -0.09207 -0.805365 2.4893549999999998 -0.342045s0.158895 0.8207099999999999 0.20443499999999998 1.0484099999999998Zm3.21156 0.181665a0.069795 0.069795 0 0 1 -0.06039 -0.054945l-0.27571500000000004 -1.413225c-0.0495 -0.11484000000000001 0.014849999999999999 -0.18216 0.07325999999999999 -0.188595 0.38709 -0.04257 1.067715 -0.12771 1.35531 -0.16384500000000002a7.6626 7.6626 0 0 1 1.165725 1.75824Zm5.75586 5.447475000000001a6.30828 6.30828 0 0 1 -0.5247 -1.06722c0.8513999999999999 0.5291549999999999 1.854765 1.161765 3.086325 2.067615 -0.968715 0.48807 -2.010195 -0.11484000000000001 -2.561625 -1.000395Z" fill="#2e3847" stroke-width="1"></path><path d="M14.56191 15.13611a0.22720500000000002 0.22720500000000002 0 0 1 -0.2475 -0.22077 0.27076500000000003 0.27076500000000003 0 0 1 0.2475 -0.27423000000000003h13.171949999999999a0.22671 0.22671 0 0 1 0.2475 0.221265 0.27027 0.27027 0 0 1 -0.2475 0.273735Z" fill="#2e3847" stroke-width="1"></path><path d="M40.287060000000004 17.954145c-0.39055500000000004 0 -0.259875 -0.495 0 -0.495h20.396475c0.39105 0 0.26037 0.495 0 0.495Z" fill="#2e3847" stroke-width="1"></path><path d="M40.479615 22.27203c-0.39105 0 -0.260865 -0.495 0 -0.495H59.300999999999995l0.02079 0.495Z" fill="#2e3847" stroke-width="1"></path><path d="m59.97915 43.874325 -14.923755 -0.42867a0.2475 0.2475 0 0 1 -0.24007499999999998 -0.25443 0.253935 0.253935 0 0 1 0.25443 -0.24056999999999998l14.91633 0.42867a0.2475 0.2475 0 0 1 -0.00693 0.495Z" fill="#2e3847" stroke-width="1"></path><path d="M40.204395 26.752769999999998a0.22869 0.22869 0 0 1 -0.2475 -0.22275 0.26928 0.26928 0 0 1 0.2475 -0.27225h12.31164a0.22869 0.22869 0 0 1 0.2475 0.22275 0.268785 0.268785 0 0 1 -0.2475 0.27225Z" fill="#2e3847" stroke-width="1"></path><path d="M40.347944999999996 44.245575c-0.400455 -0.698445 -0.18909 -1.50579 -0.13068000000000002 -2.38392 0.07177499999999999 -1.089 1.24938 -1.05732 1.69191 -1.046925 0.667755 0.01584 1.1924549999999998 0.07474499999999999 1.517175 0.41679 0.659835 0.6880499999999999 0.36828 2.982375 -0.1485 3.34125 -0.76923 0.537075 -2.459655 0.48807 -2.9299049999999998 -0.327195Zm1.389465 -2.93832c-0.614295 0 -0.9949499999999999 0.114345 -1.026135 0.5865750000000001 -0.05544 0.837045 -0.242055 1.5676649999999999 0.06534000000000001 2.105235 0.30491999999999997 0.52668 1.6632 0.55539 2.2185900000000003 0.16731000000000001a2.5705349999999996 2.5705349999999996 0 0 0 0.308385 -1.2563099999999998 2.06316 2.06316 0 0 0 -0.23562 -1.3365c-0.256905 -0.27126 -0.93555 -0.26631 -1.33056 -0.26631Z" fill="#2e3847" stroke-width="1"></path><path d="M40.063320000000004 50.426145c-0.372735 -0.7137899999999999 -0.128205 -1.517175 -0.038114999999999996 -2.387385 0.09504 -0.9207000000000001 0.9088200000000001 -1.03059 1.81071 -0.9721799999999999a2.0992949999999997 2.0992949999999997 0 0 1 1.419165 0.467775c0.625185 0.70785 0.25938 2.99475 -0.280665 3.33729 -0.795465 0.506385 -2.483415 0.384615 -2.911095 -0.4455Zm0.453915 -2.3359050000000003c-0.08711999999999999 0.8444699999999999 -0.30096 1.559745 -0.014849999999999999 2.10771 0.2772 0.53559 1.6335 0.6212249999999999 2.20671 0.25542A2.55519 2.55519 0 0 0 43.065 49.22181a2.08494 2.08494 0 0 0 -0.18216 -1.35927c-0.175725 -0.198 -0.542025 -0.267795 -1.151865 -0.3069 -0.70785 -0.046035 -1.16028 0.021779999999999997 -1.21374 0.5346000000000001Z" fill="#2e3847" stroke-width="1"></path><path d="M39.905415000000005 56.654235c-0.38709 -0.703395 -0.16335 -1.51668 -0.0891 -2.3849099999999996 0.076725 -0.923175 0.8865449999999999 -1.053855 1.78497 -1.016235a2.11266 2.11266 0 0 1 1.433025 0.43956c0.6435 0.693 0.32373 2.9878199999999997 -0.209385 3.3392700000000004 -0.77319 0.52371 -2.46411 0.44599500000000003 -2.91951 -0.377685Zm0.40441499999999997 -2.34333c-0.07028999999999999 0.8415 -0.268785 1.56321 0.029205 2.104245 0.291555 0.52767 1.645875 0.58707 2.211165 0.205425a2.5309350000000004 2.5309350000000004 0 0 0 0.332145 -1.2375 2.079 2.079 0 0 0 -0.210375 -1.35135 1.7592299999999998 1.7592299999999998 0 0 0 -1.089 -0.282645c-0.6034050000000001 -0.02475 -1.223145 -0.03861 -1.27314 0.561825Z" fill="#2e3847" stroke-width="1"></path><path d="m59.766795 50.1633 -14.493105 -0.5445a0.2475 0.2475 0 0 1 -0.238095 -0.25641 0.242055 0.242055 0 0 1 0.25641 -0.238095l14.4837 0.5445a0.2475 0.2475 0 0 1 -0.00891 0.495Z" fill="#2e3847" stroke-width="1"></path><path d="m59.73165 56.71908 -15.158385 -0.597465a0.2475 0.2475 0 0 1 -0.23759999999999998 -0.256905 0.255915 0.255915 0 0 1 0.256905 -0.23759999999999998l15.147 0.597465a0.2475 0.2475 0 0 1 -0.009405 0.495Z" fill="#2e3847" stroke-width="1"></path><path d="M40.098465000000004 13.14324c-0.39105 0 -0.26037 -0.495 0 -0.495h20.394000000000002c0.39105 0 0.259875 0.495 0 0.495Z" fill="#2e3847" stroke-width="1"></path><path d="M14.9193 20.780595a0.22720500000000002 0.22720500000000002 0 0 1 -0.2475 -0.221265 0.27027 0.27027 0 0 1 0.2475 -0.273735h13.301145a0.22720500000000002 0.22720500000000002 0 0 1 0.2475 0.22077 0.27076500000000003 0.27076500000000003 0 0 1 -0.2475 0.27423000000000003Z" fill="#2e3847" stroke-width="1"></path><path d="M14.7114 26.6508a0.231165 0.231165 0 0 1 -0.2475 -0.22671 0.26482500000000003 0.26482500000000003 0 0 1 0.2475 -0.26829000000000003h10.183635a0.231165 0.231165 0 0 1 0.2475 0.22671 0.26532 0.26532 0 0 1 -0.2475 0.26829000000000003Z" fill="#2e3847" stroke-width="1"></path><path d="M41.587920000000004 76.39730999999999c-0.387585 0 -0.26482500000000003 -0.495 0 -0.495h16.339455c0.431145 0.062865 0.220275 0.495 0 0.495Z" fill="#2e3847" stroke-width="1"></path><path d="M41.576535 79.3485a0.23265 0.23265 0 0 1 -0.2475 -0.22869 0.26334 0.26334 0 0 1 0.2475 -0.26631h8.981774999999999a0.233145 0.233145 0 0 1 0.2475 0.229185 0.262845 0.262845 0 0 1 -0.2475 0.265815Z" fill="#2e3847" stroke-width="1"></path><path d="M52.341795 79.245045a0.23759999999999998 0.23759999999999998 0 0 1 -0.2475 -0.23462999999999998 0.257895 0.257895 0 0 1 0.2475 -0.26037h5.40144a0.23710499999999998 0.23710499999999998 0 0 1 0.2475 0.23462999999999998 0.257895 0.257895 0 0 1 -0.2475 0.26037Z" fill="#2e3847" stroke-width="1"></path><path d="m74.4975 49.941045 -1.7953649999999999 -2.2275c0.413325 -0.53064 1.2196799999999999 -1.5577649999999998 1.529055 -2.0468249999999997a0.2475 0.2475 0 0 0 -0.41877 -0.26433c-0.255915 0.40491 -0.8469450000000001 1.1667150000000002 -1.42956 1.9151550000000002a13.761000000000001 13.761000000000001 0 0 0 -1.21473 -1.33947c-0.39055500000000004 -0.33363000000000004 -0.560835 0.118305 -0.384615 0.297 0.56529 0.568755 1.241955 1.3944150000000002 1.287 1.4439149999999998 -0.693 0.8815949999999999 -1.119195 1.4523300000000001 -1.3365 1.789425a0.2475 0.2475 0 0 0 0.4158 0.26928c0.198 -0.308385 0.606375 -0.853875 1.240965 -1.6632l1.7235900000000002 2.13543a0.2475 0.2475 0 0 0 0.38313 -0.30888Z" fill="#2e3847" stroke-width="1"></path><path d="M81.288405 55.736999999999995a0.2475 0.2475 0 0 0 -0.318285 0.37917c0.20690999999999998 0.17374499999999998 0.80982 0.589545 1.229085 0.9796050000000001 -2.716065 -0.54054 -5.512815 -1.635975 -7.492319999999999 -3.57093a7.19829 7.19829 0 0 1 -1.3365 -1.84734 0.2475 0.2475 0 1 0 -0.43956 0.228195 7.682895 7.682895 0 0 0 1.43055 1.972575c2.106225 2.0596949999999996 4.809419999999999 3.0526649999999997 7.659135 3.686265a8.650125000000001 8.650125000000001 0 0 0 -0.81378 0.65637 0.2475 0.2475 0 1 0 0.37224 0.326205c0.122265 -0.13909500000000002 1.047915 -0.802395 1.211265 -0.966735 0.52866 -0.530145 -1.0246499999999998 -1.44144 -1.50183 -1.84338Z" fill="#2e3847" stroke-width="1"></path><path d="M87.80805 54.918765a0.2475 0.2475 0 0 0 -0.31185 -0.181665 3.3165 3.3165 0 0 0 -0.459855 0.17720999999999998 5.2742249999999995 5.2742249999999995 0 0 0 -1.751805 0.5445 0.2475 0.2475 0 0 0 0.113355 0.467775c0.091575 0 0.099 -0.029699999999999997 0.370755 -0.1485a3.00663 3.00663 0 0 0 -1.021185 1.6260750000000002c-0.198 1.4176799999999998 1.782 1.6592399999999998 3.1417650000000004 1.208295a2.533905 2.533905 0 0 0 1.620135 -1.60578c0.27423000000000003 -1.0390050000000002 -0.5341049999999999 -1.913175 -1.701315 -2.08791Zm1.22265 1.957725a2.04534 2.04534 0 0 1 -1.29789 1.262745c-0.9152549999999999 0.304425 -2.628945 0.297 -2.4948 -0.670725 0.10345499999999999 -0.75141 1.0791000000000002 -1.65231 1.93941 -2.072565 1.027125 -0.111375 2.104245 0.53361 1.85328 1.479555Z" fill="#2e3847" stroke-width="1"></path></g></svg>