<svg width="580" height="600" viewBox="0 0 580 600" fill="none" xmlns="http://www.w3.org/2000/svg">
<path d="M576.093 596.443H3.92383C3.92383 580.956 5.41546 565.414 8.52122 549.983C13.9665 522.747 24.357 495.864 39.9678 470.325C64.3855 430.468 98.6313 398.725 138.456 376.209C144.851 372.565 151.41 369.189 158.092 366.045C194.054 349.112 233.633 339.245 274.122 337.196C274.479 337.177 274.837 337.14 275.194 337.131C277.667 337.011 280.139 336.918 282.642 336.871C287.587 336.741 292.532 336.741 297.466 336.853C331.058 337.613 364.855 343.789 397.293 355.761C408 359.693 418.584 364.265 428.933 369.504C431.171 370.626 433.378 371.758 435.554 372.954C436.882 373.65 438.189 374.382 439.467 375.106C526.91 423.642 576.001 508.772 576.093 596.443Z" fill="#FFD243"/>
<path d="M32.0314 557.867C37.4765 530.631 47.8669 503.748 63.4779 478.209C87.8957 438.352 122.141 406.609 161.966 384.093C168.361 380.449 174.921 377.073 181.602 373.929C217.564 356.996 257.143 347.13 297.632 345.08C297.989 345.062 298.347 345.024 298.704 345.015C301.176 344.895 303.649 344.802 306.152 344.756C311.097 344.626 316.042 344.626 320.976 344.737C346.659 345.319 372.459 349.078 397.682 356.16C396.435 355.683 395.186 355.213 393.934 354.754C361.496 342.781 327.7 336.606 294.108 335.845C289.173 335.734 284.228 335.734 279.283 335.864C276.78 335.91 274.308 336.003 271.836 336.123C271.478 336.133 271.121 336.17 270.763 336.188C230.275 338.238 190.696 348.104 154.733 365.038C148.052 368.182 141.493 371.557 135.097 375.201C95.2729 397.717 61.0271 429.46 36.6093 469.317C20.9983 494.856 10.6079 521.74 5.16279 548.976C2.0568 564.406 0.564941 579.949 0.564941 595.436H27.616C28.0813 582.899 29.5194 570.347 32.0314 557.867Z" fill="#FCAC38"/>
<path d="M409.191 455.081C411.054 442.684 387.939 429.586 357.563 425.827C327.187 422.067 301.052 429.069 299.19 441.467C297.328 453.864 320.443 466.962 350.819 470.721C381.195 474.481 407.329 467.479 409.191 455.081Z" fill="#FFD243"/>
<path d="M543.413 596.443H476.054C486.853 579.201 502.035 567.571 516.166 567.539C530.155 567.507 540.419 579.233 543.413 596.443Z" fill="#FCAC38"/>
<path d="M161.732 463.235C177.401 462.323 189.408 451.75 188.551 439.618C187.694 427.487 174.297 418.392 158.628 419.304C142.959 420.216 130.952 430.79 131.809 442.921C132.666 455.052 146.063 464.147 161.732 463.235Z" fill="#FCAC38"/>
<path d="M172.395 463.327C183.458 459.61 189.748 450.029 186.444 441.926C183.14 433.824 171.494 430.269 160.431 433.985C149.368 437.702 143.078 447.283 146.382 455.385C149.686 463.488 161.332 467.043 172.395 463.327Z" fill="#FFD243"/>
<path d="M161.01 465.455C148.371 467.03 133.971 461.067 128.955 449.88C123.312 437.814 131.06 424.312 143.386 418.817C160.71 410.364 187.246 416.921 191.412 435.854C192.326 440.242 191.681 444.789 189.552 448.769C188.881 450.08 187.948 451.248 187.092 452.426C186.767 452.871 186.107 452.994 185.616 452.7C185.131 452.412 185.003 451.829 185.292 451.389C187.947 446.761 188.696 441.462 187.071 436.769C182.191 421.99 160.462 417.605 146.681 424.537C130.664 432.199 129.102 449.85 144.888 458.703C149.549 461.364 155.141 462.776 160.901 463.056C162.508 463.122 162.592 465.273 161.01 465.455Z" fill="#371A45"/>
<path d="M196.877 425.635C205.144 434.319 206.35 447.731 200.356 457.878C194.589 468.259 183.033 475.269 170.779 477.821C158.562 480.356 145.222 478.858 134.491 472.849C123.824 467.176 115.961 456.311 116.632 444.947C116.715 443.769 118.611 443.72 118.763 444.885C119.506 450.003 121.661 454.773 124.938 458.757C140.158 476.883 173.047 477.031 190.036 460.943C195.549 455.672 199.049 448.629 199.032 441.304C199.076 436.397 197.496 431.47 194.708 427.01C193.915 425.762 195.852 424.529 196.877 425.635Z" fill="#371A45"/>
<path d="M83.1135 500.621C120.427 503.79 139.384 540.203 129.76 570.938C126.881 580.851 121.548 590.087 114.206 597.578C113.75 598.044 112.964 598.085 112.451 597.671C112.004 597.31 111.915 596.719 112.2 596.266C117.49 587.832 121.267 578.831 123.095 569.588C128.982 541.262 114.405 511.899 82.5468 503.36C80.8229 502.908 81.2837 500.48 83.1135 500.621Z" fill="#371A45"/>
<path d="M104.993 569.193C102.373 580.904 95.1383 590.528 85.676 596.448H41.6076C28.2605 587.649 21.1505 571.102 24.9461 554.054C29.9355 531.636 51.9074 516.852 74.0216 521.025C96.1184 525.214 109.982 546.775 104.993 569.193Z" fill="#FCAC38"/>
<path d="M100.184 577.187C95.8626 585.774 89.2116 592.377 81.6105 596.447H57.6424C45.6991 584.281 42.7875 564.065 51.7678 546.176C57.5707 534.659 67.1437 526.368 77.8201 522.418C80.5172 522.937 83.1736 523.809 85.7176 525.042C103.811 533.741 110.288 557.082 100.184 577.187Z" fill="#FFD243"/>
<path d="M34.8289 597.084C30.4613 595.093 27.1097 591.321 25.6082 587.123C25.2132 585.994 26.8461 585.133 27.7314 585.981C29.3563 587.475 30.7694 588.99 32.2679 590.44C33.599 591.768 35.4747 593.499 36.7142 594.894C37.7639 596.038 36.2805 597.729 34.8289 597.084Z" fill="#371A45"/>
<path d="M25.2871 546.641C34.6798 525.005 64.0599 511.705 87.3908 524.276C107.274 534.99 111.567 558.942 101.647 576.93C100.15 579.836 98.2831 582.561 96.162 585.094C91.8841 590.131 86.5172 594.384 80.4062 597.255C79.0776 597.86 77.8951 596.186 79.0829 595.359C94.0766 585.025 102.669 566.735 98.1666 549.973C96.6204 544.091 93.3137 538.466 88.3906 534.341C75.899 523.376 56.1161 524.891 42.649 533.734C36.7959 537.462 31.9802 542.3 28.0274 547.897C27.0722 549.333 24.575 548.215 25.2871 546.641Z" fill="#371A45"/>
<path d="M238.244 597.837C231.465 592.026 227.522 584.058 225.098 576.04C224.326 573.386 223.739 570.693 223.461 567.96C223.404 567.409 223.85 566.922 224.456 566.871C224.922 566.832 225.349 567.066 225.546 567.425L229.428 574.56C233.218 581.434 237.504 588.063 242.678 594.106C244.92 596.781 240.992 600.063 238.244 597.837Z" fill="#371A45"/>
<path d="M402.506 550.935C406.33 566.749 403.491 584.482 392.504 597.526C390.143 600.362 385.403 597.468 387.422 594.415C389.643 591.165 391.715 587.903 393.438 584.539C396.907 577.723 398.566 570.172 399.593 562.715C400.073 558.905 400.336 555.046 400.388 551.136C400.388 550.012 402.248 549.824 402.506 550.935Z" fill="#371A45"/>
<path d="M340.802 596.443H283.85C268.382 588.42 257.263 573.96 255.285 556.637C252.006 528.04 274.886 502.468 306.392 499.492C337.897 496.532 366.07 517.3 369.349 545.881C371.755 567.021 359.887 586.512 340.802 596.443Z" fill="#FCAC38"/>
<path d="M371.773 564.287C369.26 577.923 360.029 589.326 347.324 596.442H284.598C273.211 590.005 264.996 580.219 261.628 569.026C270.111 544.247 299.442 527.943 330.609 531.825C348.215 534.041 362.916 542.209 372.272 553.547C372.592 557.057 372.45 560.664 371.773 564.287Z" fill="#FFD243"/>
<path d="M319.66 500.068C344.311 501.948 367.222 519.942 370.349 542.752C373.582 561.476 362.562 580.849 345.013 590.688C319.409 605.697 283.04 601.082 263.915 579.252C247.52 561.181 248.191 534.451 266.235 517.576C267.295 516.597 268.957 517.933 268.028 518.999C264.438 523.118 261.62 527.732 259.758 532.61C256.059 542.281 256.158 553.092 260.357 562.566C275.726 597.833 332.163 602.794 355.473 571.786C368.543 554.64 365.427 531.478 349.025 516.937C341.11 509.669 330.546 504.808 319.231 502.724C317.414 502.39 317.805 499.926 319.66 500.068Z" fill="#371A45"/>
<path d="M398.98 453.958C409.021 447.963 416.49 439.852 420.095 430.021C426.628 412.207 418.667 393.868 401.571 378.618C390.355 368.612 375.074 360.386 357.066 355.551C311.608 343.345 265.988 357.366 255.169 386.867C251.144 397.845 252.504 409.419 258.141 420.254C267.654 438.538 289.656 453.674 318.199 461.338" fill="#FFD243"/>
<path d="M418.639 429.583C423.879 412.844 415.131 395.833 402.225 383.919C376.132 359.816 334.985 349.52 298.845 357.251C280.865 361.25 263.461 371.047 256.343 387.223C256.09 387.803 255.363 388.085 254.727 387.851C254.139 387.635 253.833 387.056 253.996 386.514C255.302 382.144 257.412 377.928 260.227 374.118C268.711 362.597 282.62 355.088 297.024 351.228C343.166 338.66 406.875 359.633 422.637 403.27C424.049 407.727 424.809 412.385 424.627 417.02C424.476 421.654 423.398 426.226 421.551 430.462C421.239 431.179 420.346 431.53 419.557 431.247C418.821 430.982 418.435 430.259 418.639 429.583Z" fill="#371A45"/>
<path d="M402.01 418.34C406.213 394.894 380.808 371.632 345.267 366.383C309.725 361.133 277.506 375.885 273.303 399.331C269.1 422.777 294.505 446.039 330.046 451.288C365.588 456.537 397.807 441.786 402.01 418.34Z" fill="#FCAC38"/>
<path d="M388.355 401.129C389.891 383.715 366.47 367.805 336.042 365.594C305.615 363.383 279.703 375.708 278.167 393.122C276.631 410.537 300.053 426.447 330.48 428.658C360.908 430.869 386.819 418.544 388.355 401.129Z" fill="#FFD243"/>
<path d="M291.742 375.086C276.809 384.725 271.55 401.175 280.026 416.096C293.546 439.496 325.684 450.743 353.717 449.012C375.815 447.872 400.425 435.149 398.27 412.685C395.46 391.032 373.461 376.285 352.037 369.382C350.57 368.921 351.233 366.9 352.738 367.23C376.564 372.526 401.409 388.421 405.06 412.019C407.907 431.271 392.407 447.043 373.216 452.861C355.039 458.706 334.707 457.57 316.767 451.783C293.281 444.19 269.457 425.704 270.202 401.278C270.543 395.304 272.63 389.441 276.201 384.53C279.725 379.655 284.593 375.704 290.055 372.759C291.766 371.872 293.296 374.045 291.742 375.086Z" fill="#371A45"/>
<path d="M526.858 596.451H476.518C485.231 583.447 496.601 574.761 507.043 574.534C517.788 574.292 524.951 583.042 526.858 596.451Z" fill="#FFD243"/>
<path d="M539.106 584.144C530.867 574.166 519.368 570.409 506.661 574.594C494.376 578.676 484.547 587.427 475.77 596.371C474.88 597.333 473.1 596.337 473.675 595.179C481.897 577.419 504.555 559.3 526.954 567.717C530.594 569.189 533.801 571.412 536.295 574.049C538.771 576.706 540.657 579.683 541.814 582.832C542.085 583.573 541.644 584.373 540.829 584.62C540.186 584.814 539.5 584.602 539.106 584.144Z" fill="#371A45"/>
<g opacity="0.6">
<path d="M442.846 427.437C444.266 458.822 500.783 484.549 522.726 566.12C532.034 600.722 563.128 561.213 532.54 496.322C504.19 436.18 441.846 405.315 442.846 427.437Z" fill="white"/>
</g>
<g opacity="0.6">
<path d="M358.084 385.044C366.115 394.252 391.149 397.444 413.38 410.898C437.148 425.282 454.131 412.953 418.3 382.426C380.106 349.886 342.942 367.685 358.084 385.044Z" fill="white"/>
</g>
<path d="M3.91842 600.002C1.75596 600.002 0.0023491 598.412 0.000110068 596.449C-0.0151153 580.682 1.5493 564.838 4.65192 549.359C10.3173 521.1 21.0468 493.932 36.5429 468.606C60.4289 429.607 94.9512 396.615 136.377 373.198C142.799 369.546 149.497 366.076 156.28 362.887C192.509 345.829 233.181 335.716 273.898 333.643L274.39 333.618C274.603 333.605 274.816 333.594 275.029 333.586C277.675 333.455 280.151 333.366 282.542 333.314C287.415 333.193 292.468 333.19 297.555 333.301C332.415 334.097 366.461 340.549 398.753 352.474C409.667 356.481 420.465 361.168 430.834 366.4C433.004 367.502 435.299 368.676 437.562 369.905C438.878 370.603 440.213 371.346 441.533 372.091C484.341 395.852 519.748 429.469 543.904 469.293C567.433 508.083 579.915 551.975 580 596.225C580.002 597.169 579.59 598.075 578.855 598.744C578.121 599.411 577.124 599.788 576.084 599.788L3.92066 600.003C3.91954 600.002 3.91842 600.002 3.91842 600.002ZM290.28 340.334C287.734 340.334 285.216 340.365 282.741 340.425C280.417 340.475 278.02 340.562 275.398 340.691L274.876 340.717C274.68 340.728 274.483 340.739 274.286 340.747C234.718 342.761 195.141 352.602 159.885 369.203C153.291 372.304 146.778 375.676 140.529 379.23C100.22 402.016 66.6344 434.115 43.3923 472.06C28.3149 496.704 17.8741 523.14 12.3618 550.632C9.57735 564.527 8.06533 578.725 7.86091 592.889L572.131 592.675C570.649 504.262 520.504 424.264 437.422 378.147C436.139 377.423 434.863 376.712 433.573 376.027C431.365 374.827 429.125 373.683 427.017 372.611C416.937 367.525 406.432 362.966 395.807 359.066C364.387 347.462 331.269 341.186 297.363 340.412C294.99 340.36 292.623 340.334 290.28 340.334Z" fill="#371A45"/>
<path d="M421.789 286.726C421.192 298.293 419.718 309.14 417.267 317.891C415.325 324.802 409.209 330.038 401.487 331.348C392.866 332.814 379.635 333.74 362.055 331.2L349.399 189.589C349.399 189.589 363.227 188.467 377.997 190.248C388.235 191.479 398.917 194.097 405.793 199.433C417.234 208.322 423.654 250.974 421.789 286.726Z" fill="white"/>
<path d="M383.23 336.032C376.949 336.032 369.683 335.593 361.493 334.41C359.865 334.175 358.625 332.959 358.491 331.467L345.836 189.856C345.677 188.079 347.126 186.519 349.082 186.361C349.662 186.314 363.476 185.226 378.469 187.035C391.694 188.625 401.669 191.967 408.116 196.97C421.137 207.087 427.205 251.518 425.361 286.882C424.73 299.139 423.129 310.14 420.733 318.695C418.458 326.794 411.161 333.012 402.145 334.543C397.503 335.333 391.152 336.032 383.23 336.032ZM365.39 328.375C381.494 330.415 393.476 329.413 400.828 328.162C407.121 327.094 412.213 322.749 413.802 317.093C416.081 308.958 417.608 298.405 418.217 286.578C418.217 286.578 418.217 286.577 418.217 286.576C420.138 249.751 413.108 209.393 403.467 201.902C398.091 197.729 389.362 194.892 377.528 193.469C367.709 192.285 358.211 192.427 353.258 192.631L365.39 328.375Z" fill="#371A45"/>
<g opacity="0.2">
<path d="M421.789 286.722C421.192 298.289 419.718 309.136 417.267 317.887C415.325 324.798 409.209 330.034 401.487 331.344C392.866 332.81 379.635 333.736 362.055 331.196L349.399 189.585C349.399 189.585 363.227 188.463 377.997 190.245C364.159 206.556 323.643 264.357 421.789 286.722Z" fill="#371A45"/>
</g>
<path d="M396.57 305.196C391.593 305.196 387.133 302.011 386.134 297.433C385.312 293.665 384.786 289.752 384.569 285.804C384.472 284.014 385.992 282.49 387.964 282.401C389.924 282.314 391.614 283.691 391.713 285.482C391.911 289.116 392.394 292.713 393.148 296.172C393.52 297.869 395.355 298.986 397.242 298.645L408.288 296.694C409.617 296.46 410.662 295.564 411.017 294.355C415.372 279.505 413.205 261.351 412.071 254.234C412.003 253.808 411.603 253.495 411.132 253.495C411.12 253.495 411.108 253.495 411.095 253.495C397.446 253.977 395.229 254.435 395.02 254.486C393.118 254.95 391.15 253.929 390.635 252.201C390.12 250.473 391.236 248.694 393.139 248.224C393.827 248.053 395.922 247.534 410.818 247.009C414.936 246.843 418.553 249.569 419.149 253.305C420.346 260.817 422.623 280.017 417.929 296.024C416.88 299.6 413.632 302.364 409.655 303.067L398.608 305.018C397.925 305.138 397.242 305.196 396.57 305.196Z" fill="#371A45"/>
<path d="M410.304 278.468C408.406 285.457 400.967 299.13 371.816 291.393C371.816 291.393 388.083 327.322 363.14 364.728C344.422 392.793 334.054 425.474 330.042 440.052C327.916 447.75 322.45 454.444 314.707 458.145C308.862 460.94 301.65 462.19 294.275 458.076C277.26 448.587 277.097 444.767 277.097 444.62C277.097 444.62 267.814 445.102 260.211 442.483L260.2 442.474C255.44 440.84 251.34 437.985 250.614 433.034C250.57 432.798 250.548 432.561 250.527 432.315C250.071 426.616 251.893 421.812 255.103 418.15C259.517 413.051 266.588 410.167 273.844 410.167C273.844 410.167 282.433 377.358 288.94 359.147L266.664 358.222L266.654 358.212L265.352 358.163C265.352 358.163 240.409 407.873 230.92 434.943C230.92 434.943 229.749 443.478 199.014 441.174C173.811 439.294 156.025 436.745 149.952 430.189C149.931 430.159 149.92 430.14 149.898 430.12C148.597 428.702 147.848 427.098 147.686 425.267C146.786 414.931 155.277 401.307 178.409 406.229C181.945 381.295 187.139 358.744 198.472 345.041L194.2 257.167C194.2 257.167 203.06 218.875 235.432 209.277C267.793 199.68 350.484 201.895 350.484 201.895C350.484 201.895 376.241 205.822 391.695 229.329C398.69 239.96 403.288 250.276 406.238 258.368V258.397C408.472 264.54 409.762 269.393 410.402 272.169C410.89 274.255 410.868 276.401 410.304 278.468Z" fill="white"/>
<path d="M304.197 463.964C300.101 463.964 296.132 462.924 292.403 460.843C283.265 455.748 277.314 451.352 274.836 447.902C271.348 447.876 264.767 447.527 258.943 445.52C258.871 445.495 258.8 445.469 258.732 445.441C250.145 442.428 247.649 437.311 247.077 433.516C247.023 433.208 246.991 432.899 246.963 432.579C246.466 426.362 248.315 420.684 252.305 416.132C256.73 411.021 263.571 407.73 270.992 407.054C272.92 399.829 278.94 377.626 284.135 362.199L267.609 361.513C262.888 371.031 242.694 412.16 234.403 435.713C233.742 438.773 229.088 446.689 198.719 444.412C172.015 442.419 154.083 439.694 147.215 432.28C147.16 432.222 147.109 432.161 147.059 432.1C145.326 430.173 144.338 427.964 144.121 425.53C143.506 418.456 146.51 411.606 152.159 407.201C156.273 403.994 163.535 400.742 175.361 402.39C178.498 381.316 183.422 358.577 194.844 344.048L190.626 257.313C190.613 257.041 190.638 256.769 190.699 256.503C191.079 254.865 200.375 216.26 234.32 206.195C266.898 196.533 347.188 198.563 350.589 198.653C350.753 198.657 350.916 198.672 351.076 198.696C352.195 198.867 378.649 203.155 394.765 227.669C400.786 236.819 405.787 246.806 409.631 257.352C409.659 257.429 409.685 257.509 409.707 257.588C412.062 264.094 413.345 269.092 413.901 271.506C414.509 274.105 414.466 276.713 413.775 279.252C412.555 283.741 409.572 289.89 402.292 293.694C395.863 297.055 387.446 297.807 377.214 295.951C380.851 307.9 386.114 336.547 366.199 366.413C347.447 394.527 337.092 427.828 333.511 440.842C331.086 449.619 324.84 456.972 316.372 461.02C312.268 462.982 308.173 463.964 304.197 463.964ZM280.619 444.064C280.927 444.64 283.203 448.094 296.147 455.313C301.37 458.226 306.895 458.215 313.039 455.276C319.71 452.088 324.643 446.252 326.573 439.265C331.119 422.749 341.518 390.883 360.081 363.05C383.739 327.57 368.662 292.971 368.507 292.625C367.988 291.471 368.243 290.148 369.163 289.223C370.082 288.299 371.5 287.927 372.82 288.281C384.041 291.258 392.755 291.187 398.724 288.067C403.821 285.405 405.946 280.957 406.831 277.694C406.832 277.693 406.832 277.692 406.832 277.691C407.263 276.113 407.287 274.483 406.903 272.844C406.37 270.53 405.135 265.721 402.841 259.417C402.813 259.341 402.789 259.265 402.767 259.188C399.097 249.166 394.339 239.682 388.624 230.995C374.982 210.243 352.531 205.583 350.098 205.134C344.779 205.006 267.011 203.326 236.541 212.365C208.202 220.767 198.81 253.577 197.792 257.465L202.044 344.901C202.08 345.652 201.829 346.391 201.331 346.993C189.721 361.03 185.02 385.025 181.955 406.647C181.826 407.557 181.277 408.375 180.446 408.899C179.613 409.423 178.577 409.602 177.592 409.391C168.716 407.506 161.534 408.45 156.82 412.124C152.199 415.727 150.913 421.145 151.25 425.013C151.351 426.154 151.795 427.119 152.645 428.045L152.644 428.046C152.686 428.091 152.727 428.138 152.767 428.185C158.439 434.128 178.479 436.387 199.307 437.941C223.281 439.74 227.15 434.663 227.434 434.22C227.456 434.132 227.482 434.046 227.512 433.961C236.957 407.018 261.846 357.318 262.097 356.819C262.7 355.617 264.048 354.872 265.501 354.921L266.803 354.971C266.9 354.975 266.994 354.982 267.089 354.993L289.102 355.907C290.217 355.952 291.243 356.468 291.879 357.301C292.514 358.132 292.684 359.186 292.34 360.15C285.953 378.027 277.407 410.593 277.322 410.919C276.939 412.382 275.499 413.415 273.843 413.415C267.525 413.415 261.57 415.936 257.915 420.157C255.048 423.428 253.731 427.546 254.093 432.083C254.104 432.207 254.114 432.353 254.14 432.498C254.148 432.535 254.153 432.571 254.159 432.608C254.324 433.734 254.826 437.161 261.465 439.44C261.531 439.461 261.596 439.486 261.66 439.512C268.403 441.775 276.811 441.388 276.895 441.38C277.897 441.343 278.838 441.651 279.552 442.265C280.115 442.748 280.487 443.38 280.619 444.064ZM280.673 444.612C280.673 444.615 280.673 444.619 280.673 444.622C280.673 444.619 280.673 444.616 280.673 444.612ZM280.673 444.606C280.673 444.607 280.673 444.608 280.673 444.609C280.673 444.608 280.673 444.607 280.673 444.606ZM227.377 434.511C227.377 434.512 227.375 434.513 227.375 434.514C227.377 434.513 227.377 434.512 227.377 434.511Z" fill="#371A45"/>
<path d="M341.808 322.401L284.981 349.107C282.433 350.308 279.559 350.82 276.696 350.584L184.265 343.053L176.988 342.463C171.642 342.029 167 338.939 164.94 334.44L135.388 269.944C134.433 267.877 134.759 265.515 136.223 263.723L140.94 257.925C142.285 256.271 144.422 255.317 146.677 255.346L245.571 256.675C250.126 256.734 254.16 259.362 255.69 263.261L273.486 308.699L337.362 312.686L340.453 312.883L341.808 322.401Z" fill="#B1B1BA"/>
<g opacity="0.61">
<path d="M146.211 265.042C144.747 266.834 144.432 269.196 145.376 271.264L174.928 335.759C176.457 339.106 179.429 341.675 183.051 342.955L176.988 342.463C171.642 342.029 167 338.939 164.94 334.44L135.388 269.944C134.433 267.877 134.759 265.515 136.223 263.723L140.94 257.925C142.285 256.271 144.422 255.317 146.677 255.346L245.571 256.675C247.415 256.695 249.172 257.138 250.712 257.925L156.665 256.665C154.409 256.636 152.273 257.6 150.928 259.244L146.211 265.042Z" fill="white"/>
</g>
<path d="M278.053 353.889C277.497 353.889 276.94 353.866 276.382 353.821L176.673 345.699C169.978 345.153 164.215 341.315 161.634 335.681L132.081 271.19C130.661 268.091 131.145 264.489 133.343 261.791L138.062 255.995C140.085 253.509 143.358 252.024 146.73 252.1L245.618 253.426C251.642 253.507 257.045 257.022 259.062 262.175L276.07 305.607L340.698 309.644C342.398 309.75 343.78 310.931 343.999 312.466L345.354 321.981C345.547 323.334 344.787 324.652 343.452 325.279L286.623 351.992C283.964 353.243 281.03 353.889 278.053 353.889ZM146.573 258.59C145.487 258.59 144.458 259.06 143.813 259.854L139.094 265.649C138.381 266.525 138.224 267.692 138.685 268.698L168.237 333.188C169.795 336.588 173.271 338.904 177.311 339.233L277.02 347.355C279.203 347.537 281.388 347.144 283.334 346.229L337.941 320.561L337.282 315.937L273.24 311.937C271.82 311.849 270.593 311.003 270.116 309.786L252.323 264.348C251.302 261.739 248.565 259.958 245.512 259.916L146.624 258.59C146.607 258.59 146.589 258.59 146.573 258.59Z" fill="#371A45"/>
<path d="M287.829 351.021C286.331 351.021 284.936 350.16 284.437 348.8L270.093 309.728C269.469 308.027 270.481 306.189 272.355 305.623C274.23 305.055 276.254 305.976 276.878 307.676L291.222 346.748C291.846 348.448 290.834 350.286 288.96 350.853C288.585 350.966 288.203 351.021 287.829 351.021Z" fill="#371A45"/>
<path d="M284.004 339.802C283.004 339.802 282.043 339.298 281.57 338.429C280.908 337.211 281.46 335.735 282.802 335.134L337.652 310.571C338.998 309.97 340.622 310.47 341.283 311.689C341.946 312.908 341.393 314.384 340.051 314.985L285.201 339.548C284.815 339.72 284.406 339.802 284.004 339.802Z" fill="#371A45"/>
<path d="M265.352 352.101C265.01 352.101 264.665 352.084 264.32 352.052C262.831 351.911 261.749 350.702 261.903 349.35C262.058 347.998 263.401 347.019 264.88 347.156C266.409 347.308 267.846 346.756 268.81 345.665C269.774 344.573 270.047 343.185 269.557 341.858L245.329 276.131C244.245 273.192 241.224 271.218 237.812 271.218L143.395 269.712C142.284 269.687 141.266 270.156 140.614 270.979C139.962 271.803 139.805 272.823 140.182 273.778L140.857 275.49C141.363 276.769 140.629 278.178 139.219 278.636C137.812 279.093 136.257 278.428 135.752 277.149L135.076 275.437C134.105 272.974 134.529 270.235 136.209 268.109C137.888 265.984 140.631 264.707 143.491 264.791L237.861 266.296C243.56 266.296 248.647 269.621 250.472 274.569L274.7 340.296C275.769 343.197 275.149 346.355 273.042 348.743C271.151 350.884 268.332 352.1 265.352 352.101Z" fill="#371A45"/>
<path d="M254.949 260.776L245.289 268.256L250.63 257.8C252.793 254.223 258.163 257.925 254.949 260.776Z" fill="#371A45"/>
<path d="M220.476 303.454C220.476 313.19 212.559 321.084 202.788 321.084C199.12 321.084 195.711 319.969 192.887 318.062C191.444 317.088 191.906 315.081 193.648 314.671C200.14 313.146 204.892 308.22 204.892 302.372C204.892 297.224 201.201 292.785 195.884 290.757C194.21 290.119 194.055 288 195.691 287.285C197.86 286.338 200.26 285.814 202.788 285.814C212.559 285.814 220.476 293.709 220.476 303.454Z" fill="#371A45"/>
<g opacity="0.61">
<path d="M222.645 306.404C222.645 316.14 214.728 324.034 204.957 324.034C201.292 324.034 197.875 322.922 195.056 321.012C194.264 320.481 194.047 319.634 194.297 318.916C196.813 320.294 199.708 321.081 202.788 321.081C212.559 321.081 220.476 313.187 220.476 303.451C220.476 300.213 219.598 297.171 218.058 294.562C220.921 297.693 222.645 301.847 222.645 306.404Z" fill="white"/>
</g>
<g opacity="0.2">
<path d="M341.808 322.152L284.981 348.858C282.433 350.059 279.559 350.571 276.696 350.335L184.265 342.804L184.2 342.706C188.538 341.505 255.05 334.299 245.289 271.3L255.05 266.998L274.982 312.535C274.982 312.535 281.999 336.061 309.274 324.81C321.485 319.78 330.79 315.557 337.362 312.436L340.453 312.633L341.808 322.152Z" fill="#371A45"/>
</g>
<path d="M274.176 406.939C286.646 409.43 298.336 414.562 308.46 421.532C305.661 420.304 302.856 419.137 299.958 418.197C291.521 415.393 282.472 413.594 273.519 413.402C268.307 413.228 269.003 406.248 274.176 406.939Z" fill="#371A45"/>
<path d="M275.402 441.765C280.679 440.496 285.835 440.729 291.154 440.725C287.798 442.229 284.475 443.8 281.377 445.641C280.401 446.233 279.404 446.874 278.799 447.478C277.398 448.875 275.015 448.978 273.476 447.706C271.125 445.782 272.359 442.285 275.402 441.765Z" fill="#371A45"/>
<path d="M179.409 403.109C186.523 406.249 193.8 409.156 200.283 413.28C198.442 412.677 196.553 412.285 194.652 411.913C188.964 410.84 183.153 410.04 177.416 409.343C175.434 409.109 174.037 407.461 174.294 405.663C174.563 403.492 177.253 402.161 179.409 403.109Z" fill="#371A45"/>
<path d="M246.731 397.657C245.055 397.657 243.558 396.582 243.226 395.032C240.963 384.495 234.144 375.887 224.027 370.792C213.529 365.505 200.739 364.614 189.812 368.404C187.969 369.045 185.9 368.205 185.195 366.531C184.49 364.856 185.414 362.98 187.258 362.34C200.132 357.872 215.176 358.91 227.497 365.116C239.493 371.157 247.571 381.34 250.245 393.79C250.623 395.549 249.358 397.254 247.42 397.596C247.189 397.637 246.959 397.657 246.731 397.657Z" fill="#371A45"/>
<path d="M265.354 361.404C264.578 361.404 263.806 361.175 263.171 360.731C261.206 359.749 248.47 354.955 236.996 350.779C235.163 350.112 234.273 348.222 235.008 346.559C235.742 344.894 237.825 344.087 239.657 344.753C266.833 354.643 267.44 355.333 268.144 356.13C269.377 357.53 269.128 359.572 267.586 360.693C266.926 361.171 266.138 361.404 265.354 361.404ZM262.56 360.187C262.561 360.188 262.563 360.189 262.564 360.191C262.563 360.189 262.561 360.188 262.56 360.187Z" fill="#371A45"/>
<path d="M343.258 400.123C342.063 400.123 340.895 399.579 340.217 398.59C333.345 388.552 314.349 366.408 286.495 377.536C284.684 378.256 282.577 377.513 281.781 375.873C280.986 374.232 281.806 372.316 283.613 371.594C306.497 362.454 329.926 371.262 346.292 395.164C347.333 396.686 346.82 398.687 345.141 399.634C344.554 399.965 343.902 400.123 343.258 400.123Z" fill="#371A45"/>
<path d="M331.412 295.581C330.079 295.581 328.688 295.437 327.25 295.111C319.93 293.45 312.94 290.528 308.073 287.094C303.742 284.039 301.321 279.324 301.381 274.34C298.85 276.305 296.383 278.147 295.187 278.833C292.822 280.191 289.603 280.044 286.982 278.46C285.234 277.403 281.319 274.143 282.703 266.704C284.558 256.729 305.804 246.089 310.043 244.057C315.244 241.564 335.237 242.935 343.903 243.672L363.015 242.648C363.247 242.634 363.483 242.642 363.712 242.673C373.407 243.883 381.188 249.622 385.06 258.42C390.08 269.83 387.608 283.695 378.762 293.742C377.53 295.142 375.28 295.371 373.737 294.251C373.704 294.228 373.671 294.203 373.639 294.178C372.867 294.596 371.925 294.749 370.983 294.546L346.46 289.245C343.899 291.568 338.453 295.581 331.412 295.581ZM306.428 262.753C307.025 262.753 307.626 262.889 308.173 263.167C309.508 263.845 310.22 265.217 309.944 266.583L308.717 272.671C307.995 276.266 309.429 279.829 312.462 281.968C316.513 284.826 322.688 287.385 328.984 288.813C336.331 290.481 342.376 283.703 342.437 283.633C343.299 282.651 344.721 282.197 346.071 282.488L372.64 288.231C373.127 288.336 373.565 288.527 373.943 288.782C380.478 280.715 382.29 269.628 378.418 260.827C375.531 254.267 370.089 250.13 363.073 249.148L344.052 250.167C343.87 250.177 343.686 250.175 343.504 250.158C331.022 249.089 315.937 248.691 313.373 249.802C302.588 254.97 290.639 263.032 289.755 267.785C289.331 270.06 289.641 271.886 290.605 272.796C290.986 273.155 291.349 273.246 291.509 273.261C293.418 272.091 300.141 266.76 304.038 263.584C304.711 263.036 305.566 262.753 306.428 262.753Z" fill="#371A45"/>
<path d="M343.32 287.382L337.091 279.63L338.896 279.319L335.01 284.95L336.859 278.522C337.111 277.74 338.079 277.678 338.664 278.211L347.166 283.912C350.394 286.329 345.968 290.33 343.32 287.382Z" fill="#371A45"/>
<path d="M338.845 247.983L335.01 233.145L344.772 245.545L338.845 247.983Z" fill="#371A45"/>
<path d="M227.124 255.342L230.378 241.512L233.631 255.342H227.124Z" fill="#371A45"/>
<path d="M255.59 263.71C253.674 263.71 252.089 262.334 252.018 260.582C251.947 258.791 253.488 257.286 255.462 257.22L291.069 256.045C293.061 255.978 294.7 257.379 294.773 259.171C294.844 260.962 293.302 262.468 291.329 262.533L255.722 263.708C255.677 263.709 255.633 263.71 255.59 263.71Z" fill="#371A45"/>
<path d="M269.745 302.104C268.007 302.104 266.565 300.857 266.495 299.268C266.424 297.638 267.821 296.265 269.618 296.199L305.103 294.917C307.125 294.845 308.709 293.348 308.709 291.511V285.648C308.709 284.017 310.165 282.695 311.962 282.695C313.76 282.695 315.216 284.017 315.216 285.648V291.511C315.216 296.531 310.888 300.619 305.361 300.82L269.876 302.102C269.832 302.103 269.788 302.104 269.745 302.104Z" fill="#371A45"/>
<path d="M267.7 293.352C265.966 293.352 264.525 292.111 264.452 290.523C264.375 288.894 265.769 287.517 267.565 287.449L291.346 286.538C292.124 286.508 292.84 286.203 293.362 285.679C293.885 285.156 294.147 284.479 294.104 283.774L293.481 273.819C293.379 272.19 294.75 270.795 296.544 270.703C298.337 270.624 299.874 271.855 299.977 273.483L300.6 283.439C300.744 285.735 299.886 287.939 298.186 289.644C296.485 291.349 294.153 292.342 291.62 292.438L267.839 293.349C267.793 293.351 267.746 293.352 267.7 293.352Z" fill="#371A45"/>
<path d="M298.999 285.714L309.002 294.417L295.725 290.817C293.954 290.337 292.947 288.644 293.476 287.037C294.118 284.888 297.284 284.152 298.999 285.714Z" fill="#371A45"/>
<path d="M397.478 201.672C393.445 205.541 387.803 207.869 381.934 208.045C385.959 204.164 391.614 201.862 397.478 201.672Z" fill="#371A45"/>
<g opacity="0.3">
<path d="M255.104 418.146C253.824 422.97 252.328 428.079 250.614 433.03C250.571 432.794 250.549 432.558 250.527 432.312C250.071 426.612 251.894 421.808 255.104 418.146Z" fill="#000070"/>
</g>
<g opacity="0.2">
<path d="M266.653 358.206L265.352 358.157C265.352 358.157 240.409 407.867 230.92 434.937C230.92 434.937 229.749 443.471 199.014 441.168C173.811 439.288 156.025 436.738 149.952 430.182C149.909 430.124 149.887 430.094 149.887 430.094C149.887 430.094 158.53 417.337 185.642 425.32C212.755 433.293 217.634 406.223 217.634 406.223C217.634 406.223 245.831 362.685 230.377 346.807L266.653 358.206Z" fill="#371A45"/>
</g>
<g opacity="0.2">
<path d="M409.84 278.716C407.942 285.705 400.502 299.378 371.351 291.64C371.351 291.64 387.619 327.57 362.676 364.976C343.957 393.04 333.59 425.721 329.577 440.299C327.452 447.997 321.986 454.691 314.242 458.392C308.397 461.188 301.185 462.438 293.811 458.323C276.795 448.834 276.632 445.014 276.632 444.867C276.632 444.867 267.349 445.349 259.747 442.731L259.736 442.721C259.736 442.721 297.704 447.013 300.133 432.975C302.563 418.929 300.133 417.806 300.133 417.806C300.133 417.806 333.622 365.084 338.383 353.212C343.155 341.351 336.279 337.59 336.279 337.59L290.731 349.885L342.786 321.329L341.344 302.203C341.344 302.203 319.632 304.398 312.876 292.576L308.538 296.956L296.544 286.059L296.902 270.969L308.538 265.22C308.538 265.22 317.984 283.244 334.544 273.902L341.344 270.309C341.344 270.309 408.614 286.522 405.773 258.645C408.007 264.787 409.298 269.64 409.938 272.416C410.425 274.503 410.404 276.649 409.84 278.716Z" fill="#371A45"/>
</g>
<g opacity="0.2">
<path d="M287.829 231.914C287.829 231.914 352.382 245.941 374.343 210.012L355.232 203.01" fill="#371A45"/>
</g>
<path d="M184.476 180.575C194.356 194.789 208.257 206.825 225.385 215.19C228.878 216.894 232.493 218.447 236.238 219.831C238.057 220.51 239.921 221.144 241.81 221.75C247.516 223.551 253.275 224.91 259.051 225.845C264.027 226.663 269.018 227.158 273.98 227.361C279.971 227.607 285.931 227.409 291.805 226.802C293.947 226.575 296.076 226.297 298.191 225.969C336.904 219.9 371.063 195.803 385.275 160.253C406.223 107.889 375.946 50.5257 317.668 32.1212C306.441 28.5837 294.984 26.7318 283.667 26.4577C282.345 26.4144 281.015 26.4055 279.688 26.4215C276.137 26.4429 272.607 26.615 269.105 26.9367C261.007 27.6836 253.06 29.2225 245.409 31.4857C237.757 33.7405 230.383 36.7289 223.442 40.382C221.235 41.5424 219.069 42.7675 216.947 44.0662C213.768 46.0135 210.693 48.0977 207.733 50.3438C192.964 61.4869 181.177 76.1723 174.203 93.6182C162.151 123.739 167.053 155.51 184.476 180.575Z" fill="white"/>
<path d="M278.984 227.754C277.305 227.754 275.631 227.719 273.966 227.65C268.921 227.445 263.884 226.934 258.996 226.131C253.164 225.186 247.347 223.805 241.706 222.025C239.637 221.36 237.81 220.731 236.118 220.099C232.445 218.742 228.784 217.176 225.235 215.445C208.501 207.273 194.315 195.269 184.209 180.731C165.979 154.506 162.225 122.721 173.907 93.5235C180.657 76.6367 192.284 61.6304 207.531 50.1272C210.41 47.9411 213.519 45.8234 216.771 43.8327C218.854 42.5576 221.046 41.3141 223.283 40.1371C230.246 36.4735 237.657 33.4715 245.311 31.2169C253.038 28.9315 261.032 27.3973 269.073 26.6551C272.568 26.3346 276.139 26.16 279.686 26.1381C281.101 26.1212 282.411 26.134 283.678 26.1757C295.228 26.4545 306.699 28.3657 317.771 31.854C346.151 40.817 368.819 59.1892 381.601 83.5889C394.281 107.795 395.691 135.058 385.57 160.355C371.837 194.711 338.375 219.962 298.245 226.255C296.145 226.58 293.991 226.861 291.841 227.09C287.566 227.531 283.26 227.754 278.984 227.754ZM184.742 180.426C194.791 194.88 208.896 206.816 225.535 214.941C229.063 216.662 232.704 218.219 236.357 219.57C238.04 220.197 239.858 220.823 241.915 221.484C247.523 223.254 253.307 224.628 259.107 225.568C263.969 226.366 268.977 226.874 273.994 227.079C279.868 227.317 285.848 227.133 291.769 226.521C293.907 226.294 296.05 226.014 298.139 225.692C338.045 219.434 371.321 194.323 384.978 160.16C395.04 135.008 393.638 107.902 381.032 83.8356C368.323 59.5757 345.783 41.3075 317.563 32.3964C306.554 28.9262 295.146 27.0268 283.658 26.748C282.399 26.7073 281.102 26.6943 279.692 26.7122C276.163 26.7331 272.612 26.9067 269.137 27.2252C261.142 27.9635 253.19 29.4898 245.506 31.7611C237.894 34.0048 230.523 36.9899 223.601 40.6336C221.374 41.8036 219.195 43.0391 217.123 44.3073C213.891 46.287 210.799 48.3937 207.934 50.567C192.773 62.0058 181.212 76.9277 174.499 93.7192C162.884 122.749 166.618 154.352 184.742 180.426Z" fill="#371A45"/>
<g opacity="0.2">
<path d="M385.274 160.252C371.066 195.806 336.901 219.904 298.189 225.968C296.073 226.299 293.946 226.577 291.807 226.802C285.931 227.411 279.972 227.606 273.982 227.363C269.02 227.157 264.027 226.665 259.054 225.849C253.275 224.915 247.518 223.556 241.809 221.755C239.923 221.142 238.06 220.512 236.237 219.837C232.492 218.45 228.88 216.891 225.385 215.19C208.257 206.826 194.354 194.794 184.474 180.574C179.044 172.766 174.829 164.301 171.965 155.441C181.74 168.811 195.145 180.128 211.485 188.109C214.976 189.819 218.592 191.369 222.337 192.756C224.153 193.434 226.016 194.063 227.908 194.673C233.618 196.474 239.374 197.833 245.147 198.77C250.126 199.584 255.113 200.079 260.075 200.285C266.065 200.527 272.031 200.33 277.9 199.724C280.045 199.495 282.173 199.217 284.288 198.887C323.001 192.823 357.159 168.727 371.374 133.171C379.673 112.432 379.926 90.9098 373.595 71.3379C392.156 96.6942 397.641 129.346 385.274 160.252Z" fill="#371A45"/>
</g>
<path d="M278.982 229.67C277.271 229.67 275.567 229.635 273.87 229.566C268.732 229.356 263.6 228.835 258.619 228.018C252.683 227.056 246.757 225.649 241.012 223.835C238.899 223.157 237.038 222.516 235.314 221.873C231.578 220.492 227.849 218.897 224.235 217.135C207.179 208.805 192.721 196.57 182.42 181.753C163.84 155.023 160.012 122.625 171.919 92.867C178.797 75.6607 190.644 60.3707 206.178 48.6501C209.11 46.4253 212.277 44.2678 215.588 42.2405C217.711 40.9407 219.945 39.6733 222.224 38.4756C229.314 34.7435 236.862 31.6871 244.658 29.3897C252.527 27.0637 260.669 25.4996 268.859 24.7444C272.421 24.417 276.058 24.2402 279.671 24.2185C281.114 24.2016 282.453 24.2126 283.755 24.2563C295.501 24.5402 307.187 26.4871 318.464 30.0397C347.385 39.1731 370.485 57.8968 383.51 82.7641C396.436 107.438 397.873 135.226 387.558 161.009C373.565 196.01 339.481 221.735 298.605 228.145C296.464 228.476 294.274 228.762 292.088 228.994C287.728 229.445 283.338 229.67 278.982 229.67ZM186.531 179.399C196.384 193.575 210.218 205.28 226.536 213.249C229.997 214.938 233.57 216.466 237.154 217.79C238.81 218.408 240.595 219.023 242.62 219.673C248.112 221.407 253.788 222.754 259.477 223.676C264.252 224.46 269.166 224.958 274.089 225.16C279.858 225.397 285.722 225.213 291.53 224.613C293.624 224.39 295.731 224.115 297.784 223.797C336.94 217.658 369.591 193.021 382.991 159.503C392.857 134.837 391.484 108.257 379.122 84.6574C366.658 60.865 344.55 42.948 316.869 34.2065C306.066 30.8028 294.873 28.9381 283.602 28.6652C282.357 28.6235 281.096 28.6105 279.72 28.6284C276.243 28.6502 272.759 28.8199 269.35 29.1326C261.505 29.857 253.703 31.3546 246.161 33.5842C238.688 35.7863 231.456 38.7157 224.661 42.2922C222.474 43.4402 220.337 44.6529 218.306 45.8973C215.133 47.8394 212.099 49.9065 209.291 52.038C194.413 63.2623 183.072 77.9006 176.487 94.3726C165.097 122.84 168.757 153.831 186.531 179.399Z" fill="#371A45"/>
<path d="M278.982 230.31C277.261 230.31 275.546 230.275 273.838 230.205C268.669 229.994 263.505 229.469 258.494 228.647C252.522 227.68 246.561 226.264 240.781 224.439C238.653 223.757 236.781 223.112 235.046 222.464C231.29 221.075 227.538 219.47 223.902 217.698C206.739 209.316 192.19 197.005 181.825 182.095C163.127 155.195 159.276 122.594 171.257 92.6485C178.177 75.3362 190.098 59.9506 205.728 48.1577C208.677 45.9199 211.863 43.7495 215.194 41.7093C217.331 40.4013 219.578 39.1272 221.871 37.9214C229.004 34.1673 236.598 31.092 244.441 28.7809C252.355 26.4408 260.548 24.868 268.788 24.1079C272.372 23.7785 276.032 23.6008 279.667 23.5781C281.114 23.5602 282.468 23.5732 283.78 23.6167C295.593 23.9024 307.35 25.8604 318.695 29.4348C347.796 38.625 371.039 57.4657 384.147 82.4887C397.153 107.318 398.6 135.281 388.221 161.227C374.143 196.443 339.85 222.326 298.725 228.775C296.571 229.108 294.368 229.395 292.17 229.63C287.781 230.083 283.365 230.31 278.982 230.31ZM187.127 179.058C196.916 193.141 210.658 204.769 226.869 212.686C230.309 214.363 233.859 215.882 237.42 217.198C239.067 217.813 240.841 218.424 242.855 219.07C248.308 220.792 253.948 222.131 259.602 223.047C264.347 223.825 269.229 224.321 274.121 224.521C279.848 224.757 285.678 224.572 291.45 223.977C293.53 223.756 295.625 223.483 297.665 223.167C336.571 217.066 369.015 192.588 382.328 159.285C392.13 134.782 390.766 108.377 378.485 84.9322C366.104 61.2954 344.139 43.4957 316.637 34.8108C305.903 31.428 294.781 29.5751 283.583 29.3042C282.343 29.2635 281.092 29.2505 279.729 29.2684C276.27 29.2891 272.808 29.458 269.421 29.7696C261.626 30.488 253.873 31.9765 246.379 34.1925C238.953 36.3807 231.766 39.2912 225.014 42.8448C222.842 43.9869 220.718 45.1917 218.699 46.4271C215.548 48.3572 212.533 50.4105 209.742 52.529C194.96 63.682 183.691 78.2247 177.149 94.5906C165.835 122.87 169.474 153.659 187.127 179.058Z" fill="#371A45"/>
<path d="M202.628 200.427C270.909 237.611 358.209 203.079 358.266 131.941C358.306 83.5429 305.455 46.4757 253.58 49.7457C215.824 52.1258 180.009 69.2435 167.7 122.739C167.7 122.739 166.325 147.149 174.718 162.852C183.111 178.554 194.241 192.538 194.241 192.538L202.628 200.427Z" fill="#371A45"/>
<path d="M358.263 131.943C358.208 203.079 270.906 237.61 202.627 200.431L200.929 198.83C273.854 206.111 343.227 163.166 344.778 91.2324C353.255 103.151 358.273 117.007 358.263 131.943Z" fill="#220F2D"/>
<path d="M261.547 228.717C260.693 228.717 259.843 228.71 258.987 228.694L258.5 228.65C252.522 227.682 246.56 226.266 240.78 224.441C238.652 223.759 236.781 223.114 235.046 222.466C231.289 221.077 227.537 219.472 223.901 217.7C206.739 209.318 192.189 197.007 181.824 182.097C163.127 155.197 159.275 122.596 171.257 92.6506C178.177 75.3382 190.097 59.9527 205.728 48.1597L205.976 47.9731L206.26 47.8361C219.366 41.5089 234.816 37.745 252.182 36.6504C283.459 34.6815 316.286 45.526 340.045 65.6627C361.449 83.8018 373.224 107.318 373.202 131.881C373.177 158.613 362.592 182.136 342.589 199.908C321.906 218.287 292.488 228.717 261.547 228.717ZM259.361 223.009C289.488 223.498 318.199 213.617 338.205 195.843C356.976 179.163 366.91 157.044 366.934 131.877C366.953 108.91 355.885 86.8723 335.768 69.8216C313.255 50.7428 282.174 40.4669 252.618 42.3267C236.262 43.3577 221.752 46.8557 209.488 52.7235C194.835 63.8468 183.655 78.319 177.15 94.5927C165.835 122.872 169.474 153.661 187.127 179.06C196.916 193.143 210.659 204.771 226.87 212.688C230.309 214.365 233.859 215.883 237.421 217.2C239.068 217.814 240.842 218.426 242.856 219.072C248.231 220.768 253.788 222.094 259.361 223.009Z" fill="#371A45"/>
<path d="M261.905 216.598C241.517 216.598 220.74 211.475 202.052 201.298L201.822 201.133L193.334 193.134C193.223 192.993 182.05 178.896 173.711 163.296C165.289 147.539 166.524 123.695 166.58 122.688L166.604 122.532C177.189 76.5298 206.426 51.7003 253.501 48.7311C280.867 47.0182 309.608 56.5041 330.416 74.1382C349.114 89.9841 359.403 110.513 359.385 131.941C359.36 163.057 342.563 189.52 313.302 204.547C297.624 212.597 279.916 216.598 261.905 216.598ZM203.331 199.624C237.813 218.349 279.514 219.561 312.199 202.777C340.74 188.122 357.122 162.302 357.146 131.939C357.164 111.081 347.127 91.0803 328.887 75.6226C308.528 58.3686 280.399 49.0705 253.657 50.7593C207.73 53.655 179.185 77.9169 168.813 122.867C168.741 124.382 167.787 147.556 175.724 162.408C183.71 177.347 194.319 190.891 195.104 191.885L203.331 199.624Z" fill="#371A45"/>
<path d="M407.622 124.594C410.268 144.259 399.52 162.226 383.611 164.723C367.702 167.219 352.66 153.301 350.015 133.637C349.996 133.514 349.982 133.383 349.97 133.258C347.506 113.742 358.228 95.9866 374.026 93.5086C386.315 91.5791 398.087 99.4473 404.028 112.19C405.775 115.942 407.02 120.123 407.622 124.594Z" fill="white"/>
<g opacity="0.2">
<path d="M407.622 124.602C410.268 144.266 399.52 162.233 383.611 164.73C367.702 167.227 352.66 153.309 350.015 133.644C349.995 133.522 349.982 133.39 349.97 133.266C351.99 135.009 354.98 136.569 358.578 135.321C364.879 133.131 374.77 118.667 374.77 118.667C374.77 118.667 387.438 115.786 404.028 112.197C405.775 115.95 407.02 120.13 407.622 124.602Z" fill="#371A45"/>
</g>
<path d="M379.863 167.866C374.239 167.866 368.72 166.125 363.692 162.734C354.661 156.644 348.542 146.164 346.904 133.985C344.061 112.87 355.991 93.4569 373.496 90.711C380.574 89.5995 387.648 91.2577 393.948 95.5071C402.978 101.597 409.097 112.076 410.736 124.255C413.578 145.371 401.648 164.784 384.144 167.53C382.715 167.754 381.285 167.866 379.863 167.866ZM377.735 96.0696C376.678 96.0696 375.62 96.1519 374.562 96.3178C360.3 98.5556 350.683 115.144 353.127 133.295C354.537 143.779 359.884 153.077 367.431 158.167C372.319 161.462 377.732 162.762 383.077 161.923C397.34 159.685 406.956 143.097 404.513 124.946C403.102 114.462 397.755 105.163 390.208 100.074C386.287 97.429 382.027 96.0696 377.735 96.0696Z" fill="#371A45"/>
<path d="M390.663 159.507C402.789 158.802 411.695 145.141 410.556 128.995C409.417 112.848 398.664 100.33 386.538 101.035C374.413 101.739 365.506 115.4 366.645 131.547C367.784 147.693 378.537 160.211 390.663 159.507Z" fill="white"/>
<g opacity="0.2">
<path d="M392.345 159.322C404.348 157.351 412.38 142.752 410.292 126.707C410.07 124.965 409.726 123.278 409.293 121.658C407.554 133.06 400.587 142.085 391.255 143.608C380.717 145.328 370.614 136.907 366.798 124.117C366.414 127.229 366.409 130.506 366.841 133.843C368.928 149.888 380.348 161.291 392.345 159.322Z" fill="#371A45"/>
</g>
<path d="M389.618 162.391C385.447 162.391 381.333 161.09 377.559 158.555C370.247 153.643 365.078 144.531 363.731 134.178C361.417 116.402 370.421 100.701 384.231 98.4341C389.507 97.5657 394.814 98.8014 399.578 102C406.889 106.911 412.06 116.024 413.407 126.376C415.72 144.152 406.714 159.853 392.906 162.121C391.81 162.302 390.712 162.391 389.618 162.391ZM387.477 103.859C386.765 103.859 386.054 103.917 385.347 104.033C375.143 105.708 368.094 119.208 369.956 133.511C371.104 142.333 375.341 149.986 381.288 153.981C384.627 156.224 388.262 157.1 391.789 156.522C401.992 154.846 409.041 141.345 407.181 127.042C406.032 118.22 401.796 110.568 395.848 106.573C393.179 104.78 390.321 103.859 387.477 103.859Z" fill="#371A45"/>
<g opacity="0.5">
<path d="M282.074 69.9723C282.074 69.9723 235.537 68.6098 210.961 94.9427C210.936 94.9703 210.91 94.9982 210.884 95.0258C205.717 100.572 201.189 114.375 199.841 121.481C198.058 130.879 198.364 135.548 198.888 141.435C200.488 159.341 204.978 167.44 204.978 167.44C192.761 158.866 185.393 148.626 183.894 133.724C183.751 132.255 183.664 130.735 183.629 129.171C183.62 128.811 183.62 128.454 183.625 128.094C183.616 128.091 183.62 128.083 183.629 128.072C183.808 124.9 184.218 122.77 185.118 118.107C187.823 104.042 194.941 85.4165 213.464 75.5854C248.1 57.2022 283.554 67.9737 282.074 69.9723Z" fill="white"/>
</g>
<g opacity="0.5">
<path d="M323.78 136.372C331.549 133.76 335.169 125.075 331.863 116.974C328.558 108.873 319.58 104.423 311.81 107.035C304.04 109.646 300.421 118.331 303.726 126.432C307.032 134.533 316.01 138.983 323.78 136.372Z" fill="white"/>
</g>
<g opacity="0.5">
<path d="M331.454 156.293C334.536 154.949 335.656 151.252 333.954 148.036C332.252 144.819 328.373 143.301 325.291 144.645C322.208 145.989 321.089 149.686 322.791 152.902C324.492 156.119 328.371 157.637 331.454 156.293Z" fill="white"/>
</g>
<path d="M503.935 184.684L511.192 195.994L525.571 196.979C529.666 197.26 531.63 201.682 528.893 204.462L519.285 214.222L522.696 226.939C523.667 230.561 519.641 233.623 515.882 232.119L502.687 226.841L490.416 233.715C486.92 235.673 482.469 233.143 482.883 229.434L484.335 216.412L473.341 207.943C470.209 205.531 471.484 200.906 475.499 200.117L489.592 197.347L495.068 185.239C496.628 181.791 501.867 181.462 503.935 184.684Z" fill="#FFD243"/>
<g opacity="0.2">
<path d="M528.892 204.461L519.284 214.219L522.692 226.932C523.663 230.558 519.638 233.615 515.886 232.118L502.689 226.84L490.412 233.706C487.186 235.524 483.131 233.486 482.868 230.236C483.596 230.172 484.324 229.961 485.022 229.575L497.289 222.709L510.486 227.988C514.248 229.484 518.273 226.427 517.302 222.802L513.894 210.088L523.501 200.331C524.492 199.321 524.867 198.091 524.745 196.916L525.575 196.971C529.67 197.255 531.632 201.68 528.892 204.461Z" fill="#371A45"/>
</g>
<g opacity="0.61">
<path d="M504.883 186.163C503.255 186.374 501.738 187.292 501.01 188.898L495.529 201.006L481.442 203.778C477.427 204.568 476.153 209.194 479.278 211.608L490.281 220.071L488.824 233.097C488.774 233.501 488.794 233.895 488.865 234.272C485.75 234.914 482.534 232.601 482.878 229.425L484.334 216.4L473.341 207.936C470.206 205.522 471.481 200.896 475.496 200.106L489.593 197.334L495.064 185.227C496.632 181.785 501.87 181.454 503.933 184.676L504.883 186.163Z" fill="white"/>
</g>
<path d="M487.813 237.148C486.347 237.148 484.879 236.777 483.574 236.036C480.977 234.56 479.555 231.925 479.864 229.158L481.156 217.576L471.377 210.044C469.042 208.245 468.053 205.451 468.796 202.754C469.54 200.057 471.861 198.016 474.855 197.426L487.391 194.963L492.261 184.195C493.424 181.622 496.046 179.905 499.102 179.713C502.16 179.533 505.014 180.896 506.556 183.298L513.011 193.358L525.799 194.234C528.854 194.444 531.463 196.176 532.609 198.755C533.753 201.335 533.197 204.225 531.155 206.298L522.61 214.978L525.643 226.289C526.368 228.99 525.359 231.778 523.01 233.563C520.661 235.349 517.459 235.761 514.658 234.64L502.923 229.946L492.01 236.06C490.713 236.786 489.263 237.148 487.813 237.148ZM499.655 185.204C499.605 185.204 499.559 185.206 499.52 185.208C499.162 185.231 498.284 185.381 497.874 186.286L492.398 198.394C492.019 199.233 491.21 199.848 490.233 200.039L476.14 202.809C475.086 203.017 474.77 203.775 474.683 204.091C474.595 204.408 474.482 205.212 475.304 205.845L486.299 214.313C487.059 214.9 487.454 215.789 487.354 216.691L485.901 229.713C485.792 230.686 486.489 231.194 486.794 231.367C487.099 231.541 487.907 231.888 488.823 231.373L501.093 224.499C501.944 224.021 502.996 223.955 503.91 224.322L517.105 229.601C518.089 229.994 518.839 229.551 519.115 229.341C519.39 229.131 520.004 228.542 519.749 227.591L516.338 214.874C516.102 213.994 516.357 213.064 517.023 212.388L526.631 202.629C527.349 201.898 527.115 201.116 526.981 200.814C526.846 200.511 526.418 199.8 525.342 199.726L510.963 198.741C509.968 198.672 509.073 198.164 508.57 197.381L501.313 186.071C500.829 185.318 500.069 185.204 499.655 185.204Z" fill="#371A45"/>
<path d="M65.7007 226.075L72.9578 237.385L87.3366 238.37C91.4325 238.651 93.3957 243.073 90.6589 245.853L81.051 255.613L84.4617 268.33C85.4333 271.952 81.4068 275.013 77.6481 273.51L64.4529 268.232L52.1818 275.106C48.6865 277.064 44.2346 274.534 44.6486 270.825L46.1015 257.803L35.107 249.334C31.9753 246.922 33.2504 242.297 37.2647 241.508L51.3579 238.738L56.8337 226.63C58.3936 223.181 63.6334 222.853 65.7007 226.075Z" fill="#FFD243"/>
<g opacity="0.2">
<path d="M90.6578 245.856L81.0505 255.613L84.4586 268.327C85.4294 271.952 81.4045 275.009 77.6526 273.513L64.4553 268.235L52.1782 275.101C48.9522 276.918 44.8969 274.881 44.634 271.631C45.3622 271.567 46.0903 271.356 46.788 270.97L59.055 264.104L72.2523 269.382C76.0143 270.879 80.0392 267.822 79.0683 264.196L75.6603 251.483L85.2675 241.725C86.2585 240.715 86.6327 239.485 86.5113 238.311L87.3407 238.366C91.4365 238.65 93.3983 243.075 90.6578 245.856Z" fill="#371A45"/>
</g>
<g opacity="0.61">
<path d="M66.6496 227.554C65.0214 227.765 63.5044 228.683 62.7763 230.289L57.2952 242.397L43.2078 245.169C39.193 245.958 37.9188 250.585 41.0438 252.999L52.0467 261.462L50.5904 274.487C50.5398 274.891 50.5599 275.286 50.6309 275.662C47.5162 276.305 44.3003 273.991 44.6442 270.816L46.1005 257.79L35.1077 249.327C31.9728 246.913 33.2471 242.286 37.2619 241.497L51.3593 238.725L56.8303 226.617C58.3979 223.175 63.6363 222.845 65.6994 226.067L66.6496 227.554Z" fill="white"/>
</g>
<path d="M49.5781 278.536C48.1109 278.536 46.6436 278.164 45.3383 277.422C42.7417 275.946 41.3206 273.311 41.6298 270.545L42.9219 258.963L33.1436 251.431C30.8072 249.632 29.8189 246.839 30.5625 244.141C31.3058 241.444 33.6279 239.403 36.6224 238.814L49.157 236.351L54.0264 225.581C55.1896 223.009 57.8113 221.292 60.8671 221.101C63.9317 220.914 66.7806 222.283 68.3222 224.685L74.7768 234.746L87.5648 235.622C90.6193 235.831 93.2292 237.564 94.3738 240.143C95.5183 242.722 94.9619 245.612 92.9208 247.685L84.3758 256.365L87.4086 267.677C88.1333 270.378 87.1253 273.165 84.777 274.951C82.4287 276.738 79.2265 277.149 76.4243 276.027L64.688 271.334L53.7738 277.446C52.4786 278.173 51.0279 278.535 49.5781 278.536ZM61.4217 226.591C61.3702 226.591 61.3254 226.593 61.286 226.595C60.9273 226.618 60.0494 226.768 59.6394 227.673L54.1643 239.782C53.785 240.62 52.9758 241.236 51.9996 241.427L37.9063 244.197C36.8523 244.404 36.5364 245.162 36.4489 245.479C36.3613 245.795 36.2478 246.598 37.0686 247.232L48.0639 255.7C48.8258 256.287 49.2205 257.176 49.12 258.078L47.6671 271.1C47.5578 272.074 48.2542 272.581 48.558 272.754C48.863 272.927 49.6699 273.274 50.5881 272.76L62.8591 265.887C63.7075 265.409 64.7603 265.343 65.6754 265.71L78.8711 270.988C79.8563 271.381 80.605 270.939 80.8807 270.728C81.1561 270.52 81.7684 269.93 81.5136 268.98L78.1036 256.261C77.8674 255.381 78.1233 254.451 78.7892 253.775L88.3969 244.015C89.1152 243.286 88.8801 242.504 88.7457 242.201C88.6112 241.899 88.1826 241.187 87.1079 241.114L72.729 240.128C71.7331 240.06 70.8388 239.552 70.3357 238.769L63.0786 227.458C62.5958 226.704 61.8359 226.591 61.4217 226.591Z" fill="#371A45"/>
<path d="M120.014 4.99047L127.271 16.3006L141.65 17.286C145.745 17.5667 147.709 21.9886 144.972 24.7687L135.364 34.5285L138.775 47.2456C139.746 50.8682 135.72 53.9293 131.961 52.4258L118.766 47.1476L106.495 54.0218C102.999 55.9799 98.5476 53.4501 98.9614 49.7407L100.414 36.7187L89.4197 28.25C86.288 25.8377 87.5631 21.2129 91.5775 20.424L105.671 17.6541L111.146 5.54591C112.707 2.09725 117.947 1.76882 120.014 4.99047Z" fill="#FFD243"/>
<g opacity="0.2">
<path d="M144.971 24.772L135.364 34.5294L138.772 47.2428C139.743 50.8685 135.718 53.9253 131.966 52.4289L118.769 47.1507L106.491 54.0168C103.265 55.8343 99.2101 53.7964 98.9473 50.547C99.6754 50.4827 100.404 50.2716 101.101 49.886L113.368 43.02L126.565 48.2982C130.328 49.7946 134.352 46.7378 133.382 43.1121L129.974 30.3987L139.581 20.6413C140.572 19.6314 140.946 18.4015 140.825 17.2266L141.654 17.2816C145.75 17.5662 147.712 21.9907 144.971 24.772Z" fill="#371A45"/>
</g>
<g opacity="0.61">
<path d="M120.963 6.47764C119.335 6.6888 117.818 7.60659 117.09 9.21295L111.609 21.3205L97.5213 24.0926C93.5065 24.882 92.2323 29.5084 95.3573 31.9224L106.36 40.3858L104.904 53.4112C104.853 53.815 104.874 54.2097 104.944 54.5861C101.83 55.2285 98.6138 52.9153 98.9577 49.7394L100.414 36.714L89.4212 28.2506C86.2863 25.8364 87.5605 21.21 91.5753 20.4208L105.673 17.6487L111.144 5.54115C112.711 2.099 117.95 1.76854 120.013 4.99039L120.963 6.47764Z" fill="white"/>
</g>
<path d="M103.892 57.4511C102.426 57.4511 100.959 57.08 99.6534 56.3386C97.0568 54.863 95.6346 52.2274 95.9429 49.4606L97.235 37.879L87.4567 30.347C85.1214 28.5478 84.132 25.7544 84.8756 23.0573C85.6189 20.3602 87.9413 18.3189 90.9358 17.7303L103.47 15.2663L108.341 4.49744C109.504 1.92533 112.126 0.207606 115.181 0.0159573C118.244 -0.164717 121.094 1.19877 122.635 3.60139L129.09 13.6608L141.878 14.5371C144.934 14.7465 147.542 16.4792 148.688 19.0582C149.833 21.6373 149.276 24.5281 147.234 26.601L138.689 35.2811L141.723 46.5918C142.448 49.294 141.438 52.0815 139.089 53.8667C136.741 55.6509 133.538 56.0647 130.737 54.9424L119.002 50.2486L108.089 56.3624C106.793 57.089 105.343 57.4511 103.892 57.4511ZM115.735 5.50689C115.684 5.50689 115.638 5.50893 115.599 5.51076C115.242 5.53352 114.364 5.68351 113.954 6.58952L108.477 18.6971C108.098 19.5356 107.289 20.1508 106.313 20.3425L92.2194 23.1132C91.1655 23.3207 90.8495 24.0777 90.762 24.3943C90.6745 24.711 90.5609 25.5147 91.3829 26.1478L102.378 34.6165C103.139 35.2031 103.534 36.0922 103.433 36.9941L101.98 50.0157C101.872 50.9892 102.568 51.4972 102.873 51.67C103.178 51.8446 103.985 52.1919 104.903 51.6759L117.172 44.8019C118.023 44.3235 119.075 44.2591 119.99 44.6253L133.185 49.9037C134.178 50.2986 134.92 49.8541 135.194 49.6446C135.47 49.4352 136.083 48.8457 135.828 47.8941L132.417 35.1772C132.181 34.297 132.437 33.3673 133.103 32.6915L142.711 22.9319C143.429 22.2014 143.195 21.4196 143.061 21.1168C142.926 20.8142 142.497 20.1027 141.422 20.0291L127.043 19.0436C126.047 18.9751 125.153 18.467 124.65 17.684L117.393 6.37429C116.909 5.62091 116.149 5.50689 115.735 5.50689Z" fill="#371A45"/>
</svg>
