<svg width="300" height="350" viewBox="0 0 300 350" fill="none" xmlns="http://www.w3.org/2000/svg">
<path d="M231.537 245.709L237.461 242.507C239.978 241.146 241.473 238.509 241.311 235.718L240.219 216.916C240.219 216.916 218.513 231.488 219.779 231.313" fill="white"/>
<path d="M231.539 247.817C230.777 247.817 230.038 247.427 229.64 246.735C229.057 245.718 229.433 244.435 230.481 243.869L236.404 240.667C238.183 239.705 239.258 237.809 239.143 235.836L238.052 217.035C237.985 215.873 238.9 214.878 240.097 214.813C241.279 214.748 242.319 215.636 242.386 216.798L243.478 235.599C243.685 239.173 241.737 242.606 238.517 244.348L232.593 247.55C232.259 247.731 231.896 247.817 231.539 247.817Z" fill="#371A45"/>
<path d="M104.388 167.231L102.726 143.815C102.45 139.927 105.177 136.444 109.111 135.661C131.474 131.21 202.544 127.162 226.735 129.38C230.779 129.751 233.988 132.836 234.402 136.758C234.953 141.988 235.69 149.871 236.059 157.619C236.692 170.918 240.219 198.307 240.219 198.307L243.047 212.302C244.101 217.516 240.949 222.665 235.727 224.26L230.451 225.871L110.526 176.536" fill="white"/>
<path d="M124.183 258.878H116.257C111.03 258.878 106.793 254.766 106.793 249.693V236.789L117.469 225.871L122.395 238.174" fill="white"/>
<path d="M124.182 260.985H116.256C109.841 260.985 104.623 255.92 104.623 249.693V236.789C104.623 235.626 105.594 234.683 106.793 234.683C107.992 234.683 108.964 235.626 108.964 236.789V249.693C108.964 253.596 112.235 256.772 116.256 256.772H124.182C125.381 256.772 126.353 257.715 126.353 258.878C126.353 260.042 125.381 260.985 124.182 260.985Z" fill="#371A45"/>
<path d="M230.451 227.977C230.162 227.977 229.874 227.921 229.604 227.81L109.679 178.475C108.574 178.021 108.059 176.784 108.527 175.713C108.995 174.642 110.27 174.142 111.372 174.595L230.562 223.628L235.075 222.249C239.248 220.975 241.759 216.873 240.917 212.706L238.089 198.711C238.079 198.664 238.071 198.615 238.065 198.567C238.03 198.292 234.52 170.943 233.89 157.715C233.524 150.022 232.792 142.188 232.242 136.972C231.936 134.063 229.534 131.752 226.531 131.477C203.528 129.366 132.464 133.162 109.547 137.724C106.692 138.292 104.691 140.848 104.891 143.669L106.553 167.085C106.636 168.246 105.733 169.252 104.537 169.332C103.339 169.412 102.305 168.536 102.223 167.375L100.561 143.959C100.212 139.041 103.7 134.586 108.674 133.596C132.393 128.875 203.131 125.097 226.939 127.282C231.998 127.745 236.044 131.64 236.561 136.543C237.116 141.813 237.856 149.731 238.227 157.52C238.833 170.253 242.162 196.4 242.363 197.972L245.177 211.895C246.446 218.17 242.663 224.349 236.378 226.269L231.103 227.88C230.89 227.945 230.67 227.977 230.451 227.977Z" fill="#371A45"/>
<path d="M294.213 145.508C294.213 145.508 301.538 155.558 292.585 165.829C283.631 176.1 278.205 174.783 278.205 174.783C275.719 201.081 266.174 216.403 238.499 203.499C238.499 203.494 238.493 203.494 238.488 203.488C237.793 203.167 237.088 202.825 236.372 202.467C235.498 202.03 234.613 201.566 233.707 201.076C233.707 201.076 236.057 231.625 233.886 249.18C231.716 266.736 245.467 329.941 245.467 329.941C245.467 329.941 247.637 339.074 244.56 342.582C243.6 343.677 242.411 344.636 241.234 345.436C238.548 347.259 235.335 348.202 232.063 348.202H195.277C192.83 348.202 190.697 346.548 190.198 344.22C189.373 340.385 188.971 334.518 192.461 330.025C193.063 329.245 193.785 328.513 194.637 327.834C194.637 327.834 194.653 327.402 194.642 326.628C194.615 322.772 194.067 310.458 188.488 301.677C182.736 292.623 176.984 273.846 175.481 268.748L175.459 268.679V268.674C175.226 267.884 175.101 267.441 175.101 267.441C175.085 268.384 175.069 269.332 175.058 270.291C174.749 290.68 175.232 314.234 176.132 339.474C176.301 344.241 172.372 348.202 167.45 348.202H119.29C116.604 348.202 114.308 346.369 113.749 343.825C112.789 339.458 112.517 332.737 117.895 328.023C120.158 326.032 123.43 324.4 128.07 323.446C128.07 323.446 120.836 287.367 118.123 258.925C115.41 230.482 113.136 211.9 113.136 211.9L84.75 196.615C84.75 196.615 95.8743 149.896 126.534 139.625C157.194 129.354 213.358 134.621 213.358 134.621C213.358 134.621 228.84 137.871 246.286 158.06L257.584 137.165C261.508 128.401 266.332 125.973 269.588 130.107C270.624 131.424 271.156 133.052 271.232 134.705L271.601 142.696L284.988 134.974C287.701 133.684 290.322 132.999 292.786 133.362C293.046 133.399 293.307 133.457 293.551 133.526C296.633 134.384 298.424 137.529 297.653 140.652C297.197 142.522 296.069 144.149 294.213 145.508Z" fill="white"/>
<g opacity="0.25">
<path d="M137.839 148.584C176.373 164.685 208.075 166.359 226.744 140.512L219.726 136.654C193.722 152.417 166.578 157.775 137.839 148.584Z" fill="#371A45"/>
</g>
<path d="M164.266 231.039C157.772 231.039 151.218 230.722 144.618 230.087C140.675 229.71 137.445 226.806 136.763 223.023C136.371 220.874 136.01 218.666 135.693 216.463C134.16 205.977 133.592 195.903 133.959 185.67C134.101 181.641 137.167 178.195 141.248 177.476C150.719 175.796 175.479 172.241 200.719 175.512C202.799 175.784 204.72 176.754 206.132 178.244C206.166 178.28 206.199 178.317 206.23 178.354C207.283 179.507 207.998 180.913 208.303 182.427C209.61 188.891 211.663 202.233 210.728 218.945C210.728 218.946 210.728 218.946 210.728 218.947C210.508 222.824 207.624 226.115 203.715 226.951C190.949 229.673 177.741 231.039 164.266 231.039ZM178.864 178.387C162.547 178.387 148.567 180.461 142.026 181.621C139.937 181.989 138.37 183.753 138.297 185.815C137.94 195.8 138.494 205.632 139.991 215.875C140.303 218.031 140.655 220.189 141.038 222.293C141.386 224.223 143.033 225.702 145.045 225.894C164.886 227.803 184.312 226.775 202.783 222.836C204.795 222.405 206.28 220.711 206.393 218.715C207.302 202.46 205.311 189.509 204.043 183.236C203.882 182.436 203.498 181.697 202.933 181.098C202.911 181.074 202.888 181.049 202.867 181.024C202.147 180.298 201.183 179.824 200.142 179.688C192.891 178.748 185.673 178.387 178.864 178.387Z" fill="#371A45"/>
<path d="M232.062 350.001H195.275C191.805 350.001 188.776 347.621 188.073 344.343C186.469 336.869 188.032 330.603 192.474 326.566C192.46 323.186 192.016 310.938 186.639 302.474C183.137 296.962 179.689 288.123 177.136 280.73C177.103 297.054 177.489 316.299 178.301 339.091C178.405 341.976 177.324 344.709 175.258 346.784C173.194 348.858 170.422 350.001 167.451 350.001H119.287C115.617 350.001 112.395 347.458 111.627 343.955C110.753 339.973 110.409 334.183 113.733 329.219C116.16 325.594 120.131 323.025 125.553 321.566C124.012 313.615 118.292 283.242 115.961 258.811C113.644 234.526 111.625 217.258 111.107 212.91L83.697 198.151C82.8502 197.695 82.4173 196.75 82.6348 195.835C82.751 195.348 85.5498 183.765 92.1992 170.73C101.111 153.261 112.739 141.71 125.825 137.326C156.579 127.023 211.254 131.999 213.567 132.216C213.651 132.224 213.734 132.237 213.816 132.254C214.452 132.387 229.001 135.617 245.848 154.032L255.625 135.948C258.426 129.716 261.801 126.198 265.39 125.773C267.606 125.509 269.711 126.485 271.313 128.519C272.579 130.128 273.301 132.128 273.401 134.303L273.608 138.78L283.878 132.853C283.928 132.824 283.98 132.797 284.034 132.772C287.423 131.162 290.39 130.572 293.109 130.969C295.358 131.298 297.298 132.487 298.571 134.319C299.883 136.205 300.318 138.58 299.765 140.834C299.324 142.633 298.398 144.237 297.004 145.619C299.485 150.243 301.242 158.851 294.241 166.882C287.89 174.168 282.965 176.099 280.176 176.526C278.305 193.625 273.557 203.591 265.299 207.816C258.003 211.549 248.437 210.437 236.132 204.405C236.686 213.183 237.782 235.052 236.043 249.123C233.939 266.138 247.451 328.571 247.588 329.199C247.827 330.201 249.889 339.443 246.214 343.64C245.238 344.755 243.98 345.837 242.475 346.857C239.444 348.913 235.843 350.001 232.062 350.001ZM175.103 265.025C176.069 265.025 176.933 265.65 177.194 266.575C177.261 266.809 183.883 290.108 190.334 300.262C197.29 311.212 196.829 326.935 196.806 327.598C196.785 328.206 196.494 328.775 196.009 329.16C191.233 332.943 191.368 339.037 192.323 343.484C192.609 344.818 193.851 345.787 195.275 345.787H232.062C234.949 345.787 237.69 344.962 239.989 343.403C241.189 342.589 242.171 341.751 242.907 340.911C244.533 339.054 244.145 333.475 243.349 330.106C242.777 327.475 229.544 266.32 231.733 248.621C233.853 231.472 231.566 201.227 231.543 200.923C231.483 200.15 231.866 199.408 232.54 198.99C233.214 198.573 234.068 198.549 234.765 198.927C247.205 205.666 256.797 207.402 263.275 204.088C270.309 200.49 274.486 190.74 276.043 174.282C276.104 173.637 276.375 173.029 276.936 172.678C277.483 172.335 278.07 172.224 278.684 172.416C279.178 172.452 283.643 172.516 290.928 164.16C298.645 155.308 292.693 146.768 292.436 146.408C291.77 145.479 291.975 144.198 292.906 143.517C294.332 142.472 295.195 141.276 295.542 139.859C295.815 138.748 295.608 137.588 294.974 136.677C294.387 135.834 293.496 135.287 292.463 135.136C290.667 134.872 288.557 135.326 286.019 136.52L272.712 144.2C272.057 144.579 271.244 144.595 270.572 144.244C269.9 143.892 269.469 143.224 269.434 142.484L269.065 134.491C269.004 133.18 268.588 131.999 267.863 131.077C266.89 129.841 266.155 129.926 265.916 129.955C264.514 130.122 262.011 132.249 259.575 137.698C259.554 137.746 259.531 137.792 259.506 137.838L248.21 158.731C247.873 159.353 247.24 159.772 246.52 159.847C245.802 159.923 245.09 159.644 244.625 159.106C228.698 140.674 214.381 136.741 213 136.397C209.771 136.11 156.335 131.563 127.242 141.309C101.142 150.052 89.5009 187.232 87.2698 195.256L114.187 209.749C114.797 210.078 115.207 210.671 115.289 211.343C115.312 211.529 117.599 230.278 120.284 258.422C122.956 286.436 130.13 322.376 130.202 322.736C130.429 323.865 129.68 324.962 128.52 325.2C123.199 326.292 119.448 328.416 117.374 331.515C114.86 335.268 115.171 339.874 115.874 343.077C116.223 344.673 117.627 345.787 119.287 345.787H167.451C169.234 345.787 170.897 345.101 172.136 343.857C173.376 342.611 174.025 340.97 173.963 339.237C172.91 309.718 172.573 286.12 172.931 267.093C172.951 266.046 173.761 265.171 174.831 265.041C174.922 265.03 175.013 265.025 175.103 265.025Z" fill="#371A45"/>
<path d="M272.224 140.371C275.673 141.982 278.341 145.301 278.966 148.948C279.2 150.057 279.169 151.198 279.109 152.309C278.942 151.777 278.819 151.247 278.62 150.742C277.734 148.352 275.927 146.275 273.582 145.196C272.76 144.828 271.856 144.473 270.981 144.408C268.259 143.531 269.448 139.656 272.224 140.371Z" fill="#371A45"/>
<path d="M277.819 176.547C273.3 174.927 269.417 171.722 266.809 167.84C270.131 170.42 274.212 172.155 278.461 172.406C278.512 172.406 278.58 172.409 278.59 172.4L277.819 176.547Z" fill="#371A45"/>
<path d="M269.248 190.902C257.478 190.902 250.035 186.635 245.673 182.7C240.027 177.607 238.217 172.009 238.143 171.773C237.991 171.291 238.023 170.771 238.232 170.31L244.3 156.903C244.782 155.838 246.063 155.354 247.161 155.822C248.258 156.29 248.757 157.533 248.275 158.599L242.554 171.237C243.964 174.703 251.424 189.376 275.609 186.264C276.801 186.111 277.888 186.923 278.045 188.076C278.203 189.229 277.367 190.288 276.179 190.441C273.718 190.758 271.409 190.902 269.248 190.902Z" fill="#371A45"/>
<path d="M236.057 182.681C235.772 182.681 235.482 182.626 235.203 182.51C234.101 182.052 233.591 180.813 234.063 179.743L238.224 170.326C238.696 169.257 239.972 168.761 241.074 169.22C242.176 169.678 242.686 170.917 242.214 171.987L238.053 181.404C237.701 182.203 236.899 182.681 236.057 182.681Z" fill="#371A45"/>
<path d="M94.6465 59.334L85.9639 63.1784C80.8783 65.4302 77.7381 70.4812 78.0563 75.8981L79.5273 100.939C79.8892 107.1 84.6132 112.188 90.8881 113.177L102.319 114.979" fill="white"/>
<path d="M236.883 51.4609L245.959 54.3225C251.276 55.9986 254.987 60.6704 255.305 66.0872L256.776 91.1284C257.138 97.2888 253.041 102.866 246.922 104.541L235.776 107.592" fill="white"/>
<g opacity="0.25">
<path d="M102.319 114.978L90.8853 113.179C84.6168 112.189 79.8889 107.098 79.527 100.939L78.6919 86.7246C79.0537 92.8841 83.7817 97.9753 90.0502 98.9647L100.338 100.586L102.319 114.978Z" fill="#371A45"/>
</g>
<g opacity="0.25">
<path d="M255.938 76.915L256.773 91.1293C257.135 97.2888 253.041 102.868 246.922 104.543L235.773 107.592L236.063 93.0677L246.087 90.329C252.206 88.654 256.3 83.0746 255.938 76.915Z" fill="#371A45"/>
</g>
<path d="M166.69 153.926C209.882 153.926 244.895 119.941 244.895 78.0182C244.895 36.0954 209.882 2.11035 166.69 2.11035C123.499 2.11035 88.4849 36.0954 88.4849 78.0182C88.4849 119.941 123.499 153.926 166.69 153.926Z" fill="white"/>
<g opacity="0.25">
<path d="M171.144 153.802C153.257 154.791 136.437 149.865 122.693 140.775C130.881 143.044 139.59 144.036 148.565 143.538C191.682 141.152 224.649 105.288 222.191 63.4318C220.747 38.9377 207.494 17.8156 188.1 4.99121C219.244 13.5854 242.825 40.5463 244.77 73.6959C247.228 115.552 214.266 151.416 171.144 153.802Z" fill="#371A45"/>
</g>
<path d="M244.915 76.1823C246.872 109.494 213.505 138.437 170.38 140.824C131.063 143 97.2121 122.352 90.0708 93.4343C89.3744 90.6399 88.9308 87.7649 88.7581 84.8248C86.8012 51.5127 120.169 22.5781 163.294 20.1914C195.697 18.398 224.385 32.1082 237.477 53.164L237.477 53.1724C241.809 60.1398 244.429 67.9104 244.915 76.1823Z" fill="#371A45"/>
<g opacity="0.7">
<path d="M244.915 76.181C246.872 109.493 213.505 138.436 170.38 140.823C131.063 142.999 97.2121 122.35 90.0708 93.4329C90.6021 92.687 90.9129 92.2781 90.9129 92.2781C130.669 147.987 239.096 117.406 237.477 53.1709C241.809 60.1385 244.429 67.9091 244.915 76.181Z" fill="#111A28"/>
</g>
<path d="M166.586 156.035C146.843 156.036 128.035 149.093 113.184 136.233C97.1627 122.361 87.667 103.263 86.4451 82.4585C85.2227 61.6541 92.4207 41.6325 106.712 26.0826C121.005 10.5327 140.681 1.3153 162.115 0.129089C183.557 -1.0543 204.177 5.92963 220.197 19.8016C236.218 33.674 245.713 52.7715 246.935 73.5763C248.158 94.3811 240.96 114.402 226.668 129.952C212.376 145.502 192.7 154.719 171.266 155.906C169.702 155.992 168.139 156.035 166.586 156.035ZM166.789 4.21318C165.318 4.21318 163.842 4.25393 162.362 4.33598C142.085 5.45824 123.472 14.1775 109.952 28.8876C96.4322 43.5976 89.6229 62.5376 90.7789 82.2188C91.9354 101.9 100.918 119.966 116.074 133.089C131.229 146.212 150.743 152.822 171.018 151.699C191.295 150.576 209.908 141.857 223.429 127.147C236.949 112.437 243.758 93.4972 242.602 73.816C241.445 54.1351 232.463 36.0692 217.307 22.946C203.258 10.7808 185.464 4.21318 166.789 4.21318Z" fill="#371A45"/>
<path d="M88.5382 82.952C87.5388 82.952 86.7013 82.1941 86.6434 81.2134C85.6064 63.5579 92.993 46.5155 107.442 33.2251C121.804 20.0153 141.446 12.091 162.749 10.912C184.049 9.7323 204.493 15.4389 220.31 26.9785C236.221 38.5888 245.556 54.7057 246.593 72.3608C246.653 73.3775 245.852 74.2484 244.805 74.3062C243.774 74.3703 242.861 73.5875 242.801 72.5708C241.828 56.0175 233.03 40.8724 218.027 29.9258C202.927 18.9083 183.367 13.4619 162.965 14.5929C142.557 15.7223 123.766 23.2897 110.055 35.9013C96.4314 48.4324 89.4635 64.4499 90.4363 81.0033C90.4957 82.0199 89.6952 82.8909 88.6478 82.9487C88.6113 82.951 88.5748 82.952 88.5382 82.952Z" fill="#371A45"/>
<path d="M102.323 117.084C102.207 117.084 102.09 117.075 101.972 117.057L90.5407 115.255C83.2042 114.099 77.7844 108.26 77.3613 101.057L75.8901 76.0158C75.5177 69.6842 79.1186 63.892 85.0635 61.2595L93.7463 57.415C94.8346 56.9326 96.1242 57.3983 96.622 58.4576C97.1192 59.5161 96.6383 60.7658 95.5478 61.2488L86.8651 65.0933C82.5614 66.9989 79.9544 71.192 80.2238 75.7757L81.6949 100.817C82.0013 106.032 85.9251 110.259 91.2364 111.096L102.668 112.897C103.851 113.084 104.655 114.166 104.462 115.315C104.289 116.349 103.368 117.084 102.323 117.084Z" fill="#371A45"/>
<path d="M235.775 109.699C234.828 109.699 233.957 109.092 233.688 108.164C233.362 107.044 234.033 105.88 235.187 105.564L246.333 102.513C251.512 101.095 254.916 96.463 254.609 91.2481L253.138 66.207C252.869 61.623 249.788 57.7447 245.289 56.3261L236.212 53.4645C235.072 53.1052 234.448 51.9165 234.819 50.8098C235.189 49.7032 236.414 49.0977 237.554 49.4571L246.63 52.3187C252.845 54.278 257.101 59.6355 257.472 65.9674L258.943 91.0084C259.367 98.2114 254.665 104.61 247.512 106.568L236.366 109.62C236.169 109.674 235.971 109.699 235.775 109.699Z" fill="#371A45"/>
<g opacity="0.5">
<path d="M215.887 108.817C223.619 77.0061 210.646 52.6184 179.845 34.6221C232.978 45.6758 244.948 86.2845 215.887 108.817Z" fill="white"/>
</g>
<g opacity="0.5">
<path d="M116.958 83.6028C117.17 87.832 117.977 93.9908 120.488 100.713C121.78 104.17 120.052 108.004 116.566 109.444C113.45 110.731 109.822 109.726 107.894 107.024C103.03 100.207 99.7322 91.9063 100.506 83.2381C100.943 78.3427 105.884 75.043 110.786 76.273C114.272 77.1479 116.783 80.1119 116.958 83.6028Z" fill="white"/>
</g>
<g opacity="0.5">
<path d="M122.757 49.8621C124.563 51.7917 124.87 54.6352 123.515 56.8861L119.951 62.8102C118.422 65.3499 115.216 66.4306 112.395 65.3572L111.94 65.1837C108.453 63.8568 106.965 59.8293 108.835 56.6793C109.962 54.7801 111.447 52.5607 113.359 50.1945C115.71 47.2856 120.196 47.1255 122.757 49.8621Z" fill="white"/>
</g>
<path d="M49.4827 231.621C31.1626 230.703 32.9295 221.459 32.9295 221.459C33.9569 221.598 61.144 225.432 61.144 225.432" fill="#A7A9B7"/>
<path d="M66.4146 235.174L103.09 238.156C104.474 238.269 105.836 237.765 106.793 236.787L141.158 201.642C141.93 200.852 142.361 199.804 142.361 198.715V196.297C142.361 194.215 140.807 192.439 138.69 192.102L70.7311 181.274L66.4146 235.174Z" fill="#A7A9B7"/>
<path d="M103.481 240.281C103.291 240.281 103.1 240.273 102.909 240.257L66.2334 237.275C65.0437 237.178 64.1576 236.167 64.2503 235.012L68.5671 181.112C68.6146 180.524 68.9134 179.982 69.3916 179.618C69.8697 179.254 70.4827 179.102 71.0829 179.196L139.041 190.024C142.222 190.531 144.532 193.17 144.532 196.298V198.716C144.532 200.352 143.893 201.907 142.732 203.094L108.367 238.239C107.083 239.553 105.327 240.281 103.481 240.281ZM68.746 233.251L103.271 236.058C104.007 236.119 104.714 235.855 105.218 235.338L139.583 200.193C139.975 199.793 140.19 199.268 140.19 198.716V196.298C140.19 195.243 139.411 194.353 138.338 194.182L72.7122 183.726L68.746 233.251Z" fill="#371A45"/>
<path d="M100.839 230.667L32.1285 221.35C27.4563 220.718 23.2345 218.242 20.5592 214.465C19.653 213.191 18.7793 211.864 17.9328 210.494C6.39599 191.88 0.231514 165.54 2.7386 151.039C3.26501 148.016 6.29293 146.03 9.38605 146.662L85.9975 162.269C89.8178 163.048 92.862 165.866 93.8388 169.537C94.2783 171.186 94.707 172.829 95.1302 174.467C99.7427 192.228 103.547 209.341 106.048 225.553C106.504 228.518 103.899 231.083 100.839 230.667Z" fill="#A7A9B7"/>
<g opacity="0.6">
<path d="M7.8069 156.132C5.14794 171.47 12.2133 200.071 25.0578 218.748C23.305 217.626 21.7748 216.177 20.5592 214.465C7.35107 195.815 0.0470046 166.603 2.73857 151.039C3.26498 148.016 6.29289 146.03 9.38602 146.662L85.9974 162.269C89.3022 162.943 92.0262 165.139 93.3286 168.099C92.6124 167.768 91.8526 167.52 91.0604 167.362L14.4545 151.756C11.3559 151.123 8.32784 153.109 7.8069 156.132Z" fill="white"/>
</g>
<path d="M101.498 232.817C101.18 232.817 100.859 232.796 100.537 232.752L31.8297 223.436C26.5211 222.716 21.7604 219.881 18.7697 215.656C5.95605 197.56 -2.36409 167.81 0.600502 150.692C0.951702 148.665 2.10982 146.91 3.86281 145.749C5.62506 144.582 7.74611 144.174 9.834 144.6L86.4431 160.206C91.1088 161.156 94.7479 164.53 95.9399 169.011C101.684 190.619 105.692 209.012 108.193 225.241C108.514 227.32 107.824 229.369 106.301 230.862C105.009 232.13 103.298 232.817 101.498 232.817ZM101.137 228.579C101.912 228.682 102.668 228.435 103.216 227.898C103.767 227.358 104.016 226.617 103.9 225.864C101.421 209.781 97.4425 191.529 91.7357 170.064C90.9599 167.146 88.5901 164.949 85.5514 164.33L8.94176 148.724C8.02138 148.536 7.08626 148.716 6.30926 149.23C5.54154 149.739 5.035 150.506 4.88179 151.39C2.43244 165.532 9.00284 194.423 22.3475 213.27C24.6502 216.522 28.3252 218.707 32.4305 219.263L101.137 228.579Z" fill="#371A45"/>
<path d="M101.268 232.81C100.285 232.81 99.3952 232.158 99.158 231.189L86.2315 178.365C85.2838 174.492 82.0832 171.439 78.0766 170.588L2.07433 154.438C0.90314 154.189 0.161546 153.066 0.417827 151.929C0.674666 150.793 1.83603 150.072 3.00242 150.322L79.0047 166.472C84.6301 167.667 89.1247 171.954 90.4551 177.392L103.382 230.216C103.659 231.348 102.938 232.483 101.771 232.752C101.603 232.791 101.434 232.81 101.268 232.81Z" fill="#371A45"/>
<path d="M49.4849 233.725C49.4473 233.725 49.4096 233.724 49.3714 233.722C41.2885 233.318 35.7094 231.29 32.789 227.697C30.2241 224.541 30.73 221.418 30.796 221.072C31.0147 219.927 32.1548 219.175 33.326 219.385C34.4934 219.595 35.2677 220.675 35.0703 221.807C35.054 221.927 34.8647 223.514 36.2748 225.181C37.7529 226.928 41.2634 229.097 49.5949 229.515C50.7923 229.575 51.7127 230.565 51.6511 231.727C51.5912 232.852 50.6326 233.725 49.4849 233.725Z" fill="#371A45"/>
<path d="M106.099 226.662C105.623 226.662 105.147 226.489 104.779 226.143C104.025 225.436 104.004 224.268 104.734 223.536L137.324 190.822C138.053 190.091 139.256 190.071 140.01 190.779C140.764 191.486 140.784 192.654 140.055 193.385L107.464 226.099C107.092 226.473 106.596 226.662 106.099 226.662Z" fill="#371A45"/>
<g opacity="0.25">
<path d="M106.099 224.817L138.69 192.103L141.225 193.448L142.361 200.588L106.793 237.863L105.008 236.053L103.793 230.711L106.099 227.801" fill="#371A45"/>
</g>
<path d="M104.385 239.566C103.347 239.566 102.429 238.84 102.248 237.813L101.06 231.065C100.858 229.918 101.652 228.83 102.834 228.634C104.015 228.439 105.137 229.208 105.339 230.356L106.528 237.104C106.729 238.25 105.935 239.339 104.754 239.535C104.63 239.556 104.507 239.566 104.385 239.566Z" fill="#371A45"/>
<path d="M107.676 202.651C107.591 202.651 107.505 202.645 107.419 202.631L101.012 201.636C100.352 201.534 99.8232 201.05 99.6792 200.416L97.7447 191.881C97.628 191.366 97.7829 190.83 98.158 190.449C98.5325 190.069 99.0772 189.894 99.6121 189.984L113.41 192.302C113.966 192.395 114.432 192.761 114.643 193.268C114.854 193.776 114.778 194.353 114.445 194.794L108.988 202.006C108.679 202.416 108.189 202.651 107.676 202.651ZM102.621 198.686L106.952 199.358L110.264 194.981L101.445 193.499L102.621 198.686Z" fill="#371A45"/>
<path d="M106.098 219.023C105.747 219.023 105.394 218.913 105.096 218.687C104.388 218.15 104.262 217.157 104.816 216.47L111.42 208.262L102.289 207.305C101.395 207.212 100.749 206.432 100.845 205.565C100.941 204.697 101.752 204.072 102.638 204.163L114.679 205.425C115.267 205.486 115.774 205.852 116.004 206.38C116.234 206.908 116.151 207.516 115.787 207.968L107.382 218.415C107.061 218.814 106.582 219.023 106.098 219.023Z" fill="#371A45"/>
<g opacity="0.25">
<path d="M100.839 230.666L32.1288 221.348C27.4566 220.716 23.2348 218.241 20.5596 214.464C19.6534 213.189 18.7797 211.862 17.9331 210.493C85.1457 222.549 88.3419 177.879 88.3419 177.879L95.1305 174.466C99.743 192.226 103.547 209.339 106.049 225.551C106.505 228.517 103.9 231.082 100.839 230.666Z" fill="#371A45"/>
</g>
<path d="M74.4391 239.256C93.0814 234.124 78.102 220.295 68.877 218.056C53.9779 213.664 47.2534 223.928 50.1369 232.34C50.8582 234.444 52.3927 236.201 54.3639 237.322C60.1392 240.606 66.9147 241.01 74.4391 239.256Z" fill="#F9F9F9"/>
<g opacity="0.25">
<path d="M74.4391 239.259C66.9126 241.013 60.1403 240.607 54.3666 237.326C52.3914 236.204 50.8556 234.445 50.1393 232.343C49.7649 231.248 49.5478 230.12 49.499 228.998C55.186 232.08 61.8172 232.422 69.1701 230.71C75.7037 228.914 78.1076 226.044 78.0751 222.983C84.2015 228.145 87.2077 235.746 74.4391 239.259Z" fill="#371A45"/>
</g>
<path d="M66.1904 242.379C61.384 242.379 57.0595 241.298 53.2667 239.141C50.7945 237.735 48.9511 235.557 48.0769 233.006C46.361 228.001 47.5403 222.655 51.1544 219.054C53.5862 216.63 59.1948 213.018 69.4571 216.027C75.9485 217.626 85.401 224.41 85.5156 231.461C85.5663 234.612 83.7888 238.873 75.0313 241.284C75.0029 241.292 74.9746 241.299 74.9457 241.306C71.8754 242.021 68.9528 242.379 66.1904 242.379ZM62.1469 219.11C58.889 219.11 56.1829 220.082 54.2646 221.994C51.7874 224.462 50.9953 228.172 52.1959 231.676C52.738 233.256 53.8977 234.616 55.4609 235.505C60.4931 238.367 66.5199 238.928 73.8896 237.219C77.2506 236.288 81.2234 234.547 81.1748 231.528C81.105 227.228 73.8912 221.446 68.3503 220.101C68.3153 220.093 68.2804 220.083 68.2461 220.073C66.0612 219.429 64.0132 219.11 62.1469 219.11Z" fill="#371A45"/>
<path d="M128.601 321.093L134.538 324.716L127.541 325.179C126.284 325.262 125.195 324.34 125.109 323.119C124.927 321.357 127.108 320.118 128.601 321.093Z" fill="#371A45"/>
<path d="M193.058 326.081C197.356 322.644 203.193 321.615 208.585 321.577C211.425 321.622 214.353 322.007 217.12 322.574L220.412 323.401C218.416 323.192 215.653 322.984 213.684 323.031C213.071 323.065 211.77 323.097 211.184 323.14C210.674 323.195 209.248 323.356 208.717 323.416C205.032 324.014 201.346 325.116 198.315 327.196C197.557 327.713 196.784 328.306 196.215 328.973C194.205 330.944 191.142 328.153 193.058 326.081Z" fill="#371A45"/>
<path d="M206.001 310.228C200.92 310.228 195.818 309.747 191.001 309.119C189.813 308.964 188.98 307.904 189.139 306.75C189.298 305.597 190.39 304.787 191.579 304.943C216.09 308.139 229.493 304.156 236.388 291.619C236.953 290.593 238.268 290.204 239.325 290.753C240.382 291.301 240.782 292.577 240.218 293.604C232.959 306.8 219.565 310.228 206.001 310.228Z" fill="#371A45"/>
<path d="M150.113 310.026C136.265 310.026 124.343 305.322 123.541 304.999C122.434 304.553 121.909 303.32 122.369 302.245C122.829 301.171 124.097 300.661 125.205 301.107C125.503 301.226 155.203 312.911 173.76 298.713C174.701 297.991 176.066 298.149 176.808 299.063C177.55 299.976 177.388 301.301 176.447 302.022C168.462 308.131 158.899 310.026 150.113 310.026Z" fill="#371A45"/>
<path d="M139.927 251.974C166.402 257.99 179.474 258.025 205.934 251.973C206.054 251.929 206.222 251.981 206.245 252.121C206.265 252.216 206.216 252.309 206.13 252.349L202.252 254.199C184.672 262.166 165.618 262.892 147.579 255.862C145.209 254.933 142.026 253.483 139.73 252.349C139.625 252.299 139.581 252.175 139.633 252.073C139.696 251.962 139.812 251.938 139.927 251.974Z" fill="#371A45"/>
<path d="M175.088 269.807C174.008 269.807 173.072 269.025 172.936 267.958L171.997 260.584C171.849 259.43 172.695 258.378 173.884 258.235C175.074 258.092 176.157 258.913 176.305 260.067L177.245 267.441C177.392 268.596 176.547 269.648 175.357 269.791C175.267 269.802 175.177 269.807 175.088 269.807Z" fill="#371A45"/>
<path d="M231.558 201.058C229.562 184.492 225.962 167.922 219.779 152.308C221.658 156.096 223.439 159.947 224.998 163.886C229.717 175.759 233.296 187.969 235.857 200.472C236.318 203.356 231.943 203.972 231.558 201.058Z" fill="#371A45"/>
<path d="M170.238 228.728L169.41 208.21C169.323 206.045 170.244 203.993 171.936 202.579L178.201 197.348C178.864 196.794 179.236 195.99 179.221 195.141L178.9 176.31L183.24 176.24L183.562 195.071C183.598 197.174 182.676 199.169 181.032 200.542L174.767 205.773C174.084 206.343 173.713 207.171 173.749 208.045L174.576 228.563L170.238 228.728Z" fill="#371A45"/>
<path d="M154.345 207.128C159.14 207.128 163.027 203.178 163.027 198.306C163.027 193.433 159.14 189.483 154.345 189.483C149.55 189.483 145.663 193.433 145.663 198.306C145.663 203.178 149.55 207.128 154.345 207.128Z" fill="#22A7F0"/>
<path d="M154.345 209.237C148.36 209.237 143.491 204.334 143.491 198.307C143.491 192.281 148.36 187.378 154.345 187.378C160.329 187.378 165.197 192.281 165.197 198.307C165.197 204.334 160.329 209.237 154.345 209.237ZM154.345 191.592C150.754 191.592 147.833 194.604 147.833 198.307C147.833 202.01 150.754 205.023 154.345 205.023C157.935 205.023 160.856 202.01 160.856 198.307C160.856 194.604 157.935 191.592 154.345 191.592Z" fill="#371A45"/>
<path d="M207.999 197.13C206.874 197.13 205.923 196.287 205.837 195.181C205.747 194.02 206.643 193.009 207.838 192.922L231.374 191.204C232.575 191.114 233.611 191.986 233.702 193.146C233.792 194.307 232.895 195.318 231.7 195.405L208.165 197.123C208.109 197.128 208.054 197.13 207.999 197.13Z" fill="#371A45"/>
<path d="M233.709 213.581H208.793C207.594 213.581 206.623 212.637 206.623 211.474C206.623 210.311 207.594 209.367 208.793 209.367H233.709C234.908 209.367 235.88 210.311 235.88 211.474C235.88 212.634 234.914 213.575 233.72 213.581C233.717 213.581 233.713 213.581 233.709 213.581Z" fill="#371A45"/>
<path d="M137.839 221.832H124.182C122.983 221.832 122.011 220.888 122.011 219.725C122.011 218.562 122.983 217.618 124.182 217.618H137.839C139.038 217.618 140.01 218.562 140.01 219.725C140.01 220.888 139.038 221.832 137.839 221.832Z" fill="#371A45"/>
<path d="M121.514 157.619C119.263 163.103 117.993 168.916 117.248 174.748C116.667 179.218 116.532 183.817 116.675 188.313L112.335 188.19C112.639 185.508 112.969 182.835 113.503 180.191C115.036 172.371 117.518 164.585 121.514 157.619Z" fill="#371A45"/>
<g opacity="0.25">
<path d="M208.561 218.83C208.392 221.785 206.227 224.255 203.248 224.893C184.13 228.97 164.644 229.897 144.832 227.99C141.853 227.705 139.416 225.519 138.9 222.66C138.51 220.516 138.157 218.351 137.842 216.17C173.006 224.018 197.078 214.706 204.534 179.675C205.348 180.539 205.929 181.618 206.173 182.83C207.492 189.356 209.478 202.429 208.561 218.83Z" fill="#371A45"/>
</g>
<g opacity="0.25">
<path d="M244.561 342.271C243.6 343.367 242.412 344.325 241.234 345.126C238.548 346.948 235.336 347.891 232.063 347.891H195.277C192.83 347.891 190.697 346.237 190.198 343.909C189.373 340.075 188.972 334.207 192.461 329.714C192.564 329.946 192.656 330.193 192.738 330.462C195.179 338.579 216.072 340.533 227.467 333.406C238.863 326.28 228.281 289.953 225.633 270.991C222.979 252.03 213.63 249.133 213.63 249.133C218.749 241.46 221.857 232.122 223.623 222.351C224.092 219.759 222.112 217.351 219.406 217.188L214.85 216.914C214.85 216.914 217.292 220.954 211.595 227.933C205.897 234.912 172.253 235.175 159.907 234.912C147.562 234.648 145.663 228.644 145.663 228.644C145.663 228.644 155.295 229.513 157.058 228.939C158.822 228.37 195.451 227.801 202.098 225.868C208.746 223.94 208.795 217.53 208.795 217.53L209.424 204.31H220.127C223.142 204.31 225.607 201.952 225.627 199.026C225.784 176.147 221.39 156.281 221.259 155.674C225.736 166.492 229.801 180.856 233.708 196.552L236.372 202.156C235.498 201.719 234.614 201.255 233.708 200.765C233.708 200.765 236.057 231.314 233.887 248.87C231.716 266.425 245.467 329.63 245.467 329.63C245.467 329.63 247.637 338.763 244.561 342.271Z" fill="#371A45"/>
</g>
<g opacity="0.25">
<path d="M176.132 339.163C176.3 343.93 172.371 347.89 167.449 347.89H119.289C116.603 347.89 114.307 346.058 113.749 343.514C112.788 339.147 112.517 332.426 117.894 327.712C118.231 328.555 118.491 329.472 118.665 330.462C121.107 344.372 136.301 340.553 146.069 340.532C155.836 340.511 159.092 321.555 157.193 298.116C155.294 274.678 149.542 256.243 149.542 256.243L156.83 256.859L174.151 259.577C174.151 259.577 174.498 263.617 175.057 269.98C174.748 290.369 175.231 313.923 176.132 339.163Z" fill="#371A45"/>
</g>
<g opacity="0.25">
<path d="M199.113 324.715L194.642 326.317C194.615 322.461 194.067 310.147 188.488 301.366C182.736 292.312 176.984 273.535 175.481 268.436L175.459 268.368V268.363L174.624 258.877H183.376L194.636 256.243C194.636 256.243 186.225 264.407 192.466 285.476C198.706 306.544 199.113 324.715 199.113 324.715Z" fill="#371A45"/>
</g>
<g opacity="0.25">
<path d="M294.212 145.509C294.212 145.509 301.538 155.558 292.585 165.829C283.631 176.1 278.204 174.783 278.204 174.783C275.719 201.082 266.174 216.404 238.499 203.499C238.499 203.494 238.493 203.494 238.488 203.489C235.623 201.282 233.707 199.755 233.707 199.755L231.536 189.231L229.17 179.35C229.377 179.771 237.288 195.852 248.538 189.484C259.933 183.032 264.274 161.61 264.274 161.61C276.251 169.669 283.631 166.314 284.716 147.347C284.716 147.347 294.484 141.069 293.578 134.401C293.54 134.1 293.529 133.811 293.55 133.526C296.633 134.385 298.423 137.529 297.653 140.653C297.197 142.522 296.068 144.15 294.212 145.509Z" fill="#371A45"/>
</g>
<g opacity="0.25">
<path d="M96.4644 179.677C96.4644 179.677 106.96 184.962 119.505 162.227C119.505 162.227 114.867 177.765 115.41 184.613C115.952 191.46 109.35 188.251 109.35 188.251L99.335 186.456" fill="#371A45"/>
</g>
<path d="M59.2956 185.651C59.5543 186.257 59.7745 186.872 59.9566 187.492C57.5647 189.583 52.8346 192.516 47.1815 195.287C41.5288 198.058 36.3639 199.975 33.3232 200.546C33.0045 199.993 32.7144 199.413 32.4557 198.807C32.4435 198.778 32.4315 198.75 32.4199 198.722C32.3069 198.454 32.202 198.185 32.1048 197.914C31.876 197.281 31.6881 196.64 31.5397 195.995C31.5336 195.969 31.5276 195.943 31.522 195.917C31.3065 194.958 31.1779 193.992 31.1328 193.03C31.0467 191.198 31.2616 189.38 31.7491 187.653C32.9333 183.462 35.7272 179.815 39.7363 177.85C43.7126 175.901 48.076 176.003 51.7899 177.742C53.3147 178.456 54.73 179.446 55.9643 180.683C56.6246 181.345 57.2327 182.077 57.7782 182.876C57.8227 182.94 57.866 183.005 57.9091 183.07C58.2672 183.612 58.5969 184.183 58.8946 184.783C59.0052 185.005 59.1115 185.232 59.2129 185.462C59.241 185.524 59.2685 185.587 59.2956 185.651Z" fill="white"/>
<path d="M33.3235 200.672C33.2783 200.672 33.2352 200.648 33.2123 200.608C32.8912 200.05 32.5967 199.46 32.3383 198.856L32.3018 198.768C32.1911 198.507 32.0842 198.233 31.9855 197.956C31.7587 197.329 31.5668 196.679 31.4162 196.024C31.4102 195.999 31.4037 195.971 31.3977 195.943C31.184 194.992 31.052 194.013 31.0062 193.037C30.9201 191.206 31.1289 189.385 31.6273 187.622C32.8633 183.245 35.7986 179.644 39.6796 177.742C43.5292 175.854 47.9643 175.814 51.8455 177.633C53.4027 178.361 54.8193 179.359 56.0565 180.599C56.725 181.269 57.34 182.012 57.8853 182.81C57.9295 182.874 57.9736 182.939 58.0173 183.006C58.3816 183.557 58.7152 184.138 59.0097 184.731C59.1215 184.955 59.2284 185.183 59.3309 185.415L59.4137 185.606C59.6717 186.209 59.8957 186.833 60.0795 187.46C60.0931 187.505 60.0784 187.554 60.0424 187.585C57.5342 189.778 52.748 192.7 47.2392 195.4C41.7299 198.1 36.5368 200.07 33.3477 200.669C33.34 200.671 33.3318 200.672 33.3235 200.672ZM45.8761 176.545C43.7981 176.545 41.7217 177.017 39.7942 177.962C35.9774 179.833 33.0903 183.378 31.8726 187.688C31.3814 189.425 31.1758 191.221 31.2603 193.026C31.3056 193.988 31.4359 194.952 31.6469 195.893L31.6644 195.968C31.8132 196.616 32.0019 197.256 32.2254 197.875C32.3235 198.148 32.4282 198.417 32.5384 198.677L32.5645 198.74C32.8159 199.328 33.0907 199.883 33.39 200.409C36.5209 199.802 41.7684 197.804 47.1245 195.179C52.4888 192.55 57.3384 189.596 59.8127 187.453C59.6355 186.86 59.4223 186.271 59.178 185.7L59.0967 185.512C58.9959 185.284 58.89 185.059 58.7805 184.838C58.4903 184.254 58.161 183.682 57.8022 183.139C57.7597 183.074 57.7166 183.01 57.673 182.947C57.1365 182.162 56.5312 181.43 55.8732 180.771C54.6572 179.552 53.2647 178.571 51.7351 177.856C49.8685 176.981 47.8717 176.545 45.8761 176.545Z" fill="white"/>
<path d="M60.5798 193.594C60.5271 194.239 60.4379 194.878 60.312 195.508C60.1368 196.394 59.89 197.261 59.5769 198.1C58.219 201.74 55.6036 204.847 52.0144 206.606C48.4174 208.369 44.5034 208.454 41.0402 207.167C40.2797 206.884 39.5407 206.535 38.8323 206.123C38.2763 205.801 37.7396 205.439 37.2246 205.041C40.8404 204.049 45.0173 202.457 49.3385 200.339C53.6592 198.221 57.515 195.876 60.5798 193.594Z" fill="white"/>
<path d="M45.88 208.172C44.2354 208.172 42.5872 207.878 40.995 207.286C40.2267 207 39.4775 206.646 38.7665 206.233C38.2098 205.91 37.664 205.542 37.1454 205.142C37.1078 205.113 37.0903 205.066 37.0996 205.021C37.1089 204.975 37.1438 204.939 37.1896 204.926C40.9274 203.9 45.1084 202.277 49.2813 200.232C53.4536 198.187 57.3336 195.859 60.5021 193.499C60.5425 193.469 60.5971 193.465 60.6401 193.489C60.6847 193.512 60.7104 193.558 60.7066 193.607C60.6531 194.259 60.5621 194.908 60.4367 195.535C60.2612 196.421 60.0119 197.3 59.6962 198.146C58.272 201.963 55.5637 205.008 52.0713 206.72C50.1007 207.686 47.9933 208.172 45.88 208.172ZM37.4998 205.097C37.9502 205.434 38.4197 205.744 38.8974 206.021C39.5953 206.427 40.332 206.775 41.0861 207.055C44.6569 208.383 48.518 208.185 51.957 206.499C55.391 204.816 58.0547 201.82 59.4576 198.062C59.7684 197.228 60.0137 196.362 60.1871 195.489C60.2929 194.959 60.3736 194.414 60.4276 193.865C57.2901 196.176 53.4821 198.45 49.3959 200.453C45.2982 202.461 41.1912 204.064 37.4998 205.097Z" fill="white"/>
<path d="M59.9565 187.493C57.5651 189.584 52.8346 192.518 47.1817 195.288C41.5289 198.059 36.3634 199.976 33.3229 200.548C33.0049 199.994 32.7147 199.414 32.4552 198.808C32.4431 198.779 32.4317 198.752 32.4195 198.723C32.3069 198.455 32.2017 198.186 32.1049 197.915C31.8762 197.282 31.6884 196.641 31.5394 195.996C31.5334 195.97 31.5274 195.944 31.5223 195.918C31.3069 194.959 31.1782 193.993 31.1326 193.031C31.0471 191.199 31.2619 189.381 31.7491 187.654C32.7073 184.264 34.7168 181.232 37.5722 179.156C36.8291 180.395 36.252 181.738 35.8558 183.141C35.3676 184.867 35.1528 186.685 35.2392 188.517C35.2839 189.48 35.4127 190.446 35.6282 191.404C35.6341 191.431 35.6401 191.457 35.6462 191.483C35.6541 191.518 35.6652 191.56 35.679 191.61C36.4315 194.327 39.1615 195.464 41.7957 195.208C46.8168 194.72 57.6887 188.424 60.0014 186.971C60.1615 187.388 59.8315 187.069 59.9565 187.493Z" fill="white"/>
<path d="M33.3234 200.671C33.2776 200.671 33.235 200.647 33.2121 200.608C32.8883 200.044 32.5944 199.454 32.3381 198.855L32.3076 198.783C32.1839 198.487 32.0803 198.221 31.9853 197.956C31.758 197.326 31.5666 196.676 31.4155 196.023C31.4085 195.993 31.4024 195.967 31.3975 195.94C31.1843 194.991 31.0523 194.013 31.006 193.036C30.9203 191.206 31.1293 189.384 31.6271 187.621C32.6129 184.133 34.6975 181.092 37.4963 179.057C37.5449 179.022 37.6119 179.025 37.6571 179.063C37.7024 179.103 37.7133 179.167 37.6827 179.218C36.9471 180.443 36.3741 181.774 35.9787 183.173C35.4875 184.911 35.2819 186.707 35.3665 188.511C35.4111 189.474 35.5414 190.438 35.7531 191.377C35.7585 191.405 35.7646 191.429 35.7705 191.454C35.7781 191.489 35.7885 191.53 35.8021 191.577C36.5643 194.328 39.3561 195.322 41.7835 195.085C46.7073 194.606 57.5203 188.382 59.9325 186.867C59.9652 186.847 60.0055 186.842 60.0416 186.853C60.0787 186.865 60.1076 186.892 60.1212 186.927C60.1942 187.118 60.2084 187.254 60.0541 187.337C60.0541 187.346 60.0563 187.382 60.0787 187.459C60.0923 187.504 60.0775 187.553 60.0416 187.584C57.5339 189.777 52.7481 192.698 47.2394 195.399C41.7301 198.099 36.537 200.069 33.3473 200.669C33.3398 200.67 33.3316 200.671 33.3234 200.671ZM37.1538 179.631C34.6489 181.623 32.7841 184.46 31.8724 187.687C31.3817 189.425 31.1762 191.221 31.2602 193.025C31.3059 193.988 31.4363 194.952 31.6473 195.892L31.6632 195.966C31.8126 196.613 32.0018 197.254 32.2253 197.875C32.3191 198.135 32.4211 198.398 32.5378 198.676L32.5732 198.76C32.8142 199.323 33.0884 199.877 33.3899 200.409C36.5213 199.8 41.7695 197.803 47.125 195.178C52.491 192.548 57.3421 189.593 59.8143 187.45C59.7941 187.357 59.7958 187.285 59.8209 187.23C56.8656 189.053 46.6845 194.857 41.8088 195.331C39.2739 195.575 36.3568 194.532 35.5569 191.642C35.5421 191.59 35.5307 191.545 35.5225 191.509C35.5159 191.484 35.51 191.456 35.5039 191.427C35.2896 190.477 35.1576 189.499 35.1124 188.523C35.0263 186.693 35.2351 184.871 35.7335 183.108C36.0776 181.89 36.5546 180.723 37.1538 179.631Z" fill="white"/>
<path d="M49.3375 200.339C53.6581 198.221 57.5139 195.876 60.5787 193.594C60.526 194.239 60.4368 194.878 60.3109 195.508C57.9527 197.361 54.1823 199.651 49.7898 201.804C45.5824 203.867 41.6588 205.384 38.8313 206.123C38.2753 205.801 37.7387 205.439 37.2236 205.041C40.8394 204.049 45.0165 202.457 49.3375 200.339Z" fill="white"/>
<path d="M38.8315 206.25C38.8086 206.25 38.7862 206.244 38.766 206.233C38.2093 205.91 37.6635 205.542 37.1449 205.142C37.1073 205.113 37.0899 205.066 37.0991 205.021C37.1084 204.975 37.1434 204.939 37.1891 204.926C40.9269 203.9 45.1079 202.277 49.2808 200.232C53.4531 198.187 57.3332 195.859 60.5017 193.499C60.542 193.469 60.5966 193.465 60.6396 193.489C60.6842 193.512 60.7099 193.558 60.7061 193.607C60.6526 194.259 60.5616 194.908 60.4362 195.535C60.4308 195.564 60.415 195.589 60.3916 195.608C57.9335 197.539 54.09 199.839 49.8473 201.918C45.802 203.901 41.7987 205.479 38.8646 206.246C38.8539 206.249 38.8424 206.25 38.8315 206.25ZM37.4995 205.097C37.9356 205.423 38.3888 205.724 38.8507 205.994C41.764 205.226 45.7258 203.662 49.7329 201.698C53.9396 199.636 57.7493 197.359 60.1954 195.444C60.2967 194.929 60.3747 194.399 60.4271 193.865C57.2896 196.175 53.4816 198.45 49.3954 200.453C45.2978 202.461 41.1908 204.064 37.4995 205.097Z" fill="white"/>
<path d="M59.2119 185.463C59.2399 185.526 59.2674 185.588 59.2946 185.652C59.5534 186.258 59.7736 186.873 59.9556 187.493C57.5638 189.584 52.8337 192.517 47.1805 195.288C41.5278 198.059 36.3629 199.976 33.3222 200.547C33.0035 199.994 32.7134 199.414 32.4547 198.808C32.4425 198.779 32.4306 198.751 32.4189 198.723C35.3029 198.368 40.5609 196.512 46.3236 193.688C52.3137 190.752 57.2083 187.572 59.2119 185.463Z" fill="white"/>
<path d="M33.3223 200.671C33.277 200.671 33.2339 200.647 33.211 200.607C32.8899 200.049 32.5954 199.46 32.337 198.855L32.3005 198.767C32.2863 198.732 32.2901 198.692 32.3103 198.659C32.33 198.626 32.3642 198.605 32.4036 198.6C35.3818 198.234 40.6942 196.309 46.2668 193.577C52.0237 190.756 57.0685 187.538 59.1186 185.379C59.1481 185.348 59.1917 185.333 59.2337 185.341C59.2762 185.348 59.3122 185.375 59.329 185.414L59.4124 185.605C59.6704 186.208 59.8944 186.832 60.0782 187.459C60.0918 187.504 60.0771 187.553 60.0411 187.584C57.5329 189.777 52.7467 192.699 47.2379 195.399C41.7286 198.099 36.5355 200.069 33.3464 200.668C33.3387 200.67 33.3305 200.671 33.3223 200.671ZM32.5999 198.824C32.8408 199.38 33.1037 199.907 33.3888 200.408C36.5197 199.801 41.7672 197.803 47.1234 195.178C52.4876 192.549 57.3372 189.595 59.8116 187.452C59.6343 186.86 59.4212 186.27 59.1768 185.699L59.1708 185.685C57.022 187.862 52.0415 191.024 46.3812 193.798C40.8856 196.492 35.6331 198.406 32.5999 198.824Z" fill="white"/>
<path d="M31.1089 193.564L31.156 192.499C33.1675 192.601 38.4212 190.786 43.9317 188.085C50.5057 184.863 54.7477 181.783 55.5403 180.405L56.3871 180.965C55.3383 182.787 50.4991 186.038 44.3455 189.055C38.6161 191.863 33.2967 193.675 31.1089 193.564Z" fill="white"/>
<path d="M31.3054 193.691C31.235 193.691 31.1674 193.689 31.1026 193.686C31.0328 193.682 30.9788 193.625 30.9821 193.557L31.0295 192.493C31.0306 192.46 31.0458 192.429 31.071 192.406C31.0961 192.384 31.1315 192.371 31.1631 192.375C31.2166 192.377 31.2722 192.379 31.3299 192.379C33.4347 192.379 38.529 190.595 43.8747 187.974C50.4261 184.763 54.6469 181.705 55.4294 180.344C55.4468 180.314 55.4768 180.292 55.5111 180.284C55.5461 180.275 55.5826 180.282 55.612 180.302L56.4588 180.861C56.5133 180.897 56.5308 180.968 56.4985 181.024C55.4385 182.866 50.578 186.137 44.403 189.164C38.8245 191.898 33.625 193.691 31.3054 193.691ZM31.2416 193.443C31.265 193.444 31.2885 193.444 31.3125 193.444C33.5906 193.444 38.7422 191.662 44.2886 188.943C50.3126 185.991 55.0672 182.821 56.2172 181.001L55.5798 180.58C54.6207 182.024 50.4102 185.048 43.9892 188.195C38.6113 190.831 33.4678 192.625 31.3222 192.625C31.3069 192.625 31.2927 192.626 31.278 192.625L31.2416 193.443Z" fill="white"/>
<path d="M31.8247 188.179L31.6743 187.126C33.9348 186.755 37.8513 185.294 41.8953 183.312C46.1327 181.235 49.7967 178.949 51.4573 177.346L52.1232 178.138C50.3927 179.808 46.6322 182.162 42.3093 184.281C38.1872 186.301 34.1698 187.795 31.8247 188.179Z" fill="white"/>
<path d="M31.8242 188.302C31.7975 188.302 31.7707 188.294 31.7489 188.278C31.7211 188.259 31.7026 188.229 31.6982 188.196L31.5477 187.142C31.5379 187.076 31.5848 187.014 31.6524 187.003C33.9017 186.635 37.8041 185.178 41.8374 183.201C46.0643 181.129 49.7153 178.851 51.3663 177.257C51.3919 177.233 51.4285 177.216 51.4628 177.222C51.4988 177.224 51.532 177.24 51.5549 177.267L52.2213 178.059C52.2627 178.108 52.2589 178.18 52.2125 178.224C50.4732 179.903 46.7 182.266 42.3657 184.39C38.2331 186.416 34.2021 187.914 31.8454 188.3C31.8384 188.302 31.8312 188.302 31.8242 188.302ZM31.8165 187.226L31.9321 188.035C34.2821 187.62 38.2146 186.148 42.2511 184.17C46.496 182.089 50.1939 179.784 51.9507 178.128L51.4458 177.528C49.7332 179.133 46.1181 181.379 41.9518 183.421C37.9692 185.374 34.106 186.823 31.8165 187.226Z" fill="white"/>
<path d="M31.522 196.451L31.5226 195.385C33.8307 195.386 39.2592 193.486 45.0308 190.657C51.0849 187.69 56.1612 184.362 57.3755 182.564L58.1815 183.189C56.8557 185.151 51.7372 188.542 45.4448 191.627C39.4631 194.558 33.998 196.452 31.522 196.451Z" fill="white"/>
<path d="M31.5233 196.574C31.49 196.572 31.4552 196.561 31.4306 196.538C31.4066 196.514 31.3936 196.483 31.3936 196.45L31.3947 195.384C31.3947 195.316 31.4514 195.26 31.5217 195.26C31.5223 195.26 31.5234 195.26 31.524 195.26C33.8152 195.26 39.2187 193.367 44.9729 190.546C51.0089 187.587 56.0651 184.277 57.2684 182.496C57.2881 182.467 57.3191 182.448 57.3545 182.442C57.3899 182.436 57.426 182.446 57.4544 182.467L58.2603 183.092C58.3115 183.132 58.323 183.204 58.287 183.257C56.9494 185.236 51.8115 188.643 45.5012 191.736C39.5049 194.675 34.019 196.574 31.5233 196.574ZM31.6487 195.506L31.6482 196.325C34.1624 196.264 39.5217 194.39 45.3865 191.516C51.561 188.489 56.5981 185.173 58.0093 183.214L57.4019 182.743C56.0497 184.58 51.0371 187.85 45.0872 190.767C39.4024 193.553 34.0419 195.441 31.6487 195.506Z" fill="white"/>
<path d="M41.059 207.434L41.0401 207.169L40.9233 206.933L40.9691 206.907L41.0213 206.903C43.0166 206.74 46.8166 205.403 50.7022 203.499C54.6093 201.584 57.9432 199.443 59.4028 197.911L59.7508 198.292C58.2529 199.864 54.8649 202.045 50.9091 203.983C46.9141 205.942 43.1396 207.264 41.059 207.434Z" fill="white"/>
<path d="M41.0589 207.557C41.0284 207.557 40.9989 207.547 40.976 207.527C40.9499 207.506 40.9341 207.475 40.9318 207.442L40.915 207.201L40.8086 206.987C40.7797 206.928 40.8015 206.858 40.8588 206.826L40.9046 206.8C40.921 206.791 40.9384 206.786 40.9569 206.784L41.0093 206.779C42.9908 206.617 46.7727 205.286 50.6452 203.388C54.54 201.479 57.86 199.348 59.3099 197.827C59.3339 197.801 59.3678 197.787 59.4031 197.787C59.4037 197.787 59.4043 197.787 59.4043 197.787C59.4402 197.788 59.4746 197.803 59.4986 197.829L59.8465 198.209C59.8896 198.257 59.889 198.329 59.8443 198.375C58.3377 199.957 54.9358 202.148 50.9663 204.094C46.9576 206.058 43.1653 207.386 41.0698 207.557C41.0659 207.557 41.0627 207.557 41.0589 207.557ZM41.1069 207.018L41.1549 207.115C41.1621 207.129 41.1664 207.145 41.1674 207.16L41.1773 207.299C43.2673 207.088 46.9516 205.784 50.8519 203.873C54.7276 201.973 58.0531 199.843 59.5787 198.289L59.4004 198.094C57.8851 199.627 54.5966 201.728 50.7596 203.609C46.909 205.496 43.1363 206.828 41.1069 207.018Z" fill="white"/>
<path d="M60.5798 193.599C60.132 199.082 57.0201 204.157 52.0144 206.611C47.0087 209.065 41.3897 208.268 37.2246 205.046C40.8404 204.054 45.0173 202.462 49.3385 200.344C53.6592 198.226 57.515 195.881 60.5798 193.599Z" fill="white"/>
<path d="M45.8809 208.609C42.6928 208.609 39.5243 207.553 36.8585 205.491C36.6868 205.358 36.606 205.143 36.6491 204.934C36.6928 204.725 36.853 204.557 37.0646 204.499C40.7741 203.481 44.9267 201.868 49.074 199.835C53.2213 197.803 57.0762 195.49 60.2224 193.147C60.4062 193.01 60.6559 192.991 60.8587 193.098C61.062 193.206 61.1815 193.419 61.163 193.643C60.6848 199.503 57.2801 204.667 52.2775 207.118C50.2393 208.118 48.0555 208.609 45.8809 208.609ZM38.5248 205.266C42.5085 207.858 47.4775 208.197 51.749 206.103C56.0189 204.01 59.0354 199.77 59.8369 194.847C56.8543 196.956 53.3435 199.017 49.6019 200.851C45.8085 202.711 42.0047 204.225 38.5248 205.266Z" fill="white"/>
<path d="M67.779 183.956C68.6784 186.062 65.7562 189.74 60.5796 193.595C57.5149 195.877 53.659 198.222 49.3385 200.34C45.0173 202.458 40.8402 204.05 37.2246 205.042C31.1177 206.718 26.6106 206.682 25.7112 204.576C24.8945 202.663 27.2287 199.455 31.5395 195.995C31.6879 196.639 31.8756 197.28 32.1045 197.914C30.9131 198.967 30.3278 199.801 30.5342 200.284C30.7445 200.777 31.7494 200.841 33.3231 200.546C36.3637 199.974 41.5286 198.058 47.1813 195.287C52.8345 192.516 57.5646 189.582 59.9564 187.491C61.1935 186.409 61.805 185.552 61.5947 185.06C61.3885 184.577 60.4167 184.505 58.8946 184.783C58.5968 184.183 58.2672 183.612 57.9091 183.07C63.171 181.838 66.9621 182.043 67.779 183.956Z" fill="white"/>
<path d="M29.9536 206.352C27.6144 206.352 26.0839 205.772 25.5937 204.624C24.7823 202.723 26.9203 199.544 31.4584 195.9C31.4923 195.873 31.5369 195.864 31.5812 195.879C31.6226 195.893 31.6542 195.927 31.664 195.969C31.8123 196.614 32.001 197.255 32.2245 197.873C32.2414 197.92 32.2277 197.972 32.1901 198.006C30.6165 199.397 30.5505 200.001 30.652 200.238C30.7528 200.474 31.2305 200.813 33.2986 200.425C36.4181 199.839 41.7158 197.828 47.1237 195.177C52.5311 192.527 57.4155 189.547 59.8713 187.4C61.5082 185.967 61.5797 185.349 61.4766 185.108C61.3779 184.876 60.9139 184.542 58.9177 184.905C58.8621 184.914 58.8042 184.887 58.7798 184.837C58.4897 184.253 58.1604 183.681 57.8016 183.137C57.7798 183.104 57.7754 183.062 57.7906 183.025C57.8065 182.988 57.8392 182.96 57.879 182.951C63.4291 181.651 67.0802 182 67.8965 183.909C68.7875 185.996 66.0813 189.654 60.6571 193.693C57.4766 196.062 53.5824 198.399 49.3958 200.451C45.2087 202.503 41.0124 204.132 37.2593 205.162C34.3619 205.957 31.8827 206.351 29.9536 206.352ZM31.4617 196.219C27.1241 199.734 25.0723 202.757 25.8291 204.529C26.6688 206.498 30.9174 206.645 37.1901 204.924C40.9273 203.898 45.1083 202.275 49.2812 200.23C53.4535 198.185 57.3336 195.857 60.5021 193.497C65.8292 189.53 68.5054 185.981 67.6607 184.004C66.9072 182.238 63.4306 181.929 58.1116 183.151C58.4218 183.632 58.7087 184.133 58.9659 184.645C60.5642 184.365 61.4883 184.489 61.7119 185.013C61.9404 185.549 61.3788 186.413 60.0412 187.584C57.533 189.777 52.7467 192.698 47.238 195.398C41.7287 198.099 36.5356 200.068 33.3464 200.668C31.6349 200.99 30.6496 200.876 30.4162 200.332C30.1955 199.814 30.7134 198.989 31.9566 197.878C31.7643 197.337 31.598 196.78 31.4617 196.219Z" fill="white"/>
<path d="M32.0135 197.658C32.0434 197.744 32.0734 197.83 32.1048 197.916C30.9128 198.968 30.327 199.801 30.5337 200.285C30.7446 200.779 31.7502 200.843 33.323 200.547C35.3395 200.168 38.2925 199.197 41.7022 197.776C41.6479 198.096 41.6473 198.397 41.703 198.674C40.3868 199.204 39.1109 199.672 37.9007 200.07C32.639 201.803 29.8956 201.778 29.573 201.022C29.3839 200.581 29.9304 199.468 32.0135 197.658Z" fill="white"/>
<path d="M31.1733 201.629C30.1716 201.629 29.604 201.418 29.4552 201.07C29.1907 200.451 30.1155 199.141 31.9284 197.566C31.9606 197.538 32.0048 197.527 32.0457 197.538C32.0871 197.549 32.1204 197.579 32.134 197.618L32.2245 197.874C32.2413 197.921 32.2277 197.973 32.1901 198.007C30.6159 199.397 30.5504 200.001 30.6514 200.237C30.7516 200.474 31.2294 200.814 33.2992 200.425C35.3205 200.045 38.2866 199.064 41.652 197.663C41.6957 197.645 41.7442 197.651 41.7807 197.679C41.8172 197.707 41.8352 197.752 41.8276 197.796C41.7752 198.103 41.7752 198.39 41.8276 198.65C41.8391 198.708 41.8074 198.765 41.7512 198.788C40.441 199.315 39.159 199.786 37.9415 200.187C34.8141 201.217 32.5709 201.629 31.1733 201.629ZM31.9558 197.875C30.0354 199.571 29.5315 200.603 29.6908 200.975C29.941 201.562 32.3227 201.776 37.8598 199.953C39.0431 199.563 40.2879 199.107 41.5606 198.597C41.5305 198.401 41.5262 198.192 41.5475 197.975C38.2504 199.338 35.3446 200.293 33.3473 200.668C31.6363 200.99 30.6494 200.877 30.416 200.332C30.1951 199.815 30.7137 198.989 31.9574 197.879L31.9558 197.875Z" fill="white"/>
<path d="M31.6216 196.892L31.7472 197.06C30.6758 197.951 29.8482 198.748 29.2266 199.448C29.6901 198.713 30.4871 197.864 31.6216 196.892Z" fill="white"/>
<path d="M29.2266 199.571C29.2004 199.571 29.1742 199.564 29.1513 199.547C29.0978 199.51 29.0832 199.438 29.118 199.383C29.5891 198.635 30.3803 197.79 31.5368 196.798C31.564 196.776 31.6 196.764 31.6355 196.768C31.6709 196.772 31.7031 196.791 31.7244 196.819L31.8503 196.988C31.8891 197.04 31.8804 197.112 31.8301 197.154C30.8181 197.995 29.9746 198.794 29.323 199.528C29.2979 199.556 29.2625 199.571 29.2266 199.571Z" fill="white"/>
<path d="M31.8733 197.226L31.7476 197.059C31.7656 197.042 31.7865 197.026 31.8074 197.01L31.8733 197.226Z" fill="white"/>
<path d="M31.8725 197.349C31.8327 197.349 31.794 197.331 31.7694 197.299L31.644 197.131C31.6064 197.081 31.613 197.012 31.6593 196.969C31.6795 196.95 31.7035 196.931 31.727 196.913C31.7597 196.887 31.8034 196.879 31.8448 196.891C31.8851 196.904 31.9167 196.935 31.9288 196.974L31.9948 197.191C32.0122 197.248 31.9844 197.31 31.9288 197.337C31.9107 197.345 31.8916 197.349 31.8725 197.349Z" fill="white"/>
<path d="M29.2265 199.448C28.74 200.213 28.6156 200.854 28.8411 201.383C29.0618 201.898 29.5798 202.187 30.2972 202.309C32.1682 202.626 35.3876 201.802 38.1364 200.896C39.3809 200.487 40.6931 200.004 42.047 199.459C42.3074 199.81 42.694 200.086 43.1948 200.29C41.1944 201.108 39.2536 201.8 37.4354 202.345C30.9531 204.288 28.137 203.766 27.6939 202.729C27.4481 202.154 27.8029 201.05 29.2265 199.448Z" fill="white"/>
<path d="M30.4046 203.784C28.7087 203.784 27.8271 203.363 27.5763 202.777C27.2676 202.054 27.8195 200.843 29.1303 199.368C29.1734 199.319 29.2491 199.311 29.302 199.349C29.3555 199.387 29.3702 199.458 29.3353 199.513C28.8708 200.243 28.7475 200.84 28.9591 201.336C29.1494 201.78 29.6069 202.066 30.319 202.187C31.8321 202.445 34.5208 201.957 38.0961 200.78C39.3224 200.376 40.6354 199.893 41.9985 199.345C42.0536 199.324 42.1168 199.341 42.15 199.387C42.3927 199.714 42.7608 199.979 43.2444 200.176C43.2919 200.195 43.3223 200.24 43.3223 200.29C43.3229 200.339 43.2919 200.384 43.245 200.404C41.2395 201.224 39.2978 201.917 37.4733 202.464C34.3009 203.414 31.9951 203.784 30.4046 203.784ZM28.6853 200.309C27.9236 201.332 27.6008 202.189 27.8118 202.682C28.1515 203.478 30.5555 204.278 37.3981 202.228C39.1336 201.707 40.9772 201.054 42.8801 200.284C42.5164 200.102 42.2225 199.876 42.005 199.61C40.6691 200.145 39.3818 200.617 38.1779 201.014C35.6566 201.844 32.2388 202.763 30.2753 202.431C29.4717 202.294 28.9498 201.958 28.724 201.431C28.5817 201.098 28.5692 200.722 28.6853 200.309Z" fill="white"/>
<path d="M49.072 200.47C44.846 202.525 40.766 204.072 37.2237 205.043C31.1172 206.719 26.6095 206.683 25.71 204.576C24.8938 202.664 27.229 199.457 31.5394 195.996C31.5835 196.188 31.632 196.378 31.6832 196.57L31.4374 196.225C28.9353 198.277 26.1267 201.133 26.9624 203.086C27.2851 203.842 28.0496 204.25 29.0606 204.422C31.44 204.824 35.1757 203.917 37.6519 203.175C39.8249 202.525 42.1695 201.665 44.577 200.639C45.7749 200.802 47.3001 200.742 49.072 200.47Z" fill="white"/>
<path d="M29.9529 206.353C27.6143 206.353 26.0833 205.773 25.5925 204.624C24.7816 202.725 26.9202 199.546 31.4583 195.902C31.4922 195.874 31.5368 195.866 31.5811 195.88C31.6225 195.894 31.6541 195.928 31.6639 195.97C31.7076 196.16 31.7561 196.349 31.8067 196.539C31.822 196.597 31.7926 196.658 31.7364 196.682C31.6819 196.708 31.6148 196.69 31.5788 196.641L31.4131 196.408C28.9703 198.426 26.2855 201.183 27.0799 203.04C27.3612 203.699 28.0347 204.123 29.0821 204.301C31.4027 204.694 35.0015 203.841 37.6143 203.058C39.7785 202.41 42.104 201.558 44.5255 200.526C44.5473 200.517 44.5719 200.514 44.5948 200.517C45.7737 200.677 47.2736 200.622 49.0528 200.349C49.1117 200.34 49.1745 200.376 49.1935 200.433C49.2126 200.492 49.1854 200.554 49.1298 200.582C45.0377 202.571 40.9329 204.155 37.2589 205.163C34.3613 205.958 31.8826 206.353 29.9529 206.353ZM27.9278 199.518C26.0739 201.598 25.322 203.344 25.828 204.529C26.6682 206.499 30.9169 206.647 37.189 204.925C40.6355 203.98 44.4638 202.524 48.3047 200.702C46.8581 200.879 45.6138 200.901 44.5947 200.767C42.1759 201.796 39.8531 202.646 37.6895 203.294C35.0493 204.085 31.4081 204.945 29.0384 204.544C27.8993 204.351 27.1615 203.877 26.8443 203.134C26.3961 202.086 26.9437 200.802 27.9278 199.518Z" fill="white"/>
<path d="M42.0474 199.458C40.6935 200.003 39.3814 200.486 38.1368 200.895C35.3881 201.801 32.1686 202.625 30.2975 202.308C29.5802 202.186 29.0621 201.897 28.8415 201.382C28.616 200.853 28.7404 200.212 29.2268 199.447C29.8485 198.747 30.6761 197.95 31.7474 197.06L31.8732 197.227C31.9185 197.372 31.9655 197.515 32.0139 197.658C29.9308 199.468 29.3843 200.581 29.5732 201.023C29.896 201.779 32.6393 201.803 37.901 200.07C39.1111 199.672 40.3871 199.204 41.7032 198.674C41.7297 198.812 41.7698 198.944 41.8236 199.07C41.8827 199.208 41.9573 199.338 42.0474 199.458Z" fill="white"/>
<path d="M31.2077 202.499C30.8712 202.499 30.5583 202.477 30.2752 202.429C29.4716 202.292 28.9497 201.956 28.7239 201.429C28.4824 200.862 28.6154 200.173 29.1181 199.382C29.7904 198.622 30.6426 197.814 31.6645 196.965C31.6918 196.943 31.7273 196.933 31.7621 196.936C31.7975 196.94 31.8292 196.958 31.8504 196.986L31.9758 197.153C31.984 197.165 31.9906 197.177 31.9944 197.19C32.0396 197.334 32.0871 197.477 32.1345 197.62C32.1504 197.666 32.1362 197.717 32.0986 197.75C30.0604 199.52 29.5277 200.593 29.6906 200.974C29.9409 201.562 32.3226 201.776 37.8597 199.952C39.0718 199.553 40.3488 199.084 41.6541 198.559C41.6891 198.545 41.7299 198.547 41.7632 198.564C41.7971 198.582 41.8205 198.614 41.8275 198.65C41.8531 198.782 41.8903 198.904 41.941 199.022C41.9966 199.152 42.0675 199.274 42.1498 199.385C42.1727 199.415 42.1797 199.454 42.1695 199.491C42.1585 199.527 42.1313 199.557 42.0953 199.571C40.7273 200.121 39.4088 200.606 38.1776 201.011C36.0202 201.722 33.2055 202.499 31.2077 202.499ZM31.7257 197.24C30.7601 198.049 29.9525 198.818 29.3233 199.527C28.8707 200.242 28.7475 200.838 28.959 201.334C29.1493 201.778 29.6068 202.064 30.3189 202.185C31.8309 202.443 34.5201 201.956 38.096 200.778C39.2792 200.388 40.5431 199.925 41.855 199.401C41.7983 199.311 41.7487 199.216 41.7062 199.117C41.6685 199.03 41.6369 198.938 41.6118 198.844C40.35 199.348 39.1161 199.8 37.9417 200.186C32.5725 201.955 29.8118 201.903 29.4552 201.069C29.1941 200.458 30.0949 199.171 31.867 197.619C31.8299 197.507 31.7928 197.395 31.7574 197.282L31.7257 197.24Z" fill="white"/>
<path d="M31.7472 197.061C30.6758 197.952 29.8482 198.749 29.2266 199.449C29.6901 198.714 30.4871 197.865 31.6216 196.893L31.7472 197.061Z" fill="white"/>
<path d="M29.2266 199.572C29.2004 199.572 29.1742 199.564 29.1513 199.548C29.0978 199.511 29.0832 199.439 29.118 199.384C29.5891 198.636 30.3803 197.791 31.5368 196.799C31.564 196.776 31.6 196.765 31.6355 196.769C31.6709 196.773 31.7031 196.792 31.7244 196.82L31.8503 196.989C31.8891 197.041 31.8804 197.113 31.8301 197.155C30.8181 197.996 29.9746 198.795 29.323 199.529C29.2979 199.557 29.2625 199.572 29.2266 199.572Z" fill="white"/>
<path d="M31.8735 197.227L32.1248 197.563C32.0874 197.594 32.0501 197.626 32.0141 197.658C31.9659 197.514 31.919 197.371 31.8735 197.227Z" fill="white"/>
<path d="M32.0129 197.782C32.002 197.782 31.9912 197.781 31.9808 197.778C31.9388 197.767 31.9049 197.736 31.8919 197.696C31.8433 197.552 31.796 197.408 31.7506 197.263C31.7326 197.205 31.7599 197.143 31.8155 197.116C31.8717 197.09 31.9392 197.106 31.9753 197.154L32.2267 197.491C32.2654 197.542 32.2571 197.614 32.2076 197.656L32.099 197.749C32.075 197.771 32.0445 197.782 32.0129 197.782Z" fill="white"/>
<path d="M57.0547 191.623C54.4166 193.393 51.2356 195.207 47.8532 196.864C45.8865 197.828 43.9272 198.703 42.0468 199.458C41.9567 199.338 41.8822 199.208 41.823 199.07C41.7693 198.944 41.7291 198.812 41.7026 198.674C43.584 197.922 45.5476 197.046 47.5189 196.08C50.8693 194.437 54.0192 192.643 56.626 190.892C61.2898 187.759 63.066 185.518 62.7445 184.764C62.5513 184.313 61.3715 184.026 58.6333 184.572L58.5231 183.934L58.4862 183.722C59.9211 183.436 61.0446 183.346 61.8682 183.45C62.7195 183.56 63.2502 183.878 63.4761 184.405C64.2727 186.269 60.423 189.359 57.0547 191.623Z" fill="white"/>
<path d="M42.0469 199.582C42.0071 199.582 41.9684 199.563 41.9438 199.531C41.8495 199.405 41.7698 199.266 41.7061 199.118C41.6494 198.985 41.6063 198.844 41.578 198.697C41.5665 198.639 41.5988 198.582 41.6544 198.56C43.5306 197.81 45.4843 196.939 47.462 195.97C50.8082 194.329 53.9522 192.538 56.5542 190.79C61.4719 187.486 62.8803 185.404 62.6273 184.811C62.4943 184.5 61.5101 184.124 58.6595 184.692C58.6245 184.699 58.5903 184.692 58.5619 184.673C58.5335 184.654 58.5139 184.625 58.5084 184.592L58.3612 183.743C58.3497 183.677 58.394 183.614 58.4611 183.601C59.9224 183.31 61.0417 183.221 61.8853 183.328C62.7752 183.442 63.3498 183.788 63.5942 184.357C64.2594 185.915 62.0838 188.393 57.1279 191.725C54.4752 193.504 51.2882 195.319 47.9109 196.974C45.937 197.941 43.9807 198.815 42.0957 199.572C42.0797 199.578 42.0633 199.582 42.0469 199.582ZM41.8496 198.749C41.873 198.844 41.9031 198.934 41.9411 199.023C41.9837 199.122 42.035 199.217 42.0938 199.306C43.9434 198.56 45.861 197.702 47.7962 196.754C51.1631 195.104 54.3399 193.294 56.9828 191.522C61.6905 188.357 63.9551 185.847 63.3591 184.452C63.1497 183.964 62.6563 183.676 61.852 183.573C61.0728 183.474 59.9905 183.556 58.6328 183.819L58.7376 184.425C61.0555 183.978 62.5925 184.086 62.863 184.717C63.2152 185.543 61.4459 187.804 56.6994 190.993C54.0881 192.747 50.9332 194.544 47.5767 196.19C45.6277 197.146 43.7013 198.006 41.8496 198.749Z" fill="white"/>
<path d="M44.5769 200.639C42.1696 201.665 39.8249 202.525 37.6519 203.176C35.1757 203.918 31.44 204.825 29.0605 204.422C28.0495 204.251 27.285 203.843 26.9623 203.087C26.1267 201.133 28.9352 198.277 31.4374 196.226L31.6831 196.57C31.7223 196.718 31.7631 196.865 31.8068 197.011C31.7859 197.027 31.7651 197.043 31.7469 197.06L31.6214 196.891C30.4867 197.864 29.6898 198.713 29.2263 199.448C27.8027 201.05 27.448 202.153 27.6937 202.729C28.1368 203.765 30.9529 204.287 37.4352 202.345C39.2533 201.8 41.1941 201.107 43.1947 200.289C43.5871 200.45 44.0496 200.566 44.5769 200.639Z" fill="white"/>
<path d="M30.3858 204.645C29.906 204.645 29.4529 204.614 29.0385 204.544C27.8995 204.351 27.1617 203.876 26.8445 203.134C25.9797 201.112 28.8204 198.21 31.3555 196.131C31.3833 196.109 31.4165 196.098 31.4547 196.103C31.4901 196.107 31.5218 196.126 31.5425 196.155L31.7884 196.499C31.7971 196.511 31.8031 196.525 31.8069 196.539C31.8457 196.686 31.886 196.832 31.9291 196.976C31.9433 197.024 31.9269 197.076 31.8866 197.107C31.8686 197.121 31.8512 197.135 31.8353 197.149C31.8092 197.174 31.7725 197.184 31.736 197.183C31.6995 197.18 31.6657 197.161 31.6445 197.132L31.6008 197.074C30.5342 197.999 29.7725 198.818 29.3352 199.512C28.1144 200.888 27.549 202.067 27.8117 202.681C28.1514 203.477 30.5555 204.277 37.398 202.227C39.2143 201.682 41.1483 200.992 43.1456 200.175C43.1772 200.162 43.2132 200.162 43.2449 200.175C43.6239 200.331 44.0781 200.445 44.595 200.517C44.6511 200.524 44.6952 200.567 44.7029 200.622C44.7105 200.677 44.6801 200.73 44.6282 200.752C42.1974 201.788 39.8632 202.643 37.6898 203.294C35.5112 203.946 32.6497 204.645 30.3858 204.645ZM31.4131 196.408C28.9703 198.426 26.2854 201.182 27.0799 203.039C27.3612 203.698 28.0346 204.123 29.0821 204.3C31.4027 204.694 35.0015 203.841 37.6143 203.057C39.6618 202.445 41.8537 201.649 44.1356 200.691C43.7893 200.623 43.4741 200.533 43.1955 200.423C41.2075 201.234 39.2822 201.92 37.473 202.463C30.9185 204.426 28.0613 203.912 27.576 202.776C27.2674 202.053 27.8192 200.842 29.13 199.367C29.5891 198.635 30.3802 197.79 31.5368 196.798C31.5565 196.782 31.5799 196.772 31.6049 196.768C31.5919 196.72 31.5788 196.671 31.5656 196.622L31.4131 196.408Z" fill="white"/>
<path d="M31.6216 196.892L31.7472 197.06C30.6758 197.951 29.8482 198.748 29.2266 199.448C29.6901 198.713 30.4871 197.864 31.6216 196.892Z" fill="white"/>
<path d="M29.2266 199.571C29.2004 199.571 29.1742 199.564 29.1513 199.547C29.0978 199.51 29.0832 199.438 29.118 199.383C29.5891 198.635 30.3803 197.79 31.5368 196.798C31.564 196.776 31.6 196.764 31.6355 196.768C31.6709 196.772 31.7031 196.791 31.7244 196.819L31.8503 196.988C31.8891 197.04 31.8804 197.112 31.8301 197.154C30.8181 197.995 29.9746 198.794 29.323 199.528C29.2979 199.556 29.2625 199.571 29.2266 199.571Z" fill="white"/>
<path d="M31.6831 196.571L31.9265 196.912C31.886 196.946 31.8457 196.979 31.8067 197.012C31.7631 196.866 31.7223 196.719 31.6831 196.571Z" fill="white"/>
<path d="M31.8065 197.135C31.7945 197.135 31.7819 197.134 31.7705 197.13C31.7285 197.118 31.6964 197.087 31.6844 197.046C31.6402 196.899 31.5988 196.751 31.5601 196.601C31.5448 196.543 31.5749 196.483 31.6305 196.459C31.6866 196.433 31.7521 196.451 31.788 196.501L32.0313 196.842C32.0683 196.894 32.0591 196.964 32.01 197.005L31.8896 197.106C31.8659 197.125 31.8365 197.135 31.8065 197.135Z" fill="white"/>
<path d="M58.9809 192.72C56.0478 194.805 52.4809 196.895 48.6654 198.765C47.2954 199.438 45.9267 200.063 44.577 200.638C44.0497 200.565 43.587 200.448 43.1948 200.288C44.8778 199.601 46.6035 198.826 48.3314 197.98C52.1086 196.129 55.6367 194.061 58.5363 192.001C64.1466 188.016 65.619 185.391 65.1774 184.354C64.9315 183.78 63.9238 183.346 61.8685 183.449C60.9645 183.495 59.8578 183.645 58.5233 183.933C58.45 183.949 58.3751 183.965 58.3003 183.982L58.137 183.137C61.2211 182.45 65.0747 182.042 65.909 183.995C66.9934 186.533 62.0344 190.55 58.9809 192.72Z" fill="white"/>
<path d="M44.5765 200.762C44.5705 200.762 44.5646 200.762 44.5586 200.761C44.0204 200.687 43.5449 200.566 43.1453 200.403C43.0984 200.383 43.0673 200.338 43.0679 200.289C43.0679 200.239 43.0984 200.194 43.1458 200.175C44.8301 199.488 46.5559 198.712 48.274 197.871C52.0407 196.025 55.5636 193.962 58.4611 191.903C64.3963 187.687 65.4012 185.205 65.0594 184.403C64.7998 183.797 63.6052 183.488 61.875 183.574C60.9257 183.622 59.8073 183.784 58.551 184.055L58.3286 184.104C58.2927 184.111 58.2588 184.105 58.2305 184.086C58.2015 184.068 58.1814 184.039 58.1754 184.006L58.0118 183.161C57.9987 183.096 58.0418 183.033 58.1083 183.018C61.2397 182.32 65.158 181.915 66.0265 183.949C67.1438 186.564 62.1389 190.63 59.0559 192.821C56.118 194.91 52.5449 197.003 48.7221 198.877C47.3677 199.542 45.9898 200.173 44.6278 200.752C44.6114 200.759 44.594 200.762 44.5765 200.762ZM43.5372 200.282C43.841 200.381 44.1828 200.458 44.5586 200.511C45.9058 199.938 47.268 199.314 48.6077 198.656C52.418 196.789 55.9791 194.702 58.9055 192.622C61.9284 190.474 66.8417 186.503 65.791 184.044C65.001 182.193 61.2997 182.571 58.2844 183.232L58.4011 183.834L58.4949 183.814C59.7659 183.54 60.8983 183.376 61.8618 183.327C64.423 183.198 65.1143 183.886 65.2948 184.308C65.7763 185.439 64.2734 188.08 58.6115 192.102C55.7025 194.169 52.1676 196.24 48.3884 198.092C46.7647 198.887 45.1343 199.623 43.5372 200.282Z" fill="white"/>
<path d="M67.779 183.959C68.6784 186.065 65.7562 189.743 60.5796 193.597C57.5149 195.88 53.659 198.225 49.3385 200.342C45.0173 202.461 40.8402 204.053 37.2246 205.045C31.1177 206.721 26.6106 206.685 25.7112 204.578C24.8945 202.665 27.2287 199.458 31.5395 195.998C31.6879 196.642 31.8756 197.283 32.1045 197.917C30.9131 198.97 30.3278 199.804 30.5342 200.287C30.7445 200.78 31.7494 200.844 33.3231 200.549C36.3637 199.977 41.5286 198.061 47.1813 195.29C52.8345 192.519 57.5646 189.585 59.9564 187.494C61.1935 186.412 61.805 185.555 61.5947 185.063C61.3885 184.58 60.4167 184.508 58.8946 184.785C58.5968 184.186 58.2672 183.615 57.9091 183.073C63.171 181.841 66.9621 182.046 67.779 183.959Z" fill="white"/>
<path d="M29.9623 206.8C27.4039 206.8 25.7387 206.127 25.17 204.795C23.9464 201.929 28.4017 197.778 31.1662 195.559C31.3232 195.432 31.538 195.394 31.7294 195.459C31.9225 195.523 32.067 195.68 32.1117 195.873C32.2562 196.501 32.44 197.125 32.6575 197.727C32.7355 197.943 32.6734 198.182 32.4994 198.336C31.0954 199.577 31.0784 200.041 31.0795 200.079C31.091 200.084 31.2246 200.16 31.7088 200.16C32.0332 200.16 32.5125 200.121 33.2115 199.99C36.2928 199.411 41.5442 197.415 46.9171 194.781C52.2907 192.148 57.137 189.193 59.5645 187.071C61.0312 185.787 61.0503 185.309 61.0492 185.27C61.0334 185.28 60.9026 185.189 60.42 185.189C60.1092 185.189 59.6555 185.225 59.0023 185.344C58.7411 185.392 58.4816 185.263 58.3666 185.032C58.0842 184.463 57.7646 183.907 57.4156 183.379C57.3136 183.224 57.2946 183.031 57.3655 182.86C57.4358 182.689 57.5873 182.562 57.7717 182.519C63.6491 181.142 67.3962 181.576 68.3203 183.74C69.3105 186.059 66.6192 189.816 60.9364 194.048C57.7335 196.433 53.8143 198.785 49.6027 200.849C45.3899 202.914 41.1653 204.554 37.3839 205.592C34.4421 206.399 31.936 206.8 29.9623 206.8ZM31.2006 197.021C27.513 200.123 25.6286 202.898 26.2528 204.36C26.9731 206.047 31.2163 206.101 37.0653 204.497C40.7748 203.479 44.9274 201.866 49.0747 199.834C53.222 197.801 57.0769 195.488 60.2231 193.145C65.2215 189.423 67.9751 185.902 67.2374 184.176C66.6245 182.741 63.4347 182.475 58.8311 183.45C58.968 183.681 59.0994 183.915 59.2248 184.152C60.3851 183.977 61.7498 183.94 62.1359 184.844C62.4559 185.593 61.8877 186.569 60.349 187.916C57.8114 190.134 52.988 193.08 47.4449 195.797C41.9002 198.515 36.6623 200.499 33.4338 201.106C32.1677 201.344 30.435 201.539 29.9928 200.504C29.6983 199.814 30.1547 198.935 31.4284 197.75C31.3472 197.51 31.2714 197.266 31.2006 197.021Z" fill="white"/>
<g opacity="0.41">
<path d="M59.9598 187.545C59.6814 187.789 59.3719 188.043 59.0322 188.308C58.8928 187.893 58.7359 187.48 58.562 187.072C58.5346 187.008 58.5069 186.946 58.4793 186.883C58.3781 186.652 58.2721 186.426 58.161 186.204C57.8634 185.604 57.5332 185.032 57.1757 184.491C57.1327 184.426 57.0888 184.361 57.0448 184.297C56.4995 183.498 55.8909 182.765 55.2303 182.104C53.996 180.867 52.5813 179.876 51.0564 179.163C47.3421 177.424 42.9786 177.322 39.0024 179.271C36.3481 180.572 34.2259 182.611 32.7515 185.057C34.2119 182.007 36.6037 179.441 39.7401 177.904C43.7162 175.955 48.0798 176.056 51.7932 177.796C53.3179 178.51 54.7337 179.5 55.9678 180.737C56.6276 181.398 57.2363 182.131 57.7816 182.93C57.8265 182.994 57.8695 183.059 57.9125 183.124C58.2709 183.666 58.6003 184.236 58.8979 184.836C59.0089 185.059 59.1149 185.285 59.2162 185.515C59.2447 185.578 59.2723 185.641 59.2988 185.705C59.5574 186.311 59.7776 186.926 59.9598 187.545Z" fill="white"/>
<path d="M59.0321 188.432C59.0201 188.432 59.0075 188.43 58.9955 188.427C58.9558 188.415 58.9241 188.385 58.911 188.346C58.7731 187.935 58.6165 187.523 58.4442 187.12L58.3701 186.95C58.2621 186.703 58.1563 186.478 58.0467 186.258C57.7571 185.675 57.4284 185.103 57.0685 184.558L56.9387 184.366C56.4049 183.583 55.7991 182.851 55.1388 182.19C53.9218 180.971 52.5298 179.99 51.0014 179.275C47.19 177.49 42.8377 177.529 39.0596 179.382C36.5159 180.629 34.3725 182.613 32.861 185.12C32.8266 185.177 32.7509 185.197 32.6925 185.167C32.632 185.137 32.6074 185.066 32.6358 185.006C34.1735 181.794 36.6102 179.3 39.6827 177.794C43.5328 175.907 47.9679 175.867 51.8479 177.685C53.4068 178.415 54.8239 179.413 56.0595 180.652C56.7319 181.326 57.3468 182.07 57.8878 182.862C57.932 182.926 57.9755 182.992 58.0192 183.058C58.3824 183.607 58.7166 184.187 59.0122 184.783C59.1245 185.008 59.2308 185.236 59.3333 185.467C59.3617 185.53 59.3901 185.594 59.4167 185.661C59.6719 186.257 59.896 186.881 60.082 187.512C60.0956 187.557 60.0808 187.606 60.0449 187.638C59.7635 187.884 59.4495 188.142 59.1114 188.405C59.0888 188.422 59.0604 188.432 59.0321 188.432ZM45.1405 177.717C47.1743 177.717 49.2093 178.162 51.1117 179.053C52.6674 179.78 54.0839 180.778 55.3222 182.018C55.9929 182.69 56.6085 183.434 57.1515 184.229L57.283 184.425C57.6482 184.978 57.9826 185.559 58.2759 186.15C58.3877 186.374 58.4946 186.603 58.5965 186.835L58.68 187.025C58.8305 187.378 58.9701 187.739 59.0955 188.1C59.3523 187.897 59.5939 187.698 59.8157 187.505C59.6368 186.908 59.4237 186.319 59.181 185.753C59.1549 185.688 59.1275 185.627 59.0997 185.565C58.9989 185.336 58.8936 185.112 58.7835 184.89C58.4923 184.303 58.1629 183.732 57.8058 183.191C57.7633 183.127 57.7207 183.063 57.6766 182.999C57.1434 182.219 56.5381 181.487 55.8767 180.824C54.6619 179.605 53.2698 178.624 51.7381 177.908C47.929 176.123 43.5767 176.162 39.7975 178.014C37.5166 179.132 35.5913 180.805 34.1338 182.918C35.4757 181.34 37.1071 180.062 38.9452 179.161C40.9081 178.199 43.0237 177.717 45.1405 177.717Z" fill="white"/>
</g>
<path d="M59.2952 185.651C59.5539 186.257 59.7741 186.872 59.9561 187.492C57.5643 189.583 52.8342 192.517 47.1811 195.288C41.5284 198.058 36.3634 199.975 33.3228 200.546C33.0041 199.993 32.714 199.413 32.4552 198.807C32.3289 198.511 32.212 198.214 32.1044 197.914C31.8756 197.281 31.6877 196.64 31.5393 195.995C29.8768 188.765 33.1843 181.062 39.736 177.85C46.2876 174.639 53.8899 176.995 57.9087 183.07C58.2668 183.612 58.5964 184.183 58.8942 184.783C59.0353 185.066 59.169 185.356 59.2952 185.651Z" fill="white"/>
<path d="M33.3227 201.115C33.1133 201.115 32.9158 201.006 32.8112 200.824C32.4808 200.251 32.1793 199.645 31.9137 199.025C31.7834 198.718 31.6624 198.411 31.5511 198.101C31.3189 197.458 31.122 196.791 30.9677 196.119C29.2185 188.512 32.7948 180.615 39.4721 177.342C46.1842 174.05 54.1478 176.331 58.4019 182.763C58.7765 183.33 59.1195 183.927 59.4221 184.536C59.5677 184.828 59.7062 185.127 59.8365 185.434C60.101 186.053 60.3311 186.693 60.5203 187.335C60.5814 187.544 60.5148 187.769 60.3485 187.914C57.8114 190.132 52.9881 193.078 47.4449 195.795C41.9002 198.513 36.6624 200.498 33.4339 201.104C33.3969 201.112 33.3598 201.115 33.3227 201.115ZM45.8642 176.987C43.8882 176.987 41.8904 177.431 39.9999 178.358C33.7954 181.399 30.4775 188.765 32.1116 195.871C32.2561 196.5 32.4399 197.124 32.6574 197.726C32.7616 198.016 32.875 198.304 32.9966 198.59C33.1885 199.038 33.4012 199.479 33.6302 199.903C36.7546 199.232 41.7807 197.297 46.9171 194.779C52.0937 192.242 56.7814 189.407 59.2879 187.305C59.133 186.82 58.9542 186.338 58.7536 185.869C58.7536 185.869 58.7536 185.868 58.7536 185.868C58.632 185.583 58.5033 185.304 58.367 185.031C58.084 184.461 57.7644 183.905 57.4154 183.377C54.6947 179.264 50.337 176.987 45.8642 176.987Z" fill="white"/>
<path d="M58.0991 186.279C58.3331 186.828 58.5323 187.384 58.697 187.944C56.5331 189.836 52.2541 192.49 47.1397 194.997C42.0259 197.504 37.3532 199.237 34.6025 199.755C34.3142 199.254 34.0517 198.729 33.8176 198.181C33.8065 198.155 33.7958 198.13 33.7852 198.104C33.6829 197.862 33.5881 197.618 33.5001 197.373C33.2931 196.8 33.1232 196.221 32.989 195.637C32.9835 195.614 32.9779 195.59 32.9729 195.566C32.7779 194.699 32.6617 193.826 32.6208 192.955C32.5429 191.297 32.7373 189.652 33.1784 188.091C34.2497 184.299 36.7773 181 40.4042 179.222C44.0014 177.459 47.9489 177.551 51.3088 179.124C52.6883 179.77 53.9686 180.666 55.0853 181.785C55.6826 182.383 56.2328 183.046 56.7263 183.769C56.7665 183.827 56.8057 183.885 56.8447 183.945C57.1686 184.435 57.4669 184.951 57.7362 185.494C57.8363 185.695 57.9324 185.9 58.0241 186.108C58.0496 186.165 58.0745 186.222 58.0991 186.279Z" fill="#FFB200"/>
<path d="M59.2607 193.467C59.213 194.05 59.1324 194.629 59.0185 195.199C58.86 196 58.6367 196.785 58.3535 197.544C57.125 200.836 54.7588 203.647 51.5118 205.239C48.2578 206.834 44.7169 206.911 41.5838 205.746C40.8957 205.49 40.2272 205.175 39.5863 204.802C39.0834 204.51 38.5978 204.183 38.1318 203.823C41.4029 202.926 45.1817 201.485 49.0911 199.569C52.9998 197.653 56.488 195.532 59.2607 193.467Z" fill="#FF9100"/>
<path d="M58.6968 187.942C56.5335 189.834 52.2539 192.488 47.1399 194.995C42.0258 197.501 37.3528 199.235 34.6021 199.753C34.3143 199.252 34.0519 198.727 33.8171 198.179C33.8061 198.153 33.7958 198.128 33.7848 198.102C33.6829 197.859 33.5878 197.616 33.5002 197.371C33.2933 196.799 33.1235 196.219 32.9887 195.635C32.9832 195.612 32.9778 195.588 32.9731 195.565C32.7783 194.697 32.6618 193.823 32.6206 192.952C32.5432 191.296 32.7375 189.65 33.1784 188.088C34.0452 185.022 35.8631 182.278 38.4464 180.4C37.7741 181.521 37.252 182.736 36.8935 184.005C36.4519 185.567 36.2576 187.211 36.3357 188.869C36.3762 189.74 36.4926 190.614 36.6876 191.48C36.693 191.505 36.6984 191.528 36.7038 191.552C36.7109 191.583 36.721 191.622 36.7335 191.667C37.4142 194.125 39.8841 195.154 42.2672 194.922C46.8096 194.481 56.6451 188.784 58.7375 187.47C58.8823 187.848 58.5839 187.559 58.6968 187.942Z" fill="#FF9100"/>
<path d="M49.0909 199.569C52.9997 197.653 56.488 195.532 59.2607 193.467C59.213 194.05 59.1324 194.629 59.0185 195.199C56.885 196.874 53.4741 198.947 49.5002 200.895C45.6939 202.76 42.1443 204.133 39.5863 204.802C39.0834 204.51 38.5978 204.183 38.1318 203.823C41.4027 202.926 45.1816 201.485 49.0909 199.569Z" fill="#D66B09"/>
<path d="M58.0242 186.107C58.0496 186.164 58.0745 186.221 58.099 186.279C58.3331 186.827 58.5323 187.383 58.697 187.944C56.5331 189.836 52.254 192.49 47.1397 194.996C42.0259 197.503 37.3532 199.237 34.6025 199.754C34.3141 199.254 34.0517 198.729 33.8175 198.18C33.8065 198.155 33.7958 198.129 33.7852 198.103C36.3942 197.782 41.151 196.104 46.3644 193.548C51.7837 190.892 56.2117 188.016 58.0242 186.107Z" fill="#D66B09"/>
<path d="M32.5986 193.435L32.6413 192.472C34.4611 192.565 39.2139 190.923 44.1992 188.479C50.1467 185.564 53.9843 182.777 54.7013 181.531L55.4675 182.037C54.5188 183.686 50.1408 186.627 44.5737 189.356C39.3902 191.897 34.5779 193.536 32.5986 193.435Z" fill="#D66B09"/>
<path d="M33.2465 188.567L33.1104 187.614C35.1555 187.278 38.6985 185.956 42.357 184.163C46.1905 182.284 49.5053 180.216 51.0076 178.766L51.61 179.482C50.0444 180.993 46.6424 183.123 42.7316 185.04C39.0025 186.868 35.368 188.219 33.2465 188.567Z" fill="#D66B09"/>
<path d="M32.9727 196.049L32.9732 195.084C35.0613 195.086 39.9723 193.367 45.1939 190.808C50.6708 188.123 55.2633 185.112 56.3619 183.486L57.091 184.052C55.8917 185.827 51.261 188.894 45.5684 191.685C40.1568 194.337 35.2126 196.05 32.9727 196.049Z" fill="#D66B09"/>
<path d="M41.6013 205.985L41.5843 205.746L41.4785 205.532L41.5199 205.509L41.5672 205.505C43.3723 205.357 46.8101 204.148 50.3253 202.425C53.86 200.693 56.876 198.756 58.1965 197.37L58.5113 197.715C57.1561 199.137 54.0911 201.11 50.5125 202.864C46.8983 204.635 43.4838 205.831 41.6013 205.985Z" fill="#D66B09"/>
<path d="M45.9641 207.1C43.0676 207.1 40.1881 206.14 37.7667 204.267L36.8735 203.576L37.9728 203.275C41.3256 202.355 45.0792 200.897 48.8267 199.06C52.5765 197.222 56.0612 195.131 58.9042 193.015L59.9489 192.236L59.8447 193.511C59.4106 198.831 56.3185 203.519 51.7759 205.745C49.9238 206.653 47.9401 207.1 45.9641 207.1ZM39.4378 204.039C43.0088 206.316 47.4357 206.598 51.2482 204.73C55.0568 202.863 57.7586 199.098 58.5127 194.716C55.836 196.599 52.6975 198.437 49.3556 200.076C45.9619 201.739 42.5588 203.098 39.4378 204.039Z" fill="#371A45"/>
<path d="M65.7738 184.747C66.5874 186.653 63.9437 189.979 59.2607 193.467C56.488 195.532 52.9997 197.653 49.0909 199.569C45.1817 201.485 41.4027 202.926 38.1317 203.823C32.607 205.339 28.5296 205.307 27.7159 203.401C26.977 201.671 29.0886 198.769 32.9886 195.639C33.1228 196.222 33.2926 196.801 33.4997 197.374C32.4218 198.327 31.8923 199.082 32.079 199.519C32.2693 199.965 33.1783 200.023 34.602 199.756C37.3527 199.239 42.0254 197.505 47.1392 194.998C52.2535 192.491 56.5326 189.837 58.6965 187.946C59.8157 186.967 60.3689 186.191 60.1786 185.746C59.992 185.309 59.1129 185.245 57.7358 185.495C57.4665 184.953 57.1682 184.436 56.8443 183.946C61.6051 182.831 65.0349 183.016 65.7738 184.747Z" fill="#FFD766"/>
<path d="M33.4178 197.141C33.4448 197.218 33.472 197.296 33.5003 197.373C32.4221 198.326 31.892 199.079 32.079 199.517C32.2699 199.964 33.1796 200.022 34.6024 199.754C36.4266 199.411 39.0982 198.532 42.1828 197.248C42.1337 197.536 42.1333 197.809 42.1835 198.06C40.9928 198.539 39.8386 198.962 38.7438 199.323C33.9836 200.89 31.5018 200.868 31.2098 200.184C31.0388 199.785 31.5332 198.778 33.4178 197.141Z" fill="#FFAA39"/>
<path d="M33.0633 196.447L33.1769 196.6C32.2076 197.406 31.459 198.126 30.8965 198.76C31.3158 198.095 32.0367 197.327 33.0633 196.447Z" fill="#FF9100"/>
<path d="M33.2901 196.753L33.1763 196.601C33.1927 196.586 33.2114 196.571 33.2303 196.557L33.2901 196.753Z" fill="#FF9100"/>
<path d="M30.8963 198.761C30.4562 199.453 30.3436 200.032 30.5477 200.511C30.7472 200.977 31.2159 201.238 31.8649 201.348C33.5576 201.635 36.4702 200.89 38.9569 200.071C40.0828 199.7 41.2699 199.263 42.4947 198.77C42.7302 199.088 43.08 199.338 43.5331 199.522C41.7233 200.262 39.9675 200.889 38.3226 201.382C32.4582 203.139 29.9106 202.667 29.5098 201.729C29.2875 201.208 29.6084 200.21 30.8963 198.761Z" fill="#FFAA39"/>
<path d="M48.8503 199.685C45.027 201.543 41.3359 202.943 38.1313 203.822C32.6069 205.338 28.5289 205.305 27.7152 203.399C26.9768 201.669 29.0893 198.768 32.9889 195.637C33.0287 195.81 33.0726 195.983 33.1189 196.156L32.8965 195.844C30.6329 197.7 28.092 200.284 28.848 202.051C29.14 202.735 29.8316 203.104 30.7462 203.259C32.8989 203.623 36.2784 202.803 38.5186 202.131C40.4845 201.543 42.6056 200.765 44.7835 199.837C45.8675 199.985 47.2471 199.93 48.8503 199.685Z" fill="#FFAA39"/>
<path d="M42.495 198.77C41.2702 199.263 40.0831 199.7 38.9572 200.071C36.4704 200.89 33.5579 201.635 31.8652 201.348C31.2162 201.238 30.7475 200.977 30.548 200.511C30.3439 200.032 30.4565 199.453 30.8966 198.761C31.4591 198.127 32.2077 197.406 33.177 196.601L33.2908 196.752C33.3318 196.883 33.3743 197.012 33.418 197.142C31.5334 198.78 31.0391 199.787 31.2099 200.186C31.5018 200.87 33.9837 200.892 38.7439 199.324C39.8387 198.964 40.9931 198.54 42.1837 198.061C42.2076 198.187 42.2439 198.306 42.2925 198.42C42.346 198.544 42.4135 198.662 42.495 198.77Z" fill="#FFCF6E"/>
<path d="M33.1759 196.601C32.2066 197.407 31.458 198.127 30.8955 198.761C31.3148 198.096 32.0359 197.328 33.0623 196.448L33.1759 196.601Z" fill="#FFEC90"/>
<path d="M33.2905 196.752L33.5179 197.056C33.4841 197.085 33.4503 197.113 33.4178 197.142C33.3741 197.012 33.3316 196.883 33.2905 196.752Z" fill="#FFEC90"/>
<path d="M56.0716 191.684C53.685 193.285 50.8072 194.926 47.7472 196.425C45.9681 197.297 44.1956 198.089 42.4944 198.772C42.4129 198.663 42.3455 198.546 42.292 198.421C42.2434 198.307 42.207 198.188 42.1831 198.063C43.8852 197.383 45.6616 196.59 47.445 195.716C50.476 194.23 53.3256 192.606 55.684 191.022C59.9032 188.188 61.5102 186.161 61.2193 185.479C61.0445 185.071 59.9772 184.811 57.5 185.304L57.4003 184.727L57.3669 184.536C58.665 184.277 59.6815 184.195 60.4265 184.29C61.1966 184.389 61.6768 184.677 61.8812 185.153C62.6015 186.84 59.1189 189.636 56.0716 191.684Z" fill="#FFEC90"/>
<path d="M44.7838 199.838C42.6059 200.767 40.4848 201.545 38.5189 202.133C36.2787 202.804 32.8992 203.625 30.7465 203.261C29.832 203.106 29.1403 202.737 28.8484 202.053C28.0924 200.286 30.6332 197.702 32.8968 195.846L33.1193 196.157C33.1547 196.291 33.1917 196.424 33.2312 196.556C33.2123 196.571 33.1934 196.585 33.1771 196.601L33.0636 196.448C32.0371 197.328 31.3162 198.096 30.8967 198.761C29.6088 200.21 29.2879 201.208 29.5102 201.729C29.911 202.667 32.4588 203.139 38.3231 201.382C39.9679 200.889 41.7237 200.262 43.5336 199.522C43.8883 199.667 44.3069 199.773 44.7838 199.838Z" fill="#FFCF6E"/>
<path d="M33.0633 196.448L33.1769 196.601C32.2076 197.407 31.459 198.127 30.8965 198.761C31.3158 198.096 32.0367 197.328 33.0633 196.448Z" fill="#FFAA39"/>
<path d="M33.1191 196.156L33.3395 196.465C33.3027 196.496 33.2663 196.525 33.231 196.555C33.1915 196.423 33.1545 196.29 33.1191 196.156Z" fill="#FFEC90"/>
<path d="M57.814 192.677C55.1605 194.563 51.9336 196.454 48.4818 198.146C47.2424 198.755 46.0042 199.321 44.7831 199.84C44.306 199.774 43.8875 199.669 43.5327 199.523C45.0552 198.902 46.6165 198.201 48.1796 197.436C51.5967 195.761 54.7885 193.891 57.4118 192.027C62.4872 188.421 63.8193 186.046 63.4198 185.109C63.1973 184.59 62.2857 184.197 60.4264 184.29C59.6086 184.332 58.6073 184.467 57.4001 184.727C57.3337 184.742 57.2661 184.757 57.1985 184.772L57.0507 184.008C59.841 183.386 63.3272 183.017 64.0819 184.784C65.0627 187.08 60.5765 190.714 57.814 192.677Z" fill="#FFEC90"/>
<path d="M31.568 205.461C29.2251 205.461 27.6983 204.842 27.1748 203.617C26.0538 200.991 30.1024 197.215 32.6155 195.198L33.3527 194.606L33.561 195.512C33.6907 196.076 33.856 196.638 34.0528 197.184L34.1809 197.539L33.8946 197.792C32.8663 198.701 32.6732 199.142 32.6367 199.279C32.7676 199.329 33.2245 199.432 34.4912 199.195C37.2742 198.672 42.0196 196.868 46.8757 194.488C51.7317 192.108 56.1113 189.438 58.3049 187.52C59.3839 186.576 59.5841 186.12 59.6211 185.981C59.493 185.932 59.0503 185.832 57.8441 186.052L57.4031 186.132L57.2084 185.739C56.9538 185.226 56.6654 184.725 56.3512 184.25L55.9069 183.578L56.7074 183.39C62.0574 182.138 65.4675 182.542 66.3154 184.527C67.2216 186.649 64.7799 190.071 59.6175 193.916C56.7177 196.075 53.1692 198.205 49.3556 200.074C45.5415 201.944 41.716 203.429 38.2912 204.368C35.6297 205.099 33.3598 205.461 31.568 205.461ZM32.6524 196.659C29.3787 199.426 27.7058 201.889 28.2577 203.181C28.8983 204.681 32.712 204.717 37.9726 203.274C41.3253 202.353 45.079 200.896 48.8265 199.059C52.5763 197.221 56.061 195.13 58.904 193.013C63.4052 189.661 65.8888 186.501 65.2323 184.962C64.6919 183.697 61.8604 183.464 57.765 184.322C57.8692 184.5 57.9694 184.679 58.0659 184.861C59.1281 184.704 60.3609 184.685 60.7203 185.526C61.024 186.237 60.5207 187.113 59.0895 188.366C56.7895 190.376 52.4215 193.044 47.4035 195.503C42.3833 197.964 37.6396 199.762 34.7136 200.312C33.55 200.531 31.9546 200.708 31.538 199.734C31.2594 199.083 31.6568 198.295 32.8242 197.206C32.7638 197.025 32.7065 196.842 32.6524 196.659Z" fill="#371A45"/>
<g opacity="0.41">
<path d="M58.7003 187.992C58.4485 188.213 58.1684 188.443 57.861 188.682C57.7349 188.307 57.593 187.933 57.4356 187.564C57.4107 187.506 57.3857 187.45 57.3608 187.393C57.2693 187.184 57.1733 186.979 57.0729 186.778C56.8037 186.236 56.505 185.719 56.1814 185.229C56.1426 185.17 56.1028 185.112 56.063 185.054C55.5697 184.331 55.0191 183.667 54.4214 183.069C53.3048 181.95 52.0249 181.054 50.6454 180.409C47.2852 178.836 43.3376 178.743 39.7405 180.507C37.3393 181.684 35.4195 183.528 34.0854 185.741C35.4066 182.982 37.5704 180.66 40.4078 179.27C44.0049 177.507 47.9525 177.598 51.312 179.172C52.6913 179.818 53.9722 180.713 55.0887 181.833C55.6855 182.431 56.2362 183.094 56.7294 183.817C56.7701 183.875 56.8089 183.934 56.8478 183.993C57.1721 184.483 57.4701 184.999 57.7392 185.541C57.8396 185.743 57.9356 185.948 58.0271 186.156C58.0529 186.213 58.0779 186.269 58.1019 186.328C58.3361 186.876 58.5354 187.432 58.7003 187.992Z" fill="white"/>
</g>
<path d="M34.2979 200.391L34.0907 200.033C33.7919 199.514 33.5176 198.964 33.2755 198.399C33.1572 198.121 33.0476 197.842 32.9462 197.561C32.7347 196.974 32.5564 196.368 32.4168 195.761C30.8284 188.856 34.0765 181.686 40.1393 178.714C46.2414 175.725 53.4736 177.795 57.3374 183.637C57.6771 184.151 57.9884 184.692 58.2638 185.247C58.3958 185.512 58.5217 185.784 58.64 186.061C58.8799 186.622 59.0888 187.204 59.2605 187.789L59.3604 188.13L59.0888 188.367C56.7894 190.377 52.4214 193.046 47.4033 195.505C42.3831 197.966 37.6394 199.763 34.7134 200.313L34.2979 200.391ZM45.9473 178.496C44.1681 178.496 42.3693 178.896 40.6676 179.73C35.0765 182.471 32.0874 189.108 33.5606 195.514C33.6904 196.077 33.8557 196.64 34.0524 197.186C34.1468 197.447 34.2487 197.706 34.3583 197.964C34.5262 198.356 34.711 198.741 34.91 199.111C37.7351 198.497 42.2552 196.754 46.8746 194.489C51.5349 192.205 55.7558 189.655 58.0274 187.758C57.8905 187.331 57.7329 186.909 57.5568 186.498V186.497C57.4472 186.24 57.3306 185.988 57.2078 185.742C56.9532 185.228 56.6648 184.727 56.3507 184.252C53.9 180.547 49.9752 178.496 45.9473 178.496Z" fill="#371A45"/>
</svg>
