<svg width="41" height="41" viewBox="0 0 41 41" fill="none" xmlns="http://www.w3.org/2000/svg">
<g clip-path="url(#clip0_98_718)">
<path d="M31.125 0.5H9.875C4.69733 0.5 0.5 4.69733 0.5 9.875V31.125C0.5 36.3027 4.69733 40.5 9.875 40.5H31.125C36.3027 40.5 40.5 36.3027 40.5 31.125V9.875C40.5 4.69733 36.3027 0.5 31.125 0.5Z" fill="white"/>
<path d="M31.125 0.5H9.875C4.69733 0.5 0.5 4.69733 0.5 9.875V31.125C0.5 36.3027 4.69733 40.5 9.875 40.5H31.125C36.3027 40.5 40.5 36.3027 40.5 31.125V9.875C40.5 4.69733 36.3027 0.5 31.125 0.5Z" fill="#1D9BF0"/>
<path d="M31.6831 14.783C31.7003 15.0309 31.7003 15.2789 31.7003 15.5292C31.7003 23.1537 25.8959 31.9472 15.2823 31.9472V31.9425C12.1469 31.947 9.07641 31.049 6.4375 29.3558C6.89344 29.4106 7.35156 29.438 7.81094 29.4391C10.4097 29.4411 12.9337 28.5695 14.9773 26.9642C13.7732 26.9415 12.6064 26.543 11.6398 25.8246C10.6733 25.1061 9.9554 24.1036 9.58656 22.9572C10.4511 23.1239 11.3423 23.0899 12.1916 22.8578C9.49969 22.3139 7.56297 19.9487 7.56297 17.2019V17.1287C8.36546 17.5757 9.26356 17.8234 10.1817 17.8509C7.64641 16.1564 6.86484 12.7834 8.39578 10.1462C9.84442 11.9289 11.6519 13.3869 13.7007 14.4255C15.7495 15.4641 17.9939 16.06 20.2881 16.1747C20.0594 15.1901 20.0932 14.1626 20.3861 13.1952C20.679 12.2277 21.2208 11.3541 21.9573 10.6617C24.2814 8.47702 27.9366 8.58906 30.1213 10.9119C31.4134 10.6567 32.6526 10.183 33.7855 9.51109C33.3547 10.8471 32.4533 11.9812 31.2489 12.7023C32.3928 12.5676 33.5098 12.2614 34.5625 11.7941C33.7881 12.9537 32.8131 13.9658 31.6831 14.783Z" fill="white"/>
</g>
<defs>
<clipPath id="clip0_98_718">
<rect width="40" height="40" fill="white" transform="translate(0.5 0.5)"/>
</clipPath>
</defs>
</svg>
