<svg xmlns="http://www.w3.org/2000/svg" fill="none" viewBox="-0.5 -0.5 100 100" id="Create-New-Post--Streamline-Tokyo.svg" height="100" width="100"><desc>Create New Post Streamline Illustration: https://streamlinehq.com</desc><path fill="#319578" d="m59.66829 90.5256 0.0495 -0.2475h-0.0495c-7.425 -0.6435 -17.275698 2.0294999999999996 -24.700698 2.9699999999999998 -3.168 0.396 -11.1870495 0.4455 -11.7810495 -0.5445 -0.792 -1.287 -1.188 -4.257 -1.4849999999999999 -6.435 -2.673 -20.394000000000002 -9.206950500000001 -36.0855 -10.6919505 -51.183198000000004h-0.1485495c-0.594 0.5445 -1.98 -0.3464505 -2.475 0.5940495 -0.495 0.8415 0.5940495 2.4255 0.8415495 3.168 1.584 4.2075 1.7325 7.969500000000001 7.7219999999999995 41.6296485 0.594 3.267 1.089 6.5835 1.2375 9.9495 0.0495 1.4355 -0.0495 3.4155 1.4355 4.2075 2.3265000000000002 1.2375 6.038950499999999 0.891 8.5634505 1.0395 14.4045 0.6435 20.394049499999998 -1.584 26.5817475 -1.98 0.3465 0 4.7025 0.495 4.999499999999999 0.198 0.594 -0.6435 -0.2475 -2.475 -0.099 -3.366Z" stroke-width="1"></path><path fill="#ffffff" d="M61.598789999999994 82.8036c-3.069 -20.889000000000003 -6.237 -43.708648499999995 -6.237 -43.7581485 -5.0985000000000005 2.475 -12.375198 -0.4455 -12.375198 -8.8605 -5.0985000000000005 0.594 -10.197000000000001 1.0395 -15.345 1.3365 -3.9105000000000003 0.2475 -7.7715 0 -11.682 -0.099 -1.5345 -0.0495 -5.0489999999999995 -0.594 -5.0985000000000005 0.9405 -0.099 2.673 0.891 8.5635 1.4355 11.187000000000001 3.6630000000000003 16.8796485 7.2764999999999995 26.3836485 9.405 42.71864849999999 0.297 2.2275 0.693 5.0985000000000005 1.4849999999999999 6.435 0.594 0.99 8.6625 0.9405 11.781 0.5445 7.425 -0.99 17.275698 -3.6134999999999997 24.700698 -2.9699999999999998 1.3365 0 2.0294999999999996 -0.594 2.3265000000000002 -1.3365 0.7424999999999999 -1.782 -0.099 -4.3065 -0.396 -6.138Z" stroke-width="1"></path><path fill="#2e3847" d="M61.846289999999996 82.75410000000001c0 -0.1485 -0.1485 -0.2475 -0.297 -0.198 -0.1485 0 -0.2475 0.1485 -0.198 0.297 0.297 1.8315000000000001 1.1384999999999998 4.3065 0.396 6.039 -0.297 0.7424999999999999 -0.99 1.287 -2.2275 1.188 -7.4745 -0.594 -17.176698000000002 2.079 -24.651198 3.0195 -3.7125 0.495 -11.0879505 0.297 -11.5334505 -0.396 -0.792 -1.287 -1.1880495 -4.455 -1.4355495 -6.336 -1.3365 -10.296 -2.772 -15.7905 -5.148 -24.9975 -1.98 -7.7715 -5.6925 -21.483148500000002 -5.6925 -28.8586485 0.0495 -1.2375 3.5640495 -0.7424999999999999 4.8510495 -0.693 7.8705 0.1485 7.6724505 0.7424999999999999 27.026950499999998 -1.287 0.297 -0.0495 0.29704949999999997 -0.495 -0.0494505 -0.495 -19.206 1.98 -18.958499999999997 1.4355 -26.9775 1.287 -1.683 -0.0495 -5.247049499999999 -0.594 -5.3460495 1.188 0 0.792 0.049549499999999996 1.6335 0.0990495 2.4255 -0.396 0.5445 -1.9800494999999998 -0.396 -2.5740495 0.693 -0.594 0.9405 0.5445495 2.6235 0.8415495 3.4155 0.99 2.673 1.4354505 5.593500000000001 1.9304505 8.415 5.6925 32.1256485 6.8805495 39.2536485 6.9795495 43.4116485 0.0495 1.386 0.0495 3.267 1.5345 4.058999999999999 1.8315000000000001 0.99 4.5044505 0.99 6.830950499999999 0.99 2.871 0 2.3265000000000002 0.1485 6.138 0.1485 11.731499999999999 0 17.0775495 -1.7325 22.374198 -2.0294999999999996 0.495 0 4.752 0.5445 5.148 0.1485 0.792 -0.792 -0.099 -2.6235 0.0495 -3.5145 0.1485 0 0.4455 -0.0495 0.7424999999999999 -0.1485 0.7424999999999999 -0.2475 1.287 -0.7424999999999999 1.5345 -1.386 0.8415 -1.98 -0.0495 -4.5045 -0.3465 -6.3855Zm-2.2769999999999997 10.988999999999999c-0.4455 0.198 -4.6530000000000005 -0.2475 -4.851 -0.2475 -1.98 0.1485 -3.96 0.396 -5.8906485 0.7424999999999999 -6.831 1.089 -13.7610495 1.5345 -20.6415495 1.2375 -2.5244999999999997 -0.099 -6.1875 0.198 -8.464500000000001 -0.99 -1.287 -0.693 -1.2375 -2.5244999999999997 -1.287 -4.0095 -0.198 -5.0489999999999995 -1.1879505000000001 -9.5535 -2.0789505000000004 -14.85 -4.455 -26.1856485 -4.3065495 -24.700499999999998 -5.049049500000001 -28.8586485 -0.396 -2.3265000000000002 -1.0395 -6.336 -2.178 -8.5635 -0.3465 -0.7424999999999999 -0.891 -1.8315000000000001 -0.594 -2.3265000000000002 0.396 -0.6435 1.5345 -0.0495 2.2275 -0.396 0.99 9.3555 3.564 17.622148499999998 7.7715 34.8481485 3.1185 13.068 2.8215 19.899 4.4055 22.572 0.7424999999999999 1.287 9.6525495 0.9405 12.0285495 0.6435 7.3755 -0.9405 17.077648500000002 -3.564 24.502648500000003 -3.0195 -0.1485 0.891 0.594 2.7225 0.099 3.2175Z" stroke-width="1"></path><path fill="#55f2c3" d="M52.639289999999995 22.5124515c-6.484698 -0.7424999999999999 -11.9297475 5.9399999999999995 -8.8607475 12.4245 2.079 4.356 7.2767475 6.1875 11.5832475 4.1085 2.7225 -1.287 4.6035 -3.9105000000000003 4.95 -6.8805000000000005 0.5445 -4.752 -2.9205 -9.107999999999999 -7.6725 -9.6525Z" stroke-width="1"></path><path fill="#e3e5ed" d="m56.747789999999995 29.8879515 0.0495 1.98 -4.158 0.1485 0.099 4.0095 -2.079 0.0495 -0.0495 -4.0095 -4.1087475 0.099 -0.0494505 -2.0294999999999996 4.1086979999999995 -0.099 -0.0495 -4.0095 2.079 -0.0495 0.0495 4.0095 4.1085 -0.099Z" stroke-width="1"></path><path fill="#2e3847" d="M56.54979 46.421001c-0.099 0 -0.198 -0.0495 -0.2475 -0.1485 -0.6435 -1.98 -0.891 -4.851 -1.1384999999999998 -7.029 0 -0.1485 0.099 -0.2475 0.198 -0.2475 0.1485 0 0.2475 0.0989505 0.2475 0.19795049999999997 0.198 2.079 0.4455 4.95 1.089 6.93 0.1485 0.1485 0 0.29704949999999997 -0.1485 0.29704949999999997Z" stroke-width="1"></path><path fill="#ffc42f" d="M22.493394000000002 15.384451499999999c-0.9405 -0.5445 -2.178 0 -3.0195 -0.792 -1.1384999999999998 -1.089 -0.3465 -4.752 -3.069 -3.3165 0 0 0.099 0.2475 0.099 0.396l0.297 0.891c0.693 2.475 1.089 4.257 2.2275 4.553999999999999 0.8415 0.198 1.881 -0.396 2.574 0.4455 0.792 0.9405 0.6435 2.5244999999999997 1.1384999999999998 3.6630000000000003 0.3465 0.6435 0.99 0.7424505 1.4355 0.39595050000000004 0.5445 -0.396 -0.099 -1.8314504999999999 -0.198 -2.2769505 -0.2475 -1.1384999999999998 -0.3465 -3.366 -1.4849999999999999 -3.96Z" stroke-width="1"></path><path fill="#ffc42f" d="M17.5929435 18.799902c-1.0395 -0.1485 -2.0790495 0.792 -3.1185495 0.3465 -1.4355 -0.594 -1.881 -4.3065 -3.96 -1.98 2.079 2.772 3.0690494999999998 4.6530000000000005 4.3560495 4.5045 0.8415 -0.099 1.6829505 -1.0395 2.5739505 -0.495 1.0395 0.594 1.386 2.1285 2.2275 3.0195 0.396 0.396 1.1384999999999998 0.396 1.5345 -0.099 0.3465 -0.5445 -0.6435 -1.683 -0.9405 -2.079 -0.6435 -0.99 -1.4354505 -3.0195 -2.6729505 -3.2175Z" stroke-width="1"></path><path fill="#fce0d1" d="M85.061295 78.5961c-0.0495 -1.089 -0.2475 -3.0195 -0.7424999999999999 -4.0095 -0.099 -0.099 -0.2475 -0.198 -0.3465 -0.297 -1.2375 -0.8415 -2.178 -2.871 -2.8215 -4.1085 -2.673 -5.1975 -2.5244999999999997 -9.6525 -4.999499999999999 -14.4045 -1.98 -3.6630000000000003 -5.8905 -4.553999999999999 -9.454500000000001 -6.088500000000001 -3.6630000000000003 -1.584198 -6.831 -3.9601980000000006 -10.197000000000001 -3.564198 -3.0195 0.396 -5.4944999999999995 2.9205495 -7.672401 5.098698 -1.98 1.98 -3.6630495 3.2175 -5.5935495 4.851 -1.1384999999999998 0.99 -2.871 2.7225 -2.5244999999999997 4.0095 0.1485 0.594 0.5940495 0.99 1.1880495 1.1384999999999998l0.0989505 0.099c-1.1384999999999998 1.0395 -1.5345 2.673 -0.99 4.058999999999999 -0.198 0.0495 -0.7424999999999999 1.386 -0.792 1.4355 -0.594 1.287 -1.9799505 3.366 -1.0889505 4.8015 0.5445 0.693 1.386 1.0395 2.2275 0.891 0.891 -0.1485 1.683 -0.594 2.2275 -1.287l0.0989505 0.099c0.099 0.7424999999999999 0.099 1.4849999999999999 0 2.2275 -0.198 1.287 -0.5445 3.8609999999999998 1.287 4.2075 0.792 0.099 1.5345 -0.1485 2.178 -0.693 0.0495 0.0495 1.0890495 4.9005 3.6629505 2.772 1.287 -1.0395 1.4849999999999999 -2.9205 1.4849999999999999 -4.5045 0 -0.891 0.594 -2.6235 1.4355 -3.267 4.3065 1.98 5.643 5.0985000000000005 7.4745 9.504 1.98 4.752 4.158 9.107999999999999 8.464500000000001 11.9295v0.0495c3.069 2.2275 8.217 4.8015 11.2365 1.287 1.683 -1.98 2.673 -4.6035 3.2175 -7.128 0.6435 -3.069 1.0395 -6.088500000000001 0.9405 -9.107999999999999Z" stroke-width="1"></path><path fill="#6df17b" d="M89.516295 58.7961c-2.2769999999999997 0.099 -6.6825 0 -8.9595 0.099 -5.791499999999999 0.2475 -9.504 0.594 -22.275 0.0495 -3.564 -0.1485 -7.8705 0.1485 -11.335450499999999 1.0395v0.0495c2.2275 0.1485 5.2964505 1.2375 7.4744505 2.3265000000000002l0.0495 -0.0495c1.7325 0.099 3.5145 0 5.247 -0.099 3.168 -0.2475 6.435 -0.198 9.603 -0.3465 3.7125 -0.198 7.3260000000000005 -0.099 9.998999999999999 -0.099 3.4155 0 7.3755 -0.4455 10.840499999999999 -0.7424999999999999 1.188 -0.1485 1.9304999999999999 -2.2769999999999997 -0.6435 -2.2275Z" stroke-width="1"></path><path fill="#6df17b" d="M41.897394 61.3206c-0.594 -0.1485 -0.9900495000000001 -0.594 -1.1880495 -1.1384999999999998 -0.396 0 -3.1185 -0.9405 -3.168 1.683 0 0.6435 -0.0495 1.3365 0.297 2.0294999999999996 0.693 1.584 2.772 0.495 2.9205 0.495 -0.099 -1.089 0.3465 -2.2275 1.188 -2.9699999999999998l-0.0494505 -0.099Z" stroke-width="1"></path><path fill="#2e3847" d="M44.570394 66.0231c-1.881 0 -3.2175495 -1.98 -2.3265495 -3.8115 1.0395 -1.881 6.088500000000001 -2.2769999999999997 5.6925 0.4455 -0.198 1.287 -1.089 2.5244999999999997 -2.0294999999999996 3.267 -0.099 0.099 -0.2474505 0.0495 -0.3464505 -0.0495 -0.099 -0.099 -0.0495 -0.2475 0.0495 -0.3465 0.8415 -0.693 1.6829505 -1.782 1.8809505 -2.9699999999999998 0.297 -1.98 -3.96 -1.584 -4.752 -0.1485 -0.693 1.4355 0.396 3.069 1.9304999999999999 3.069 0.1485 0 0.2475 0.099 0.2475 0.2475s-0.19795049999999997 0.297 -0.3464505 0.297Z" stroke-width="1"></path><path fill="#2e3847" d="M77.735295 58.8951c-0.297 -1.0395 -0.7424999999999999 -2.1285 -1.3365 -3.168 -1.6335 -3.069 -4.6035 -4.257 -7.524 -5.346 -4.553999999999999 -1.7821485 -6.435 -3.2671979999999996 -9.3555 -4.158198 -4.4055 -1.3365 -7.623 1.7325495000000002 -10.8404505 4.900697999999999 -1.98 1.98 -3.6630000000000003 3.2175 -5.593500000000001 4.851 -1.1384999999999998 0.99 -2.9699999999999998 2.8215 -2.6235 4.257 0.1485 0.5445 0.5445 0.99 1.0395 1.188 -0.99 1.0395 -1.3365 2.574 -0.8415 3.96 -1.1384999999999998 2.574 -2.772 4.752 -1.7325 6.4845 0.495 0.6435 1.2375 1.0395 2.079 1.0395 0.7424999999999999 0 1.7325 -0.3465 2.475 -1.089 0.099 0.792 0 1.287 -0.0495 1.782 -0.198 1.386 -0.495 4.0095 1.5345 4.4055 0.7424999999999999 0.099 1.4354505 -0.099 2.0294505 -0.495 0.495 2.871 2.7225 3.564 4.0095 2.5244999999999997 1.386 -1.1384999999999998 1.584 -3.1185 1.584 -4.7025 0 -0.9405 0.396 -2.574 1.287 -3.0195 4.0095 1.98 5.346 4.9005 7.0785 9.107999999999999 1.98 4.8015 4.2075 9.306000000000001 8.613 12.177000000000001 0.099 0.099 0.2475 0.0495 0.3465 -0.0495 0.099 -0.099 0.0495 -0.2475 -0.0495 -0.3465 -3.9105000000000003 -2.574 -5.9399999999999995 -6.534 -7.7715 -10.3455 -0.99 -2.1285 -2.3265000000000002 -6.8805000000000005 -5.6925 -9.504 -0.891 -0.6435 -1.7325 -1.188 -2.6235 -1.584 -1.7325 -0.7424999999999999 -3.267 -1.287 -4.7519504999999995 -1.683 -1.7325 -0.495 -4.158 -1.5345 -5.841 -2.574 -0.8415 -0.5445 -1.5345495 -1.2375 -1.8810495 -2.178 -0.495 -1.3365 -0.14845049999999999 -2.8215 0.8910495 -3.762 0.198 -0.1485 0.396 -0.297 0.6435 -0.495 1.683 -1.1384999999999998 3.96 -0.9405 5.9895 -0.5445 5.1479505 1.188 8.1179505 3.762 12.8204505 4.999499999999999 2.6235 0.693 4.7025 0.8415 5.643 0.99 1.188 0.1485 1.4355 0.198 1.5345 -0.099 0.0495 -0.198 -0.1485 -0.396 -0.3465 -0.297 -0.198 0 -0.8415 -0.099 -1.089 -0.099 -1.1384999999999998 -0.1485 -2.9699999999999998 -0.297 -5.593500000000001 -0.99 -4.752 -1.2375 -7.5735 -3.762 -12.8205 -4.999499999999999 -2.5244999999999997 -0.495 -4.8509505 -0.594 -6.8804505 0.99 -0.495 -0.1485 -0.8415 -0.495 -0.99 -0.9405 -0.198 -0.8415 0.693 -2.2275 2.475 -3.762 1.98 -1.683 3.6134999999999997 -2.871 5.593500000000001 -4.851 2.1284505 -2.0791485 4.603450499999999 -4.6531484999999995 7.5239505 -5.0491485 2.376 -0.297 4.455 0.7424999999999999 7.425 2.2275 2.0294999999999996 1.0396485 2.6235 1.2871484999999998 4.752 2.1286485 2.9205 1.1384999999999998 5.742 2.2275 7.2764999999999995 5.148 0.5445 1.0395 0.99 2.079 1.287 3.1185 0.0495 0.1485 0.198 0.198 0.297 0.1485 -0.0495 0 0.0495 -0.1485 0 -0.297Zm-28.6109505 11.731499999999999c1.3364505 0.396 2.6729505 0.8415 4.1579505 1.4849999999999999 -0.891 0.7424999999999999 -1.2375 2.3265000000000002 -1.2375 3.267 0 1.4849999999999999 -0.1485 3.3165 -1.386 4.3065 -0.99 0.8415 -2.9204505 0.198 -3.2174505 -2.5244999999999997 1.881 -1.584 1.782 -4.4055 1.683 -6.534Zm-3.762 -1.386c0.9405 0.396 2.079 0.8415 3.267 1.2375 0.099 2.079 0.2474505 4.95 -1.6335495 6.435 -0.5445 0.495 -1.287 0.693 -1.98 0.6435 -1.584 -0.297 -1.2869504999999999 -2.574 -1.1384505 -3.8609999999999998 0.099 -0.594 0.198 -1.287 0 -2.3265000000000002 0.594 -0.6435 1.089 -1.3365 1.4849999999999999 -2.1285Zm-0.4455 -0.198c-0.396 0.792 -0.891 1.4849999999999999 -1.4849999999999999 2.1285 -1.089 1.2375 -3.0195 1.7325 -4.058999999999999 0.396 -0.792 -1.287 0.495 -3.3165 1.1384999999999998 -4.553999999999999 0.1485 -0.396 0.3465 -0.7424999999999999 0.495 -1.0395 0.7424999999999999 1.4355 1.881 2.079 3.9105000000000003 3.069Z" stroke-width="1"></path><path fill="#2e3847" d="M63.231795 54.7371c-0.297 0 -0.891 0.9405 -0.9405 0.99 -2.376 -0.198 -5.445 -2.1285 -7.8705 -1.1384999999999998 -1.2375 0.495 -2.079 1.4355 -2.9205 2.376 -0.5445 0.6435 -1.98 2.2769999999999997 -2.8214505 2.2769999999999997 -0.1485 0 -0.2475 0.099 -0.2475 0.2475s0.099 0.2475 0.2475 0.2475c1.0394504999999998 0 2.4749505000000003 -1.6335 3.1679505 -2.475 0.792 -0.9405 1.584 -1.8315000000000001 2.7225 -2.2769999999999997 2.1285 -0.891 4.999499999999999 0.792 7.3260000000000005 1.1384999999999998 -0.594 0.8415 -1.0395 1.782 -1.386 2.772 -0.0495 0.1485 0.0495 0.3465 0.2475 0.3465 0.4455 0 0 -0.693 1.98 -3.366 0.2475 -0.3465 0.4455 -0.594 0.5445 -0.693 0.3465 0 0.297 -0.4455 -0.0495 -0.4455Z" stroke-width="1"></path><path fill="#2e3847" d="M38.0858445 63.845099999999995c-0.0495 -0.1485 -0.1485 -0.198 -0.297 -0.198 -1.881 0.495 -3.8115 0.495 -5.544 0.0495 -0.1485 -0.0495 -1.0395 -0.297 -1.4355 -0.5445 0.1485 0 0.29704949999999997 -0.0495 0.3960495 -0.0495 1.683 -0.198 3.2669505 -0.8415 4.3559505 -1.683 0.198 -0.099 0.6435 -0.594 0.7424999999999999 -0.6435 0.297 0.1485 0.396 1.6335 1.1384999999999998 1.683 0.3465 0 0.3465 -0.495 0.0495 -0.495 -0.1485 0 -0.297 -0.495 -0.396 -0.7424999999999999 -0.1485 -0.4455 -0.2969505 -0.891 -0.6929504999999999 -0.9405 -0.396 -0.0495 -0.8415495 0.5445 -1.0890495 0.693 -1.2375 0.891 -2.7225 1.386 -4.2075 1.584 -0.198 0.0495 -0.7919505 0 -0.8909505 0.396 -0.1485 0.6435 1.2869504999999999 0.9405 1.8809505 1.1384999999999998 1.9304999999999999 0.495 3.96 0.4455 5.841 -0.0495 0.1485 0.099 0.198 -0.0495 0.1485 -0.198Z" stroke-width="1"></path><path fill="#6df17b" d="M35.907894 9.295852499999999c0 -0.0495 -1.1880495 -3.9105000000000003 -2.0790495 -5.94000495 -0.5445 -1.2375 -0.39595050000000004 -0.9405 -2.0294505 -0.495 -0.7424999999999999 0.2475 -3.3660495 1.089 -4.4055495 1.4849999999999999 -0.5445 0.198 -0.693 0.2474901 -0.2475 1.13850495 0.495 1.2375 1.1880495 3.1185 2.0790495 5.643 0.297 1.683 1.1879505000000001 1.4355 2.1779504999999997 1.188 4.058999999999999 -1.0395 4.8510495 -1.1384999999999998 4.5045494999999995 -3.0195Z" stroke-width="1"></path><path fill="#ffc42f" d="M31.502394 7.761303c-0.297 -0.297 -3.4649505 -1.782 -4.0094505 -2.0294999999999996 -0.6435 -0.297 -0.5940495 -0.297 -0.6435495 -0.3465 -0.3465 -0.099 -1.089 1.9304999999999999 -1.0395 1.881 1.4355 0.7424999999999999 3.4155 1.6335 4.95 2.178 0.2475 0.0495 1.4849999999999999 0 1.5345 -0.198 0 -0.396 -0.495 -1.2375 -0.792 -1.4849999999999999Z" stroke-width="1"></path><path fill="#2e3847" d="M31.650844499999998 7.513802999999999c-0.4455 -0.3465 -4.1579505 -2.2275 -4.8014505 -2.376 -0.6435 -0.1485 -1.3365 2.0295495000000003 -1.3365 2.0295495000000003 -0.099 0.297 0.19795049999999997 0.3464505 0.9404505 0.6929504999999999 0.1485 0.099 1.0395495 0.4455 1.6335495 0.6435 0.7424999999999999 0.396 2.4255 1.0395 2.6235 1.0395 0.396 0 1.683 0.099 1.782 -0.4455 0.099 -0.4455 -0.4950495 -1.3365 -0.8415495 -1.584Zm-5.1479505 -0.1485c-0.1485 -0.099 -0.3465 -0.1485 -0.4455 -0.2475 0.1485 -0.4455 0.5445 -1.3365 0.7424999999999999 -1.4849999999999999 0.099 0.0495 0.2475 0.099 0.4455 0.198 -0.297 0.495 -0.5445 1.0395 -0.7424999999999999 1.5345Zm1.3365 0.5445495c0.099 -0.198 0.198 -0.5445495 0.396 -0.8415495 0.0495 -0.099 0.0494505 -0.2475 -0.0990495 -0.3465 -0.099 -0.0495 -0.2474505 -0.0495 -0.3464505 0.099 -0.198 0.3465 -0.3465 0.693 -0.4455 0.9405 -0.1485 -0.0495 -0.29704949999999997 -0.099 -0.4455495 -0.198 0.198 -0.495 0.4455 -1.0395 0.7424999999999999 -1.5345 1.089 0.495 2.3265495 1.089 3.3660495 1.7325 -0.099 0.1485 -0.099 0.4455 -0.0495 0.5445 -0.297 0.099 -0.396 0.2475495 -0.4455 0.34654949999999995 -0.0495 0.099 0 0.2969505 0 0.39595050000000004 -0.891 -0.297 -1.6335495 -0.594 -2.3265495 -0.9405 -0.0495 -0.099 -0.19795049999999997 -0.14845049999999999 -0.3464505 -0.19795049999999997Zm3.2669505 1.1879505000000001c0 -0.0495 -0.0494505 -0.0495 -0.0494505 -0.297 0.099 -0.0495 0.2475 -0.0495 0.396 -0.198 0.099 -0.099 0.099 -0.5445 0.0495 -0.5445 0.2475 0.2475 0.495 0.7424999999999999 0.5445 0.9405 -0.198 0.0495 -0.5940495 0.099 -0.9405494999999999 0.099Z" stroke-width="1"></path><path fill="#2e3847" d="M28.4333445 6.276352500000001c-0.297 0 -0.3464505 -0.396 -0.0989505 -0.495 0.99 -0.3465 3.7125 -1.3365099 4.6035 -1.5345099000000002 0.1485 -0.0495 0.2475 0.049509899999999996 0.297 0.1980099 0.0495 0.1485 -0.0495 0.2474901 -0.198 0.2969901 -1.3365 0.3465099 -4.5045494999999995 1.5345099000000002 -4.603549500000001 1.5345099000000002Z" stroke-width="1"></path><path fill="#2e3847" d="M29.571894 6.9198525c-0.297 0 -0.3465 -0.396 -0.099 -0.495 0.594 -0.198 2.9699999999999998 -0.99 3.762 -1.2375 0.1485 -0.0495 0.2475 0.0495 0.297 0.1485 0.0495 0.1485 -0.049549499999999996 0.2474505 -0.1485495 0.2969505 -3.8115 1.287 -3.7124505 1.2870495 -3.8114505000000003 1.2870495Z" stroke-width="1"></path><path fill="#2e3847" d="M30.908394 7.1673525c0.5445 -0.198 2.2275495 -0.792 2.7720495 -0.99 0.1485 -0.0495 0.2474505 0 0.2969505 0.1485 0.0495 0.1485 0 0.2475 -0.1485 0.297 -0.5445 0.198 -2.2275 0.7424999999999999 -2.772 0.99 -0.297 0.1485 -0.4455 -0.3465 -0.1485 -0.4455Z" stroke-width="1"></path><path fill="#2e3847" d="M31.947943500000004 8.503803000000001c-0.297 0 -0.34654949999999995 -0.396 -0.0990495 -0.495l2.2275 -0.7424999999999999c0.297 -0.099 0.4455495 0.396 0.1485495 0.495 -1.1384999999999998 0.3465 -2.1285 0.7424999999999999 -2.2769999999999997 0.7424999999999999Z" stroke-width="1"></path><path fill="#2e3847" d="M32.442943500000005 9.493852500000001c-0.297 0 -0.34654949999999995 -0.396 -0.0990495 -0.495 0.9405 -0.3465 1.1385495 -0.4455 2.0790495 -0.693 0.1485 -0.0495 0.2475 0.0495 0.297 0.1485 0.0495 0.1485 -0.049549499999999996 0.2475 -0.1485495 0.297 -1.683 0.5445 -1.9799505 0.7424999999999999 -2.1284505 0.7424999999999999Z" stroke-width="1"></path><path fill="#ffc42f" d="M43.629695999999996 17.314902c-0.7424999999999999 0.1485 -1.4849999999999999 0.1485 -2.2275 0.1485 -0.8415 -0.1485 -1.6335 -0.4455 -2.4255 -0.8415 -0.495 -0.198 -1.1879505000000001 -0.0495 -1.3364505 -0.0495 -0.594 0.099 -1.188 0.7424999999999999 -1.4849999999999999 1.1384999999999998 -0.396 0.495 -0.9405494999999999 0.99 -1.1880495 1.5345 -0.297 0.7424999999999999 0.9405494999999999 3.4155 0.9405494999999999 3.4155s0.14845049999999999 -0.297 0.3464505 -0.594c0 0.396 0.6435 0.3465 0.8415 0.1485 0 0.0495 0.0495 0.297 0.099 0.4455 0.099 0.2475 0.396 0.5445 0.6435 0.396 0.3465 -0.1485 0.198 -0.8415495 0.099 -1.1880495 0.6435 1.287 1.584 0.891 1.089 -0.495 0.396 0.594 0.8415 1.089 1.188 0.495 0.099 0 1.3365 0.4950495 2.475 -0.5444505000000001 0.297 -0.2475 0.594 -0.396 0.99 -0.594 0.3465 -0.099 0.6435 -0.198 0.9405 -0.396 0.693 -0.594 -0.0495 -2.1780495 -0.495 -2.9205495 0 -0.0495 0 -0.19795049999999997 -0.495 -0.0989505Z" stroke-width="1"></path><path fill="#ffffff" d="M38.085696 18.799902c1.287 -4.257 2.0790495 -5.643 1.3365495 -5.791499999999999 -0.3465 -0.0495 -0.5940495 0.792 -0.6930495 1.0395 -0.3465 0.8415 -0.6434505 1.683 -0.8414505 2.475 -0.297 1.089 -0.099 0 -0.99 3.5145 -0.0495 0.3465 1.1879505000000001 -1.2375 1.1879505000000001 -1.2375Z" stroke-width="1"></path><path fill="#ffffff" d="M35.9077455 24.987402c0.099 0.0495 0.3464505 -0.396 0.39595050000000004 -0.495 0.396 -0.792 0.5940495 -1.7820494999999998 0.5940495 -2.1285494999999997 -0.297 0.1485 -0.6435 0.1485495 -0.693 -0.19795049999999997 -0.198 -0.495 -0.5445 2.7225 -0.297 2.8215Z" stroke-width="1"></path><path fill="#2e3847" d="M42.0952455 20.7303525c-0.099 -0.099 -0.2475495 -0.099 -0.34654949999999995 0 -0.792 0.8415 -1.8314504999999999 -0.594 -3.0194505 -0.1485 -0.396 0.1485 -0.792 0.5445 -1.0395 0.8415 -0.8415 0.99 -1.5345 0.9405 -1.0395 0 0.198 -0.3465 0.2969505 -0.6435 0.4454505 -0.8415 0.297 -0.396 0.9900495000000001 -1.3365 1.5840494999999999 -1.7325 0.198 -0.1485 0.0989505 -0.4455 -0.0990495 -0.4455 1.188 -4.2075 1.6830495 -4.752 1.3365495 -5.2965 -0.0495 -0.099 -0.19804950000000002 -0.2475 -0.3960495 -0.2475 -0.5445 -0.099 -0.8415 0.693 -0.9405 1.1384999999999998 -0.3465 1.089 -0.891 2.2275 -1.5345 4.7025 -0.0495 0.297 -0.39595050000000004 1.4849999999999999 -0.39595050000000004 1.7325 -0.1485 0.198 -0.2475495 0.396 -0.34654949999999995 0.594 -0.1485 0.297 -0.297 0.5445 -0.2475 1.0395 -0.0495 0.0495 -0.3464505 0.7424999999999999 -0.3464505 0.792 -0.099 0.5445 -0.1485 1.089 -0.0495 1.6335 0 0.297 0 0.7424999999999999 0.3465 0.7424999999999999 0.5445 0 1.0395 -1.7325 1.1384999999999998 -2.2769999999999997 0.495 0.7424999999999999 1.188 0.495 1.287 -0.1485 0.5445 0.4455 1.1384999999999998 0.1485 1.188 -0.4455 0.6435 0.396 1.1384505 -0.1485 1.1879505000000001 -0.891 0.4455 0.099 0.9405494999999999 0.099 1.3365495 -0.396 0.0495 -0.099 0.0495 -0.2475 -0.0495 -0.3465Zm-4.455 -2.772c0.4455 -1.584 1.1384999999999998 -3.366 1.287 -3.8609999999999998 0.2475 -0.693 0.3464505 -0.792 0.39595050000000004 -0.792 0.297 0.0495 -0.198 1.188 -0.792 3.168 -0.2475 0.7424999999999999 -0.4455 1.584 -0.693 2.3265000000000002 -0.1485 0.1485 -0.5444505000000001 0.594 -0.5939504999999999 0.693 0.1485 -0.5445 0.2475 -1.0395 0.396 -1.5345Zm-1.5345495 6.435c-0.1485 -1.1384999999999998 0.099 -1.584 0.198 -1.8315000000000001 0.099 0.0495 0.2475495 0.099 0.3960495 0.099 -0.1485 0.693 -0.3960495 1.3365 -0.5940495 1.7325Zm1.683 -1.5345c-0.0495 0.0495 -0.2474505 -0.099 -0.3464505 -0.297 -0.099 -0.1485 -0.0495 -0.099 -0.0495 -0.2475 0.1485 -0.099 0.2474505 -0.198 0.39595050000000004 -0.3465 0 0.099 0.198 0.8415 0 0.891Zm1.1880495 -0.396c-0.1485 0.099 -0.4455 -0.2475 -0.594 -0.4455 -0.1485 -0.297 -0.1485 -0.3465 -0.198 -0.4455 0.099 -0.1485 0.396 -0.396 0.5445 -0.4455 -0.0495 0.0495 0 0.1485 0 0.198 0.198 0.297 0.495 0.99 0.2475 1.1384999999999998Zm1.188 -0.6435c-0.0495 0.0495 -0.0990495 0.1485 -0.1485495 0.1485 -0.099 0 -0.2474505 -0.0495 -0.39595050000000004 -0.2475 -0.198 -0.4455 -0.3465 -0.6435 -0.495 -0.7424999999999999 0.3465 0 0.7424999999999999 0.1485 1.089 0.297 0.0495 0.198 0.0495 0.396 -0.0495 0.5445Z" stroke-width="1"></path></svg>